<?xml version="1.0" standalone="no"?>
<!DOCTYPE svg PUBLIC "-//W3C//DTD SVG 20010904//EN"
 "http://www.w3.org/TR/2001/REC-SVG-20010904/DTD/svg10.dtd">
<svg version="1.0" xmlns="http://www.w3.org/2000/svg"
 width="720.000000pt" height="1117.000000pt" viewBox="0 0 720.000000 1117.000000"
 preserveAspectRatio="xMidYMid meet">
<metadata>
Created by potrace 1.16, written by Peter Selinger 2001-2019
</metadata>
<g transform="translate(0.000000,1117.000000) scale(0.100000,-0.100000)"
fill="#000000" stroke="none">
<path d="M4691 7929 c-33 -13 -205 -56 -315 -79 -50 -10 -165 -26 -256 -34
-91 -9 -212 -21 -270 -26 -531 -52 -860 -167 -1121 -391 -38 -33 -69 -55 -69
-48 0 6 14 36 31 65 28 49 31 74 9 74 -5 0 -38 -20 -74 -44 l-66 -44 0 46 c0
124 -102 214 -263 231 -107 12 -118 3 -68 -55 16 -18 42 -54 56 -79 29 -48 68
-145 60 -145 -3 0 -49 30 -103 66 -282 191 -692 327 -1092 363 -155 15 -160
14 -160 -6 1 -12 45 -43 138 -96 136 -77 209 -126 167 -112 -23 7 -205 61
-439 129 -88 26 -165 45 -173 42 -11 -4 -13 -94 -13 -493 0 -268 5 -518 10
-555 22 -153 83 -245 195 -294 36 -16 65 -32 65 -35 0 -12 -77 -21 -153 -17
l-72 3 -3 -28 c-6 -47 55 -202 109 -279 25 -35 24 -52 -2 -45 -26 7 -49 -1
-49 -17 0 -28 93 -116 156 -147 62 -31 64 -33 48 -51 -10 -10 -18 -36 -18 -61
l-1 -42 50 2 50 3 -43 -20 c-59 -27 -52 -45 31 -89 59 -30 80 -36 145 -38 43
-1 78 -3 80 -3 1 0 -9 -22 -23 -50 -14 -27 -25 -56 -25 -64 0 -20 27 -28 78
-20 l44 7 -18 -34 c-24 -45 -23 -116 2 -164 32 -61 45 -64 98 -20 54 44 59 31
14 -38 l-32 -50 30 -24 c46 -37 149 -65 193 -53 53 15 59 13 66 -19 8 -40 49
-83 70 -75 14 6 16 1 12 -24 -7 -45 16 -62 46 -33 37 33 39 25 9 -29 -35 -65
-22 -76 56 -45 31 13 76 26 100 30 l43 7 -3 -47 -3 -47 -60 -19 c-160 -51
-442 -103 -627 -115 l-98 -7 -47 37 c-26 20 -52 35 -57 33 -6 -2 -10 -23 -8
-47 l3 -43 -167 7 c-185 7 -348 26 -534 62 -78 15 -128 20 -134 14 -18 -18 62
-157 128 -225 l61 -63 -70 -4 c-148 -10 -246 -94 -306 -262 -25 -73 -40 -177
-27 -193 7 -9 54 -11 187 -6 117 4 180 3 184 -4 8 -12 -51 -20 -218 -29 -139
-8 -160 -15 -151 -51 18 -71 93 -228 128 -267 21 -24 38 -47 38 -51 0 -4 -28
-37 -62 -75 -35 -37 -87 -108 -117 -159 -29 -50 -57 -94 -62 -97 -5 -3 -9 -16
-9 -29 l0 -25 2480 0 c2341 0 2481 1 2487 18 4 9 10 19 13 22 4 3 -12 57 -36
120 -24 63 -43 123 -43 132 -1 12 11 21 37 28 59 15 122 63 172 129 59 78 172
287 168 308 -3 15 -18 18 -118 19 -120 2 -270 28 -253 45 5 5 102 10 216 10
129 1 209 5 213 11 4 6 -12 48 -36 93 -45 90 -127 188 -194 234 -48 33 -146
71 -181 71 -41 0 -29 13 50 53 42 22 105 67 145 104 66 61 81 85 62 97 -4 2
-71 -2 -148 -9 -579 -58 -1190 -35 -1524 56 -107 29 -236 98 -233 124 1 11 5
42 8 68 l6 49 57 -4 57 -3 -2 33 c-1 30 1 33 20 28 82 -24 124 -27 182 -14 40
9 61 19 63 30 2 8 -15 42 -37 73 -23 32 -41 62 -41 68 0 5 23 -11 51 -35 73
-62 77 -64 90 -51 7 7 22 49 34 95 l22 83 78 30 c43 17 81 37 83 44 2 7 -6 23
-19 37 -32 34 -14 30 33 -8 32 -25 42 -28 49 -17 12 19 12 22 -11 81 -11 29
-20 54 -20 56 0 1 31 2 68 2 38 0 95 5 128 11 92 17 110 41 44 59 -58 16 -59
30 -3 30 98 0 163 33 225 115 43 57 238 441 238 469 0 20 3 21 -120 -14 -96
-26 -118 -22 -60 12 105 61 171 163 215 330 41 159 52 257 85 773 11 174 28
285 60 401 31 109 20 117 -65 48 -105 -86 -240 -169 -370 -228 -72 -33 -140
-66 -153 -74 -12 -8 -25 -13 -27 -10 -3 3 39 41 92 85 54 44 134 116 179 159
99 97 244 264 244 281 0 15 -34 16 -69 2z m-41 -86 c-135 -156 -341 -347 -538
-497 -34 -26 -60 -51 -57 -56 6 -10 198 71 400 169 126 61 329 186 347 214 17
27 19 -7 4 -75 -27 -126 -35 -196 -51 -448 -27 -433 -62 -661 -121 -787 -35
-73 -126 -165 -216 -217 -38 -21 -68 -42 -68 -46 0 -11 192 8 258 26 21 6 13
-16 -76 -192 -55 -109 -117 -218 -136 -241 -53 -61 -103 -77 -218 -70 -51 3
-105 9 -120 13 -23 5 -28 3 -28 -13 0 -13 19 -30 60 -54 33 -19 60 -38 60 -42
0 -5 -51 -7 -114 -6 -63 2 -118 0 -122 -3 -3 -4 8 -28 25 -54 17 -26 29 -49
27 -51 -2 -3 -28 9 -58 26 -68 39 -87 28 -58 -30 11 -21 24 -40 30 -44 21 -13
9 -32 -27 -44 -21 -7 -44 -15 -50 -17 -9 -4 -13 7 -13 37 0 23 -10 78 -21 121
l-21 78 31 88 c53 150 62 230 11 97 -61 -158 -145 -296 -241 -400 -140 -150
-431 -302 -714 -372 -101 -25 -435 -25 -555 0 -286 61 -509 167 -655 313 -173
173 -246 308 -329 599 l-14 50 -1 -40 c0 -22 6 -71 15 -110 8 -38 17 -81 20
-95 5 -24 2 -26 -58 -42 -67 -18 -106 -14 -180 16 -51 22 -54 32 -13 46 76 25
176 94 109 75 -32 -9 -43 -9 -127 1 -34 4 -57 11 -57 19 0 16 29 41 58 49 29
9 30 46 2 46 -62 0 -210 81 -210 115 0 7 18 14 45 17 25 3 52 12 62 19 14 13
12 15 -23 19 -35 5 -42 11 -81 75 -40 65 -74 141 -88 198 -6 24 -5 24 82 29
95 6 208 42 208 67 0 9 -25 20 -71 31 -130 30 -194 84 -237 196 -22 58 -22 70
-25 583 -3 501 -2 523 15 516 10 -5 88 -28 173 -52 231 -64 372 -110 495 -159
60 -24 113 -44 117 -44 4 0 8 8 8 18 0 17 -152 122 -337 231 -40 24 -73 46
-73 50 0 10 142 -6 276 -30 322 -57 627 -180 881 -355 115 -80 162 -104 133
-70 -6 8 -18 44 -25 79 -13 64 -49 146 -87 200 -11 16 -18 30 -15 33 10 10
134 -29 171 -54 63 -43 78 -82 73 -180 -3 -45 -1 -85 4 -88 5 -2 28 13 52 36
56 51 69 51 51 3 -16 -45 -18 -90 -4 -98 5 -3 47 27 92 67 165 147 264 207
453 278 212 80 396 114 829 155 254 24 419 50 586 94 103 27 107 26 70 -16z
m-911 -2407 c6 -25 11 -72 11 -106 0 -61 -25 -196 -38 -204 -4 -2 -43 29 -87
69 l-79 73 49 54 c28 30 66 77 85 106 19 28 38 52 41 52 4 0 12 -20 18 -44z
m-2272 -50 l28 -39 -55 -48 c-29 -27 -57 -49 -62 -49 -14 0 -38 58 -38 93 0
20 12 52 31 82 l31 49 19 -25 c10 -13 31 -42 46 -63z m151 -167 l82 -76 -46
-22 c-34 -18 -54 -21 -82 -16 -30 6 -112 41 -112 48 0 1 14 29 30 61 17 32 30
65 30 73 0 22 9 15 98 -68z m1986 -152 c10 -15 15 -31 12 -35 -4 -4 -40 -7
-79 -6 -68 0 -156 28 -171 53 -3 5 29 41 70 81 l76 73 37 -69 c20 -38 45 -82
55 -97z m-290 21 c-63 -104 -74 -117 -126 -136 -158 -59 -360 -106 -508 -117
-72 -6 -88 -4 -99 9 -16 19 -43 20 -87 4 -39 -14 -126 -3 -299 39 -90 21 -119
33 -163 66 -29 22 -51 41 -49 43 2 2 26 -5 54 -16 160 -60 385 -95 578 -87
222 8 410 59 615 167 81 42 95 47 84 28z m-64 -183 c0 -18 -9 -29 -37 -44
-127 -64 -302 -114 -444 -126 -74 -7 -77 -6 -96 19 -22 27 -38 33 -48 17 -8
-15 325 -508 488 -721 67 -88 77 -106 77 -142 0 -37 -6 -47 -48 -87 -50 -49
-146 -104 -199 -116 -91 -19 -188 58 -241 192 -35 86 -94 315 -113 436 -10 68
-10 80 3 93 14 14 19 1 47 -113 69 -278 143 -461 206 -508 73 -56 178 -35 232
46 41 63 31 96 -74 241 -203 279 -265 369 -337 488 -63 103 -76 132 -76 166
l0 42 68 7 c173 15 389 63 537 119 54 20 55 20 55 -9z m-1140 -37 c19 -6 106
-25 194 -43 140 -28 185 -45 138 -52 -8 -1 -21 -8 -30 -16 -31 -27 -284 7
-328 44 -12 10 -21 79 -10 79 1 0 18 -5 36 -12z m443 -205 c3 -93 9 -178 12
-189 4 -14 2 -23 -8 -27 -41 -16 -56 41 -57 217 0 107 3 133 17 148 9 10 19
18 23 18 4 0 10 -75 13 -167z m685 135 c-3 -29 0 -33 22 -33 14 -1 55 -15 92
-33 136 -65 328 -106 628 -133 250 -23 827 -12 1073 20 32 4 60 4 63 0 8 -13
-106 -97 -181 -134 -38 -19 -108 -45 -155 -58 -50 -15 -86 -31 -88 -39 -2 -11
21 -14 130 -13 129 0 135 -1 200 -32 37 -17 90 -53 118 -79 52 -48 125 -154
135 -197 l6 -24 -213 -6 c-348 -11 -362 -23 -118 -107 19 -7 90 -14 158 -17
67 -3 122 -7 122 -10 0 -10 -77 -154 -111 -209 -46 -73 -115 -139 -167 -161
-27 -11 -55 -14 -104 -9 -54 5 -68 3 -68 -7 0 -8 17 -21 38 -29 35 -14 39 -20
75 -124 22 -60 41 -117 44 -126 5 -17 -6 -18 -138 -17 -79 1 -131 4 -116 6 42
7 42 26 1 82 -20 29 -34 54 -31 57 3 3 29 -8 59 -25 58 -33 88 -39 88 -18 0
35 -36 111 -72 152 -22 25 -39 47 -37 48 2 2 17 7 34 13 38 12 44 42 14 65
-25 19 -89 26 -89 10 0 -5 13 -14 30 -21 38 -16 31 -26 -23 -35 -76 -13 -83
-34 -19 -61 20 -8 45 -22 55 -32 22 -20 61 -92 50 -92 -5 0 -30 14 -58 30 -27
16 -61 30 -74 30 -20 0 -22 -3 -17 -27 4 -16 20 -50 36 -76 17 -27 30 -53 30
-58 0 -14 -50 -10 -107 10 -29 10 -53 14 -53 10 0 -15 65 -57 95 -62 17 -2
-60 -5 -169 -6 l-199 -1 6 49 c4 31 1 55 -6 65 -7 9 -64 34 -127 56 -187 63
-267 94 -269 105 -2 14 111 18 188 6 80 -13 230 -61 330 -107 41 -19 78 -34
82 -34 29 0 -15 168 -76 296 -93 193 -205 297 -364 337 l-54 14 50 30 c98 61
194 178 324 399 50 85 59 114 35 114 -7 0 -69 -22 -137 -50 -142 -56 -325
-110 -483 -142 -140 -28 -120 -35 37 -13 155 22 321 63 433 109 49 19 90 33
92 31 6 -6 -28 -66 -96 -170 -93 -142 -177 -223 -287 -277 -49 -24 -90 -48
-92 -54 -2 -7 28 -13 87 -17 72 -5 105 -12 153 -35 104 -49 200 -150 266 -279
25 -50 83 -225 76 -231 -2 -3 -31 7 -63 21 -211 95 -386 121 -570 86 -95 -19
-71 -35 193 -129 l240 -86 -3 -39 c-2 -22 -7 -43 -11 -48 -4 -4 -239 -6 -522
-5 l-514 3 54 28 c46 25 52 32 48 53 -4 20 -1 24 12 18 42 -18 57 -16 69 11
24 53 6 109 -57 178 l-40 44 39 38 c56 54 80 125 91 265 11 144 11 182 0 199
-7 11 -23 10 -96 -4 -58 -12 -90 -14 -97 -7 -7 7 7 15 41 27 28 9 54 21 57 26
16 27 -105 98 -182 107 -40 4 -50 10 -76 46 -63 87 -288 425 -288 434 0 5 37
12 83 15 106 8 230 40 337 87 47 21 88 38 93 39 4 1 6 -14 5 -31z m-1083 -62
c33 -9 95 -19 138 -23 42 -3 77 -8 77 -10 0 -4 -81 -98 -326 -379 -67 -77
-157 -172 -200 -213 -96 -91 -114 -116 -114 -161 0 -39 38 -128 63 -149 24
-19 22 -25 -27 -85 -24 -29 -55 -78 -69 -107 -27 -56 -54 -190 -42 -210 4 -6
19 -9 34 -6 25 4 250 51 301 63 82 18 -121 -92 -224 -122 -36 -10 -68 -25 -71
-34 -4 -9 6 -25 27 -42 l33 -27 -213 -1 c-148 0 -213 3 -210 11 2 6 7 10 11
10 4 0 30 7 59 15 73 22 149 66 145 84 -2 12 -22 15 -120 13 -111 -2 -117 -1
-108 16 33 61 130 104 221 98 37 -2 40 5 26 51 -7 21 -6 21 20 12 15 -6 29 -8
33 -5 11 12 -17 39 -49 48 -62 16 -103 -11 -65 -43 25 -21 17 -30 -28 -30 -65
0 -144 -44 -184 -104 -18 -26 -33 -57 -33 -68 0 -20 4 -20 98 -14 88 6 95 5
72 -8 -14 -8 -50 -18 -80 -22 -67 -8 -84 -19 -69 -45 9 -18 2 -19 -221 -19
l-230 0 -26 42 c-32 51 -74 143 -74 163 0 9 15 16 38 20 114 19 420 77 500 96
73 17 92 25 90 38 -2 11 -20 18 -58 24 -83 13 -351 0 -475 -22 -60 -11 -110
-19 -112 -18 -1 2 15 54 37 116 83 241 227 407 396 457 81 24 243 22 344 -4
41 -11 78 -18 83 -15 18 11 2 25 -74 64 -143 75 -233 185 -304 374 -14 36 -25
68 -25 70 0 14 26 1 82 -41 82 -60 190 -114 318 -159 120 -41 154 -42 54 -1
-84 35 -263 129 -295 155 l-24 19 35 5 c19 3 82 11 140 17 153 17 380 66 530
115 49 16 57 15 145 -9z m278 -100 c-29 -31 -92 -110 -193 -241 -79 -103 -167
-200 -281 -311 -128 -125 -135 -138 -108 -192 32 -65 166 -186 233 -211 67
-25 85 -26 129 -7 77 32 133 137 186 347 30 121 71 345 71 392 0 33 17 36 26
4 13 -56 -25 -388 -62 -532 -37 -145 -118 -252 -208 -276 -74 -20 -180 7 -268
67 -48 34 -145 155 -175 220 -18 39 -21 57 -14 75 5 13 51 65 101 114 82 81
354 383 485 540 28 33 61 72 75 88 l25 29 3 -37 c3 -30 -2 -44 -25 -69z
m-1908 5 c163 -27 292 -40 470 -45 l150 -5 22 -62 c37 -102 93 -190 164 -261
l67 -66 -122 -4 c-103 -4 -131 -8 -186 -31 -169 -70 -303 -242 -385 -490 -19
-60 -35 -117 -35 -129 0 -24 14 -23 170 7 86 16 360 33 349 21 -8 -8 -220 -51
-354 -71 -157 -23 -155 -22 -155 -48 0 -13 22 -68 50 -123 27 -54 50 -100 50
-101 0 -2 -160 -3 -355 -3 -195 0 -355 3 -355 7 0 12 62 117 93 158 17 22 53
63 80 92 43 44 54 51 78 46 16 -3 36 -3 45 1 25 10 -2 36 -37 36 -37 0 -93 50
-124 109 -30 60 -75 171 -75 186 0 8 35 15 108 19 122 8 344 34 367 43 24 9
13 36 -18 44 -67 18 -258 31 -359 24 l-108 -7 0 34 c0 119 91 286 183 334 47
24 170 30 246 10 76 -19 81 -20 81 -2 0 7 -27 30 -60 50 -76 47 -167 139 -204
206 l-29 53 34 -6 c19 -3 88 -15 154 -26z m1916 -165 c-30 -271 -93 -547 -153
-666 -36 -70 -82 -110 -128 -110 -53 0 -196 87 -176 107 6 7 60 -5 98 -22 30
-12 32 21 4 58 -33 42 -35 107 -6 155 11 17 22 32 25 32 4 0 28 -24 55 -52 63
-68 74 -60 69 51 -5 93 2 99 65 56 45 -31 58 -31 54 -3 -4 29 -79 68 -131 68
l-39 0 6 -47 c4 -27 9 -60 12 -75 7 -34 -8 -36 -29 -5 -8 12 -25 32 -37 45
-21 23 -23 23 -42 5 -11 -10 -31 -40 -45 -68 -21 -41 -24 -58 -20 -105 l6 -55
-50 0 c-47 0 -52 3 -80 39 -16 22 -29 44 -29 49 0 5 62 71 138 146 86 84 194
207 286 324 82 103 151 186 153 183 3 -2 0 -52 -6 -110z m327 -119 c61 -89
112 -165 112 -168 0 -4 -14 -12 -30 -19 -17 -7 -49 -26 -71 -42 l-39 -28 -9
22 c-27 70 -102 382 -100 417 0 13 2 13 12 -2 7 -11 63 -92 125 -180z m-189
-268 c26 -196 70 -415 128 -639 65 -248 63 -222 12 -218 l-43 3 -23 90 c-30
116 -60 288 -79 445 -14 119 -29 506 -19 485 2 -5 13 -80 24 -166z m384 -5
c26 -36 47 -74 47 -85 0 -11 8 -23 18 -26 44 -16 44 -71 -1 -119 -26 -28 -42
-37 -78 -41 -39 -4 -50 -1 -77 22 -32 27 -81 112 -108 187 -13 37 -13 37 26
68 37 29 95 59 115 59 6 0 31 -29 58 -65z m359 -206 c-6 -73 -17 -151 -24
-172 -13 -40 -50 -85 -103 -124 l-30 -22 41 -38 c53 -48 94 -108 94 -138 0
-29 -1 -29 -73 -4 -31 11 -63 20 -72 20 -26 0 -17 -35 15 -58 17 -13 30 -29
30 -36 0 -25 -80 -49 -168 -51 -68 -1 -86 -4 -93 -18 -8 -13 -23 -17 -63 -16
-30 1 -59 4 -64 8 -20 12 -162 595 -162 659 0 9 17 -14 38 -51 44 -81 81 -121
136 -149 62 -31 131 -28 209 10 164 81 230 180 182 273 -18 33 -18 32 55 47
25 5 49 5 54 0 6 -5 6 -57 -2 -140z m-788 -73 c9 -113 49 -351 79 -477 l24
-98 -63 0 -64 0 0 348 c1 334 10 418 24 227z m-62 -373 l3 -202 -49 0 -49 0 5
213 c6 220 6 218 60 348 l23 56 2 -106 c2 -58 4 -197 5 -309z m-583 254 c116
-118 307 -155 417 -80 20 14 37 24 38 22 2 -2 1 -92 -2 -200 l-4 -198 -254 0
c-247 0 -255 1 -289 23 -19 12 -33 26 -32 31 2 5 26 17 55 27 67 23 195 90
256 135 41 30 46 38 35 49 -12 11 -31 11 -114 -1 -55 -9 -144 -26 -198 -38
-78 -19 -100 -21 -104 -11 -7 21 25 134 50 174 24 41 86 111 96 111 4 0 26
-20 50 -44z"/>
<path d="M3531 7295 c-24 -7 -54 -24 -67 -36 l-24 -22 0 26 c0 37 -15 42 -55
17 -41 -25 -55 -48 -55 -87 l0 -28 23 32 c31 46 45 42 49 -14 4 -67 27 -69 55
-4 22 53 51 74 117 87 l39 7 -30 -44 c-85 -124 -75 -161 26 -104 24 14 46 23
49 21 5 -6 -31 -57 -53 -76 -16 -13 -20 -30 -7 -30 5 0 27 16 50 36 61 52 107
164 68 164 -8 0 -36 -18 -62 -40 -79 -65 -87 -50 -18 34 25 31 42 61 39 66 -9
14 -92 11 -144 -5z"/>
<path d="M1290 7048 c0 -6 6 -19 14 -27 24 -27 66 -113 66 -135 -1 -20 -2 -20
-21 4 -12 14 -32 46 -45 72 -13 27 -29 48 -34 48 -33 0 -40 -142 -10 -207 19
-43 16 -54 -9 -30 -10 10 -15 8 -27 -8 -17 -23 -11 -60 13 -87 24 -26 33 -22
26 12 l-6 30 36 -15 c20 -8 43 -15 52 -15 22 0 18 34 -6 56 -29 26 -56 82 -60
123 -2 18 -2 34 1 35 3 0 25 -20 49 -47 24 -26 52 -47 64 -47 18 0 19 5 14 60
-3 35 -14 75 -26 96 -12 20 -20 39 -17 41 7 7 45 -16 87 -54 22 -20 42 -33 45
-30 8 7 -20 58 -43 79 -46 42 -163 75 -163 46z"/>
<path d="M2945 6946 c-170 -53 -277 -238 -262 -451 10 -140 58 -245 149 -332
189 -178 506 -156 653 45 68 92 99 244 76 367 -32 172 -144 295 -328 362 -73
26 -218 31 -288 9z m277 -45 c81 -28 116 -48 169 -98 64 -59 105 -125 124
-198 41 -160 -5 -334 -114 -431 -14 -13 -54 -38 -89 -56 -53 -26 -77 -32 -145
-34 -68 -3 -74 -2 -37 5 213 40 300 141 300 350 0 242 -122 403 -335 442 -106
19 -193 -7 -255 -77 -102 -116 -117 -328 -34 -493 43 -86 84 -132 158 -176 66
-38 61 -47 -8 -14 -106 50 -195 164 -222 288 -32 142 -2 308 72 397 91 112
257 150 416 95z m-78 -146 c17 -17 9 -59 -20 -104 -39 -59 -119 -151 -128
-148 -6 2 -31 29 -55 60 -37 47 -45 66 -49 110 -3 41 0 56 12 66 22 19 58 2
82 -38 23 -39 39 -39 59 -2 14 29 60 71 76 71 4 0 14 -7 23 -15z"/>
<path d="M1880 6939 c-117 -23 -243 -125 -298 -242 -125 -263 -48 -502 179
-563 186 -49 398 49 475 219 23 53 28 79 32 173 3 84 0 124 -12 168 -35 120
-117 211 -219 241 -55 16 -89 17 -157 4z m185 -57 c125 -64 193 -229 165 -404
-19 -126 -71 -208 -165 -263 -67 -39 -94 -39 -30 -1 100 61 146 127 172 250
23 110 1 235 -56 313 -37 51 -136 103 -196 103 -161 0 -290 -134 -332 -345
-12 -65 -13 -91 -4 -135 22 -108 89 -192 177 -224 32 -12 35 -15 14 -15 -38
-1 -130 45 -173 87 -148 144 -70 484 141 609 96 57 207 66 287 25z m-101 -108
c37 -14 -3 -135 -63 -188 -20 -18 -21 -18 -75 14 -57 35 -81 69 -70 102 5 18
12 20 51 14 42 -5 49 -3 84 29 41 36 47 39 73 29z"/>
<path d="M3760 6272 c-45 -18 -70 -35 -225 -147 -44 -32 -118 -76 -165 -99
-83 -40 -87 -41 -190 -41 -122 0 -174 16 -386 114 -164 75 -241 101 -325 108
-119 10 -224 -20 -369 -105 -150 -88 -190 -105 -266 -110 -62 -4 -79 -1 -125
21 -56 26 -72 39 -174 147 -73 77 -131 120 -160 120 -27 0 -63 -37 -75 -79
-18 -64 23 -157 214 -476 190 -319 304 -459 458 -563 96 -65 154 -93 265 -131
220 -73 424 -70 639 11 225 85 398 234 584 503 156 225 213 297 336 427 121
126 142 165 130 231 -15 78 -78 104 -166 69z m114 -44 c21 -30 20 -76 -3 -113
-10 -16 -58 -70 -106 -120 -99 -103 -201 -230 -288 -360 -143 -213 -241 -326
-359 -416 -182 -136 -365 -199 -581 -199 -304 1 -588 148 -790 412 -110 144
-372 591 -403 687 -16 51 -16 55 1 87 11 21 26 34 38 34 12 0 67 -48 142 -124
105 -106 131 -127 181 -146 48 -18 72 -21 129 -17 81 6 131 26 258 102 158 94
204 109 332 110 129 0 153 -7 365 -105 177 -82 262 -110 360 -117 140 -10 236
29 444 177 184 131 247 156 280 108z"/>
<path d="M1425 6100 c-10 -16 288 -470 400 -610 119 -147 249 -253 383 -310
124 -52 185 -64 337 -64 152 0 213 11 337 64 180 77 305 198 503 490 95 141
166 231 263 333 61 65 72 80 62 92 -14 17 -15 17 -78 -43 -71 -66 -188 -147
-262 -181 -58 -27 -91 -36 -151 -39 -92 -5 -140 8 -311 82 -229 100 -361 135
-503 135 -107 1 -196 -23 -335 -89 -69 -32 -150 -65 -180 -71 -149 -32 -299
30 -395 165 -39 54 -58 66 -70 46z m972 -117 c-3 -16 -11 -63 -17 -105 -7 -43
-17 -78 -21 -78 -29 0 -112 171 -93 190 13 11 42 17 93 19 42 1 43 0 38 -26z
m-177 -125 c1 -68 5 -142 9 -165 5 -24 5 -43 1 -43 -24 0 -111 176 -125 250
-6 34 -5 36 42 57 26 12 54 22 61 22 9 1 12 -30 12 -121z m513 87 c33 -14 37
-18 31 -43 -22 -94 -100 -272 -125 -288 -9 -5 -10 0 -5 17 4 13 10 95 13 182
7 178 0 168 86 132z m123 -49 c16 -8 50 -24 77 -35 26 -11 47 -22 47 -25 0
-40 -48 -206 -59 -206 -8 0 -101 254 -101 273 0 10 3 9 36 -7z m-800 -33 c-3
-21 -6 -87 -6 -146 0 -123 -7 -130 -52 -53 -26 44 -49 106 -62 167 -5 24 -1
28 47 47 76 30 81 29 73 -15z m842 -401 c17 -38 62 -185 62 -200 0 -7 -165
-80 -171 -76 -4 2 6 43 21 91 15 49 34 121 41 161 6 39 15 72 19 72 4 0 17
-22 28 -48z m-711 -49 c7 -43 21 -105 32 -138 11 -33 18 -61 16 -63 -1 -2 -31
11 -65 28 l-63 32 7 46 c7 56 45 172 55 172 4 0 12 -35 18 -77z m380 -140 l6
-123 -67 0 c-36 0 -66 1 -66 3 0 3 85 247 96 277 13 32 26 -38 31 -157z"/>
<path d="M3968 6053 c-22 -6 -24 -23 -3 -23 23 0 18 -15 -10 -30 -36 -19 -27
-43 18 -52 53 -11 107 -41 145 -81 l33 -34 -100 5 c-95 4 -101 4 -101 -15 0
-14 20 -31 66 -58 54 -32 62 -40 48 -48 -9 -5 -52 -7 -95 -5 -44 3 -79 3 -79
1 0 -2 21 -13 47 -25 52 -23 113 -21 177 6 52 22 46 42 -24 73 -33 14 -60 30
-60 35 0 12 79 -2 129 -23 57 -25 72 -13 45 36 -28 53 -103 125 -153 147 l-44
20 29 23 c19 16 26 27 19 33 -13 12 -64 21 -87 15z"/>
<path d="M3055 4509 c-34 -10 -55 -34 -55 -62 0 -19 1 -19 18 -4 28 25 33 21
26 -22 -7 -46 7 -60 39 -37 57 42 112 76 123 76 8 0 4 -15 -11 -42 -14 -24
-25 -53 -25 -65 0 -20 5 -23 40 -23 22 0 56 7 75 14 41 17 43 10 14 -45 -11
-23 -18 -44 -15 -47 14 -13 58 46 72 96 22 74 10 84 -55 49 -27 -15 -58 -27
-70 -27 -21 0 -21 1 -6 30 9 17 34 42 56 57 22 14 38 31 36 37 -8 21 -115 9
-164 -18 -58 -33 -70 -33 -48 0 14 22 15 28 4 35 -16 10 -15 10 -54 -2z"/>
<path d="M3440 4007 l-25 -11 33 -4 c17 -2 32 -5 32 -7 0 -2 -19 -22 -42 -45
-36 -33 -40 -42 -28 -50 8 -5 22 -7 30 -4 34 13 118 15 159 4 29 -8 62 -29 98
-62 29 -28 51 -53 49 -55 -2 -3 -61 -5 -130 -6 -142 -2 -164 -11 -127 -50 25
-28 118 -77 144 -77 29 0 19 -20 -18 -36 -20 -8 -56 -17 -81 -21 -59 -8 -38
-23 32 -23 43 0 61 6 100 33 63 44 68 64 17 73 -51 9 -133 44 -133 57 0 6 43
8 125 5 77 -4 127 -2 131 4 10 16 -67 119 -116 154 -45 33 -103 53 -157 55
-25 1 -24 2 12 13 47 15 55 46 15 57 -38 11 -92 9 -120 -4z"/>
<path d="M784 4336 c-3 -8 5 -28 17 -45 36 -49 13 -48 -30 0 -31 35 -42 41
-52 32 -10 -10 -8 -27 8 -85 11 -40 24 -81 28 -91 7 -17 4 -18 -29 -12 -35 7
-36 6 -36 -22 0 -35 27 -63 60 -63 22 0 22 1 6 19 -17 19 -17 20 21 23 43 3
43 3 12 75 -13 29 -20 55 -17 59 4 3 19 -6 35 -20 56 -52 78 -25 48 59 -8 22
-15 41 -15 42 0 7 56 -20 82 -38 39 -29 45 -19 11 21 -43 52 -136 80 -149 46z"/>
<path d="M345 3506 c-15 -11 -17 -17 -7 -28 10 -12 5 -17 -26 -26 -58 -18
-147 -111 -125 -133 5 -5 56 -8 119 -7 102 3 107 4 79 17 -16 8 -56 16 -88 19
-57 4 -58 5 -40 24 31 35 72 50 126 46 58 -4 69 10 36 41 -24 23 -22 24 31 21
35 -2 35 -2 16 19 -23 25 -91 29 -121 7z"/>
<path d="M5118 6109 c-23 -13 -38 -70 -38 -146 l0 -62 -33 -6 c-17 -4 -55 -5
-82 -3 l-50 3 4 76 c1 42 0 86 -3 97 -15 45 -101 49 -124 5 -5 -10 -13 -56
-17 -103 -4 -47 -11 -90 -15 -95 -5 -6 -5 -76 -1 -157 8 -165 17 -188 76 -188
49 0 59 20 65 134 l5 101 88 3 87 3 0 -93 c0 -115 12 -138 70 -138 66 0 68 9
71 294 l3 248 -23 19 c-25 21 -57 24 -83 8z m56 -25 c14 -5 16 -36 16 -244 0
-131 -3 -245 -6 -254 -7 -19 -45 -21 -62 -4 -8 8 -12 48 -12 115 l0 104 -117
-3 -118 -3 -5 -115 -5 -115 -27 -3 c-43 -5 -52 25 -45 143 5 71 3 105 -5 113
-9 9 -9 17 0 34 6 13 14 62 17 109 4 47 10 91 14 98 5 7 21 11 37 9 l29 -3 -3
-103 -4 -103 106 2 c58 1 110 5 115 8 5 3 12 49 16 101 5 69 11 98 23 108 19
14 16 14 36 6z"/>
<path d="M5574 6106 c-18 -8 -35 -19 -39 -26 -5 -8 -13 -6 -27 7 -16 14 -37
18 -99 18 -88 0 -113 -14 -111 -62 1 -15 2 -39 3 -53 1 -14 -9 -52 -21 -85
-17 -46 -23 -83 -24 -160 -1 -89 2 -105 24 -144 34 -61 92 -91 175 -91 70 0
117 16 165 57 33 27 80 113 80 146 0 33 18 17 29 -28 30 -120 169 -187 289
-140 33 14 42 14 66 1 15 -7 36 -12 46 -9 36 9 45 33 45 114 0 45 4 79 10 80
6 0 17 -20 25 -45 42 -128 168 -189 290 -140 31 13 44 14 53 5 16 -16 73 -13
92 5 13 14 15 30 9 95 -6 72 -5 79 12 85 39 12 49 22 52 53 4 39 -11 59 -63
82 -46 21 -173 26 -224 8 -53 -18 -68 -72 -30 -110 17 -17 28 -19 65 -13 24 3
44 3 44 0 0 -14 -34 -72 -49 -83 -25 -19 -57 -15 -88 11 -25 21 -28 32 -31 99
-4 64 -1 82 19 116 37 66 109 88 186 56 46 -19 87 -19 103 0 11 13 18 7 48
-47 19 -35 50 -84 68 -109 34 -46 34 -48 34 -151 0 -118 10 -138 68 -138 50 0
62 28 62 144 l0 99 64 68 c74 78 146 193 146 232 0 32 -32 67 -61 67 -35 0
-56 -18 -89 -75 -37 -65 -107 -155 -120 -155 -11 0 -80 137 -80 160 0 31 -39
70 -71 70 -28 0 -62 -24 -71 -50 -3 -10 -11 -9 -36 4 -44 23 -137 31 -204 17
-94 -20 -165 -86 -198 -184 -10 -33 -15 -38 -34 -32 -31 11 -182 18 -211 11
-56 -14 -81 -70 -51 -111 11 -15 25 -19 65 -17 55 2 56 1 40 -31 -51 -100
-148 -84 -164 27 -24 158 79 254 214 200 54 -22 92 -15 111 19 13 24 13 30 0
55 -26 46 -83 67 -180 67 -111 0 -183 -32 -229 -102 -17 -26 -31 -52 -31 -60
0 -7 -4 -13 -10 -13 -16 0 -12 66 5 80 22 18 19 73 -5 95 -26 24 -114 30 -156
11z m120 -26 c30 -11 36 -49 9 -56 -16 -5 -18 -20 -18 -147 0 -140 -1 -144
-32 -208 -45 -91 -104 -129 -202 -129 -88 0 -153 58 -167 148 -9 59 11 179 42
256 21 51 22 60 9 73 -8 8 -15 18 -15 23 0 19 47 40 90 40 60 0 95 -19 95 -50
0 -22 -5 -25 -34 -26 -41 0 -53 -15 -86 -111 -30 -85 -34 -200 -8 -244 48 -82
172 -46 218 64 19 47 30 175 21 250 -6 47 -11 56 -29 59 -30 4 -29 39 3 55 30
15 70 16 104 3z m1049 -5 c9 -8 19 -29 22 -47 9 -38 48 -120 78 -160 17 -24
22 -25 39 -14 28 20 110 126 138 179 14 26 33 50 44 53 26 9 50 -19 42 -49
-10 -40 -80 -138 -145 -202 l-61 -60 0 -106 c0 -112 -8 -135 -47 -127 -16 3
-18 17 -21 118 -1 63 -6 117 -10 120 -36 24 -127 193 -136 250 -8 53 24 78 57
45z m-655 -20 c60 -18 84 -48 58 -73 -14 -14 -20 -15 -49 -3 -45 20 -133 25
-168 11 -92 -38 -137 -182 -90 -286 24 -52 55 -74 104 -74 31 0 45 7 68 31 28
31 61 116 51 133 -2 4 -21 6 -41 2 -20 -3 -44 -7 -55 -8 -10 -2 -23 5 -29 14
-9 14 -8 21 6 35 22 22 135 30 194 14 77 -21 99 -73 34 -79 l-33 -3 4 -97 3
-97 -27 -3 c-22 -3 -30 2 -40 23 -11 25 -11 25 -32 6 -71 -66 -205 -48 -260
36 -64 97 -50 279 27 361 59 63 173 87 275 57z m516 -13 c21 -12 31 -26 31
-43 0 -30 -31 -37 -74 -15 -35 19 -123 21 -154 5 -68 -35 -98 -94 -99 -189 -1
-108 39 -170 112 -172 46 -1 82 31 108 97 29 71 22 83 -43 68 -51 -12 -83 2
-72 31 10 24 50 36 125 36 87 -1 155 -29 150 -62 -2 -18 -10 -24 -37 -26 l-33
-3 3 -97 4 -97 -27 -3 c-22 -3 -30 2 -40 23 -11 25 -11 25 -32 6 -49 -46 -127
-53 -196 -18 -35 17 -51 34 -72 76 -24 47 -28 66 -28 140 0 110 20 155 92 220
58 51 212 64 282 23z m-1034 -52 c25 -16 20 -212 -7 -272 -32 -70 -100 -98
-151 -62 -33 23 -31 138 4 233 23 63 29 71 53 71 14 0 37 9 51 20 29 23 30 23
50 10z"/>
<path d="M5154 5446 c-17 -8 -34 -24 -37 -36 -7 -29 7 -65 29 -74 15 -6 16
-17 10 -93 -3 -47 -9 -98 -13 -112 l-7 -26 -7 25 c-4 14 -7 63 -8 110 -1 102
-15 130 -65 130 -39 0 -61 -22 -71 -70 -12 -66 -66 -230 -74 -230 -12 0 -31
113 -31 184 0 51 2 57 24 66 32 12 49 45 41 77 -8 32 -59 53 -132 53 -90 0
-133 -31 -119 -85 4 -15 16 -29 26 -32 17 -4 20 -14 20 -57 0 -79 28 -245 51
-309 28 -74 67 -117 107 -117 37 0 84 38 102 80 15 37 26 38 33 3 8 -42 49
-96 79 -107 34 -12 71 3 94 40 30 44 65 183 82 321 14 114 19 134 35 139 34
11 37 -10 11 -81 -32 -85 -43 -222 -24 -281 30 -92 90 -133 196 -134 117 0
197 64 239 190 l18 55 12 -45 c15 -57 37 -99 67 -127 55 -51 152 -67 226 -38
34 14 42 14 67 1 23 -12 33 -13 59 -2 l31 13 -3 86 c-3 72 -1 87 11 87 9 0 18
-13 22 -32 29 -132 167 -203 295 -152 31 13 44 14 53 5 18 -18 72 -13 91 8 14
16 16 31 10 94 l-7 76 27 7 c30 7 46 31 46 67 0 62 -132 109 -247 88 -87 -16
-121 -73 -72 -122 17 -17 28 -19 65 -13 48 7 50 5 32 -29 -42 -74 -89 -88
-131 -38 -32 38 -41 89 -27 156 20 98 93 144 185 116 73 -23 105 -24 124 -7
19 18 31 11 44 -26 3 -9 28 -53 56 -98 l51 -82 0 -99 c0 -111 14 -139 68 -139
53 0 67 29 70 148 l4 107 66 70 c69 73 126 159 137 207 13 51 -72 103 -105 66
-6 -7 -42 -58 -78 -113 -37 -55 -74 -100 -82 -100 -19 0 -64 83 -85 153 -11
38 -23 56 -41 64 -33 15 -75 0 -91 -34 l-13 -26 -40 20 c-83 42 -218 33 -298
-19 -44 -29 -87 -89 -104 -146 -11 -35 -14 -38 -37 -30 -14 4 -70 8 -123 8
-88 0 -99 -2 -122 -24 -33 -31 -33 -64 0 -90 21 -16 35 -19 65 -15 44 7 48 0
24 -46 -30 -58 -89 -67 -129 -19 -23 27 -26 40 -26 102 0 83 19 125 72 157 39
24 102 26 142 5 58 -31 116 -11 116 40 0 39 -11 55 -54 78 -33 17 -58 21 -131
21 -78 0 -97 -3 -140 -26 -68 -36 -99 -73 -133 -158 -8 -22 -10 -20 -13 25 -4
38 -1 52 13 64 25 21 23 73 -3 97 -31 28 -137 27 -176 -2 -27 -20 -29 -20 -58
-2 -37 22 -124 24 -164 3 -26 -13 -30 -13 -42 2 -34 40 -126 55 -185 29z m153
-37 c20 -17 12 -53 -13 -57 -19 -3 -22 -13 -33 -120 -22 -204 -62 -351 -103
-373 -48 -26 -87 25 -109 144 -7 37 -15 67 -18 67 -3 0 -17 -28 -30 -63 -31
-81 -65 -127 -96 -127 -34 0 -72 51 -95 128 -17 56 -40 239 -40 318 0 13 -8
24 -20 27 -29 7 -37 37 -15 53 28 21 138 18 165 -4 29 -24 18 -52 -22 -52
l-30 0 5 -117 c5 -111 27 -227 47 -247 13 -13 55 85 86 202 35 133 44 152 64
152 31 0 37 -22 43 -145 5 -105 13 -156 33 -215 5 -13 6 -13 13 0 23 42 69
349 56 371 -4 5 -12 9 -19 9 -38 0 -39 45 -2 61 27 11 114 3 133 -12z m438
-11 c29 -13 34 -48 7 -55 -16 -4 -18 -17 -18 -131 1 -194 -38 -287 -139 -333
-84 -39 -201 -13 -239 52 -40 67 -30 223 20 337 21 49 23 57 9 64 -8 5 -15 17
-15 27 0 42 128 58 169 20 33 -31 24 -54 -21 -53 -35 1 -37 -1 -68 -68 -35
-75 -56 -188 -46 -242 18 -97 118 -121 200 -48 45 40 69 157 59 289 -5 73 -8
82 -27 85 -13 2 -22 12 -24 24 -5 36 79 57 133 32z m1075 -55 c21 -66 67 -150
95 -173 10 -8 24 1 62 45 26 31 65 83 86 117 49 81 63 91 91 62 14 -13 14 -19
1 -49 -21 -53 -73 -124 -137 -189 l-58 -60 0 -92 c0 -105 -10 -144 -39 -144
-37 0 -44 24 -37 124 7 88 6 95 -16 122 -94 115 -158 280 -115 297 36 15 45 6
67 -60z m-634 12 c17 -11 24 -24 22 -38 -4 -28 -31 -33 -75 -12 -66 32 -161
17 -205 -32 -48 -53 -65 -190 -32 -259 48 -101 169 -81 208 33 25 74 25 74
-47 67 -70 -7 -89 6 -62 42 19 27 150 32 211 9 71 -27 82 -75 17 -75 l-35 0 3
-97 4 -98 -27 -3 c-22 -3 -29 2 -34 22 -7 28 -19 34 -27 13 -8 -22 -71 -47
-118 -47 -111 0 -179 77 -187 210 -10 179 66 278 223 290 80 6 125 -1 161 -25z
m462 7 c69 -36 36 -90 -36 -58 -79 36 -163 18 -216 -44 -33 -40 -41 -69 -41
-150 0 -80 24 -127 78 -153 36 -18 38 -18 75 0 38 19 79 82 84 133 3 24 1 25
-62 25 -58 0 -65 2 -65 20 0 33 42 46 130 42 93 -4 148 -28 143 -62 -2 -15
-12 -21 -37 -23 l-33 -3 3 -97 c4 -96 4 -97 -20 -100 -16 -3 -30 4 -41 18
l-17 23 -32 -24 c-27 -20 -45 -24 -100 -24 -78 0 -108 15 -149 77 -24 37 -27
52 -30 140 -4 91 -2 103 23 154 45 93 121 134 238 128 42 -2 82 -10 105 -22z
m-1028 -57 c20 -24 9 -231 -14 -278 -27 -55 -102 -85 -144 -59 -39 25 -32 171
13 270 20 43 28 52 43 48 12 -4 29 1 43 13 29 24 43 26 59 6z"/>
<path d="M644 5376 c-10 -42 1 -120 23 -162 12 -22 25 -38 29 -37 5 1 95 37
199 81 122 50 190 83 190 93 0 15 -113 31 -322 44 l-112 7 -7 -26z m291 -35
l40 -8 -28 -11 c-15 -7 -75 -32 -133 -57 -58 -25 -107 -45 -109 -45 -8 0 -25
68 -25 103 l0 39 108 -7 c59 -4 125 -10 147 -14z"/>
<path d="M973 5142 c-212 -106 -214 -108 -170 -173 26 -39 93 -80 124 -77 24
3 287 324 277 339 -11 18 -43 6 -231 -89z m47 -97 c-50 -63 -98 -115 -106
-115 -17 0 -94 68 -94 84 0 11 281 158 289 150 2 -2 -38 -55 -89 -119z"/>
<path d="M1278 5058 c-73 -114 -158 -266 -158 -282 0 -27 84 -57 149 -54 l56
3 8 130 c9 161 6 247 -10 252 -6 2 -27 -20 -45 -49z m17 -225 l-7 -73 -40 0
c-32 0 -68 11 -86 25 -2 2 28 54 65 116 l68 114 3 -55 c2 -30 1 -88 -3 -127z"/>
</g>
</svg>
