<?xml version="1.0" standalone="no"?>
<!DOCTYPE svg PUBLIC "-//W3C//DTD SVG 20010904//EN"
 "http://www.w3.org/TR/2001/REC-SVG-20010904/DTD/svg10.dtd">
<svg version="1.0" xmlns="http://www.w3.org/2000/svg"
 width="720.000000pt" height="1117.000000pt" viewBox="0 0 720.000000 1117.000000"
 preserveAspectRatio="xMidYMid meet">
<metadata>
Created by potrace 1.16, written by Peter Selinger 2001-2019
</metadata>
<g transform="translate(0.000000,1117.000000) scale(0.100000,-0.100000)"
fill="#000000" stroke="none">
<path d="M3246 9065 c-123 -17 -258 -55 -334 -94 -171 -86 -281 -247 -311
-456 -12 -79 -31 -421 -31 -545 l0 -81 -157 138 c-403 355 -534 462 -567 468
-84 16 -183 -49 -206 -135 -16 -60 -7 -120 22 -143 13 -11 174 -163 359 -340
l337 -320 -75 -91 c-41 -50 -89 -109 -108 -132 l-33 -41 -99 -6 c-281 -16
-515 -177 -643 -442 -82 -171 -106 -323 -97 -629 4 -154 2 -206 -8 -226 -7
-14 -54 -135 -105 -270 -120 -320 -160 -422 -175 -440 -16 -19 -28 -74 -60
-267 -30 -185 -31 -217 -5 -284 27 -66 94 -183 123 -210 29 -29 168 -94 239
-112 56 -14 56 -14 117 16 69 34 174 137 198 195 10 23 14 67 12 137 -2 111 2
125 31 125 63 0 396 141 448 190 12 11 22 31 22 44 0 16 19 39 58 73 31 28
129 116 217 197 88 80 161 142 163 138 6 -20 -96 -299 -170 -467 l-80 -180 38
-32 c20 -18 53 -39 72 -45 l35 -13 -6 -495 c-7 -472 -25 -1007 -47 -1375 -26
-432 -40 -643 -46 -676 -5 -32 -1 -39 32 -68 44 -39 106 -67 194 -88 91 -21
358 -12 490 17 129 28 255 67 268 83 27 32 57 340 82 826 23 471 4 1122 -46
1539 -9 73 -14 135 -12 137 6 6 258 9 264 3 2 -3 -2 -61 -11 -129 -8 -68 -23
-227 -32 -354 -23 -323 -23 -1142 0 -1490 16 -227 41 -475 53 -516 6 -21 34
-33 142 -63 162 -45 245 -58 402 -63 219 -7 337 21 427 100 30 27 34 34 29 66
-7 42 -31 380 -45 636 -34 587 -51 1105 -51 1547 l0 337 42 23 c22 13 46 30
51 39 12 19 10 24 -101 326 -66 177 -114 355 -99 369 8 8 21 -3 255 -216 139
-126 192 -180 192 -196 0 -28 28 -50 127 -102 73 -38 237 -98 328 -121 l40
-10 -3 -109 c-3 -97 -1 -114 18 -152 50 -98 193 -210 268 -210 40 0 128 32
212 76 75 39 106 76 168 199 55 111 55 115 16 354 -27 159 -42 226 -59 256
-13 22 -57 130 -99 240 -42 110 -104 270 -136 355 l-60 155 10 135 c12 152 1
346 -26 476 -61 299 -289 545 -571 619 -38 10 -73 23 -80 29 -6 6 -40 76 -74
155 -46 104 -76 158 -108 194 -42 47 -44 50 -26 63 10 7 46 40 79 71 34 32
126 119 206 193 80 74 179 166 220 205 220 208 211 198 217 241 14 104 -110
209 -222 188 -50 -9 -339 -249 -637 -528 -167 -155 -150 -150 -230 -74 l-35
33 -7 203 c-10 301 -37 425 -118 550 -94 144 -252 228 -504 268 -142 22 -445
27 -568 9z m523 -56 c275 -32 459 -134 539 -299 17 -36 42 -105 54 -155 22
-87 23 -104 21 -505 -1 -228 -5 -458 -10 -510 l-8 -95 -45 -22 c-61 -31 -240
-88 -325 -104 -112 -22 -754 -19 -905 4 -149 23 -236 47 -346 95 l-89 39 -8
79 c-5 44 -10 270 -10 504 -2 462 2 510 59 639 87 196 294 313 600 339 115 9
354 5 473 -9z m1683 -476 c38 -18 60 -55 64 -106 4 -40 2 -43 -41 -74 -25 -18
-49 -33 -53 -33 -8 0 -166 140 -170 151 -2 4 20 26 49 49 45 36 56 40 88 34
20 -4 48 -13 63 -21z m-163 -137 c36 -30 76 -65 89 -79 l23 -25 -267 -248
c-146 -137 -272 -249 -278 -248 -6 1 -55 35 -109 77 l-97 76 133 125 c122 115
423 376 435 376 3 0 35 -24 71 -54z m-3385 3 c26 -23 46 -45 44 -49 -2 -4 -37
-35 -78 -71 -41 -35 -80 -70 -87 -79 -10 -13 -17 -10 -52 25 -47 44 -52 77
-25 145 19 48 53 69 110 70 34 0 49 -7 88 -41z m342 -298 c109 -96 207 -182
218 -192 23 -22 18 -30 -90 -140 l-77 -79 -66 62 c-263 250 -395 374 -412 386
-10 7 -19 18 -19 24 0 11 99 105 153 145 l30 22 32 -27 c18 -15 122 -105 231
-201z m2242 -175 c26 -24 65 -58 87 -77 98 -83 285 -263 290 -280 4 -11 35
-79 70 -152 l63 -132 -32 -7 c-17 -4 -53 -2 -80 4 -43 11 -51 17 -66 53 -22
52 -110 184 -169 254 -48 57 -170 157 -210 172 -15 6 -21 14 -17 25 3 9 6 54
6 100 0 46 3 84 6 84 3 0 26 -20 52 -44z m219 -58 c41 -29 87 -63 101 -75 l27
-22 -27 -27 -27 -27 -43 36 c-24 20 -68 59 -98 86 -53 49 -54 51 -36 66 11 8
22 15 24 15 2 0 37 -24 79 -52z m-2154 -33 c15 -13 27 -28 27 -33 0 -4 -14
-21 -30 -37 -17 -16 -56 -62 -87 -101 l-56 -72 -39 31 c-20 18 -38 36 -38 41
0 5 37 47 83 93 45 46 84 88 85 94 6 15 25 10 55 -16z m47 -145 c0 -70 -3 -84
-24 -108 -13 -15 -50 -59 -82 -98 -138 -165 -136 -164 -204 -175 -35 -5 -64
-8 -67 -6 -5 6 359 465 370 466 4 1 7 -35 7 -79z m1878 4 c58 -44 166 -148
193 -185 l19 -27 -71 -64 c-39 -35 -78 -62 -87 -61 -10 1 -62 5 -117 9 -95 7
-98 8 -75 23 60 40 59 37 72 194 6 81 13 147 15 147 2 0 25 -16 51 -36z
m-1868 -171 c0 -68 9 -81 72 -112 33 -16 56 -31 52 -34 -5 -3 -39 -7 -76 -8
l-67 -4 -31 48 c-16 26 -30 50 -30 54 0 10 64 92 73 93 4 0 7 -17 7 -37z m315
-199 c60 -16 60 -16 105 -92 147 -250 276 -491 349 -654 22 -49 44 -88 49 -88
17 0 735 742 772 798 l35 52 90 -6 c50 -4 92 -8 94 -10 1 -1 -102 -121 -231
-266 -446 -502 -1030 -1171 -1120 -1283 -30 -38 -62 -84 -71 -100 -14 -27 -80
-272 -112 -417 -11 -49 -55 -123 -116 -192 -8 -9 -99 12 -99 23 0 3 28 40 61
81 33 41 67 87 74 101 17 32 65 261 101 484 l27 170 138 145 c76 80 161 176
190 213 47 61 51 70 40 93 -6 14 -82 145 -168 292 -275 469 -383 656 -383 663
0 9 67 18 95 12 11 -2 47 -10 80 -19z m-183 -56 c200 -349 386 -663 485 -820
35 -55 52 -92 47 -100 -17 -29 -135 -160 -255 -283 l-126 -130 -22 -140 c-12
-77 -38 -221 -58 -320 l-36 -179 -76 -97 -76 -97 -48 18 c-27 11 -52 21 -55
24 -6 7 -6 6 68 221 l52 150 -16 150 c-8 83 -18 180 -22 217 -7 84 -42 158
-119 250 -67 80 -190 176 -285 221 l-69 32 6 430 5 430 81 23 c96 28 312 60
412 61 l71 1 36 -62z m1416 20 c-41 -59 -705 -738 -721 -738 -4 0 -46 80 -94
178 -95 195 -178 350 -259 485 l-53 89 37 -6 c184 -30 610 -44 797 -27 72 6
166 20 210 30 111 26 110 26 83 -11z m473 12 c63 -11 148 -29 189 -38 l75 -18
0 -64 c-1 -36 -5 -206 -9 -379 l-9 -313 -137 -137 c-208 -208 -287 -316 -327
-446 -15 -49 -18 -93 -18 -240 1 -198 10 -252 78 -453 24 -70 32 -104 24 -107
-470 -131 -590 -150 -957 -149 -231 0 -298 4 -420 22 -122 19 -308 58 -318 67
-1 1 23 39 54 84 55 80 57 86 110 298 30 120 54 224 54 232 0 8 28 44 63 80
54 58 254 287 1093 1256 109 127 217 251 239 278 47 56 51 56 216 27z m-2529
-502 l3 -443 55 -27 c30 -15 59 -29 64 -31 5 -1 -4 -27 -18 -56 -15 -29 -41
-94 -57 -144 -29 -88 -32 -107 -50 -417 -10 -179 -19 -377 -19 -441 l0 -117
-137 -26 c-270 -50 -391 -57 -528 -31 -139 26 -232 70 -311 147 l-42 40 45
107 c102 241 177 433 218 556 l43 130 -15 130 c-19 165 -12 340 17 450 32 121
118 287 191 368 135 149 323 243 491 246 l48 1 2 -442z m3001 423 c330 -85
565 -397 584 -775 4 -68 1 -179 -7 -260 -12 -136 -11 -144 10 -216 33 -113
112 -320 201 -528 l79 -187 -53 -50 c-59 -56 -150 -105 -247 -131 -51 -14 -99
-18 -220 -18 -147 1 -250 14 -436 54 l-50 11 -12 227 c-36 674 -31 614 -74
770 -21 79 -48 167 -59 195 l-19 52 23 20 c12 11 38 32 56 48 l33 28 9 252 c4
138 11 314 15 390 l7 137 42 0 c23 0 76 -9 118 -19z m-280 -1066 c22 -92 38
-189 42 -250 l6 -100 -32 35 c-50 57 -219 284 -219 296 0 17 152 186 160 177
4 -4 23 -75 43 -158z m-2506 67 c26 -22 70 -62 96 -91 43 -45 47 -54 35 -69
-15 -19 -182 -180 -246 -237 l-43 -38 7 114 c5 94 13 135 46 237 22 67 43 122
48 122 4 0 30 -17 57 -38z m2354 -234 c114 -152 196 -255 208 -263 15 -9 20
-69 25 -318 l6 -229 -43 38 c-23 20 -131 119 -239 218 l-198 181 0 86 c0 103
12 170 43 247 24 59 87 162 99 162 4 0 48 -55 99 -122z m-2138 -5 c21 -46 29
-90 43 -217 l16 -160 -28 -25 c-42 -36 -256 -234 -351 -325 -46 -44 -84 -78
-85 -75 -2 2 -1 122 2 265 l6 262 54 48 c30 27 111 102 180 167 68 64 127 117
131 117 3 0 17 -26 32 -57z m-1447 -813 c43 -38 181 -104 259 -124 33 -9 112
-21 176 -28 99 -9 137 -9 250 6 74 9 145 19 159 22 49 10 -43 -33 -146 -69
-221 -77 -435 -106 -642 -88 -75 7 -139 15 -141 17 -6 6 40 294 46 294 3 0 21
-13 39 -30z m4904 23 c0 -5 11 -69 25 -143 13 -74 20 -138 17 -142 -4 -4 -72
-12 -152 -19 -125 -10 -162 -10 -270 4 -69 9 -168 27 -221 41 -95 24 -314 104
-306 112 2 3 42 -2 88 -10 197 -34 372 -29 530 15 83 23 212 87 249 123 26 25
40 32 40 19z m-3418 -107 c152 -67 419 -132 648 -157 154 -16 480 -13 645 6
259 30 516 89 617 141 16 8 31 14 33 12 4 -5 95 -235 95 -242 0 -9 -89 -51
-155 -74 -116 -39 -199 -46 -474 -37 -321 10 -424 11 -791 6 -199 -3 -322 0
-379 8 -126 18 -259 55 -344 94 l-77 36 50 103 c27 57 50 109 50 116 0 18 21
15 82 -12z m-1302 -231 c96 0 208 4 248 9 l72 8 0 -111 c0 -111 0 -113 -35
-167 -26 -40 -54 -67 -107 -101 l-72 -47 -64 17 c-35 9 -97 33 -137 54 -69 34
-76 41 -114 107 -54 96 -86 186 -77 220 7 27 8 28 59 19 29 -4 131 -8 227 -8z
m4490 0 c96 0 200 4 231 8 l57 8 5 -33 c4 -26 -6 -56 -49 -143 -29 -60 -59
-117 -66 -126 -36 -45 -236 -127 -282 -115 -52 13 -145 87 -181 144 -35 56
-35 58 -35 165 l0 109 73 -8 c39 -5 151 -9 247 -9z m-3183 -96 c92 -35 221
-51 480 -56 l263 -6 5 -31 c6 -38 30 -296 47 -501 8 -93 12 -336 12 -644 l0
-494 -31 -26 c-49 -40 -252 -138 -370 -178 -138 -45 -270 -55 -397 -29 -46 10
-88 21 -95 26 -10 6 -10 42 -2 171 23 350 33 715 35 1236 1 411 4 543 13 543
6 0 24 -5 40 -11z m1947 -1504 c9 -170 19 -338 22 -372 l6 -62 -38 -10 c-182
-48 -325 -41 -505 24 -78 28 -250 111 -315 152 l-41 26 -6 210 c-15 458 -3
840 36 1252 l23 230 24 -2 c14 -1 126 -5 250 -9 238 -7 348 1 457 34 l58 18 6
-591 c4 -324 14 -729 23 -900z m-1158 -397 c-4 -62 -16 -207 -26 -323 -11
-115 -21 -232 -22 -260 l-3 -49 -75 -23 c-132 -41 -279 -65 -425 -70 -164 -6
-234 4 -324 48 l-63 31 5 47 c4 25 14 147 23 271 9 124 17 230 19 237 3 8 16
7 52 -4 31 -10 89 -16 163 -16 182 -1 339 45 565 164 61 32 112 58 114 58 2 1
1 -50 -3 -111z m662 -61 c167 -56 350 -68 472 -31 24 7 46 12 48 10 2 -2 5
-28 8 -57 2 -30 13 -155 24 -278 16 -180 18 -226 8 -233 -94 -64 -181 -81
-368 -75 -157 6 -260 22 -425 69 l-80 23 -21 230 c-12 127 -25 294 -29 372
l-8 142 144 -72 c79 -40 182 -85 227 -100z"/>
<path d="M3200 8585 c-93 -17 -226 -60 -268 -86 l-32 -19 0 -140 0 -140 28
-11 c68 -27 329 -4 463 41 41 14 65 17 77 11 69 -37 406 -64 514 -42 70 15 70
14 66 176 l-3 119 -70 23 c-157 53 -297 75 -505 79 -140 2 -216 -1 -270 -11z
m357 -25 c134 -10 218 -26 365 -66 l97 -27 -6 -111 c-3 -61 -8 -113 -10 -116
-2 -3 -69 -6 -149 -8 l-144 -4 0 58 c-1 97 -49 175 -98 160 -24 -8 -49 -53
-66 -117 -9 -36 -19 -53 -28 -51 -7 2 -36 6 -64 9 l-52 6 -6 43 c-8 61 -32
102 -62 110 -52 13 -94 -63 -94 -170 l0 -45 -42 -6 c-24 -3 -90 -5 -148 -3
l-105 3 -3 121 -3 121 53 20 c114 44 234 67 428 81 8 1 70 -3 137 -8z"/>
<path d="M1811 7065 l-11 -45 -66 0 c-57 0 -65 -2 -62 -17 3 -14 15 -19 62
-21 l58 -3 -7 -47 c-12 -87 -5 -82 -115 -82 -54 0 -105 -3 -114 -6 -32 -12
-15 -23 42 -26 l57 -3 5 -100 5 -100 33 -3 c29 -3 33 -6 28 -25 -3 -12 -6 -25
-6 -29 0 -5 -44 -8 -97 -8 -103 0 -141 -11 -113 -31 10 -6 49 -8 108 -4 l93 6
-3 -28 c-3 -25 -8 -29 -55 -36 -35 -6 -53 -13 -53 -23 0 -10 10 -12 46 -7 l45
6 -7 -77 c-6 -66 -5 -76 9 -76 17 0 21 11 35 95 l8 50 39 -3 c22 -1 51 0 65 4
24 5 24 6 6 20 -11 8 -40 14 -64 14 -36 0 -43 3 -38 16 3 9 6 22 6 29 0 11 21
15 88 17 69 2 87 6 87 18 0 12 -14 14 -82 11 -78 -3 -83 -2 -83 17 0 41 11 52
52 52 22 0 47 4 57 9 21 12 80 135 88 185 l6 36 -78 0 -77 0 6 48 c12 80 13
82 59 82 23 0 48 4 56 9 24 15 1 31 -45 31 l-46 0 3 42 c5 57 -16 60 -30 3z
m116 -247 c-3 -7 -20 -48 -38 -90 l-32 -78 -42 0 -42 0 8 53 c5 28 12 66 14
84 6 35 16 40 89 42 35 1 47 -2 43 -11z"/>
<path d="M5172 6964 l3 -49 -40 -1 c-63 -2 -67 -3 -63 -16 3 -8 28 -15 58 -18
l54 -5 12 -58 c13 -68 16 -65 -76 -69 l-65 -3 3 -35 c1 -19 19 -68 40 -110
l37 -75 58 -9 c36 -5 57 -13 57 -21 0 -7 3 -20 6 -29 5 -14 -6 -16 -86 -16
-69 0 -91 -3 -88 -12 3 -9 29 -14 74 -16 100 -3 114 -8 114 -37 0 -21 -5 -25
-29 -25 -37 0 -81 -16 -81 -30 0 -6 26 -10 60 -10 l59 0 6 -37 c14 -77 26
-114 38 -110 14 4 15 53 4 110 l-8 37 51 0 c66 0 63 22 -4 32 -54 8 -51 6 -60
36 -7 22 -7 22 98 22 87 0 106 3 106 15 0 19 -26 24 -129 27 -83 3 -85 4 -92
31 -7 26 -5 27 27 27 31 0 34 3 35 30 1 17 3 35 4 40 1 6 3 39 4 75 l1 65 54
-6 c36 -4 56 -3 61 5 4 7 5 14 3 16 -2 2 -56 7 -120 11 l-117 7 -9 56 c-6 31
-8 59 -5 64 2 4 28 7 58 7 49 0 76 12 61 27 -3 3 -33 6 -68 7 l-63 1 -11 44
c-15 64 -37 67 -32 5z m39 -250 c4 -2 9 -27 13 -55 4 -29 10 -65 13 -80 5 -28
5 -29 -39 -29 l-44 0 -32 78 c-18 43 -32 84 -32 91 0 9 14 11 58 5 31 -3 60
-8 63 -10z"/>
</g>
</svg>
