<?xml version="1.0" standalone="no"?>
<!DOCTYPE svg PUBLIC "-//W3C//DTD SVG 20010904//EN"
 "http://www.w3.org/TR/2001/REC-SVG-20010904/DTD/svg10.dtd">
<svg version="1.0" xmlns="http://www.w3.org/2000/svg"
 width="720.000000pt" height="1117.000000pt" viewBox="0 0 720.000000 1117.000000"
 preserveAspectRatio="xMidYMid meet">
<metadata>
Created by potrace 1.16, written by Peter Selinger 2001-2019
</metadata>
<g transform="translate(0.000000,1117.000000) scale(0.100000,-0.100000)"
fill="#000000" stroke="none">
<path d="M6180 9054 c-224 -125 -359 -268 -451 -476 -19 -43 -37 -78 -41 -78
-4 0 -14 16 -22 35 -18 41 -96 127 -143 156 -46 29 -63 20 -63 -33 0 -24 -4
-69 -10 -102 -17 -105 -97 -246 -140 -246 -11 0 -50 27 -87 60 -37 33 -75 59
-83 58 -9 -2 -22 -31 -35 -81 -22 -85 -35 -100 -46 -51 -13 67 -78 172 -98
159 -5 -2 -11 -18 -14 -34 -4 -17 -15 -34 -25 -40 -15 -8 -25 -3 -55 27 -40
41 -67 123 -67 204 0 69 -24 64 -83 -16 -64 -87 -85 -141 -102 -263 -8 -58
-20 -123 -25 -144 -19 -68 -70 -139 -70 -96 0 6 -13 40 -30 75 -36 77 -60 83
-81 20 -7 -22 -29 -57 -49 -76 -34 -34 -35 -34 -39 -11 -4 34 -20 40 -54 23
-50 -26 -152 -137 -173 -187 -10 -26 -21 -47 -24 -46 -3 0 -18 26 -33 57 -31
64 -101 146 -120 139 -7 -2 -14 -34 -18 -83 -3 -43 -10 -89 -14 -101 -15 -46
-50 -17 -65 52 -9 44 -36 44 -57 1 -22 -46 -31 -45 -39 3 -8 51 -18 64 -41 57
-22 -7 -94 -114 -112 -165 -17 -53 -13 -140 10 -212 25 -75 21 -111 -15 -134
-30 -20 -47 -13 -71 32 -54 99 -79 107 -89 26 -8 -71 -16 -103 -25 -103 -4 0
-26 29 -49 64 -46 70 -155 176 -182 176 -9 0 -21 -5 -27 -11 -8 -8 -20 -5 -45
14 -18 14 -64 44 -103 66 -104 61 -128 53 -92 -29 12 -29 22 -82 27 -150 5
-58 11 -116 15 -130 l8 -25 -22 20 c-17 16 -24 44 -36 133 -15 117 -31 154
-78 187 -44 30 -95 11 -63 -24 31 -34 11 -54 -32 -33 -63 31 -80 45 -103 84
-14 24 -32 43 -40 43 -22 0 -41 -70 -46 -172 -3 -51 -9 -93 -14 -93 -12 0 -50
68 -64 113 -16 53 -38 58 -65 15 -40 -65 -62 -157 -61 -255 0 -57 -4 -93 -10
-93 -35 0 -173 95 -265 182 -80 76 -100 80 -90 17 4 -24 2 -39 -4 -39 -6 0
-38 20 -72 45 -75 54 -98 58 -98 15 0 -40 51 -171 95 -245 20 -32 33 -60 31
-63 -11 -11 -88 49 -187 145 -75 73 -122 110 -164 129 -99 46 -299 56 -312 17
-3 -7 8 -22 23 -35 66 -54 114 -101 110 -106 -3 -2 -29 9 -58 26 -75 43 -205
93 -223 86 -22 -9 -19 -18 23 -73 52 -69 75 -111 62 -111 -6 0 -55 43 -109 95
-120 116 -155 125 -115 30 8 -20 12 -40 9 -43 -3 -4 -30 21 -59 53 -107 121
-173 185 -189 185 -17 0 -32 -33 -22 -49 3 -5 0 -13 -5 -16 -6 -4 -30 12 -53
35 -53 52 -116 85 -192 99 -107 20 -205 10 -205 -21 0 -7 25 -35 55 -61 30
-26 68 -67 84 -90 27 -40 29 -49 33 -167 5 -135 24 -208 73 -282 14 -21 21
-38 16 -38 -13 0 -83 79 -110 125 -39 64 -52 77 -68 64 -24 -21 -6 -266 27
-353 12 -32 -2 -42 -32 -22 -26 18 -78 21 -78 5 0 -6 18 -38 40 -71 39 -59 55
-106 48 -148 l-3 -22 -29 23 c-28 22 -29 22 -42 4 -31 -42 -10 -257 36 -389
27 -73 28 -82 13 -93 -12 -10 -15 -24 -10 -66 4 -45 2 -57 -14 -70 -16 -15
-19 -31 -19 -120 0 -192 22 -258 125 -367 63 -67 91 -107 82 -117 -3 -3 -31 5
-63 16 -94 36 -109 15 -40 -54 29 -29 51 -64 66 -107 48 -132 101 -219 185
-303 44 -45 110 -103 148 -129 37 -26 67 -52 67 -58 0 -15 -28 -36 -78 -58
-25 -12 -42 -25 -40 -33 3 -6 31 -27 63 -45 33 -18 89 -58 126 -88 71 -58 199
-190 199 -205 0 -5 -11 -9 -25 -9 -37 0 -105 -30 -105 -46 0 -8 12 -19 28 -25
104 -42 214 -105 269 -154 63 -57 341 -364 381 -422 29 -41 28 -63 -2 -63 -13
0 -29 -6 -35 -14 -16 -19 -6 -28 112 -101 93 -58 118 -85 78 -85 -24 0 -88
-27 -96 -41 -12 -18 8 -29 91 -49 196 -47 370 -133 589 -292 16 -12 -15 -28
-56 -28 -43 0 -79 -23 -63 -40 7 -7 46 -26 87 -45 105 -45 257 -150 257 -177
0 -4 -22 -8 -50 -8 -89 0 -64 -42 80 -138 108 -71 177 -103 288 -132 24 -6 42
-17 42 -25 0 -8 10 -21 22 -29 41 -29 391 -161 596 -225 56 -18 136 -50 178
-73 119 -64 180 -79 339 -85 213 -8 377 28 578 128 132 65 215 126 322 235 76
77 103 98 175 132 220 104 317 204 480 500 41 73 102 170 137 216 35 46 63 91
63 100 0 19 -22 21 -52 5 -49 -26 -24 10 83 119 250 254 323 387 172 314 -29
-14 -56 -23 -60 -18 -16 16 47 105 140 200 54 54 109 116 122 136 13 20 39 88
59 151 21 68 50 135 70 165 54 79 198 220 326 318 124 95 141 113 115 122 -28
11 -152 -5 -208 -26 -28 -11 -53 -20 -54 -20 -2 0 -3 36 -3 79 0 89 1 91 106
201 84 89 132 168 154 256 11 42 20 84 20 93 0 9 29 75 66 146 61 122 67 138
80 240 8 61 18 138 23 171 5 34 21 85 35 114 43 85 8 96 -79 25 -30 -25 -55
-39 -55 -32 0 31 33 135 54 172 58 99 76 135 95 196 19 61 44 187 54 276 5 47
-9 68 -38 57 -16 -7 -17 -3 -11 36 8 49 -30 347 -46 368 -17 21 -29 14 -45
-28 -10 -24 -20 -37 -25 -32 -18 18 -12 136 10 208 35 113 28 284 -12 284 -7
0 -19 -13 -26 -30 -7 -16 -16 -30 -20 -30 -4 0 -10 51 -13 113 -8 170 -63 397
-97 397 -4 0 -25 -27 -45 -60 -20 -33 -40 -60 -45 -60 -12 0 -30 67 -30 112 0
20 11 83 25 140 29 121 32 233 10 364 -21 123 -33 154 -55 154 -14 0 -23 -13
-34 -51 -23 -77 -108 -215 -126 -204 -4 2 -10 42 -12 87 -6 91 -28 161 -80
248 -23 37 -40 55 -53 55 -19 0 -20 -6 -17 -80 6 -145 -32 -258 -123 -367 -67
-81 -79 -78 -91 26 -13 107 26 256 112 433 30 62 54 119 54 128 0 24 -30 18
-100 -21z m20 -47 c0 -2 -18 -44 -39 -93 -66 -153 -85 -234 -86 -361 0 -98 3
-115 21 -140 38 -51 64 -43 134 39 90 107 140 227 140 333 0 52 15 42 41 -27
18 -49 24 -89 27 -178 2 -63 8 -119 13 -125 14 -14 119 101 158 174 18 35 37
59 42 54 14 -14 32 -194 26 -263 -3 -36 -15 -101 -26 -144 -27 -104 -27 -186
2 -256 30 -75 53 -77 92 -10 16 27 34 50 40 50 15 0 57 -206 62 -310 5 -73 2
-96 -21 -163 -31 -93 -31 -97 -7 -97 11 0 41 25 70 58 l51 57 0 -49 c0 -28
-12 -92 -27 -143 -26 -90 -26 -97 -14 -166 8 -40 16 -89 18 -109 3 -21 9 -38
13 -38 5 0 20 14 34 32 14 18 27 30 30 28 8 -9 26 -161 26 -227 0 -36 -7 -92
-16 -125 -18 -70 -8 -94 26 -63 11 10 23 15 26 12 10 -9 -15 -150 -36 -213
-11 -30 -45 -102 -76 -161 l-58 -107 -3 -119 c-2 -74 1 -116 7 -112 5 3 24 26
41 50 35 49 55 59 45 23 -4 -13 -13 -81 -21 -152 -17 -152 -33 -214 -74 -279
-53 -82 -68 -120 -86 -207 -23 -114 -66 -198 -149 -289 -39 -42 -81 -89 -95
-104 -25 -28 -32 -64 -44 -242 -3 -38 20 -43 76 -17 93 44 179 54 117 13 -14
-9 -70 -55 -125 -102 -169 -145 -253 -256 -294 -390 -47 -156 -57 -172 -165
-281 -109 -109 -141 -153 -170 -231 -16 -42 -16 -51 -5 -63 12 -11 22 -11 52
-2 20 6 40 9 43 5 10 -10 -98 -137 -200 -234 -95 -91 -176 -199 -176 -235 0
-21 29 -25 48 -6 6 6 14 9 17 6 4 -3 -16 -40 -42 -81 -26 -41 -76 -127 -111
-189 -77 -140 -146 -229 -229 -294 -107 -85 -245 -148 -191 -87 24 27 136 242
197 378 179 399 406 832 604 1155 447 726 518 864 584 1120 25 96 27 122 27
295 1 174 -1 195 -22 246 -59 148 -214 215 -435 190 -181 -20 -329 -87 -488
-219 -86 -70 -132 -122 -256 -287 -139 -184 -253 -283 -385 -336 -119 -47
-150 -53 -288 -53 -146 -1 -168 4 -320 67 -159 66 -225 82 -335 81 -144 0
-268 -37 -382 -114 -25 -17 -48 -29 -51 -26 -3 3 3 34 14 68 25 83 26 249 1
331 -55 180 -217 333 -404 382 -75 20 -205 19 -274 -1 -145 -43 -284 -158
-346 -284 -86 -177 -89 -397 -7 -522 13 -21 24 -42 24 -47 0 -5 -51 14 -112
44 -234 110 -488 175 -691 175 -92 0 -127 -4 -171 -20 -106 -40 -170 -107
-218 -229 -32 -81 -31 -258 1 -351 28 -83 109 -243 157 -312 115 -164 357
-416 669 -697 289 -260 460 -432 875 -886 91 -98 234 -250 318 -337 85 -86
152 -161 150 -166 -5 -15 -445 140 -486 171 -9 7 -10 13 -1 24 18 21 3 30
-101 57 -170 43 -245 75 -353 148 -64 43 -66 61 -7 52 32 -5 41 -3 46 11 12
31 -126 155 -244 220 -59 32 -66 52 -16 47 38 -3 60 18 41 40 -19 23 -136 111
-212 160 -134 86 -248 140 -373 177 -64 19 -64 36 1 36 26 -1 47 2 47 6 0 11
-88 81 -168 134 -39 26 -72 52 -72 57 0 4 5 17 12 28 21 33 -18 92 -184 280
-216 244 -301 319 -415 367 -24 10 -32 18 -25 25 7 7 25 3 57 -11 59 -26 75
-26 75 -2 0 27 -303 328 -368 366 -28 17 -52 35 -52 42 0 6 15 20 33 30 17 11
39 32 47 47 17 32 24 23 -94 109 -95 69 -177 148 -220 210 -37 54 -130 266
-121 276 3 2 22 -12 43 -32 63 -62 84 -46 53 39 -33 87 -44 104 -125 194 -57
62 -80 97 -91 133 -16 55 -32 207 -21 207 4 0 29 -18 57 -40 87 -69 123 -49
58 32 -44 56 -79 126 -79 159 0 25 9 24 41 -7 48 -46 66 -10 25 54 -37 59 -84
174 -100 243 -23 98 -29 229 -12 229 7 0 19 -7 26 -15 22 -26 47 -18 54 18 7
37 -7 136 -24 167 -21 40 1 35 38 -8 20 -23 40 -42 43 -42 17 0 16 33 -1 72
-38 86 -88 315 -73 340 2 4 38 -28 81 -70 98 -99 234 -174 248 -138 4 10 -21
41 -74 93 -85 83 -122 144 -147 240 -16 60 -20 153 -7 153 4 0 16 -17 27 -37
21 -40 55 -57 55 -27 0 32 -113 214 -178 286 -20 22 -31 42 -26 47 14 14 138
-6 189 -30 29 -14 72 -50 118 -100 78 -86 97 -89 97 -18 0 22 2 39 5 39 9 0
136 -138 184 -199 68 -87 91 -91 91 -15 0 24 2 44 5 44 3 0 56 -45 118 -100
62 -55 118 -100 125 -100 7 0 15 6 18 14 6 15 -41 113 -84 178 -13 21 -22 41
-19 45 19 18 205 -97 315 -194 46 -42 78 -63 88 -59 12 5 13 10 3 28 -26 48
-97 137 -176 219 -46 47 -81 88 -78 91 11 11 159 -14 204 -35 33 -15 89 -60
159 -128 198 -191 431 -293 288 -126 -71 84 -161 256 -143 274 4 3 40 -20 82
-51 77 -60 101 -64 91 -16 -3 15 -2 30 1 33 3 3 35 -18 72 -47 65 -52 149
-105 225 -140 37 -17 40 -17 52 -2 8 12 9 28 3 54 -21 92 2 277 36 289 6 2 21
-18 35 -43 22 -43 109 -124 131 -124 19 0 20 29 5 81 -33 108 -10 235 31 170
6 -10 40 -30 76 -46 42 -18 68 -35 76 -51 6 -13 17 -24 26 -24 14 0 20 15 28
70 l3 25 12 -27 c6 -15 14 -62 18 -105 4 -43 15 -96 26 -118 30 -64 113 -117
133 -85 4 6 -5 43 -19 83 -18 54 -26 99 -29 180 l-5 107 37 -22 c72 -43 113
-82 143 -134 36 -65 58 -71 58 -15 0 22 4 42 9 45 14 9 97 -89 137 -160 44
-79 65 -83 94 -18 11 26 20 53 20 60 0 22 13 17 42 -16 42 -48 110 -34 144 31
19 38 18 75 -6 144 -29 86 -26 149 11 223 17 34 35 62 39 62 5 0 15 -10 21
-22 16 -33 61 -78 75 -78 7 0 17 8 22 17 9 15 13 14 42 -10 17 -15 35 -27 40
-27 18 0 52 56 67 112 9 32 20 58 25 58 5 0 22 -28 38 -63 27 -57 38 -97 55
-211 4 -21 9 -35 12 -32 3 3 11 41 18 85 8 45 26 106 41 138 28 57 101 143
121 143 6 0 12 -28 15 -64 4 -71 22 -104 44 -85 9 7 14 31 14 61 0 46 4 54 45
95 25 24 53 56 62 69 14 22 18 23 30 11 8 -8 17 -45 21 -83 9 -89 29 -93 83
-14 54 77 77 144 94 271 15 113 49 212 86 245 18 16 19 16 19 -3 0 -52 33
-127 77 -174 51 -55 76 -60 117 -28 15 12 28 20 30 18 28 -32 46 -114 50 -224
1 -38 5 -51 18 -53 18 -3 43 55 81 190 12 43 27 78 32 78 6 0 27 -16 46 -36
72 -75 115 -78 175 -12 58 64 114 210 114 295 0 47 20 42 74 -17 40 -45 86
-138 86 -174 0 -15 28 -42 36 -34 2 3 22 51 43 107 53 140 122 251 211 341 84
86 250 203 250 177z m183 -3040 c115 -57 153 -159 144 -397 -6 -161 -37 -305
-96 -455 -33 -83 -139 -290 -172 -337 -11 -14 -19 -28 -19 -31 0 -10 -164
-280 -360 -592 -136 -216 -358 -645 -537 -1035 -170 -369 -264 -523 -408 -663
-215 -211 -544 -338 -840 -324 -127 6 -197 23 -301 73 -67 33 -94 57 -281 248
-114 116 -303 317 -422 446 -296 324 -538 567 -791 799 -395 360 -544 514
-672 692 -105 147 -181 321 -194 450 -17 164 67 333 194 392 42 19 63 22 187
21 104 -1 166 -7 240 -23 145 -31 319 -92 453 -159 107 -53 145 -75 297 -169
85 -53 168 -76 275 -77 177 -2 258 36 455 209 178 157 310 215 492 215 106 0
165 -13 294 -66 167 -68 243 -86 372 -86 91 0 129 5 202 27 203 60 333 161
512 398 57 75 129 163 161 195 121 123 265 212 412 256 75 23 100 26 215 23
120 -2 135 -4 188 -30z m-3170 -78 c323 -88 477 -443 325 -747 -112 -222 -394
-332 -626 -244 -122 47 -245 159 -304 279 -32 66 -33 70 -32 198 0 108 4 139
21 183 35 87 73 144 138 207 132 129 298 172 478 124z"/>
<path d="M5940 8280 c-16 -98 -4 -181 44 -292 7 -15 3 -17 -30 -15 -35 2 -38
0 -45 -30 -7 -38 5 -119 23 -140 20 -25 28 1 13 49 -7 25 -11 56 -8 68 5 19
10 21 44 15 21 -4 43 -4 48 -1 6 4 -3 36 -20 79 -34 83 -55 200 -41 236 8 22
11 19 45 -45 20 -38 52 -99 69 -136 38 -77 51 -81 87 -26 28 43 38 41 47 -10
9 -52 23 -77 36 -64 21 21 -39 188 -64 180 -6 -2 -17 -22 -25 -43 -7 -22 -17
-43 -22 -48 -9 -9 -115 171 -142 243 -27 70 -45 64 -59 -20z"/>
<path d="M4843 8037 c-33 -43 -65 -193 -62 -287 3 -82 -4 -89 -48 -48 -32 30
-37 8 -16 -76 22 -86 49 -105 38 -27 l-7 51 27 -10 c15 -6 30 -8 32 -6 3 3 6
58 8 123 3 117 20 213 41 220 12 4 38 -47 70 -139 22 -66 51 -228 56 -318 4
-57 29 -62 40 -7 11 51 37 99 51 94 7 -2 17 -25 22 -51 11 -51 28 -65 33 -28
5 32 -27 122 -45 129 -10 4 -26 -6 -44 -28 l-27 -34 -6 25 c-2 14 -10 57 -17
95 -13 76 -53 195 -93 274 -29 56 -40 66 -53 48z"/>
<path d="M6318 7713 c-3 -21 -26 -81 -51 -133 -48 -100 -71 -194 -65 -270 5
-68 22 -50 30 31 8 92 24 150 59 219 16 30 33 67 38 83 13 33 30 35 33 5 1
-13 2 -102 3 -199 l0 -177 31 -38 c17 -22 37 -39 45 -39 8 0 23 19 34 43 11
23 22 42 26 42 17 0 69 -263 69 -352 0 -48 13 -55 38 -21 11 16 24 25 27 21
12 -12 35 -121 35 -168 0 -25 -4 -61 -10 -80 -11 -40 0 -59 21 -34 21 26 18
193 -5 268 -17 56 -19 58 -46 52 -28 -5 -29 -4 -35 42 -20 165 -69 337 -95
337 -7 0 -22 -24 -34 -52 -11 -29 -27 -53 -34 -53 -7 0 -20 16 -28 35 -11 27
-14 75 -12 213 3 160 1 181 -17 217 -27 54 -51 57 -57 8z"/>
<path d="M3790 7474 c0 -58 -23 -116 -66 -163 -47 -52 -64 -87 -64 -130 0 -22
-4 -27 -22 -27 -22 1 -23 -3 -22 -69 0 -53 6 -83 26 -125 30 -66 103 -160 123
-160 23 0 18 16 -20 57 -47 52 -91 138 -99 196 -7 48 1 60 24 32 15 -18 40
-20 40 -2 0 6 -5 32 -11 56 -14 60 -5 89 43 147 22 27 47 64 55 82 28 66 46
25 36 -84 -6 -80 9 -121 55 -145 21 -12 26 -11 39 6 8 11 17 32 20 48 10 48
25 33 57 -57 5 -14 10 -16 18 -8 17 17 -6 85 -43 127 -17 19 -34 35 -39 35 -4
0 -10 -23 -13 -52 -8 -66 -22 -81 -48 -49 -16 19 -19 37 -17 115 2 77 -1 99
-21 144 -25 56 -51 69 -51 26z"/>
<path d="M2739 7283 c-18 -20 -18 -255 -2 -294 15 -34 5 -44 -19 -22 -32 29
-42 4 -31 -77 5 -39 7 -73 4 -75 -3 -3 -24 13 -47 36 -23 23 -47 38 -53 35
-25 -16 -7 -301 20 -330 21 -22 27 10 13 64 -14 56 -22 195 -11 206 3 4 27
-12 53 -35 26 -22 54 -41 62 -41 15 0 15 2 -7 108 -9 47 -2 58 30 42 34 -19
41 0 24 66 -9 32 -18 95 -21 139 -6 89 -7 89 56 -2 16 -23 62 -64 103 -92 54
-36 79 -61 98 -95 27 -52 47 -56 67 -12 22 44 37 16 39 -72 1 -56 5 -77 15
-77 17 0 26 77 15 128 -11 55 -40 112 -57 112 -8 0 -18 -15 -23 -37 -5 -21
-13 -38 -17 -38 -4 0 -17 15 -28 33 -10 18 -55 59 -100 90 -69 48 -84 65 -111
118 -17 33 -33 77 -37 95 -8 42 -17 49 -35 27z"/>
<path d="M838 7159 c-14 -41 34 -280 73 -368 32 -73 24 -89 -22 -45 -18 17
-34 24 -45 20 -14 -6 -16 -16 -11 -76 5 -65 4 -70 -14 -70 -49 0 -30 -71 41
-150 30 -33 56 -75 66 -105 20 -60 31 -74 40 -51 10 26 -23 101 -69 157 -81
99 -90 125 -42 113 32 -8 37 7 18 58 -9 25 -13 53 -10 62 6 15 9 14 39 -4 34
-21 78 -27 78 -11 0 5 -14 44 -31 86 -38 96 -71 226 -67 262 3 26 6 24 50 -37
78 -110 219 -230 244 -209 8 6 14 20 14 30 0 60 77 -3 114 -94 25 -63 42 -74
39 -26 -3 66 -114 199 -166 199 -15 0 -18 -6 -15 -32 4 -46 -11 -42 -83 17
-63 51 -164 177 -200 246 -19 39 -34 49 -41 28z"/>
<path d="M1770 6919 c-39 -71 -56 -195 -40 -275 15 -72 55 -164 71 -164 13 0
9 20 -21 105 -12 33 -24 83 -26 110 -5 56 15 157 31 155 6 -1 16 -18 24 -38
15 -39 89 -150 114 -170 18 -16 44 -6 52 19 10 31 30 22 53 -26 21 -44 42 -59
42 -31 0 8 -17 44 -37 80 -40 70 -66 82 -71 33 -10 -88 -102 20 -148 172 -16
55 -27 63 -44 30z"/>
<path d="M5369 6843 c-52 -120 -129 -273 -137 -273 -6 0 -13 22 -17 49 -9 68
-22 76 -69 45 -40 -27 -86 -109 -86 -152 0 -38 21 -20 41 34 20 52 61 100 77
90 5 -3 10 -31 11 -62 2 -71 16 -101 38 -83 16 14 96 170 133 262 13 31 28 56
34 54 15 -5 35 -174 35 -302 1 -98 -18 -288 -35 -367 -9 -42 21 -36 41 7 33
68 59 70 70 5 8 -44 22 -60 32 -35 8 23 -25 125 -43 132 -8 3 -21 0 -29 -7
-23 -19 -25 -10 -15 60 25 174 -7 574 -48 588 -7 2 -21 -16 -33 -45z"/>
<path d="M3570 6467 c0 -8 18 -51 41 -97 22 -46 51 -115 64 -154 27 -82 61
-263 51 -273 -3 -4 -37 3 -74 15 -38 12 -71 22 -75 22 -17 0 -4 -23 34 -61 23
-23 52 -65 65 -95 23 -53 44 -70 44 -36 0 9 -14 43 -30 75 -33 61 -31 65 23
42 19 -8 37 -11 41 -8 31 31 -34 322 -101 456 -13 27 -22 51 -19 54 15 15 144
-109 193 -185 19 -29 40 -51 46 -49 6 2 14 18 18 36 9 46 27 61 43 39 21 -28
33 -21 60 35 14 28 31 60 38 69 7 9 9 20 5 24 -10 10 -53 -32 -67 -67 -14 -33
-14 -33 -41 -16 -17 10 -23 9 -39 -11 -10 -12 -21 -28 -24 -35 -3 -8 -13 -1
-28 18 -51 67 -102 116 -172 164 -77 53 -96 60 -96 38z"/>
<path d="M6518 6423 c-55 -61 -92 -141 -100 -217 -4 -38 19 -46 27 -9 10 47
37 127 52 151 21 34 33 27 34 -20 0 -55 49 -192 69 -196 9 -1 24 11 34 28 10
17 23 29 29 27 27 -9 51 -101 51 -199 1 -76 4 -98 15 -98 10 0 12 22 9 113 -4
95 -8 120 -31 169 -15 31 -31 59 -35 62 -11 7 -27 -5 -41 -31 -6 -13 -15 -23
-20 -23 -5 0 -19 27 -31 60 -19 51 -22 73 -17 135 6 84 -2 93 -45 48z"/>
<path d="M4530 6425 c-99 -28 -162 -65 -241 -144 -185 -185 -231 -449 -116
-665 45 -85 155 -193 242 -237 100 -51 155 -64 270 -63 83 1 112 5 170 28 90
35 148 72 211 138 65 67 99 122 132 212 22 60 26 88 26 176 -1 67 -6 124 -16
156 -56 180 -185 319 -358 382 -85 31 -239 39 -320 17z m226 -36 c157 -28 307
-144 379 -293 35 -73 38 -87 43 -191 4 -95 1 -123 -16 -182 -74 -241 -328
-405 -564 -363 -204 36 -394 210 -433 397 -19 87 -19 117 1 211 22 106 65 191
134 265 126 134 282 188 456 156z"/>
<path d="M4512 6315 c-154 -59 -254 -174 -297 -340 -29 -113 -13 -239 42 -333
38 -64 128 -151 192 -186 245 -132 551 -18 652 242 33 85 38 220 10 309 -25
83 -51 126 -114 192 -124 129 -325 177 -485 116z m240 -26 c87 -19 139 -49
214 -124 96 -97 118 -151 118 -295 1 -100 -1 -109 -35 -180 -58 -122 -144
-194 -278 -234 -139 -41 -289 4 -407 123 -130 131 -157 302 -75 476 85 180
271 274 463 234z"/>
<path d="M4625 5925 c-60 -60 6 -158 84 -125 29 12 51 46 51 81 0 31 -44 69
-80 69 -19 0 -40 -9 -55 -25z"/>
<path d="M610 6171 c0 -10 13 -45 30 -77 16 -32 30 -63 30 -67 0 -5 -20 3 -45
18 -36 21 -46 23 -51 12 -12 -32 153 -282 245 -372 40 -38 53 -62 29 -52 -48
20 -48 20 -48 -6 0 -25 35 -121 53 -145 22 -28 27 7 8 50 -11 26 -17 48 -15
51 3 3 34 -8 69 -24 36 -16 67 -29 70 -29 19 0 -9 37 -102 134 -106 109 -172
193 -227 289 -30 51 -27 55 28 32 65 -27 72 -6 21 61 -51 67 -46 76 23 48 31
-13 62 -24 69 -24 7 0 24 -16 39 -35 28 -37 44 -44 44 -20 0 32 -60 84 -118
100 -31 9 -74 30 -94 46 -43 34 -58 36 -58 10z"/>
<path d="M2177 5973 c-3 -5 -8 -33 -12 -63 -9 -72 8 -190 41 -284 14 -41 22
-80 19 -87 -8 -12 -105 -8 -137 6 -12 5 -20 2 -24 -9 -11 -29 16 -72 59 -96
23 -13 63 -38 90 -56 53 -38 57 -40 57 -21 0 17 -70 74 -113 92 -34 14 -67 44
-51 46 5 0 32 0 59 -1 57 -1 105 13 105 32 0 7 -13 47 -29 89 -37 93 -58 228
-45 284 l10 39 41 -38 c23 -21 61 -67 83 -102 23 -36 46 -64 53 -61 7 2 16 23
21 46 9 42 10 42 43 36 48 -9 43 16 -8 37 -49 21 -59 17 -59 -23 0 -38 -14
-37 -40 5 -11 19 -46 58 -76 85 -53 48 -77 60 -87 44z"/>
<path d="M1209 5303 c-6 -16 -13 -54 -16 -86 -4 -36 -11 -61 -20 -64 -19 -7
-71 15 -115 48 -37 29 -68 38 -68 19 0 -21 45 -127 76 -179 17 -31 55 -82 83
-114 28 -32 49 -62 46 -66 -2 -5 -23 -11 -45 -15 -24 -4 -40 -12 -40 -20 0
-18 157 -166 176 -166 26 0 14 17 -57 81 -64 56 -70 64 -54 74 10 5 30 20 44
32 l26 21 -51 54 c-58 61 -116 145 -139 202 -19 45 -24 44 77 5 74 -28 84 -21
90 71 3 39 8 74 12 77 3 3 16 2 28 -4 13 -5 28 -8 35 -6 15 5 5 33 -12 33 -7
0 -18 7 -25 15 -19 23 -39 18 -51 -12z"/>
<path d="M5966 5430 c-69 -35 -120 -86 -211 -211 -259 -354 -405 -495 -612
-590 -157 -72 -349 -92 -513 -55 -348 80 -489 97 -631 77 -161 -23 -277 -72
-474 -199 -134 -87 -246 -139 -326 -152 -185 -28 -428 59 -749 271 -273 180
-358 221 -466 221 -107 1 -162 -50 -150 -139 8 -60 36 -111 108 -195 96 -112
407 -421 683 -679 344 -320 520 -498 689 -699 265 -313 419 -424 682 -490 72
-18 116 -23 229 -22 165 0 253 19 381 82 130 64 208 144 325 335 83 134 97
161 245 452 75 147 150 293 167 323 16 30 46 84 65 120 20 36 87 153 150 260
124 210 246 423 307 535 20 39 90 162 154 275 141 250 157 290 140 368 -9 43
-20 66 -49 94 -44 44 -82 49 -144 18z m106 -40 c67 -52 64 -148 -7 -271 -27
-46 -54 -95 -62 -109 -7 -14 -16 -24 -19 -23 -4 1 -23 51 -44 110 -20 59 -47
128 -59 151 l-22 44 42 40 c39 37 109 77 135 78 6 0 23 -9 36 -20z m-241 -287
c87 -92 131 -152 124 -171 -7 -19 -256 -472 -260 -472 -1 0 -29 11 -63 25 -63
26 -132 33 -132 15 0 -6 22 -40 50 -76 60 -78 68 -103 44 -138 -16 -25 -20
-26 -63 -19 -50 9 -143 8 -166 -1 -21 -8 -9 -29 25 -44 16 -7 47 -31 69 -54
l41 -40 -33 -57 c-62 -110 -51 -103 -138 -90 -76 12 -77 13 -88 48 -13 46 -63
93 -120 115 -59 23 -72 9 -36 -38 34 -45 47 -124 21 -138 -30 -17 -17 -33 49
-62 36 -16 86 -47 112 -70 l45 -41 -38 -71 -38 -72 -71 -5 c-83 -6 -145 -23
-145 -40 0 -7 27 -24 60 -40 76 -35 87 -54 60 -106 -11 -22 -24 -42 -28 -45
-5 -3 -35 22 -68 56 -70 71 -165 136 -249 168 -33 12 -70 26 -82 31 -17 6 -21
16 -21 52 0 55 -22 98 -65 131 -31 23 -67 34 -67 21 0 -3 9 -34 21 -68 11 -34
24 -80 28 -101 5 -34 11 -41 37 -48 18 -4 59 -35 95 -72 52 -51 77 -88 123
-180 48 -94 65 -120 99 -143 23 -15 45 -32 48 -37 6 -8 -62 -140 -103 -199
l-19 -27 -105 97 c-58 54 -111 99 -119 101 -17 4 -21 -28 -6 -44 32 -32 90
-163 117 -259 l13 -50 -58 -57 c-52 -50 -176 -126 -187 -115 -3 2 1 17 7 33 6
16 11 63 11 105 1 114 -37 215 -133 355 -53 76 -95 121 -105 111 -3 -3 8 -63
25 -134 17 -70 38 -182 47 -248 16 -125 36 -195 60 -219 21 -22 17 -33 -18
-46 -34 -13 -338 -27 -338 -16 0 3 20 26 45 49 52 51 50 25 34 327 -12 243
-14 260 -33 260 -19 0 -93 -162 -117 -260 -25 -97 -23 -233 5 -309 9 -24 14
-47 11 -51 -9 -15 -225 54 -225 72 0 6 12 24 26 41 22 26 25 37 20 76 -4 25
-11 104 -16 176 -6 71 -14 133 -19 138 -14 14 -70 -105 -87 -182 -7 -36 -14
-96 -14 -133 0 -38 -4 -68 -8 -68 -7 0 -103 68 -120 85 -3 3 6 18 21 33 38 39
53 90 76 259 12 82 27 169 34 193 12 42 15 45 46 45 47 1 75 40 95 134 9 42
25 95 36 118 46 102 -45 34 -136 -102 -30 -44 -77 -109 -104 -145 -59 -77
-140 -238 -166 -333 -11 -41 -24 -66 -31 -65 -7 2 -37 32 -68 68 l-55 65 0 77
c0 82 -10 100 -40 73 -18 -16 -19 -16 -25 8 -4 14 -5 35 -3 48 5 36 -27 36
-42 0 -6 -16 -18 -32 -25 -34 -7 -3 -34 17 -60 43 -48 49 -48 50 -37 87 6 21
32 70 57 108 59 91 70 114 61 122 -12 12 -126 -52 -183 -102 -29 -26 -57 -44
-63 -40 -19 11 -10 63 20 119 24 47 27 58 14 63 -20 7 -97 -23 -119 -47 -10
-11 -23 -20 -29 -20 -16 0 -76 62 -76 79 0 26 45 113 84 164 45 59 46 71 4 62
-50 -11 -105 -42 -153 -86 -48 -45 -55 -46 -80 -19 -18 20 -18 43 1 123 8 34
-4 35 -56 2 -22 -14 -43 -25 -48 -25 -4 0 -40 33 -80 73 l-73 74 18 39 c9 21
30 58 45 81 35 52 37 77 6 68 -32 -10 -86 -44 -126 -79 l-33 -29 -85 84 c-119
117 -295 313 -321 357 -33 55 -38 111 -14 142 18 23 27 25 98 25 97 0 176 -33
180 -75 7 -62 26 -167 35 -184 14 -26 24 -11 42 64 9 36 21 69 25 73 9 9 59
-17 73 -38 4 -5 8 -47 8 -92 0 -45 4 -85 10 -88 8 -5 42 36 76 91 11 18 14 18
59 -6 70 -37 86 -56 79 -88 -4 -15 -13 -35 -22 -44 -11 -13 -14 -33 -10 -82 7
-76 14 -92 34 -75 11 9 19 8 34 -6 16 -14 20 -15 23 -4 4 14 21 77 37 137 4
19 11 36 14 39 5 6 131 -43 153 -59 8 -7 9 -17 1 -39 -17 -48 -5 -128 31 -201
17 -38 38 -68 45 -68 18 0 35 70 43 181 l6 91 36 -7 c20 -4 61 -10 91 -14 l55
-6 55 -162 c45 -136 57 -163 73 -163 11 0 25 -7 32 -17 18 -24 34 -7 28 30 -3
19 2 62 11 96 28 111 16 161 -39 161 -19 0 -24 6 -27 35 -2 20 -2 38 1 41 12
12 154 74 159 69 3 -2 6 -30 7 -62 4 -83 90 -373 113 -381 8 -2 12 8 12 27 0
40 8 39 46 -6 49 -58 58 -41 51 97 -8 154 -8 152 -67 154 l-25 1 -2 115 c-2
63 -1 125 2 137 9 38 295 186 325 168 6 -4 10 -43 10 -88 1 -113 23 -289 55
-432 41 -182 57 -182 79 0 8 66 20 215 27 330 7 116 16 212 21 216 14 9 78 -3
78 -15 0 -6 -7 -20 -15 -30 -20 -26 -19 -104 2 -193 16 -69 16 -73 -2 -93 -17
-19 -18 -24 -2 -98 9 -42 22 -116 28 -164 6 -49 15 -88 20 -88 4 0 14 10 21
23 11 19 14 10 18 -78 4 -76 8 -100 19 -100 15 0 49 124 78 278 8 48 19 87 24
87 9 0 40 -63 59 -123 24 -75 35 -38 35 115 0 129 -2 148 -19 167 -11 12 -29
21 -41 21 -21 0 -23 6 -28 88 -3 56 -12 104 -26 135 l-20 47 22 0 c29 0 226
-45 234 -54 4 -3 -3 -24 -15 -45 -17 -30 -22 -55 -22 -110 0 -58 -4 -78 -22
-101 l-21 -29 32 -148 c18 -81 34 -154 37 -162 10 -30 32 14 56 109 13 52 28
96 33 98 6 2 15 -20 20 -49 13 -63 28 -72 44 -27 22 61 25 151 7 186 -18 34
-50 57 -67 47 -5 -4 -16 -4 -24 -2 -11 5 -10 17 7 69 13 43 18 77 14 107 l-6
44 61 -7 c34 -3 73 -6 87 -6 22 0 24 -3 18 -35 -5 -27 2 -55 37 -137 25 -57
53 -128 62 -158 35 -111 55 -90 55 60 0 77 -5 124 -20 175 -30 102 -31 98 25
111 28 7 59 16 71 19 18 6 22 2 27 -32 8 -49 118 -274 131 -270 12 4 15 193 6
302 l-5 60 49 32 c57 37 75 34 45 -6 -20 -28 -20 -30 -5 -97 9 -38 19 -89 23
-113 5 -25 13 -46 19 -48 6 -2 22 24 34 57 12 33 27 59 33 57 6 -2 18 -25 27
-53 10 -28 23 -49 31 -49 22 0 24 159 3 288 l-18 107 49 50 c27 28 55 50 61
50 19 0 72 -70 85 -110 15 -46 27 -59 39 -40 16 26 22 154 11 233 l-11 79 37
54 c21 29 45 54 53 54 9 0 36 -21 61 -47z m-1789 -633 c-2 -128 -18 -348 -28
-398 -6 -32 -20 -20 -28 25 -25 138 -36 235 -42 355 l-7 138 24 9 c13 6 37 9
54 8 l29 -2 -2 -135z m234 123 c9 -10 27 -38 38 -63 18 -39 21 -63 20 -185 -1
-81 -8 -182 -18 -240 -20 -113 -35 -179 -41 -173 -3 2 -9 49 -15 104 -6 54
-29 168 -51 252 -40 158 -47 227 -28 265 30 58 63 71 95 40z m-734 -330 c2
-76 1 -160 -2 -188 l-6 -50 -12 40 c-33 113 -45 176 -45 234 -1 55 3 66 22 82
13 11 27 19 32 19 4 0 9 -62 11 -137z m1321 -690 c73 -38 192 -141 216 -186
11 -21 10 -30 -13 -76 -15 -28 -32 -51 -39 -51 -34 0 -90 66 -138 164 -28 55
-60 112 -73 126 -65 73 -56 77 47 23z m-1168 -279 c-8 -32 -19 -100 -25 -149
-19 -176 -40 -242 -82 -269 -14 -8 -23 -5 -48 19 -36 35 -36 46 7 173 45 134
141 307 160 288 2 -2 -3 -30 -12 -62z m763 -233 c72 -140 93 -253 63 -343 -15
-46 -23 -47 -50 -9 -16 22 -26 67 -41 173 -11 79 -27 169 -35 201 -8 32 -15
66 -15 74 0 30 37 -15 78 -96z m-314 -18 c4 -65 9 -164 12 -220 l6 -103 -30
-30 c-17 -16 -37 -30 -46 -30 -25 0 -41 76 -40 190 0 104 8 140 63 283 20 51
29 27 35 -90z m-321 -100 c4 -48 10 -104 13 -124 5 -29 1 -41 -18 -64 -18 -20
-30 -26 -43 -21 -16 6 -17 16 -12 104 6 98 31 207 46 198 4 -3 11 -45 14 -93z"/>
<path d="M3764 4198 c-16 -12 -32 -27 -36 -32 -4 -5 9 -39 27 -75 32 -62 51
-122 57 -181 2 -14 9 -25 18 -25 21 0 28 38 29 166 1 103 -1 119 -20 143 -25
32 -38 32 -75 4z"/>
<path d="M3049 4189 c-19 -19 -21 -30 -16 -83 10 -116 77 -216 77 -115 0 22 8
69 17 104 16 59 16 65 0 89 -21 32 -50 33 -78 5z"/>
<path d="M3610 3766 c-61 -40 -110 -102 -110 -139 0 -41 9 -54 43 -62 36 -10
51 5 72 68 9 29 27 73 40 99 32 64 18 75 -45 34z"/>
<path d="M2935 5829 c-181 -64 -298 -216 -321 -419 -20 -178 90 -362 271 -451
71 -35 94 -42 167 -46 216 -14 403 115 471 323 75 227 -30 467 -250 572 -71
34 -86 37 -178 40 -81 2 -111 -2 -160 -19z m296 -49 c120 -46 219 -154 254
-275 27 -93 18 -222 -22 -308 -100 -212 -352 -303 -562 -201 -70 34 -170 133
-205 202 -53 104 -51 255 5 367 56 114 174 212 281 235 67 14 186 5 249 -20z"/>
<path d="M3035 5435 c-31 -31 -32 -66 -1 -101 50 -59 136 -25 136 52 0 70 -84
101 -135 49z"/>
</g>
</svg>
