<?xml version="1.0" standalone="no"?>
<!DOCTYPE svg PUBLIC "-//W3C//DTD SVG 20010904//EN"
 "http://www.w3.org/TR/2001/REC-SVG-20010904/DTD/svg10.dtd">
<svg version="1.0" xmlns="http://www.w3.org/2000/svg"
 width="720.000000pt" height="1117.000000pt" viewBox="0 0 720.000000 1117.000000"
 preserveAspectRatio="xMidYMid meet">
<metadata>
Created by potrace 1.16, written by Peter Selinger 2001-2019
</metadata>
<g transform="translate(0.000000,1117.000000) scale(0.100000,-0.100000)"
fill="#000000" stroke="none">
<path d="M3319 7953 c-1 -5 0 -23 1 -41 1 -21 -4 -38 -14 -45 -34 -25 -116
-318 -116 -413 l0 -35 -31 36 c-24 27 -39 35 -65 35 -19 0 -46 7 -60 16 -16
11 -56 18 -117 22 -68 4 -98 10 -117 24 -29 21 -91 34 -117 24 -9 -4 -59 -8
-111 -9 -76 -2 -96 -5 -106 -19 -7 -10 -20 -18 -29 -18 -60 0 -334 -142 -557
-289 -138 -91 -282 -230 -360 -348 -57 -85 -76 -101 -68 -58 8 42 -17 29 -55
-27 -19 -29 -36 -60 -39 -68 -3 -8 -13 -15 -24 -15 -12 0 -30 -19 -51 -55 -18
-30 -36 -60 -40 -66 -4 -7 -38 -14 -74 -17 l-66 -6 -17 36 c-26 54 -41 29 -41
-68 l0 -81 -22 26 c-31 36 -37 33 -30 -19 4 -25 5 -45 3 -45 -18 0 -99 37
-148 67 -49 31 -69 37 -115 37 -46 1 -58 -3 -74 -23 -38 -47 -15 -191 50 -308
l29 -52 -62 2 c-151 4 -212 -85 -146 -213 34 -66 112 -120 175 -120 29 0 31
-7 10 -34 -19 -25 -19 -99 0 -135 33 -65 142 -78 230 -27 l42 25 6 -41 c8 -61
36 -83 101 -82 71 2 163 47 191 93 21 35 124 140 138 141 4 0 13 -11 19 -25
15 -34 28 -32 28 5 0 17 3 30 6 30 3 0 17 -13 31 -30 31 -38 53 -39 53 -2 0
15 5 44 11 66 l11 38 21 -20 c12 -12 40 -28 61 -37 l39 -16 -7 28 c-3 15 -9
57 -12 92 -7 61 -6 64 12 56 30 -14 107 -12 111 3 3 6 -2 12 -9 12 -14 0 -78
60 -78 72 0 4 21 8 48 10 l47 3 -37 17 c-26 11 -38 24 -38 37 0 32 44 146 81
208 44 75 289 329 300 311 5 -8 11 -9 17 -3 4 6 28 34 51 63 51 62 145 131
227 168 81 36 284 106 296 102 6 -2 -6 -15 -26 -28 -20 -14 -36 -29 -36 -33 0
-10 52 0 99 19 21 9 38 11 44 5 5 -5 21 -3 38 6 34 17 48 11 30 -11 -7 -8 -14
-31 -15 -50 l-3 -34 56 4 56 4 -51 -19 c-79 -29 -104 -44 -236 -142 -121 -90
-249 -211 -358 -339 -30 -36 -88 -97 -128 -137 -46 -46 -74 -82 -78 -101 -4
-22 -21 -40 -59 -67 -65 -45 -187 -171 -320 -330 -55 -66 -154 -183 -220 -260
-456 -530 -480 -564 -570 -797 -20 -51 -79 -180 -132 -286 -103 -207 -128
-239 -223 -287 -47 -24 -65 -45 -38 -45 7 0 -6 -19 -29 -42 -49 -52 -70 -88
-50 -88 7 0 19 6 26 13 7 6 4 -7 -8 -30 -25 -50 -27 -78 -6 -69 49 20 50 19
26 -7 -27 -30 -24 -39 14 -39 52 0 16 -51 -45 -62 -19 -4 -54 -8 -78 -10 -44
-3 -77 -25 -87 -57 -4 -11 -13 -19 -22 -19 -52 0 -113 -80 -113 -146 0 -45 6
-56 38 -73 18 -9 22 -18 18 -35 -10 -40 13 -95 47 -116 45 -28 115 -26 159 3
59 41 87 43 118 8 31 -34 96 -55 137 -45 33 8 63 32 63 50 0 7 16 22 35 34 22
13 44 41 61 76 l27 54 51 -6 c28 -3 72 -14 98 -25 26 -10 58 -19 73 -19 97 0
161 105 100 165 -19 19 -35 25 -71 25 -39 0 -51 5 -80 34 -25 25 -34 43 -34
66 0 27 3 31 18 25 28 -11 122 -18 122 -9 0 4 -12 19 -27 31 l-28 23 28 -10
c31 -11 77 -13 77 -4 0 3 -11 19 -25 36 -22 26 -25 39 -25 111 0 86 16 171 52
272 25 74 34 84 42 50 9 -36 20 -26 46 47 36 101 76 172 132 239 29 35 84 101
122 148 92 115 152 177 271 279 55 48 102 89 105 92 15 17 291 249 380 320 58
46 149 128 204 182 54 55 100 97 102 95 3 -2 11 -31 20 -63 29 -111 72 -189
208 -374 95 -129 158 -225 191 -290 39 -79 46 -86 60 -60 10 18 18 4 74 -122
85 -192 101 -219 187 -303 41 -40 74 -80 74 -89 0 -9 5 -16 10 -16 6 0 10 9
10 20 0 32 12 23 59 -43 100 -139 129 -234 97 -311 -21 -50 -21 -49 18 -43
l33 5 1 -45 c1 -51 27 -98 71 -131 40 -30 53 -28 35 6 -16 31 -19 72 -4 72 5
0 15 -18 21 -40 14 -45 16 -46 40 -24 22 20 39 10 39 -22 0 -28 -30 -59 -73
-76 -53 -20 -73 -95 -37 -141 52 -66 139 -54 225 33 53 53 70 58 113 36 15 -7
63 -16 107 -20 44 -4 114 -12 155 -17 170 -22 188 -22 226 0 19 12 49 21 65
21 46 0 89 27 106 67 18 43 11 76 -25 118 -15 18 -31 40 -37 49 -17 29 -140
65 -245 71 -141 9 -156 14 -207 69 l-48 51 46 5 c46 6 99 32 99 50 0 6 -15 10
-33 10 -43 0 -54 11 -25 26 21 11 20 12 -23 32 -37 17 -40 20 -19 21 25 2 25
2 5 17 -11 8 -59 36 -107 61 -105 54 -141 93 -224 243 -83 151 -122 214 -254
406 -148 215 -227 352 -295 510 -29 68 -60 133 -69 145 -10 15 -12 28 -5 46 6
17 4 35 -6 60 -20 48 -10 59 111 114 85 38 99 41 126 31 16 -6 35 -9 41 -6 7
2 18 -9 24 -26 13 -34 53 -54 96 -47 24 3 31 -1 40 -22 6 -14 12 -27 13 -29 1
-2 26 11 55 28 76 43 149 78 181 85 l27 7 -6 -55 c-4 -35 -2 -57 6 -61 26 -16
11 -57 -40 -104 -75 -70 -83 -89 -75 -195 4 -67 2 -97 -9 -124 -8 -20 -13 -38
-11 -40 10 -11 45 19 61 53 15 31 16 44 6 94 -15 76 -6 97 74 177 73 73 83 98
67 160 -20 73 -17 83 23 83 34 0 35 -1 35 -41 0 -28 -10 -59 -31 -95 -23 -41
-32 -73 -38 -131 -4 -43 -16 -94 -26 -113 -30 -58 -34 -85 -18 -119 21 -42 37
-40 30 4 -4 26 1 47 20 82 14 27 31 83 39 126 8 43 27 106 44 140 17 34 30 78
30 98 0 20 6 41 13 46 6 6 61 22 120 37 125 32 118 33 217 -59 76 -71 99 -85
141 -85 69 0 127 74 113 146 -4 20 -22 56 -40 80 l-34 44 33 16 c17 9 48 30
69 45 20 16 103 62 185 103 223 110 290 167 418 350 66 95 116 203 114 249 l0
22 -16 -22 c-25 -36 -33 -27 -18 20 12 34 55 271 55 300 0 16 106 57 148 57
40 0 56 13 30 23 -7 3 -3 6 8 6 21 1 135 -85 242 -184 57 -52 108 -124 132
-185 17 -45 17 -45 34 -31 13 11 18 7 31 -24 8 -21 15 -39 15 -41 0 -1 5 -15
10 -30 10 -26 11 -26 26 -8 14 18 15 17 9 -12 -3 -17 -7 -56 -9 -87 -2 -41
-11 -68 -30 -97 -14 -22 -26 -43 -26 -47 0 -5 24 -6 54 -5 30 2 63 -1 72 -6
16 -9 14 -12 -19 -28 -20 -10 -37 -21 -37 -26 0 -4 37 -8 83 -8 46 0 86 -3 90
-6 3 -4 -1 -17 -10 -30 -20 -31 -11 -41 22 -26 48 22 61 16 57 -23 -5 -40 5
-44 32 -14 14 16 25 20 49 15 101 -19 106 -19 143 3 28 17 46 21 75 16 38 -7
89 12 105 36 4 7 10 37 13 67 5 51 9 56 35 63 91 25 114 154 33 195 l-29 16
30 21 c97 69 93 168 -7 202 l-32 10 25 34 c14 19 23 38 19 44 -3 5 -27 6 -56
3 l-50 -7 6 28 c4 15 10 39 13 51 7 24 7 24 -25 8 -29 -16 -31 -15 -31 1 0 10
6 30 14 45 18 35 12 39 -34 23 -61 -22 -103 -45 -137 -78 -30 -28 -33 -29 -38
-11 -24 75 -55 105 -55 53 0 -10 -3 -19 -6 -19 -3 0 -44 33 -92 72 -61 51 -81
74 -69 76 9 2 17 6 17 8 0 3 -29 32 -65 65 -36 34 -65 67 -65 73 0 6 -33 39
-72 73 -40 33 -86 73 -103 88 -73 64 -227 174 -279 199 -40 19 -75 27 -121 29
-67 2 -73 5 -53 25 26 26 -51 13 -134 -23 -16 -6 -18 0 -19 61 0 70 -21 209
-32 221 -7 6 -11 -3 -22 -52 l-7 -30 -12 38 c-12 42 -26 40 -26 -4 0 -41 -19
-87 -29 -70 -6 9 -32 -22 -85 -103 -140 -212 -235 -281 -406 -294 -52 -4 -143
-6 -202 -4 l-108 4 0 39 c0 46 -7 48 -35 13 l-21 -26 -61 34 c-62 34 -87 33
-65 -2 16 -26 7 -26 -83 0 -39 11 -120 29 -181 39 -62 11 -142 32 -179 47 -68
27 -159 54 -182 54 -22 0 -14 -17 10 -25 12 -3 17 -8 11 -11 -17 -7 -171 52
-225 87 -81 52 -115 100 -176 249 l-11 25 -9 -35 -9 -35 -12 48 c-11 43 -20
59 -23 40z m2161 -189 c8 -63 8 -120 1 -189 -6 -55 -8 -101 -5 -104 2 -2 17 5
33 17 l29 21 6 -22 c3 -12 6 -87 6 -167 0 -123 -6 -180 -40 -380 -38 -225 -61
-324 -81 -336 -13 -8 -11 -24 3 -24 6 0 20 7 30 17 49 44 -5 -79 -82 -188 -81
-113 -102 -140 -108 -135 -2 3 9 27 26 53 43 67 71 143 82 224 12 85 1 142
-35 178 -39 40 -114 37 -184 -6 -63 -40 -74 -41 -61 -7 15 39 12 112 -7 151
-37 79 -155 115 -246 75 -91 -40 -132 -154 -87 -242 20 -39 20 -42 3 -35 -94
37 -189 45 -258 20 -61 -22 -68 -20 -50 15 31 59 13 182 -33 233 -50 55 -173
78 -238 44 -41 -22 -90 -76 -108 -119 -20 -47 -20 -125 -1 -172 8 -20 12 -36
9 -36 -4 0 -35 15 -68 34 -79 44 -174 76 -228 76 -89 0 -178 -65 -207 -149
-61 -184 96 -404 398 -555 40 -21 71 -39 68 -42 -7 -8 -168 46 -232 78 -143
72 -316 235 -398 375 -56 96 -154 298 -163 336 -6 27 -5 28 14 16 12 -7 23
-11 26 -8 3 3 -5 36 -19 75 -24 69 -55 225 -55 277 0 25 2 27 21 17 11 -7 23
-9 26 -7 3 3 -8 36 -23 74 -49 122 -44 286 16 474 25 78 36 90 45 50 10 -45
25 -48 25 -4 0 67 16 71 34 9 9 -31 21 -56 27 -56 7 0 8 7 4 18 -3 9 -9 40
-11 67 l-6 50 32 -55 c64 -113 145 -173 310 -227 110 -37 135 -38 109 -7 -12
15 -11 16 11 10 14 -4 59 -21 100 -36 42 -16 118 -36 170 -45 52 -9 139 -27
192 -41 53 -13 109 -24 125 -24 l28 1 -24 19 c-33 28 -8 25 40 -6 39 -24 42
-25 60 -8 22 20 38 12 19 -11 -7 -9 -10 -19 -6 -23 4 -4 82 -9 172 -10 206 -5
285 10 374 69 73 49 124 106 203 227 59 90 80 105 58 41 -20 -57 13 -26 34 32
19 52 20 53 23 22 5 -47 17 -41 32 15 24 86 26 84 40 -34z m130 -119 c-11 -13
-3 -15 61 -15 124 -1 189 -35 398 -208 132 -110 154 -132 132 -132 -23 0 -10
-18 22 -31 32 -13 137 -105 137 -120 0 -4 -10 -5 -22 -2 -18 3 -14 -4 22 -38
25 -23 73 -64 108 -91 69 -55 82 -72 75 -99 -7 -27 -23 -24 -23 4 0 13 -6 31
-13 42 -13 17 -15 15 -33 -21 -11 -22 -38 -51 -63 -68 -24 -16 -55 -49 -70
-74 -14 -24 -43 -61 -65 -81 -21 -20 -48 -56 -60 -80 l-23 -44 -31 67 c-28 61
-51 84 -52 54 -1 -7 -12 7 -24 32 -35 67 -97 132 -229 242 -105 88 -122 98
-157 98 -33 0 -40 -3 -40 -20 0 -13 -7 -20 -20 -20 -11 0 -37 -7 -57 -15 -20
-8 -38 -14 -40 -12 -1 2 4 51 13 108 12 79 15 142 10 264 -3 87 -10 163 -15
168 -6 6 -16 -3 -25 -22 -25 -47 -38 -39 -31 17 9 67 10 69 52 91 47 25 82 28
63 6z m-2920 -110 c38 -20 43 -19 37 5 -9 36 43 21 96 -28 20 -19 27 -22 27
-10 0 24 120 12 187 -17 32 -15 53 -19 55 -13 6 18 42 -7 71 -49 14 -21 31
-60 37 -86 6 -27 17 -65 25 -84 20 -47 18 -53 -6 -24 -11 13 -21 22 -24 20 -8
-9 37 -284 56 -341 24 -71 24 -79 -2 -49 -95 115 84 -314 194 -464 88 -119
219 -237 341 -305 l59 -34 -54 -11 c-90 -18 -155 -68 -200 -156 -22 -45 -46
-50 -55 -14 -6 24 -24 35 -24 15 0 -5 -5 -10 -11 -10 -8 0 -9 13 -5 40 l6 40
-30 -6 c-38 -8 -69 12 -45 30 13 9 3 25 -60 105 -41 51 -91 111 -111 133 -21
24 -34 47 -31 57 3 9 8 25 11 36 6 18 5 17 -10 -2 -23 -32 -31 -29 -39 17 -7
44 -25 55 -25 16 0 -52 -21 -33 -64 56 -56 118 -75 189 -83 310 -7 111 -16
126 -82 135 -40 6 -48 23 -10 23 35 0 20 19 -18 22 -37 3 -37 4 -13 15 14 6
33 14 43 17 10 3 15 11 11 17 -4 8 -25 9 -58 5 -33 -3 -46 -2 -36 4 8 5 11 12
7 16 -4 5 -37 -6 -72 -24 -69 -34 -81 -31 -40 8 14 13 25 28 25 33 0 12 -1 11
-186 -55 -208 -76 -284 -117 -371 -205 -70 -69 -90 -82 -58 -36 8 12 12 24 7
27 -5 3 -27 -21 -50 -52 -23 -32 -80 -95 -128 -142 -48 -47 -105 -107 -127
-135 -45 -56 -113 -191 -123 -242 -11 -60 -32 -39 -62 63 -12 39 -31 79 -42
89 -24 21 -26 35 -5 35 21 0 19 7 -16 62 -51 78 -154 145 -281 182 -32 9 -58
22 -58 29 1 7 10 28 20 47 18 33 20 34 26 13 3 -13 9 -23 13 -23 3 0 18 31 33
68 15 37 39 81 53 97 l24 30 1 -32 c0 -18 4 -33 8 -33 5 0 39 45 77 101 76
112 198 240 293 309 89 65 317 200 446 265 82 42 130 60 184 68 49 8 71 15 68
24 -10 26 122 25 174 -2z m4110 -561 c-13 -33 -13 -94 0 -94 6 0 10 4 10 8 0
5 7 17 15 28 15 18 15 15 9 -35 -6 -50 -5 -53 12 -47 33 13 84 19 84 10 0 -5
-11 -22 -25 -37 -36 -37 -96 -39 -113 -2 -24 52 -97 55 -175 5 -29 -18 -61
-29 -100 -32 -68 -6 -125 -40 -164 -100 -27 -39 -28 -48 -28 -157 0 -134 11
-167 75 -225 22 -20 40 -38 40 -41 0 -3 -38 -5 -85 -5 -89 0 -115 15 -45 26
22 4 40 10 40 14 0 12 -57 29 -116 36 l-53 7 19 38 c13 24 20 58 20 94 0 32 7
69 16 87 15 28 15 32 0 40 -33 18 18 94 87 129 35 18 49 39 26 39 -15 0 19 53
48 76 14 10 43 36 64 56 40 39 49 36 49 -19 0 -46 35 -10 61 62 9 27 11 28 21
12 5 -11 8 -32 6 -48 -3 -16 -1 -29 3 -29 5 0 28 19 51 43 41 40 118 87 145
87 9 0 10 -7 3 -26z m-2431 -22 c40 -26 50 -38 71 -84 22 -49 25 -86 9 -142
-11 -39 -64 -104 -76 -93 -3 3 2 13 11 22 53 53 68 170 31 233 -38 63 -134 88
-213 57 -46 -19 -76 -56 -92 -114 -21 -79 18 -164 93 -202 51 -27 40 -33 -27
-16 -55 13 -80 44 -97 115 -22 92 39 206 126 238 48 17 125 11 164 -14z m656
-37 c26 -15 48 -37 56 -57 31 -73 -1 -200 -51 -206 -25 -3 -25 -3 -4 12 33 23
47 69 42 133 -4 49 -10 61 -41 89 -46 42 -94 52 -152 29 -102 -39 -123 -157
-42 -242 21 -23 26 -33 16 -33 -17 0 -60 43 -78 77 -18 35 -13 104 10 143 37
60 71 78 148 79 40 1 65 -5 96 -24z m1737 -102 c55 -50 -16 -153 -135 -194
-41 -15 -46 -18 -24 -19 63 0 154 63 185 129 l18 36 68 -2 c85 -2 120 -23 124
-76 6 -73 -106 -151 -211 -145 -45 3 -52 6 -55 25 -5 33 24 70 90 114 32 22
58 42 58 45 0 11 -98 -51 -127 -82 -45 -46 -53 -82 -22 -106 21 -17 33 -19
115 -13 91 7 91 7 112 -20 25 -32 28 -65 8 -104 -19 -35 -55 -51 -117 -51 -40
0 -55 5 -74 25 -14 13 -25 29 -25 34 0 22 46 51 99 62 63 13 53 25 -14 15 -56
-9 -95 -39 -95 -74 0 -15 4 -32 8 -38 15 -21 57 -44 83 -44 22 0 29 -6 34 -28
7 -33 -9 -80 -33 -98 -9 -8 -32 -14 -50 -14 -81 0 -171 96 -141 152 14 25 37
22 88 -12 39 -27 61 -36 61 -27 0 2 -25 21 -56 42 -53 37 -57 38 -83 24 -16
-9 -27 -25 -29 -42 -3 -25 -6 -27 -42 -21 -33 5 -42 2 -66 -21 l-28 -28 -34
19 c-68 36 -112 111 -112 189 0 34 4 45 16 45 14 0 14 2 0 22 -39 55 1 158 78
203 44 26 102 33 108 14 2 -5 22 3 44 19 88 64 140 78 176 45z m-3772 -60 c0
-96 35 -238 84 -342 24 -53 47 -104 50 -114 5 -14 10 -16 25 -7 23 12 31 13
30 3 -4 -25 2 -43 12 -37 7 4 19 -2 28 -13 9 -12 52 -65 95 -118 60 -74 76
-99 65 -106 -19 -11 16 -59 58 -79 22 -10 33 -24 37 -46 8 -37 35 -75 42 -57
4 10 10 10 24 0 14 -8 18 -18 13 -37 -8 -37 -16 -41 -52 -29 -29 10 -41 7
-142 -42 -61 -29 -114 -60 -119 -69 -5 -9 -3 -25 6 -40 21 -39 18 -51 -11 -44
-35 9 -32 -7 13 -65 20 -27 48 -78 61 -113 54 -139 153 -314 325 -574 100
-150 210 -325 246 -390 78 -141 129 -200 209 -243 64 -34 75 -43 41 -34 -41
11 -18 -15 43 -48 50 -27 58 -34 40 -37 -13 -2 -23 -7 -23 -11 0 -11 46 -31
70 -31 11 0 20 -4 20 -9 0 -15 -36 -23 -88 -20 l-47 3 0 -33 c0 -30 -2 -32
-25 -27 -63 12 -65 12 -68 -14 -1 -14 -5 -35 -8 -48 l-5 -23 -46 25 c-25 14
-49 26 -54 26 -12 0 -11 -47 1 -55 6 -3 10 -11 10 -16 0 -12 -59 -2 -75 12
-17 17 -33 9 -39 -18 -10 -42 -28 -83 -36 -83 -4 0 -15 20 -24 45 -25 64 -41
60 -54 -15 l-7 -41 -27 43 c-22 32 -28 54 -28 95 0 50 -1 53 -19 43 -35 -18
-41 -11 -24 27 20 48 13 96 -25 175 -33 72 -166 261 -179 256 -4 -2 -7 -5 -6
-8 1 -3 5 -14 9 -25 4 -11 -26 12 -65 50 -80 77 -104 119 -207 358 -32 75 -62
137 -66 137 -4 0 -8 -15 -10 -32 -3 -32 -4 -31 -42 37 -22 39 -61 99 -86 135
-26 36 -84 117 -130 180 -104 146 -151 237 -174 341 -5 22 -1 28 17 34 20 6
18 8 -13 14 -36 8 -80 31 -80 42 0 4 -7 10 -16 13 -12 4 -9 -4 10 -28 l26 -35
-83 -84 c-45 -46 -131 -124 -192 -172 -60 -49 -186 -154 -280 -234 -314 -269
-356 -307 -417 -381 -30 -36 -97 -117 -150 -180 -87 -104 -138 -187 -178 -287
-15 -41 -30 -43 -30 -5 0 61 -15 37 -56 -86 -63 -191 -81 -362 -43 -408 22
-26 -2 -29 -43 -6 -22 13 -42 21 -45 18 -3 -3 5 -21 17 -40 l22 -36 -22 0
c-31 0 -78 26 -138 77 -29 25 -56 43 -59 39 -3 -3 -9 -23 -12 -43 -4 -21 -11
-38 -16 -37 -6 0 -20 21 -32 45 l-21 44 -7 -30 c-3 -16 -11 -41 -16 -54 l-10
-25 -22 39 c-35 60 -53 66 -88 27 l-29 -32 0 30 c0 35 -1 35 -59 14 -24 -8
-46 -12 -49 -9 -3 3 5 19 17 36 27 36 21 47 -14 31 -14 -7 -30 -12 -35 -12
-16 0 2 34 38 72 39 41 39 54 -2 39 -14 -6 -26 -7 -26 -2 0 13 56 58 80 66 21
7 28 25 10 25 -19 0 -10 17 15 28 14 6 46 31 71 54 37 34 64 79 136 223 50 99
113 236 140 305 81 205 125 271 365 550 75 88 415 487 501 588 139 163 194
212 330 296 50 31 55 48 10 39 -18 -3 -31 -3 -28 0 11 14 223 238 320 339 104
108 301 267 383 309 47 25 113 47 140 48 14 1 17 -8 17 -56z m901 -32 c30 -10
100 -42 155 -71 92 -48 109 -54 181 -58 69 -4 87 -1 144 22 196 82 253 88 384
38 99 -37 176 -48 236 -32 24 6 84 34 133 62 111 64 167 73 211 36 24 -21 29
-34 33 -84 9 -135 -53 -283 -176 -414 -72 -78 -83 -85 -216 -150 -168 -81
-228 -103 -329 -124 -201 -42 -399 -5 -648 119 -197 99 -317 203 -379 329 -54
110 -43 224 29 291 59 56 146 69 242 36z m-2750 -154 c55 28 167 7 298 -55 58
-27 118 -76 153 -125 l22 -30 -32 6 c-18 4 -32 4 -32 0 0 -3 20 -27 44 -53 34
-37 49 -64 66 -121 17 -56 31 -82 59 -108 l36 -34 -32 6 c-18 4 -33 3 -33 -1
0 -13 39 -66 62 -84 l23 -18 -25 1 c-14 0 -36 6 -50 14 -14 8 -29 14 -34 15
-9 0 -1 -114 10 -157 10 -35 -19 -29 -60 12 -33 33 -36 34 -46 15 -6 -10 -13
-40 -17 -65 -3 -25 -9 -48 -13 -50 -13 -8 -32 24 -40 67 -7 35 -4 47 22 87 46
73 71 170 66 252 -6 77 -23 111 -71 139 -18 11 -45 39 -60 64 -26 42 -76 76
-112 76 -27 0 -69 27 -98 64 -47 60 -97 45 -141 -42 -14 -28 -20 -31 -44 -26
-27 6 -52 29 -52 47 0 5 11 2 25 -7 13 -9 26 -16 29 -16 3 0 3 39 0 88 l-6 87
26 -32 c26 -31 27 -31 57 -16z m-316 -77 c78 -46 113 -60 189 -79 l71 -17 7
-49 c10 -70 49 -106 125 -116 32 -4 69 -11 83 -15 22 -7 23 -6 12 9 -12 14 -9
16 25 20 21 2 -8 4 -63 5 -85 2 -105 5 -127 23 -30 23 -52 89 -42 128 8 34 52
98 73 106 18 7 76 -45 99 -89 10 -20 17 -25 23 -16 6 9 12 9 29 1 12 -7 26 -9
31 -6 17 11 49 -14 91 -71 22 -30 52 -59 65 -64 15 -6 31 -25 40 -46 15 -36
15 -37 -17 -70 -18 -19 -28 -34 -23 -34 6 0 19 9 29 20 28 31 37 10 26 -61
-17 -102 -71 -200 -164 -293 l-80 -81 -9 32 c-16 60 -85 90 -141 62 -27 -14
-77 -60 -77 -71 0 -4 21 8 46 27 86 66 162 41 151 -51 -9 -79 -90 -142 -197
-151 -52 -5 -59 -3 -74 18 -34 49 -18 109 57 207 44 59 45 84 0 28 -15 -20
-30 -36 -33 -36 -3 0 -6 17 -7 37 -3 55 -32 78 -97 77 -34 0 -63 -7 -81 -18
-35 -23 -25 -32 14 -12 43 23 102 21 129 -4 29 -27 28 -73 0 -130 -45 -88
-190 -131 -256 -75 -62 52 -51 122 33 205 48 47 53 57 48 84 -7 40 -42 86 -82
109 -44 25 -39 12 14 -36 61 -57 67 -87 24 -127 -95 -86 -269 21 -269 165 0
27 8 44 28 65 40 39 99 47 211 26 108 -19 168 -20 201 -1 l25 14 -35 14 -34
15 2 79 c2 65 -1 84 -18 112 -26 41 -38 35 -16 -8 36 -69 28 -178 -14 -201
-10 -6 -35 -10 -55 -10 -44 0 -77 31 -111 105 -53 114 -65 223 -28 260 25 25
92 18 149 -15z m5819 -247 c55 -48 55 -48 35 -65 -34 -29 -95 -24 -130 11 -28
28 -39 77 -22 94 19 20 65 4 117 -40z m-2609 -243 c88 -22 172 -45 188 -51 33
-14 37 -32 4 -20 -13 5 -61 16 -108 25 -46 9 -109 26 -139 37 -105 41 -214 24
-288 -44 -39 -36 -75 -105 -76 -148 0 -31 -4 -38 -16 -34 -9 3 -7 -1 4 -10 32
-25 67 -18 176 36 127 62 184 77 325 89 109 9 168 -1 83 -15 -122 -20 -291
-73 -417 -131 -106 -50 -150 -55 -181 -22 -30 33 -26 84 15 166 52 103 133
157 240 161 17 1 103 -17 190 -39z m-60 -25 c55 -19 213 -55 243 -55 1 0 2 -4
2 -9 0 -4 -48 -11 -107 -14 -137 -8 -203 -25 -329 -88 -113 -56 -147 -60 -152
-17 -7 57 58 143 140 185 57 29 113 29 203 -2z m407 -78 c-18 -5 -31 -15 -29
-21 3 -9 74 -61 242 -175 41 -28 79 -26 121 5 19 15 34 23 34 20 0 -21 -34
-68 -59 -80 -45 -24 -89 -5 -178 75 -43 39 -101 86 -129 104 -29 19 -55 38
-58 43 -11 18 24 42 57 41 l32 -1 -33 -11z m277 -58 c35 -33 51 -77 39 -110
-19 -54 -60 -46 -159 30 -26 20 -48 39 -48 43 -1 3 14 10 32 13 17 4 48 16 67
26 44 23 42 23 69 -2z m-499 -3 c0 -3 -20 -15 -45 -27 -87 -43 -96 -66 -80
-186 l7 -52 -64 -68 c-87 -91 -91 -100 -84 -192 4 -42 3 -82 -3 -90 -6 -10 -9
-3 -8 25 1 21 -2 60 -6 87 -12 74 5 119 62 167 65 55 77 84 56 134 -16 37 -15
40 10 91 18 38 39 63 72 84 40 27 83 40 83 27z m138 -2011 c6 -23 46 -36 132
-42 50 -3 93 -9 95 -13 3 -4 25 -5 50 -3 25 3 58 0 75 -7 42 -17 80 -65 80
-101 0 -41 -46 -88 -92 -96 l-38 -6 0 44 c0 53 -30 107 -62 113 -79 15 -240
26 -256 17 -18 -11 -2 -13 101 -15 21 -1 41 -7 46 -14 6 -9 15 -10 39 -1 41
14 85 -2 101 -37 18 -40 14 -98 -8 -118 -27 -24 -91 -31 -137 -15 -22 7 -52
14 -69 15 -169 9 -234 18 -283 41 -30 14 -57 35 -62 47 -10 23 -13 15 -10 -25
1 -20 -12 -38 -57 -78 -64 -56 -107 -70 -154 -51 -35 15 -49 37 -49 79 0 32
39 71 71 71 11 0 19 5 19 11 0 6 9 18 19 27 22 19 37 72 21 72 -18 0 -30 48
-19 77 7 20 13 23 21 15 14 -14 108 -16 108 -3 0 5 -7 14 -15 21 -8 7 -15 18
-15 26 0 9 13 5 43 -11 59 -34 65 -32 69 23 2 33 7 46 16 44 8 -1 34 -5 58 -9
41 -5 44 -4 38 13 -4 10 22 -8 57 -41 35 -33 65 -65 67 -70z m-3682 -124 c3
-9 15 3 34 32 16 26 37 47 45 47 10 0 25 -20 38 -50 12 -27 25 -50 29 -50 4 0
15 14 25 30 21 36 23 37 53 5 13 -14 27 -25 30 -25 4 0 10 18 13 41 3 22 8 43
11 46 2 3 27 -13 54 -36 43 -37 48 -45 44 -74 -3 -17 -9 -35 -15 -38 -5 -4 1
-13 14 -20 13 -6 30 -19 38 -26 32 -32 61 -45 89 -38 41 9 82 -26 82 -70 0
-72 -103 -111 -177 -66 -17 11 -53 21 -80 23 -38 2 -50 8 -59 26 -14 27 -16
24 -34 -40 -15 -56 -75 -130 -88 -110 -6 9 -12 0 -21 -27 -14 -50 -40 -65
-100 -58 -35 4 -52 12 -74 37 -27 30 -29 37 -23 84 11 83 72 148 123 130 24
-8 30 -6 38 11 6 11 24 23 40 26 17 4 24 7 17 8 -22 2 -3 21 21 21 20 1 21 2
5 14 -10 7 -18 24 -18 37 0 19 -2 21 -10 9 -5 -8 -10 -24 -10 -35 0 -29 -62
-75 -102 -75 -19 0 -44 -7 -56 -16 -30 -21 -62 -86 -62 -127 0 -37 -21 -63
-44 -54 -9 4 -28 -6 -45 -22 -52 -49 -129 -50 -176 -3 -32 32 -33 88 -4 149
26 54 67 77 121 69 28 -5 37 -3 36 6 -2 8 10 14 32 16 25 2 38 9 45 25 6 13
21 23 35 25 15 2 30 12 35 25 6 12 21 24 35 28 l25 7 -26 1 c-14 1 -34 -8 -44
-19 -10 -11 -23 -20 -30 -20 -6 0 -22 -11 -35 -25 -13 -14 -33 -25 -45 -25
-11 0 -27 -6 -33 -12 -7 -7 -30 -13 -51 -14 -46 0 -87 -25 -109 -65 -35 -61
-82 -14 -62 61 20 74 107 113 173 78 20 -10 21 -10 8 5 -11 15 -10 18 11 26
13 5 36 7 51 4 20 -4 27 -2 25 8 -2 10 10 16 39 19 31 4 40 8 35 18 -8 12 -32
8 -97 -17 -83 -33 -115 -37 -115 -16 0 25 47 48 85 42 19 -3 37 -1 40 4 4 5
22 9 41 9 19 0 34 4 34 8 0 5 19 29 42 53 l43 44 3 -35 c1 -19 5 -41 8 -49z"/>
<path d="M5221 6629 c-13 -5 -55 -32 -91 -59 -134 -99 -200 -110 -350 -55
-113 42 -182 38 -340 -15 -116 -39 -130 -42 -200 -36 -104 8 -208 39 -325 97
-122 60 -180 66 -214 23 -63 -79 2 -173 217 -315 170 -113 241 -153 344 -191
71 -27 100 -32 203 -35 134 -5 201 6 332 57 167 64 335 196 431 336 76 114 94
197 42 201 -14 1 -36 -2 -49 -8z m-1427 -51 c3 -13 10 -51 16 -86 6 -34 18
-81 26 -104 8 -23 12 -43 10 -46 -9 -8 -78 52 -112 96 -41 54 -46 110 -14 142
28 28 68 26 74 -2z m194 -73 c7 -7 -49 -103 -81 -140 l-35 -40 -11 28 c-16 41
-51 219 -45 229 4 6 155 -61 172 -77z m627 -72 c-4 -54 -14 -127 -22 -163 -16
-69 -64 -183 -80 -193 -12 -7 -55 100 -77 188 -8 33 -16 94 -18 135 l-3 75 40
14 c46 16 134 39 153 40 10 1 12 -19 7 -96z m164 68 c40 -14 46 -21 49 -49 7
-73 -62 -257 -126 -332 l-29 -34 -11 34 c-21 65 -34 213 -27 313 l7 99 46 -7
c25 -4 66 -14 91 -24z m-686 -28 c34 -9 66 -20 71 -24 5 -5 2 -27 -8 -54 -20
-51 -93 -165 -106 -165 -15 0 -29 69 -36 168 -5 67 -4 92 5 92 6 0 39 -8 74
-17z m841 -13 l39 0 -5 -80 c-4 -62 -11 -92 -34 -136 -16 -31 -33 -57 -39 -58
-13 -1 -32 94 -41 203 l-7 84 24 -6 c13 -4 41 -7 63 -7z m-544 -18 c0 -70 -78
-258 -125 -302 l-24 -22 -16 53 c-22 75 -37 179 -33 231 l3 43 78 1 c43 1 80
4 84 8 13 12 33 6 33 -12z m-210 -109 c0 -34 15 -118 35 -196 l8 -29 -44 22
c-24 13 -63 33 -86 47 l-41 24 48 64 c26 35 51 73 55 84 10 34 25 24 25 -16z
m235 -47 c9 -43 29 -112 46 -154 16 -42 29 -78 29 -81 0 -12 -212 28 -228 44
-2 2 17 32 42 69 24 36 55 97 67 135 13 39 24 69 25 68 2 -1 10 -38 19 -81z
m440 -33 c17 -93 17 -97 -1 -110 -23 -17 -119 -53 -141 -53 -14 0 -13 3 4 23
28 30 78 123 93 172 18 62 19 65 24 65 2 0 11 -44 21 -97z"/>
</g>
</svg>
