<?xml version="1.0" standalone="no"?>
<!DOCTYPE svg PUBLIC "-//W3C//DTD SVG 20010904//EN"
 "http://www.w3.org/TR/2001/REC-SVG-20010904/DTD/svg10.dtd">
<svg version="1.0" xmlns="http://www.w3.org/2000/svg"
 width="720.000000pt" height="1117.000000pt" viewBox="0 0 720.000000 1117.000000"
 preserveAspectRatio="xMidYMid meet">
<metadata>
Created by potrace 1.16, written by Peter Selinger 2001-2019
</metadata>
<g transform="translate(0.000000,1117.000000) scale(0.100000,-0.100000)"
fill="#000000" stroke="none">
<path d="M3360 9038 c-11 -12 -20 -34 -20 -50 0 -24 -5 -29 -42 -39 -117 -31
-266 -114 -364 -202 -63 -58 -151 -176 -177 -239 -12 -28 -28 -43 -66 -62 -61
-31 -74 -53 -69 -117 1 -27 0 -49 -4 -49 -5 0 -8 -43 -8 -95 l0 -95 85 0 85 0
0 -490 0 -491 24 -47 c13 -26 37 -59 53 -74 34 -32 108 -67 144 -68 59 0 32
-16 -87 -51 -162 -48 -303 -75 -482 -94 -166 -16 -266 -42 -377 -95 -140 -67
-213 -162 -259 -341 -30 -115 -38 -173 -71 -499 -80 -812 -97 -1022 -102
-1275 -7 -298 -13 -267 93 -418 74 -105 73 -105 241 -106 111 -1 133 12 133
80 0 58 -47 105 -116 114 -27 4 -55 8 -62 11 -10 3 -12 51 -10 216 l3 213 87
3 86 3 7 -98 c8 -123 20 -169 50 -199 27 -27 73 -31 136 -12 l39 11 0 236 c1
130 5 270 10 311 8 65 48 509 67 743 3 42 10 77 15 77 24 0 77 -189 97 -350
15 -121 31 -410 31 -578 0 -150 13 -212 45 -212 14 0 15 -15 10 -127 -3 -71
-10 -263 -15 -428 -5 -165 -19 -572 -31 -905 l-21 -605 -26 -65 c-25 -61 -26
-75 -27 -235 l0 -170 504 -3 c278 -1 508 1 512 5 12 13 -7 1593 -20 1634 -16
50 -39 67 -101 76 -47 7 -57 13 -68 36 -38 78 -50 308 -35 635 11 243 20 156
16 -155 -4 -374 8 -437 91 -477 78 -37 256 -28 303 15 12 12 30 45 40 73 16
45 18 87 16 374 -1 281 0 322 13 322 14 0 15 -42 13 -342 -2 -189 -5 -372 -8
-408 l-6 -64 -83 -17 c-46 -9 -88 -21 -93 -26 -19 -19 -28 -260 -28 -758 0
-280 -5 -524 -10 -540 -4 -17 -9 -109 -10 -205 l-2 -175 518 2 518 3 3 147 c1
82 -2 157 -7 168 -5 11 -12 31 -15 45 -5 21 -42 760 -61 1210 -3 74 -10 185
-15 245 -6 61 -17 235 -26 388 -8 153 -18 285 -20 292 -3 7 7 17 25 23 64 22
76 97 91 577 10 319 17 380 62 515 21 62 22 64 29 35 4 -16 24 -214 44 -440
30 -346 36 -448 34 -655 l-1 -245 29 -14 c38 -20 85 -19 118 3 44 29 68 97 73
209 l4 97 89 0 89 0 0 -215 0 -215 -27 -5 c-78 -16 -110 -30 -140 -60 -38 -38
-41 -62 -13 -98 29 -36 82 -51 185 -52 72 0 100 4 137 22 43 19 50 29 88 107
l41 85 0 263 c-1 279 -31 732 -96 1448 -40 441 -65 531 -182 641 -87 82 -249
144 -463 175 -232 35 -372 68 -580 140 -9 4 4 13 34 24 65 25 91 52 118 119
23 55 23 66 28 541 l5 485 48 3 47 3 0 157 c0 86 -4 162 -8 167 -4 6 -26 19
-49 29 -32 14 -44 27 -57 60 -28 73 -104 193 -163 256 -93 101 -201 166 -333
200 -55 15 -65 21 -71 44 -14 53 -23 56 -145 56 -104 0 -115 -2 -134 -22z
m240 -94 l0 -74 -110 0 -110 0 0 70 c0 86 1 86 129 82 l91 -3 0 -75z m153 -37
c169 -62 291 -174 385 -354 34 -66 92 -232 92 -264 0 -5 -22 -9 -50 -9 l-49 0
-3 112 -3 111 -85 44 c-46 23 -87 43 -91 43 -4 0 -30 -18 -58 -40 l-51 -40 0
-115 0 -115 -310 0 -310 0 0 123 0 122 -51 33 -50 33 -89 -47 -89 -46 -3 -106
-3 -107 -104 -3 -103 -3 6 37 c36 191 154 361 335 482 84 56 190 106 241 113
23 4 25 0 28 -38 l3 -43 150 0 149 0 0 50 c0 46 2 50 25 50 13 0 53 -10 88
-23z m287 -402 l50 -25 0 -100 0 -100 -60 0 -60 0 0 125 c0 79 4 125 10 125 6
0 33 -11 60 -25z m-960 -105 l0 -120 -50 0 -50 0 0 98 0 98 43 21 c23 12 45
22 50 22 4 1 7 -53 7 -119z m1200 -215 l0 -55 -815 0 -815 0 0 55 0 55 815 0
815 0 0 -55z m-1016 -127 c-40 -44 -54 -79 -54 -137 0 -122 114 -132 154 -14
23 68 21 131 -6 160 l-21 23 127 0 127 0 -20 -26 c-25 -32 -27 -80 -6 -152 37
-124 155 -117 155 9 0 61 -19 108 -56 143 l-29 26 273 -2 273 -3 0 -457 c-1
-477 -5 -531 -44 -590 -57 -86 -186 -103 -740 -95 -391 5 -435 10 -501 61 -18
14 -43 45 -55 70 -21 45 -21 56 -21 531 l0 485 237 0 237 0 -30 -32z m731
-1172 c6 -1 -15 -15 -45 -29 -114 -54 -191 -161 -281 -389 -24 -61 -134 -277
-154 -302 -15 -20 -15 -20 -30 0 -56 71 -105 154 -184 313 -101 203 -137 258
-218 330 -30 27 -51 51 -46 54 43 26 108 31 448 37 308 4 467 0 510 -14z m231
-74 c-2 -2 -32 -10 -67 -18 -121 -28 -149 -61 -198 -239 -34 -120 -38 -155
-17 -155 9 0 23 36 41 103 36 132 67 201 99 222 14 10 56 25 93 34 54 13 68
20 66 34 -1 12 4 17 14 13 36 -14 156 -38 243 -50 l95 -12 3 -448 2 -448 -36
-90 c-57 -143 -75 -245 -81 -465 l-6 -192 -131 -46 c-72 -26 -166 -60 -208
-76 -43 -16 -82 -29 -88 -29 -6 0 -10 29 -10 73 0 69 -4 80 -82 257 -45 102
-87 188 -93 192 -5 4 -72 8 -147 8 l-138 0 0 93 c0 52 3 162 7 245 6 151 6
152 30 152 22 0 23 2 23 90 l0 90 -40 0 c-22 0 -40 2 -40 4 0 2 21 43 47 92
25 48 77 157 114 241 104 237 152 299 267 343 32 12 63 25 71 29 13 6 175 -38
167 -47z m-1198 -7 c80 -54 133 -132 241 -350 55 -110 115 -222 135 -250 l36
-50 -25 -3 c-25 -3 -25 -5 -25 -92 0 -84 1 -89 23 -92 l22 -3 3 -242 2 -243
-149 0 c-107 0 -151 -3 -158 -12 -5 -7 -21 -44 -36 -83 -80 -213 -111 -306
-116 -354 l-6 -54 -99 2 c-98 2 -100 3 -206 56 l-107 54 -7 118 c-17 290 -70
520 -136 591 -19 20 -20 39 -19 472 l0 451 22 9 c12 4 65 13 117 19 53 6 109
13 125 16 27 4 36 -3 90 -66 33 -39 68 -80 77 -92 12 -16 33 -123 70 -362 45
-285 57 -340 71 -343 12 -3 17 3 17 20 0 13 -24 172 -54 355 l-53 332 -72 81
c-69 79 -78 100 -43 100 9 0 53 11 97 25 44 13 87 24 95 24 8 1 39 -15 68 -34z
m-662 -505 c1 -341 -2 -463 -16 -615 -10 -104 -26 -291 -36 -414 -21 -260 -3
-234 -172 -253 -82 -9 -128 -9 -189 0 -93 13 -198 45 -233 72 l-24 18 23 259
c13 142 25 272 27 288 2 17 7 59 9 95 23 279 51 483 81 595 54 199 159 293
399 359 146 40 130 89 131 -404z m2410 405 c133 -33 251 -92 303 -151 55 -63
96 -168 115 -294 14 -93 68 -674 81 -870 9 -130 16 -223 21 -276 l5 -51 -63
-16 c-122 -32 -154 -37 -273 -36 -79 0 -142 6 -185 17 l-65 17 -12 125 c-78
824 -74 763 -67 1178 7 351 9 382 24 382 10 0 62 -11 116 -25z m-1176 -645 l0
-50 -85 0 -85 0 0 50 0 50 85 0 85 0 0 -50z m-53 -252 c-4 -90 -7 -200 -7
-245 l0 -83 -30 0 -30 0 0 245 0 245 37 0 36 0 -6 -162z m-117 -609 l0 -241
-22 6 c-13 3 -105 6 -204 6 l-182 0 -4 34 c-3 30 38 159 137 424 3 9 41 12
140 12 l135 0 0 -241z m106 164 c-3 -42 -6 -150 -6 -240 l0 -163 -30 0 -30 0
0 240 0 240 36 0 37 0 -7 -77z m328 30 c13 -27 35 -75 49 -108 14 -33 39 -90
56 -127 26 -55 31 -79 31 -139 l0 -72 -127 6 c-71 4 -167 7 -215 7 l-88 0 0
173 c0 94 3 202 7 240 l6 67 128 0 129 0 24 -47z m608 -430 c-4 -164 -20 -295
-39 -315 -21 -24 -30 -23 -39 5 -17 58 -13 57 -316 57 -265 0 -279 -1 -298
-20 -11 -11 -20 -24 -20 -30 0 -5 -9 -10 -20 -10 -18 0 -20 7 -20 54 0 30 -5
58 -10 61 -13 8 -406 9 -419 0 -6 -3 -10 -31 -9 -63 2 -62 -13 -76 -35 -32
-12 23 -19 25 -112 31 -167 11 -388 10 -451 -2 -36 -7 -66 -19 -77 -32 -10
-11 -21 -17 -25 -13 -6 7 -20 375 -15 385 2 2 47 -19 101 -47 l98 -51 650 -16
649 -15 200 74 c110 41 202 75 205 75 3 1 4 -43 2 -96z m-2724 68 c81 -41 170
-54 339 -49 87 3 166 8 176 13 15 6 17 1 17 -43 0 -27 -3 -70 -6 -96 l-7 -46
-66 0 c-168 0 -351 21 -434 48 -76 25 -82 29 -85 57 -5 43 8 135 19 135 5 0
26 -8 47 -19z m3560 -104 l4 -87 -289 2 -288 3 -8 74 c-4 40 -6 75 -4 78 3 2
37 -4 78 -13 97 -22 303 -15 404 14 39 11 77 19 84 19 12 -2 16 -23 19 -90z
m-3533 -111 c91 -28 142 -34 345 -41 l145 -5 3 -177 c3 -196 4 -193 -63 -193
-57 0 -66 20 -79 175 -5 71 -15 133 -20 137 -13 9 -172 10 -215 2 l-32 -7 3
-244 c3 -269 2 -263 69 -263 78 0 119 -29 119 -85 0 -36 -38 -48 -120 -41
-128 13 -121 8 -199 121 l-71 104 0 178 c0 230 10 375 24 369 6 -3 47 -16 91
-30z m3545 -28 c0 -7 0 -128 1 -270 0 -254 -1 -257 -27 -322 -14 -37 -38 -75
-51 -86 -38 -30 -100 -43 -178 -37 -106 7 -148 33 -125 77 15 27 42 40 118 54
l67 12 0 250 0 249 -119 3 c-89 2 -121 -1 -128 -10 -4 -7 -8 -50 -8 -96 0
-130 -25 -200 -78 -216 -12 -4 -30 -2 -42 4 -19 10 -20 20 -20 205 l0 195 295
0 c229 0 295 -3 295 -12z m-1645 -58 c3 -5 7 -181 8 -392 2 -422 0 -436 -59
-475 -40 -26 -195 -26 -242 0 -65 36 -67 48 -66 469 1 207 4 384 7 392 6 14
31 16 176 16 97 0 172 -4 176 -10z m-463 -76 c8 -5 9 -81 6 -266 -5 -273 2
-465 21 -535 17 -61 55 -103 94 -103 77 0 85 -10 96 -108 l7 -62 -419 2 -420
3 2 165 c1 168 16 606 26 760 9 135 10 138 58 149 46 11 510 7 529 -5z m1142
-1 c12 -44 16 -96 31 -358 13 -252 20 -359 40 -632 l6 -83 -425 0 -426 0 0 44
c0 24 3 57 6 74 6 29 10 31 78 43 109 20 111 24 119 208 4 85 7 270 7 412 0
143 4 269 10 283 l10 26 269 0 c248 0 270 -1 275 -17z m-914 -1613 c0 -275 -3
-500 -7 -500 -5 0 -17 14 -28 31 -51 79 -157 131 -317 155 -86 13 -110 13
-196 0 -138 -21 -208 -49 -309 -122 l-23 -16 0 63 c0 35 5 156 10 269 5 113 9
255 10 315 1 61 4 154 7 208 l6 97 423 0 424 0 0 -500z m990 483 c0 -10 9
-200 20 -423 11 -223 20 -434 20 -469 l0 -63 -40 40 c-93 97 -193 135 -355
134 -194 0 -379 -53 -462 -132 -18 -16 -34 -30 -37 -30 -4 0 -6 216 -6 480 l0
480 430 0 c403 0 430 -1 430 -17z m-265 -823 c152 -22 276 -120 315 -250 4
-14 11 -33 15 -42 7 -17 -20 -18 -469 -18 l-477 0 7 38 c10 58 42 118 82 153
79 70 234 115 432 127 14 1 57 -3 95 -8z m-1006 -26 c127 -29 221 -104 261
-210 11 -30 20 -59 20 -64 0 -6 -174 -10 -465 -10 -528 0 -487 -8 -440 87 59
117 189 189 390 216 46 6 163 -3 234 -19z m289 -446 l3 -118 -476 0 -475 0 0
120 0 120 473 -2 472 -3 3 -117z m1060 5 l-3 -118 -480 0 -480 0 -3 104 c-1
58 0 111 2 118 4 10 98 13 486 13 l481 0 -3 -117z"/>
<path d="M3217 7340 c-39 -22 -45 -28 -29 -32 11 -3 21 -17 25 -34 9 -46 48
-96 100 -128 118 -73 293 -13 366 124 25 47 37 59 59 62 22 3 17 6 -30 21 -66
20 -76 21 -60 5 48 -48 -60 -174 -171 -198 -95 -22 -181 21 -219 108 -17 38
-18 46 -5 60 41 48 32 51 -36 12z"/>
<path d="M3871 6276 c-8 -9 -11 -82 -9 -242 l3 -229 109 -3 c120 -3 135 3 137
52 1 31 1 31 13 -9 l13 -40 119 0 119 0 -2 53 c-2 34 -12 74 -30 110 -28 57
-28 58 -10 92 22 43 18 111 -10 148 -50 66 -108 82 -308 82 -100 0 -135 -3
-144 -14z m377 -40 c39 -20 72 -70 72 -110 0 -15 -10 -45 -21 -66 l-22 -38 20
-29 c24 -33 53 -117 53 -150 0 -23 -1 -24 -97 -21 l-96 3 -12 57 c-10 53 -36
98 -56 98 -5 0 -9 -35 -11 -77 l-3 -78 -95 0 -95 0 -3 205 c-1 112 0 211 3
218 8 22 318 12 363 -12z"/>
</g>
</svg>
