<?xml version="1.0" standalone="no"?>
<!DOCTYPE svg PUBLIC "-//W3C//DTD SVG 20010904//EN"
 "http://www.w3.org/TR/2001/REC-SVG-20010904/DTD/svg10.dtd">
<svg version="1.0" xmlns="http://www.w3.org/2000/svg"
 width="720.000000pt" height="1117.000000pt" viewBox="0 0 720.000000 1117.000000"
 preserveAspectRatio="xMidYMid meet">
<metadata>
Created by potrace 1.16, written by Peter Selinger 2001-2019
</metadata>
<g transform="translate(0.000000,1117.000000) scale(0.100000,-0.100000)"
fill="#000000" stroke="none">
<path d="M4624 9041 c-17 -11 -36 -33 -42 -50 -17 -47 -42 -57 -411 -152 -229
-60 -376 -90 -606 -123 -60 -9 -180 -30 -265 -46 -291 -54 -423 -62 -585 -35
-92 16 -233 55 -293 81 -18 8 -38 14 -44 14 -19 0 -47 -31 -42 -45 3 -7 -8
-21 -25 -31 -17 -10 -31 -21 -31 -24 0 -3 10 -33 21 -65 22 -62 49 -176 49
-207 0 -11 -8 -18 -18 -18 -23 0 -42 -19 -42 -42 0 -11 -7 -33 -16 -51 -15
-27 -15 -41 -5 -110 28 -179 174 -503 303 -668 38 -49 37 -62 -4 -54 -29 6
-71 34 -89 59 -10 13 -29 -3 -29 -24 0 -27 106 -146 202 -227 134 -112 264
-188 377 -219 34 -10 61 -23 61 -30 0 -7 -12 -22 -27 -34 -15 -11 -34 -32 -42
-45 -9 -13 -37 -54 -62 -92 -51 -75 -121 -191 -161 -268 -15 -27 -61 -115
-103 -195 -42 -80 -97 -197 -122 -260 -25 -63 -58 -142 -73 -175 -26 -58 -46
-121 -128 -390 -96 -312 -134 -443 -143 -484 -13 -64 -72 -152 -135 -205 -31
-25 -60 -46 -65 -46 -5 0 -9 -12 -8 -27 1 -16 -10 -51 -25 -80 -24 -47 -26
-61 -24 -145 l3 -92 40 -20 c58 -31 67 -55 49 -146 -8 -41 -13 -104 -12 -140
2 -56 -4 -78 -35 -151 -23 -53 -39 -108 -41 -142 -4 -50 -1 -61 25 -97 16 -23
50 -55 74 -72 33 -24 46 -40 54 -72 14 -58 61 -119 107 -141 22 -10 65 -21 96
-23 52 -4 58 -7 72 -36 16 -35 68 -87 105 -106 29 -15 110 -6 153 16 17 9 32
13 34 11 6 -5 -32 -170 -46 -204 -8 -19 -17 -23 -50 -23 -47 0 -49 -7 -15 -75
30 -61 31 -77 5 -93 -17 -10 -18 -15 -8 -32 11 -17 8 -24 -23 -57 -49 -51
-112 -157 -107 -180 3 -15 12 -18 61 -15 l57 2 0 -102 c0 -114 6 -148 25 -148
10 0 13 30 14 128 1 70 -3 133 -8 141 -6 10 -21 11 -60 6 -28 -4 -51 -4 -51
-1 0 15 68 116 103 152 30 33 37 47 32 64 -5 17 -2 23 14 27 21 5 28 23 14 37
-8 8 -43 97 -43 110 0 4 11 5 24 2 32 -8 39 3 65 109 36 145 52 188 80 225 78
102 91 164 67 330 -28 197 -30 236 -11 243 9 4 14 11 11 16 -3 5 -1 65 4 134
9 126 2 203 -29 280 -12 32 -2 88 23 122 12 16 16 17 30 6 9 -8 19 -12 21 -9
3 3 1 67 -5 144 -5 76 -10 190 -10 253 0 90 -3 118 -16 132 -14 16 -14 33 6
196 26 220 38 314 50 378 5 28 16 95 25 150 20 119 44 200 118 400 81 218 120
308 136 313 11 4 12 -2 8 -24 -27 -122 -31 -353 -8 -471 6 -26 17 -95 26 -152
18 -113 47 -232 69 -283 8 -18 24 -58 35 -88 l21 -55 -34 -105 c-43 -133 -60
-194 -85 -300 -37 -156 -61 -254 -81 -330 -11 -41 -27 -113 -35 -159 -13 -74
-25 -102 -98 -230 -116 -204 -163 -307 -171 -369 -10 -76 14 -65 36 18 9 34
41 108 70 164 94 181 133 252 155 286 12 18 26 62 33 99 6 36 24 116 39 176
16 61 45 182 66 270 40 174 109 413 132 458 9 18 11 33 4 45 -24 46 -90 236
-104 302 -81 374 -87 618 -21 865 9 33 19 70 21 83 6 27 23 29 23 2 0 -10 9
-24 20 -30 11 -6 20 -21 20 -35 0 -31 30 -41 68 -21 85 44 204 123 259 171 41
36 70 55 87 55 14 0 26 -2 26 -4 0 -2 -19 -36 -41 -76 -61 -105 -80 -175 -86
-319 l-6 -124 31 6 c20 4 34 1 42 -8 15 -18 50 -20 50 -2 0 28 21 244 25 265
11 47 23 9 28 -90 6 -120 45 -283 68 -283 8 0 15 12 17 30 6 70 10 76 45 70
24 -5 39 -1 57 13 l24 19 -24 57 c-13 32 -26 74 -31 94 -34 166 -47 246 -50
302 -3 55 -1 65 14 68 15 3 17 -5 16 -75 -2 -112 23 -195 75 -246 53 -52 148
-97 203 -97 45 0 63 -17 63 -60 0 -34 28 -79 62 -100 29 -17 31 -22 29 -77 -1
-81 -18 -199 -35 -255 -25 -80 -136 -295 -176 -341 -21 -23 -82 -72 -136 -109
-84 -56 -112 -69 -187 -87 -49 -12 -110 -21 -135 -21 -63 -1 -78 -14 -85 -80
-4 -30 -13 -104 -22 -165 -26 -189 -16 -880 15 -1018 7 -35 -2 -59 -15 -37
-10 16 -45 12 -45 -6 0 -9 -9 -28 -19 -43 -42 -58 -81 -278 -102 -566 -7 -109
-15 -165 -25 -176 -11 -12 -14 -51 -14 -167 0 -88 -4 -153 -10 -157 -6 -3 -7
-30 -3 -65 12 -117 12 -115 -25 -112 -27 3 -34 -1 -43 -25 -6 -17 -8 -55 -4
-95 l6 -68 -29 0 c-40 0 -337 -47 -387 -61 -82 -23 -190 -71 -229 -102 -102
-79 -121 -131 -67 -180 74 -65 143 -82 426 -101 132 -9 297 -21 367 -26 98 -7
147 -5 215 6 48 7 123 14 166 14 47 0 92 6 114 15 42 18 128 14 243 -10 141
-29 186 -32 575 -30 l390 2 57 28 c64 32 78 55 78 124 0 47 -3 51 -56 100 -71
65 -100 79 -249 126 -148 46 -147 45 -156 80 -11 38 -48 75 -76 75 -67 0 -84
55 -35 112 16 18 34 52 40 75 7 23 19 49 28 57 43 43 59 150 25 161 -11 3 -34
22 -50 41 -26 29 -31 43 -31 84 0 43 -3 50 -20 50 -24 0 -25 11 -6 105 23 120
92 329 207 628 28 74 29 80 15 103 -15 22 -15 24 9 40 14 9 25 20 25 24 0 4
-21 29 -47 54 -47 46 -47 48 -44 104 9 148 12 140 -41 125 -19 -6 -40 35 -113
218 -21 52 -53 127 -72 167 -18 40 -58 136 -89 215 -218 562 -247 645 -228
674 20 32 32 24 53 -32 27 -71 74 -174 112 -245 16 -30 77 -151 135 -268 85
-172 116 -224 162 -273 73 -79 118 -103 186 -95 28 3 62 6 75 6 30 0 51 17 51
41 0 10 17 30 39 45 43 32 79 92 93 156 48 229 50 265 50 671 0 184 -5 207
-42 207 -25 0 -27 12 -18 95 4 40 7 104 5 141 l-2 69 -35 1 c-34 0 -35 2 -51
60 -9 32 -36 97 -61 144 -25 47 -49 98 -52 114 -10 41 -66 125 -109 163 -36
32 -90 53 -135 53 -23 0 -24 2 -17 48 5 38 1 64 -19 121 -14 40 -35 88 -47
108 -28 44 -90 90 -143 104 -67 18 -71 26 -34 69 106 121 189 249 208 318 6
24 38 96 71 160 64 124 90 191 208 528 44 125 74 247 83 339 l3 30 -55 0 c-53
0 -55 1 -58 27 -2 15 -12 34 -23 42 -14 10 -19 23 -18 47 2 19 2 65 1 102 -2
83 -16 92 -72 47 -22 -17 -44 -29 -50 -25 -5 3 -15 26 -21 50 -15 60 -31 72
-65 50 -45 -29 -52 10 -18 107 18 53 2 62 -52 29z m0 -135 c9 -45 31 -64 57
-48 30 19 37 15 50 -30 22 -75 47 -87 89 -43 13 14 27 25 32 25 4 0 8 -45 8
-100 0 -93 2 -101 26 -127 14 -15 33 -36 41 -45 10 -11 31 -18 55 -18 44 0 44
0 23 -97 -33 -156 -252 -753 -277 -753 -4 0 -8 12 -8 26 0 39 -50 84 -94 84
-49 0 -84 -15 -138 -61 -26 -21 -48 -39 -50 -39 -2 0 -3 44 -3 97 -1 115 -19
165 -86 238 -66 71 -149 105 -261 105 -76 0 -104 -12 -166 -73 -109 -107 -146
-203 -122 -320 17 -81 42 -129 97 -188 41 -44 45 -54 20 -50 -83 14 -117 12
-178 -14 -169 -71 -195 -70 -115 5 37 35 64 73 90 129 32 69 37 88 38 162 2
105 -19 178 -75 261 -36 52 -53 67 -118 101 -68 35 -86 40 -165 44 -115 6
-261 -29 -328 -79 -86 -64 -136 -194 -121 -315 3 -29 4 -53 2 -53 -3 0 -22 16
-43 35 -43 39 -124 85 -150 85 -9 0 -31 -9 -49 -20 -40 -25 -61 -95 -50 -165
15 -101 99 -297 160 -370 54 -66 167 -179 210 -210 53 -40 28 -44 -61 -10
-112 42 -228 119 -364 244 -36 32 -62 62 -58 66 4 4 33 -3 63 -15 51 -21 58
-21 72 -8 13 14 13 17 -5 34 -36 35 -191 272 -226 346 -101 218 -140 334 -145
433 -2 41 2 55 18 69 12 11 21 30 21 43 0 12 6 23 13 23 7 0 21 6 31 13 16 12
16 16 1 77 -9 36 -25 95 -36 131 -25 84 -24 87 9 91 22 2 27 8 27 30 1 35 9
42 32 29 71 -39 354 -101 458 -101 61 0 352 40 442 61 26 6 73 14 103 19 249
38 412 66 505 87 277 62 585 143 630 165 65 33 62 33 69 -6z m-1166 -765 c8
-5 -20 -10 -71 -13 -104 -7 -180 -41 -238 -107 -87 -98 -117 -193 -98 -309 5
-36 7 -67 4 -70 -3 -3 -16 5 -29 17 -51 48 -63 218 -22 306 43 93 119 143 271
178 35 8 170 7 183 -2z m662 -60 c0 -5 -14 -14 -31 -21 -54 -23 -154 -129
-173 -185 -33 -97 -30 -217 9 -308 12 -29 -18 -10 -42 27 -58 90 -73 229 -32
312 28 56 119 150 162 169 36 16 107 20 107 6z m-1315 -290 c28 -16 91 -66
140 -111 98 -90 213 -179 260 -203 97 -49 294 -93 375 -84 25 3 83 22 128 41
94 40 118 43 206 20 87 -23 217 -3 302 45 10 6 35 17 54 26 19 8 60 35 90 60
30 25 78 59 105 76 28 16 65 41 84 55 34 24 84 31 109 15 22 -13 25 -80 8
-160 -24 -116 -83 -222 -178 -325 -74 -79 -140 -127 -156 -112 -3 4 20 31 51
62 67 66 106 124 176 257 106 202 46 251 -137 110 -222 -172 -382 -232 -564
-212 -84 10 -94 9 -167 -16 -136 -45 -194 -44 -346 7 -170 56 -266 113 -403
240 -102 94 -162 107 -162 34 1 -44 31 -105 99 -199 80 -110 150 -181 249
-255 97 -71 264 -155 354 -178 35 -9 69 -21 77 -28 10 -8 81 -10 233 -9 173 2
218 -1 218 -11 0 -32 -90 -71 -137 -60 -13 4 -30 1 -38 -6 -33 -27 -287 9
-449 64 -92 31 -230 98 -283 139 -133 101 -164 128 -221 191 -67 75 -134 199
-172 319 -30 91 -25 190 9 218 29 24 27 24 86 -10z m61 -189 c74 -54 154 -141
154 -167 0 -21 19 -78 55 -169 25 -61 -99 62 -175 174 -72 106 -108 190 -82
190 5 0 27 -13 48 -28z m1704 -23 c0 -23 -98 -219 -130 -259 l-20 -25 0 76 c0
42 -3 90 -6 107 -6 28 -2 33 62 76 76 51 94 56 94 25z m-1266 -261 c34 -12 64
-24 68 -27 4 -4 -6 -33 -22 -65 -17 -32 -30 -65 -30 -72 0 -43 -61 36 -79 101
-12 45 -14 85 -5 85 4 0 34 -10 68 -22z m796 -22 c0 -49 -23 -176 -39 -218
-16 -42 -31 -33 -31 17 0 57 -35 165 -61 187 -10 9 -19 18 -19 21 0 6 38 17
80 23 19 3 36 7 39 9 2 3 10 5 18 5 9 0 13 -14 13 -44z m-200 9 c14 -9 6 -64
-21 -155 -29 -93 -51 -141 -62 -137 -6 2 -18 27 -28 56 -10 28 -36 88 -59 131
-22 44 -40 86 -40 94 0 8 12 17 28 19 37 7 168 1 182 -8z m-270 -35 c0 -5 -9
-32 -20 -59 -10 -27 -22 -72 -26 -100 -4 -30 -12 -51 -19 -51 -20 0 -89 118
-110 187 -6 21 -3 22 72 26 43 1 84 4 91 5 6 1 12 -2 12 -8z m353 -85 c9 -33
19 -90 22 -127 5 -58 3 -67 -12 -72 -31 -8 -142 -11 -143 -3 0 4 7 21 15 38
19 36 47 121 65 197 15 66 29 57 53 -33z m-555 49 c6 -33 74 -163 99 -185 12
-13 23 -26 23 -31 0 -16 -56 -7 -130 21 l-75 28 2 39 c1 21 14 65 28 97 26 57
47 69 53 31z m276 -46 c28 -62 76 -194 76 -210 0 -14 -120 -9 -151 7 -22 12
-28 21 -25 38 3 12 7 42 11 67 9 71 37 160 49 160 6 0 24 -28 40 -62z m714
-279 c-4 -10 -156 -109 -167 -109 -9 0 -61 75 -61 88 0 10 83 73 125 95 30 16
30 16 68 -25 21 -23 36 -45 35 -49z m-1171 39 c38 -18 69 -33 71 -34 3 -2 -37
-131 -78 -254 -10 -30 -46 -118 -80 -195 -34 -77 -75 -174 -90 -215 -15 -41
-48 -129 -73 -196 -72 -190 -125 -479 -168 -926 -12 -113 -11 -129 3 -145 22
-25 38 -403 17 -403 -8 0 -27 -29 -43 -65 -30 -69 -31 -85 -2 -184 12 -40 15
-87 12 -178 -1 -68 -5 -126 -9 -129 -3 -3 -23 8 -45 26 -37 30 -42 31 -80 20
-28 -7 -52 -24 -75 -52 -31 -37 -37 -40 -52 -28 -23 19 -44 74 -51 136 -8 61
-25 84 -50 63 -19 -16 -63 -101 -78 -152 -12 -42 -31 -50 -32 -14 -1 42 -17
87 -30 87 -8 0 -26 -19 -41 -42 l-28 -42 -6 30 c-4 16 -7 64 -8 107 -1 62 -4
79 -17 84 -24 9 -45 -7 -79 -60 -50 -77 -52 -69 -29 125 8 69 -7 99 -64 126
l-37 17 -3 78 c-2 66 1 86 24 137 15 33 30 60 35 60 4 0 9 10 11 22 2 14 18
31 40 43 39 22 86 80 115 140 9 19 20 35 23 35 4 0 10 22 13 49 8 70 230 819
259 876 9 17 37 84 63 150 52 134 183 399 283 575 68 121 136 220 211 308 54
63 73 65 168 20z m193 -73 c41 -14 85 -25 97 -25 13 0 23 -4 23 -10 0 -5 -2
-10 -3 -10 -2 0 -61 -20 -132 -45 l-128 -45 6 36 c8 49 40 124 52 124 6 0 44
-12 85 -25z m1029 -41 c12 -19 21 -41 21 -48 0 -7 -21 -23 -47 -34 -27 -12
-61 -29 -76 -39 l-28 -18 -30 33 c-16 18 -29 36 -29 41 0 16 131 101 157 101
6 0 20 -16 32 -36z m-844 -59 c-47 -42 -185 -132 -237 -153 -4 -2 -8 10 -8 26
0 24 -5 31 -26 36 -52 13 -22 37 109 86 71 27 131 51 135 54 3 3 24 6 46 6
l41 -1 -60 -54z m275 -46 c14 -116 39 -247 62 -327 11 -40 18 -75 15 -79 -4
-3 -18 -1 -32 5 -19 9 -27 8 -39 -3 -26 -26 -33 -17 -50 68 -15 79 -13 181 9
377 2 19 4 39 4 45 1 5 5 5 11 -1 6 -6 15 -44 20 -85z m-90 38 c0 -1 -11 -47
-25 -102 -14 -55 -29 -146 -34 -203 -4 -56 -11 -105 -14 -108 -3 -3 -18 5 -33
19 -26 24 -27 29 -21 94 9 102 87 303 118 303 5 0 9 -1 9 -3z m1026 -86 c37
-23 87 -95 114 -168 11 -29 37 -84 58 -121 36 -64 62 -133 62 -163 0 -8 -15
-21 -32 -29 -23 -12 -35 -27 -45 -60 -7 -25 -22 -56 -34 -69 -20 -24 -21 -24
-48 -8 -30 18 -40 13 -54 -25 -8 -22 -30 -23 -47 -3 -7 8 -23 15 -36 15 -18 0
-25 -8 -33 -37 -6 -21 -11 -48 -11 -60 0 -29 -19 -29 -70 -3 -22 11 -48 20
-58 20 -11 0 -25 7 -32 15 -7 8 -18 15 -24 15 -17 0 -58 47 -89 102 -44 76
-33 164 28 235 37 44 44 63 21 63 -7 0 -33 -27 -57 -60 -24 -33 -49 -60 -55
-60 -16 0 -42 32 -55 67 -14 42 2 100 44 154 31 41 154 123 262 175 63 30 146
32 191 5z m-445 -46 c19 -14 34 -29 34 -33 0 -12 -81 -82 -95 -82 -19 0 -80
40 -80 52 0 14 80 88 95 88 6 0 27 -11 46 -25z m671 -517 c2 -25 8 -34 25 -36
17 -3 26 5 37 33 27 65 37 33 34 -108 l-3 -132 26 -3 c23 -3 26 -8 29 -50 5
-69 4 -275 -2 -457 -9 -256 -62 -440 -140 -484 -17 -9 -31 -27 -35 -43 -4 -22
-13 -28 -50 -36 -78 -17 -141 12 -215 99 -25 30 -62 86 -81 124 -19 39 -67
131 -106 205 -99 189 -157 308 -207 429 l-44 104 27 59 c14 32 31 57 36 55 15
-5 187 -259 187 -275 0 -7 12 -30 27 -53 25 -37 25 -40 8 -53 -14 -10 -16 -20
-11 -50 7 -39 59 -106 82 -106 21 0 17 23 -6 38 -21 13 -63 86 -53 95 3 3 13
1 24 -6 27 -17 35 0 16 32 -23 40 -21 58 8 65 14 4 25 14 25 23 0 9 -11 31
-25 49 -14 18 -25 44 -25 58 0 14 -5 28 -10 31 -16 10 -48 78 -43 92 2 6 -5
30 -16 52 -31 59 -28 74 12 66 17 -4 56 -16 85 -28 68 -27 86 -18 90 47 4 53
17 58 63 25 34 -24 59 -19 59 11 0 16 7 20 32 20 39 0 98 52 98 86 0 58 37 76
42 22z m-608 -65 c8 -16 26 -38 40 -50 15 -14 26 -33 26 -48 0 -14 7 -41 15
-61 8 -19 12 -41 9 -48 -3 -8 8 -33 25 -57 17 -23 31 -51 31 -61 0 -22 25 -75
48 -101 8 -9 12 -20 9 -24 -9 -8 -53 32 -83 77 -13 19 -34 49 -46 66 -102 141
-129 190 -123 219 3 17 8 49 12 73 7 49 17 53 37 15z m-157 -560 c23 -65 65
-179 93 -253 29 -74 63 -164 76 -200 14 -36 34 -90 45 -120 11 -30 26 -68 33
-85 18 -37 98 -226 118 -280 9 -22 32 -75 52 -117 31 -68 39 -78 62 -78 l26 0
-7 -73 -7 -72 41 -33 c47 -37 51 -53 19 -75 -23 -14 -23 -15 -4 -36 23 -25 26
-11 -64 -256 -132 -358 -193 -615 -145 -615 10 0 15 -10 15 -34 0 -40 34 -94
78 -121 28 -17 32 -24 27 -50 -7 -37 -69 -169 -98 -210 -69 -92 -59 -155 23
-155 44 0 70 -20 70 -56 l0 -25 -102 7 c-78 5 -122 3 -182 -10 -43 -9 -95 -16
-115 -16 -80 0 -298 -63 -379 -111 -44 -26 -55 -17 -47 38 4 29 2 49 -6 59
-20 24 -5 113 35 209 66 158 72 178 59 182 -20 7 -16 93 8 191 15 58 20 101
16 135 -4 34 -2 58 8 78 19 36 19 39 -5 39 -11 0 -20 -4 -20 -10 0 -5 -7 -10
-15 -10 -12 0 -12 5 -2 28 14 31 154 291 233 433 59 104 64 128 34 147 -16 10
-27 9 -57 -3 -20 -8 -38 -13 -41 -11 -7 7 35 93 75 153 60 91 63 142 18 298
-13 44 -31 116 -40 160 -10 44 -23 96 -31 115 -17 45 -46 158 -74 290 -13 58
-28 114 -35 125 -25 40 -67 230 -69 314 -1 31 5 38 82 91 46 32 97 76 115 99
17 23 34 41 37 41 3 0 24 -53 47 -117z m-302 -200 c21 -121 43 -209 59 -243 7
-14 21 -61 30 -105 10 -44 31 -132 47 -195 17 -63 41 -160 55 -215 13 -55 34
-134 46 -175 12 -42 21 -106 22 -145 1 -64 -2 -75 -35 -125 -40 -60 -99 -189
-99 -214 0 -24 28 -19 62 9 59 50 96 22 57 -42 -12 -21 -46 -81 -74 -133 -224
-411 -221 -404 -186 -415 14 -4 22 -18 27 -51 7 -48 3 -81 -20 -184 -17 -71
-19 -134 -7 -165 6 -14 0 -38 -17 -75 -60 -132 -82 -212 -82 -297 0 -46 -4
-83 -9 -83 -5 0 -49 20 -97 44 -49 24 -100 47 -114 51 -14 4 -51 18 -82 31
-51 21 -62 23 -101 13 -23 -7 -59 -9 -79 -5 l-36 7 -7 69 c-4 38 -4 74 0 79 3
6 24 11 47 11 l40 0 -3 88 c-2 48 -2 158 -1 244 2 138 4 157 19 160 14 3 17
21 20 133 4 178 38 452 69 553 20 66 28 82 44 82 11 0 20 5 20 11 0 6 14 9 33
7 17 -2 32 2 32 7 0 6 -6 48 -12 95 -32 228 -45 804 -23 963 23 163 33 223 42
240 6 12 21 17 56 18 26 0 88 11 137 24 50 12 93 23 97 24 3 0 14 -43 23 -96z
m-1800 -1208 c7 -106 19 -133 50 -122 8 4 21 22 29 42 20 47 32 44 40 -10 13
-85 65 -102 78 -25 9 52 59 171 69 164 4 -2 10 -21 14 -41 15 -82 62 -153 101
-153 15 0 29 12 45 38 12 20 29 43 37 50 25 19 64 14 95 -13 27 -24 29 -31 33
-120 2 -51 11 -137 19 -189 10 -67 11 -112 5 -151 -18 -111 -124 -216 -234
-231 -39 -6 -50 -3 -80 19 -40 31 -71 91 -101 196 -15 51 -28 77 -39 79 -20 4
-21 -19 -1 -83 8 -27 12 -52 9 -57 -16 -25 -123 8 -159 49 -34 38 -48 95 -47
181 1 65 0 73 -16 70 -11 -2 -18 -14 -20 -36 -4 -41 -23 -49 -56 -25 -64 47
-61 145 11 292 58 121 93 181 103 181 4 0 11 -47 15 -105z m1566 -1631 c150
-76 216 -150 189 -214 -20 -48 -61 -64 -159 -63 -47 1 -112 -4 -145 -12 -77
-19 -185 -18 -466 1 -311 21 -388 29 -439 48 -59 22 -111 62 -111 86 0 60 146
151 316 196 111 29 337 55 424 49 47 -3 99 -2 115 3 37 11 136 -23 276 -94z
m930 66 c235 -29 462 -121 513 -209 26 -45 15 -96 -27 -122 -66 -40 -96 -42
-517 -40 -397 2 -408 2 -540 29 l-134 27 3 52 c2 42 -2 59 -19 80 -20 26 -21
28 -3 41 67 51 252 106 423 124 52 6 118 14 145 18 28 4 55 8 61 9 6 0 49 -4
95 -9z"/>
</g>
</svg>
