<?xml version="1.0" standalone="no"?>
<!DOCTYPE svg PUBLIC "-//W3C//DTD SVG 20010904//EN"
 "http://www.w3.org/TR/2001/REC-SVG-20010904/DTD/svg10.dtd">
<svg version="1.0" xmlns="http://www.w3.org/2000/svg"
 width="720.000000pt" height="1117.000000pt" viewBox="0 0 720.000000 1117.000000"
 preserveAspectRatio="xMidYMid meet">
<metadata>
Created by potrace 1.16, written by Peter Selinger 2001-2019
</metadata>
<g transform="translate(0.000000,1117.000000) scale(0.100000,-0.100000)"
fill="#000000" stroke="none">
<path d="M5330 8925 c-80 -43 -171 -77 -269 -102 -53 -13 -109 -31 -125 -39
-16 -7 -38 -14 -48 -14 -11 0 -28 -5 -38 -10 -42 -23 -202 -32 -570 -34 -212
-2 -392 -6 -401 -10 -12 -5 -18 -1 -22 14 -5 19 -10 20 -44 14 -36 -7 -84 -22
-182 -58 -41 -16 -46 -16 -103 4 -62 21 -173 50 -196 50 -8 0 -11 -7 -8 -17 5
-17 -6 -18 -157 -16 -89 1 -216 7 -282 13 -66 5 -212 15 -325 21 -301 15 -425
37 -542 94 -55 27 -58 27 -83 11 -14 -9 -25 -25 -25 -36 0 -33 -16 -23 -86 55
-77 85 -101 93 -96 30 6 -88 70 -293 128 -408 31 -62 30 -68 -6 -54 -16 6 -32
8 -36 4 -4 -4 12 -64 35 -134 23 -71 45 -150 50 -178 14 -73 36 -134 92 -248
76 -158 109 -214 175 -305 16 -22 16 -23 -4 -29 -30 -7 -28 -15 18 -61 42 -42
50 -62 25 -62 -23 0 -18 -17 24 -78 90 -129 162 -212 261 -297 58 -49 139
-124 180 -166 96 -97 196 -174 268 -205 100 -43 132 -59 132 -65 0 -4 -24 -26
-54 -50 -69 -56 -108 -114 -146 -214 -17 -44 -35 -88 -40 -97 -6 -10 -10 -25
-10 -33 0 -8 -4 -23 -9 -33 -21 -41 -44 -145 -60 -267 -5 -38 -19 -142 -31
-230 -12 -88 -27 -212 -35 -275 -29 -246 -70 -559 -79 -595 -13 -56 -36 -179
-46 -245 -6 -41 -24 -113 -39 -160 -16 -47 -27 -88 -24 -92 2 -5 12 -8 22 -8
16 0 17 -5 9 -50 -5 -27 -8 -85 -6 -127 3 -72 5 -78 26 -81 15 -2 22 -10 22
-26 0 -35 27 -104 60 -156 16 -25 42 -78 59 -118 30 -76 67 -137 109 -184 23
-26 24 -30 18 -140 -11 -229 -53 -505 -110 -723 -2 -5 -8 -22 -14 -37 -6 -16
-9 -40 -6 -56 3 -16 -3 -49 -16 -81 -26 -66 -21 -86 20 -77 73 14 -2 -78 -105
-130 -58 -29 -115 -83 -115 -109 0 -48 38 -95 100 -123 40 -18 181 -19 295 -3
39 6 131 11 205 11 180 1 196 8 237 90 25 50 33 78 33 123 0 55 1 57 26 57
l27 0 -7 84 c-3 46 -9 91 -12 100 -4 12 0 16 16 16 22 0 22 2 16 88 -3 48 -2
195 4 327 19 506 18 482 54 910 30 358 38 444 62 685 13 135 28 294 34 353 5
60 15 124 21 141 l12 33 94 2 c89 1 94 0 102 -22 5 -12 19 -115 31 -227 23
-219 45 -403 54 -460 3 -19 8 -84 11 -144 3 -61 10 -126 15 -145 8 -31 26
-208 28 -281 1 -14 8 -113 17 -220 9 -115 15 -319 15 -497 0 -251 2 -303 14
-310 15 -8 34 -172 39 -332 2 -71 3 -75 32 -91 27 -15 31 -23 37 -82 7 -77 40
-158 63 -158 9 0 26 -6 38 -14 41 -26 201 -49 290 -42 45 3 152 6 237 7 170 2
208 9 257 46 37 28 41 54 19 106 -13 32 -68 87 -87 87 -4 0 -38 13 -74 30 -53
24 -65 34 -65 54 0 24 -22 113 -58 241 -14 47 -17 73 -11 82 7 8 5 41 -5 100
-8 48 -14 95 -13 103 1 8 -2 42 -7 74 -7 51 -5 62 9 72 14 11 15 18 7 46 -6
18 -14 56 -18 83 -4 28 -11 60 -15 73 -5 13 -16 82 -25 153 l-16 130 27 39
c24 35 34 60 52 140 3 14 23 45 45 69 21 24 38 50 38 57 0 7 12 22 27 33 26
21 26 22 20 120 -5 82 -3 100 8 105 21 8 19 32 -10 120 -14 42 -25 83 -25 91
0 8 -7 35 -15 59 -19 56 -55 301 -55 376 0 31 -4 60 -10 66 -5 5 -14 84 -20
174 -10 164 -12 208 -25 555 -4 99 -11 191 -16 205 -5 14 -11 41 -14 60 -5 33
-30 168 -55 294 -15 77 -54 186 -93 259 -33 64 -169 197 -199 197 -10 0 -18 5
-18 10 0 6 8 13 18 17 9 3 68 40 130 81 88 58 134 98 215 185 56 61 128 136
161 166 32 31 76 82 97 113 22 31 55 74 74 95 19 21 38 46 41 56 3 9 10 17 15
17 5 0 9 4 9 9 0 5 20 43 44 84 49 82 74 175 50 184 -7 2 -18 2 -24 -2 -6 -4
3 18 20 49 17 30 33 72 34 93 2 21 14 61 28 88 45 89 97 218 122 302 13 45 30
92 37 105 21 39 43 154 53 276 7 79 6 84 -13 89 -25 6 -25 6 -4 46 9 18 19 45
21 61 3 27 2 28 -27 23 -17 -4 -31 -4 -31 -2 0 3 16 35 35 72 26 48 35 77 33
102 -4 44 -19 48 -78 16z m40 -42 c0 -10 -22 -55 -49 -100 -30 -49 -46 -85
-40 -89 6 -3 26 -3 45 0 19 4 34 4 34 1 0 -3 -11 -23 -24 -44 -25 -39 -21 -61
11 -61 16 0 17 -57 2 -155 -6 -38 -12 -81 -14 -95 -9 -64 -122 -373 -180 -490
-61 -123 -64 -132 -52 -151 9 -15 4 -28 -31 -79 -55 -81 -58 -112 -5 -70 23
18 53 27 53 15 0 -14 -57 -121 -103 -191 -61 -96 -146 -204 -160 -204 -12 0
-2 57 25 137 15 47 19 80 16 137 -4 83 -19 113 -79 154 -30 21 -43 23 -99 19
-72 -5 -90 -13 -170 -74 -76 -57 -191 -116 -280 -144 -59 -18 -98 -23 -185
-23 -156 0 -224 20 -342 99 -86 59 -152 54 -238 -20 -54 -46 -162 -103 -212
-112 -62 -10 -151 -12 -198 -2 -153 31 -173 38 -285 103 -134 78 -141 80 -201
79 -66 -1 -105 -19 -147 -68 -38 -43 -46 -71 -39 -136 6 -47 66 -182 108 -241
67 -94 -72 17 -164 130 -56 70 -127 168 -127 177 0 2 13 2 29 -1 49 -10 43 12
-19 69 -33 31 -60 59 -60 63 0 3 11 3 25 0 44 -11 38 17 -14 71 -28 29 -59 69
-71 90 -11 21 -28 52 -38 68 -10 17 -28 57 -41 90 -13 33 -39 90 -58 128 -27
55 -59 159 -78 257 -2 9 -15 50 -29 93 -14 43 -26 80 -26 82 0 3 13 -1 30 -10
32 -17 70 -20 70 -6 0 5 -19 37 -41 71 -56 83 -174 408 -155 427 2 2 48 -39
102 -91 55 -53 107 -96 117 -96 22 0 21 8 -2 44 -22 32 -19 49 5 39 9 -3 20 0
24 7 6 11 28 8 107 -14 105 -30 253 -45 658 -67 116 -6 237 -13 270 -17 33 -3
76 -5 95 -5 156 4 196 3 220 -2 23 -5 29 -3 32 14 3 19 4 19 77 -4 43 -14 86
-35 103 -52 28 -27 29 -27 34 -6 4 12 16 25 28 28 11 4 39 15 61 25 80 35 133
35 90 0 -10 -9 -12 -17 -6 -23 6 -6 27 -1 57 14 39 18 67 23 144 25 54 1 101
-3 108 -9 9 -7 29 -7 65 1 30 6 155 11 292 11 280 0 344 7 497 54 62 19 140
42 173 52 33 9 85 28 115 43 30 14 64 25 76 23 11 -1 27 5 34 13 17 21 30 20
30 -1z m-582 -1313 c56 -25 76 -70 69 -155 -5 -60 -9 -77 -20 -105 -4 -8 -11
-37 -17 -65 -24 -110 -68 -175 -263 -386 -78 -83 -336 -249 -389 -249 -9 0
-63 -23 -143 -61 -22 -10 -57 -21 -78 -23 -21 -3 -67 -15 -103 -27 -61 -21
-71 -21 -202 -11 -75 6 -157 18 -181 26 -24 9 -47 13 -52 11 -4 -3 -16 -1 -26
4 -10 6 -63 24 -118 42 -101 32 -137 48 -210 94 -22 14 -47 28 -55 31 -8 4
-28 17 -45 29 -16 12 -63 39 -103 60 -116 60 -248 220 -349 423 -80 161 -34
282 109 282 42 -1 65 -8 113 -35 33 -20 72 -41 88 -47 15 -7 27 -15 27 -19 0
-8 62 -31 157 -58 135 -40 383 -25 424 25 6 8 16 14 22 14 6 0 36 22 68 50 95
82 120 84 225 19 86 -55 146 -79 238 -98 55 -11 95 -14 125 -9 24 4 47 5 52 3
11 -7 105 19 179 50 91 38 184 89 257 141 98 70 129 77 201 44z m-520 -999
c94 -49 198 -189 247 -334 22 -65 75 -328 81 -402 2 -33 8 -71 11 -85 4 -14 8
-38 9 -55 7 -81 14 -221 24 -435 6 -129 14 -275 19 -325 17 -168 61 -480 73
-508 6 -15 12 -38 14 -50 3 -22 8 -41 37 -144 14 -50 14 -53 -5 -59 -16 -5
-19 -12 -14 -32 3 -15 9 -54 12 -87 6 -55 3 -67 -26 -125 -57 -116 -81 -127
-200 -95 -30 8 -93 17 -140 20 -151 10 -163 13 -203 50 -31 28 -36 39 -31 60
5 21 3 25 -16 25 -21 0 -22 3 -15 48 4 26 10 54 15 62 4 8 12 56 19 105 6 50
18 140 26 200 7 61 16 148 20 195 10 134 35 411 42 460 20 141 27 256 27 485
1 201 -6 440 -17 600 -3 55 -24 106 -46 113 -10 3 -12 -2 -8 -20 21 -81 42
-473 39 -708 -1 -124 -14 -342 -26 -455 -16 -148 -27 -263 -36 -380 -8 -110
-50 -445 -64 -510 -3 -11 -10 -46 -16 -78 -6 -32 -18 -77 -26 -100 -14 -38
-13 -43 3 -55 69 -49 103 -88 103 -118 0 -35 -23 -96 -51 -136 -68 -94 75
-165 161 -80 13 14 15 14 18 -2 5 -22 -39 -69 -95 -102 -121 -71 -72 -175 72
-152 68 10 119 37 205 108 64 54 75 59 77 33 3 -70 13 -149 22 -190 39 -170
41 -187 25 -205 -10 -11 -14 -26 -10 -45 18 -84 34 -286 25 -306 -7 -17 0 -55
30 -159 21 -76 36 -140 33 -143 -3 -3 -25 -5 -49 -5 -24 0 -52 -5 -63 -12 -15
-10 -32 -10 -78 0 -88 18 -141 15 -200 -13 -65 -30 -72 -31 -116 -4 -34 20
-38 20 -90 5 -30 -9 -56 -16 -58 -16 -2 0 -4 21 -4 48 -2 115 -30 380 -42 395
-5 7 -12 149 -16 317 -5 261 -23 590 -41 750 -11 102 -16 147 -20 175 -2 17
-10 95 -19 175 -8 80 -19 181 -25 225 -6 44 -17 150 -26 235 -26 265 -35 344
-41 363 -4 14 2 21 25 30 52 19 35 29 -36 21 -38 -4 -123 -8 -190 -8 -122 0
-147 -7 -97 -26 14 -6 22 -15 19 -21 -4 -5 -8 -45 -10 -87 -2 -42 -8 -115 -14
-162 -6 -47 -15 -137 -21 -200 -6 -63 -21 -223 -35 -355 -27 -269 -37 -369
-41 -435 -2 -25 -8 -101 -14 -170 -12 -149 -27 -463 -36 -800 -6 -211 -9 -247
-24 -257 -13 -9 -15 -21 -9 -70 4 -32 8 -77 8 -101 l1 -43 -37 7 c-21 4 -59
12 -85 19 -42 10 -53 10 -90 -7 l-43 -19 -68 27 -69 28 -41 -22 c-23 -12 -45
-22 -49 -22 -3 0 -22 16 -41 35 -30 30 -42 35 -81 35 -25 0 -46 4 -46 9 0 5
12 37 26 70 22 50 24 64 14 76 -9 11 -10 22 -2 42 39 102 96 475 108 703 3 58
7 107 9 109 2 2 27 -15 55 -37 61 -48 144 -83 217 -90 45 -4 55 -1 77 21 14
15 26 37 26 50 0 23 -48 109 -69 121 -14 9 -54 86 -47 93 2 3 17 -5 33 -16 40
-30 123 -33 152 -7 27 25 27 45 -4 91 -14 20 -42 69 -61 108 -33 65 -35 73
-24 111 6 23 8 57 5 76 -3 19 -14 89 -25 155 -31 186 -48 323 -65 540 -9 110
-20 225 -24 255 -23 159 -16 1139 9 1224 9 31 9 40 -2 47 -7 5 -16 9 -19 9
-27 0 -34 -136 -34 -660 0 -480 4 -583 34 -880 13 -138 41 -361 46 -380 6 -20
36 -250 36 -273 0 -10 4 -29 9 -43 22 -57 -46 -126 -158 -161 -39 -12 -90 -18
-162 -18 -92 0 -111 3 -153 25 -44 22 -72 58 -81 105 -1 6 -4 15 -8 20 -6 10
-11 34 -23 108 -4 28 -11 37 -25 37 -18 0 -19 5 -14 63 3 34 10 87 15 117 8
46 7 57 -6 66 -14 11 -14 16 -1 50 13 32 45 192 60 294 2 14 11 63 19 110 9
47 21 128 27 180 6 52 20 160 31 240 19 142 27 200 34 270 4 40 15 134 39 335
29 242 66 378 139 515 55 102 102 154 170 191 l39 20 126 -41 c70 -23 138 -45
151 -48 39 -11 30 -25 -24 -40 -27 -8 -57 -20 -65 -26 -8 -7 -30 -19 -48 -26
-70 -27 -105 -113 -77 -187 35 -92 141 -120 254 -68 30 14 55 24 57 23 1 -2
-6 -39 -16 -83 -65 -288 -63 -318 21 -390 83 -71 86 -70 87 19 5 234 62 627
96 655 16 13 59 2 53 -14 -3 -6 1 -38 9 -71 26 -114 43 -300 48 -534 2 -58 3
-111 4 -117 4 -30 31 -11 144 102 l50 50 -11 90 c-16 124 -30 194 -46 235
l-13 35 81 -2 c93 -2 125 11 163 67 44 64 29 126 -48 197 -31 28 -60 44 -96
53 -51 12 -71 30 -33 30 10 0 40 12 66 27 49 27 153 72 168 73 4 0 24 -9 45
-19z m-698 -120 c0 -5 -17 -12 -37 -16 -87 -16 -233 -117 -233 -162 0 -22 52
-53 90 -53 48 0 126 59 173 130 35 55 53 64 42 23 -10 -40 -69 -124 -111 -157
-41 -32 -137 -75 -169 -76 -27 0 -81 34 -95 61 -24 44 -8 159 23 159 5 0 21 8
35 18 38 26 126 62 175 72 58 11 107 12 107 1z m489 -33 c46 -28 88 -82 97
-125 9 -43 -31 -94 -91 -116 -47 -17 -52 -18 -104 -1 -70 22 -134 80 -173 157
-16 33 -27 62 -23 65 3 3 37 -25 75 -64 72 -72 106 -93 152 -94 21 0 31 8 43
30 34 65 -41 136 -164 156 -23 4 -44 11 -48 17 -4 6 28 8 94 5 83 -4 106 -9
142 -30z m-536 -65 c-50 -61 -109 -103 -145 -103 -41 0 -46 25 -12 62 33 35
187 114 192 98 2 -5 -14 -31 -35 -57z m103 -60 c-25 -63 -66 -381 -66 -505 0
-99 -8 -107 -54 -59 -38 40 -42 85 -17 226 28 165 52 244 90 304 32 49 60 70
47 34z m250 -122 c12 -18 28 -71 25 -85 -1 -4 3 -13 8 -20 6 -6 17 -69 26
-139 15 -116 15 -130 1 -152 -22 -34 -87 -95 -96 -90 -3 2 -7 71 -8 152 -2 81
-5 163 -8 181 -4 18 -8 54 -9 80 -3 42 -9 89 -15 117 -6 25 2 25 33 -1 17 -15
37 -34 43 -43z m-673 -2363 c21 -40 47 -88 58 -106 30 -47 19 -66 -33 -58 -30
5 -51 17 -74 41 -17 19 -38 35 -46 35 -19 0 -38 -20 -38 -41 0 -29 48 -123 80
-157 17 -18 34 -47 37 -65 7 -45 -14 -61 -72 -54 -126 14 -290 148 -363 297
-51 104 -54 124 -14 109 76 -29 297 -2 378 46 22 13 41 24 44 24 3 1 22 -32
43 -71z m1192 17 c39 -3 99 -13 135 -21 36 -9 73 -17 83 -19 33 -7 39 -16 32
-53 -10 -56 -39 -105 -102 -172 -97 -105 -211 -170 -299 -170 -62 0 -47 54 27
100 87 53 125 127 99 194 -13 34 -31 33 -59 -5 -27 -37 -78 -69 -108 -69 -32
0 -31 45 2 101 16 28 25 60 25 87 l0 43 48 -5 c26 -3 79 -8 117 -11z m-1580
-1404 c18 -36 66 -46 98 -21 37 28 51 29 107 4 64 -27 97 -29 124 -9 23 18 57
19 110 4 l38 -11 -4 -77 c-3 -56 -11 -88 -28 -118 l-23 -41 -78 -7 c-43 -4
-127 -8 -186 -10 -59 -2 -148 -8 -198 -15 -49 -6 -112 -9 -140 -7 -141 15
-164 101 -44 166 91 49 121 73 155 127 19 30 39 52 45 49 5 -4 16 -19 24 -34z
m1703 -16 c53 -14 62 -14 88 0 43 22 64 18 113 -20 45 -36 140 -85 164 -85 15
0 67 -43 68 -57 0 -4 2 -23 5 -41 4 -31 1 -34 -42 -52 -37 -16 -70 -20 -172
-21 -70 -1 -170 -4 -222 -8 -83 -5 -169 0 -235 14 -100 22 -116 28 -134 54
-19 26 -41 124 -41 183 0 41 37 47 89 14 22 -14 47 -26 55 -26 8 0 40 14 71
30 65 34 105 37 193 15z"/>
<path d="M4016 8089 c-232 -34 -364 -225 -281 -407 65 -143 200 -203 369 -165
98 22 130 37 183 86 146 134 118 348 -59 445 -34 19 -134 54 -147 51 -3 -1
-32 -5 -65 -10z"/>
<path d="M3069 8017 c-86 -24 -169 -108 -190 -192 -15 -61 -6 -173 19 -222 47
-91 167 -141 307 -130 142 13 218 56 266 150 25 48 35 158 20 213 -13 48 -66
113 -129 156 -44 31 -53 33 -147 35 -60 2 -119 -3 -146 -10z"/>
<path d="M4665 7397 c-97 -101 -227 -168 -389 -201 -72 -15 -88 -15 -205 0
-69 9 -130 19 -136 22 -5 4 -19 8 -30 10 -29 5 -37 8 -70 22 -73 30 -141 50
-173 50 -24 0 -70 -20 -151 -64 -131 -73 -218 -96 -366 -96 -92 0 -264 30
-310 54 -17 9 -35 16 -40 16 -6 0 -43 25 -82 55 -40 30 -77 55 -83 55 -18 0
-11 -22 15 -42 14 -11 25 -28 25 -38 0 -10 19 -56 42 -101 52 -101 176 -233
286 -303 40 -25 74 -46 77 -46 2 0 30 -12 62 -26 32 -15 76 -35 98 -45 120
-54 242 -78 434 -85 190 -7 319 21 516 111 57 26 164 90 175 104 3 4 33 28 67
54 34 26 88 78 119 115 70 82 145 234 152 306 3 32 12 59 24 73 19 20 19 54 1
53 -4 -1 -31 -24 -58 -53z m-14 -119 c-25 -72 -88 -192 -113 -215 -19 -17 -20
-17 -38 5 -30 37 -50 29 -50 -20 -1 -56 -17 -88 -61 -126 l-36 -31 -22 29
c-32 44 -60 39 -65 -13 -6 -55 -30 -96 -68 -117 -42 -23 -58 -20 -58 13 -1 32
-38 109 -51 105 -6 -2 -20 -36 -30 -76 -22 -86 -48 -127 -86 -135 -16 -3 -35
-8 -45 -12 -13 -5 -17 2 -23 37 -24 152 -44 163 -81 46 -14 -42 -32 -84 -40
-93 -38 -38 -90 -2 -130 90 -42 96 -64 88 -70 -24 -3 -61 -5 -66 -26 -66 -35
0 -78 91 -78 167 0 44 -3 58 -15 58 -30 0 -75 -96 -75 -162 0 -43 0 -43 -53
-24 -58 20 -70 37 -76 113 -5 54 -10 68 -24 71 -13 3 -24 -11 -42 -52 -14 -31
-29 -56 -35 -56 -25 0 -87 41 -114 75 -16 21 -44 69 -63 107 -19 40 -39 68
-46 65 -6 -2 -14 -26 -17 -52 l-5 -49 -53 54 c-71 72 -163 212 -149 226 3 3
22 -4 44 -15 31 -17 41 -29 50 -63 11 -40 44 -88 61 -88 5 0 12 19 18 43 8 38
12 42 38 42 24 0 31 -6 39 -30 10 -32 80 -131 106 -152 21 -16 37 -10 34 13
-17 129 -10 147 53 142 33 -3 41 -9 63 -50 14 -25 35 -56 46 -68 27 -31 94
-72 104 -65 5 3 3 25 -4 49 -15 50 -22 137 -12 153 4 6 20 13 37 15 26 4 31 1
36 -21 21 -101 86 -210 119 -198 12 5 15 12 9 25 -5 9 -9 75 -9 145 1 102 4
130 15 137 24 15 30 12 30 -17 1 -40 32 -103 69 -137 41 -39 55 -25 35 34 -17
48 -14 124 5 143 9 9 18 8 39 -3 22 -13 29 -27 39 -75 12 -62 12 -74 -8 -163
-24 -106 21 -89 107 39 28 43 44 78 44 98 0 33 6 35 58 25 19 -4 32 -14 36
-26 7 -29 -11 -127 -31 -166 -15 -29 -15 -35 -2 -43 20 -12 21 -12 55 14 45
33 106 107 128 154 17 38 21 41 63 45 37 3 45 0 49 -17 3 -12 0 -33 -5 -49
-16 -40 -14 -66 5 -66 21 0 111 96 129 137 9 21 28 39 56 52 24 12 45 21 47
21 2 0 2 -17 0 -37 -2 -29 1 -39 13 -41 23 -4 78 65 85 108 7 38 30 70 50 70
10 0 9 -12 -5 -52z"/>
</g>
</svg>
