<?xml version="1.0" standalone="no"?>
<!DOCTYPE svg PUBLIC "-//W3C//DTD SVG 20010904//EN"
 "http://www.w3.org/TR/2001/REC-SVG-20010904/DTD/svg10.dtd">
<svg version="1.0" xmlns="http://www.w3.org/2000/svg"
 width="720.000000pt" height="1117.000000pt" viewBox="0 0 720.000000 1117.000000"
 preserveAspectRatio="xMidYMid meet">

<g transform="translate(0.000000,1117.000000) scale(0.100000,-0.100000)"
fill="#000000" stroke="none">
<path d="M3602 8364 c-96 -26 -206 -65 -278 -99 -60 -29 -87 -52 -185 -155
-122 -130 -153 -181 -172 -280 -11 -55 -13 -59 -49 -69 -39 -12 -40 -14 -53
-92 -6 -41 10 -202 26 -264 7 -23 27 -56 52 -80 l40 -40 3 -108 c4 -128 27
-272 60 -377 13 -41 22 -76 20 -77 -2 -2 -101 -10 -222 -18 -298 -20 -341 -25
-355 -42 -26 -31 -46 -34 -84 -12 -32 19 -46 21 -113 15 -352 -30 -463 -38
-745 -51 l-322 -15 -39 -27 c-22 -16 -48 -41 -60 -56 l-20 -28 42 -292 c24
-161 63 -420 87 -577 25 -157 59 -386 76 -510 36 -266 48 -326 99 -468 77
-218 116 -299 152 -321 49 -30 86 -29 326 5 291 42 628 92 663 100 l26 5 7
-143 c4 -79 13 -246 22 -373 8 -126 18 -320 22 -430 l9 -200 36 -73 c80 -156
199 -316 241 -324 14 -3 125 12 248 34 123 21 318 52 433 68 251 36 326 56
382 105 34 29 49 35 86 35 127 0 893 173 902 204 9 32 40 347 105 1054 34 371
36 420 15 436 -9 7 -12 16 -6 25 7 10 13 11 31 1 26 -14 0 -18 515 66 345 56
403 68 423 87 50 47 48 34 111 557 16 131 97 807 127 1066 4 33 2 54 -5 58 -6
4 -64 20 -128 36 -65 16 -201 54 -303 86 l-185 56 -325 -12 c-423 -15 -548
-25 -591 -45 -30 -14 -39 -14 -73 -2 l-39 13 -4 287 -3 286 24 16 c41 27 51
68 50 205 -1 104 -4 135 -23 183 -21 54 -25 58 -68 70 -51 13 -72 39 -138 166
-22 40 -62 99 -89 129 -93 101 -185 146 -416 202 -102 24 -286 26 -368 4z
m210 -24 l36 0 40 -102 c55 -142 102 -304 102 -349 0 -5 -54 -9 -125 -9 -93 0
-125 3 -125 13 0 6 -7 75 -15 152 -8 77 -15 173 -15 213 0 46 -4 72 -11 72 -8
0 -10 -63 -7 -230 l4 -230 -40 0 c-23 0 -72 -3 -110 -7 l-69 -6 6 94 c6 108
31 194 85 294 l37 69 65 17 c36 10 74 16 85 13 11 -2 37 -4 57 -4z m151 -32
c33 -17 128 -143 161 -213 29 -60 66 -176 66 -206 0 -5 -38 -9 -83 -9 l-84 0
-28 107 c-28 110 -70 238 -99 306 l-17 39 33 -7 c18 -4 41 -12 51 -17z m-393
-14 c0 -3 -8 -18 -19 -32 -52 -74 -101 -243 -101 -345 l0 -64 -61 -7 c-34 -4
-64 -5 -67 -2 -11 12 20 182 47 255 47 126 73 163 128 183 52 18 73 21 73 12z
m577 -36 c83 -31 157 -131 209 -285 36 -106 38 -103 -59 -103 l-82 0 -23 98
c-27 114 -75 219 -128 281 l-38 43 35 -7 c19 -4 58 -16 86 -27z m-782 -82
c-37 -84 -56 -160 -63 -254 l-7 -86 -69 -11 -68 -11 4 75 c10 146 83 280 176
323 53 24 53 23 27 -36z m1067 -200 c29 -55 55 -103 56 -108 6 -13 -52 -10
-66 4 -7 7 -12 25 -12 40 0 40 -43 141 -85 199 -48 67 -43 74 10 14 25 -27 68
-95 97 -149z m-1262 34 c-10 -31 -22 -89 -27 -129 l-8 -74 -48 -12 c-26 -7
-49 -9 -51 -6 -8 12 14 101 35 143 18 37 108 142 115 135 1 -1 -6 -27 -16 -57z
m559 -242 c6 -40 14 -121 17 -179 l7 -107 -39 -6 c-21 -3 -61 -7 -89 -8 l-49
-2 -14 44 c-8 25 -16 106 -19 182 l-6 136 24 5 c13 2 54 5 90 6 l66 1 12 -72z
m250 35 c25 -98 30 -124 36 -215 l6 -98 -29 0 c-16 0 -69 -3 -119 -6 l-90 -7
-7 108 c-4 59 -13 139 -21 177 -8 38 -15 71 -15 74 0 2 52 4 115 4 l114 0 10
-37z m223 -48 c16 -80 23 -220 12 -249 -5 -13 -22 -16 -84 -16 l-77 0 -7 38
c-3 20 -6 62 -6 92 -1 50 -24 156 -45 203 -7 16 0 18 91 15 l99 -3 17 -80z
m187 -3 c6 -42 14 -121 18 -176 l6 -98 -81 3 c-44 2 -82 6 -85 9 -2 3 -7 82
-10 175 l-5 170 73 -3 72 -3 12 -77z m-888 -22 c-1 -54 5 -131 14 -179 9 -46
14 -85 12 -87 -6 -6 -131 -22 -139 -18 -26 16 -58 337 -36 359 8 8 104 24 132
21 17 -1 19 -9 17 -96z m1051 -5 c18 -95 22 -172 12 -224 -6 -29 -9 -31 -53
-31 -25 0 -51 4 -57 8 -6 4 -16 72 -22 152 -6 80 -15 155 -18 168 -6 23 -5 23
57 20 l64 -3 17 -90z m56 63 c36 -75 39 -333 4 -333 -11 0 -15 27 -18 115 -2
63 -10 141 -19 173 -8 32 -15 63 -15 68 0 20 35 3 48 -23z m-1292 -116 c1 -87
6 -142 17 -177 9 -27 14 -51 11 -54 -10 -10 -139 -28 -148 -20 -4 4 -11 86
-14 182 l-5 174 49 10 c96 20 89 30 90 -115z m-165 -22 c0 -63 3 -142 8 -175
5 -33 6 -63 2 -67 -3 -3 -31 -9 -62 -13 -49 -6 -57 -5 -63 12 -15 37 -17 189
-4 263 l13 75 45 12 c25 6 49 10 54 9 4 -1 8 -53 7 -116z m-140 30 c-14 -65
-14 -166 0 -248 13 -75 3 -98 -31 -67 -30 27 -41 83 -43 223 l-2 126 40 12
c22 6 42 10 43 8 2 -1 -1 -26 -7 -54z m1465 -246 l82 -7 7 -225 c12 -372 1
-450 -81 -541 -49 -54 -108 -84 -218 -109 -89 -20 -490 -22 -676 -4 -257 26
-365 56 -420 118 -35 40 -81 179 -105 315 -16 87 -26 351 -15 362 19 19 494
82 739 97 140 9 544 5 687 -6z m1329 -673 c77 -26 179 -59 228 -71 48 -13 85
-25 82 -28 -6 -6 -587 -41 -697 -41 -85 -1 -143 15 -383 103 -89 32 -132 52
-117 54 34 5 552 29 657 31 84 1 100 -2 230 -48z m-1108 -12 c43 -18 147 -58
231 -89 180 -67 180 -66 -68 -77 l-158 -6 -16 30 c-8 17 -36 48 -61 70 -44 37
-45 39 -33 71 7 17 16 32 19 32 4 0 43 -14 86 -31z m204 -12 c57 -24 166 -65
243 -92 l138 -48 -6 -36 c-39 -230 -102 -869 -127 -1266 -6 -104 -13 -196 -15
-202 -3 -10 -9 -10 -29 -1 -23 10 -25 15 -20 57 3 25 14 181 25 346 11 165 25
361 30 435 30 422 41 645 31 666 -6 15 -32 29 -83 47 -129 44 -313 110 -317
113 -5 4 9 24 18 24 4 0 55 -19 112 -43z m-1769 -92 c27 -34 93 -71 153 -86
49 -11 144 -66 145 -83 0 -4 -10 -6 -22 -2 -13 3 -74 19 -137 35 -62 16 -135
41 -162 55 -58 30 -129 87 -123 98 3 5 32 8 66 8 52 0 63 -3 80 -25z m1477
-10 c39 -45 39 -55 -3 -55 -33 0 -96 18 -96 27 0 11 46 62 56 62 7 1 26 -15
43 -34z m-1631 -23 c57 -58 146 -104 248 -128 68 -16 73 -19 48 -26 -16 -4
-113 -11 -215 -14 l-187 -7 -146 98 c-80 53 -144 101 -141 105 3 4 53 8 112 9
59 1 109 4 112 7 2 2 31 4 63 4 58 0 61 -1 106 -48z m-555 -35 c83 -54 210
-152 215 -165 1 -4 -172 -18 -385 -30 -214 -13 -498 -30 -632 -38 -134 -8
-246 -12 -248 -10 -3 3 -27 54 -53 115 l-48 111 81 0 c159 0 852 49 980 69 5
0 46 -23 90 -52z m258 -52 l146 -100 7 -195 c3 -107 18 -442 31 -745 14 -302
26 -599 28 -660 2 -108 2 -110 -21 -113 -17 -3 -25 2 -29 17 -3 12 -9 21 -13
21 -4 0 -10 53 -14 118 -27 501 -48 896 -61 1176 -14 299 -18 332 -36 357 -11
16 -66 63 -122 105 -56 42 -104 78 -106 80 -6 5 31 45 39 42 3 -2 71 -48 151
-103z m3542 75 c-1 -14 -21 -168 -43 -343 -36 -284 -130 -1041 -130 -1051 0
-2 -21 -7 -47 -10 -27 -4 -131 -22 -233 -41 -102 -19 -267 -46 -368 -60 -100
-14 -189 -28 -197 -31 -12 -5 -15 4 -15 45 0 186 81 1065 129 1396 6 39 11 72
11 75 0 3 55 6 123 8 67 2 255 11 417 21 365 23 356 23 353 -9z m-1669 -91
c-25 -50 -102 -115 -178 -153 -108 -53 -183 -69 -316 -69 -192 0 -339 47 -552
179 -51 31 -95 59 -98 61 -3 3 24 2 60 -2 44 -5 101 -23 175 -55 226 -98 349
-119 508 -85 89 19 161 59 211 118 23 27 57 57 76 67 34 18 35 18 83 -6 l47
-24 -16 -31z m582 33 c-6 -21 -24 -257 -72 -947 -21 -297 -40 -543 -43 -547
-8 -10 -321 -76 -325 -69 -2 3 -7 40 -11 82 l-7 77 -70 57 c-79 65 -119 116
-153 193 -28 61 -27 61 -190 37 -55 -8 -115 -15 -132 -15 l-33 0 0 202 0 202
78 75 c135 131 193 237 227 412 3 18 21 37 54 58 56 36 122 104 145 150 19 36
59 43 76 12 26 -50 8 -142 -61 -304 -28 -65 -55 -145 -62 -178 -10 -55 -9 -65
22 -154 25 -74 31 -105 26 -135 -5 -32 -3 -41 9 -46 47 -18 61 67 25 158 -49
126 -44 195 29 363 59 136 75 235 48 296 -6 14 10 17 141 23 81 4 175 11 208
15 68 8 78 6 71 -17z m-3872 -54 c10 -29 32 -83 49 -120 l30 -68 61 0 c33 0
169 7 301 15 195 12 547 29 935 47 39 2 54 -1 53 -9 -6 -29 61 -1363 76 -1517
11 -115 4 -132 -58 -139 -314 -38 -1102 -119 -1113 -114 -9 3 -56 66 -107 141
-77 114 -91 141 -91 175 0 63 -60 482 -150 1046 -17 105 -41 260 -55 346 -14
86 -25 166 -25 177 0 17 53 72 70 72 3 0 14 -24 24 -52z m3040 11 c-82 -86
-262 -119 -429 -78 -56 14 -205 70 -205 78 0 3 64 2 142 -3 145 -10 418 4 483
23 17 5 32 10 34 10 3 1 -8 -13 -25 -30z m-806 -78 c15 -10 64 -37 108 -59
l82 -41 16 -71 c33 -146 147 -305 281 -389 l64 -41 -3 -152 c-2 -84 -4 -180
-5 -214 l-1 -60 -187 -28 c-104 -15 -192 -31 -197 -36 -4 -5 -19 -34 -31 -65
-13 -31 -36 -75 -52 -98 -31 -46 -117 -112 -181 -141 -51 -23 -54 -33 -50
-165 3 -95 2 -102 -17 -106 -28 -5 -205 -24 -301 -31 l-81 -7 -6 249 c-7 233
-35 855 -57 1239 -5 94 -10 177 -10 186 0 14 20 16 152 18 83 1 192 6 242 11
50 5 94 10 99 10 4 0 7 -40 7 -89 0 -133 13 -183 80 -315 80 -155 84 -187 36
-280 -39 -76 -42 -92 -24 -131 8 -18 18 -25 32 -23 13 2 19 9 17 18 -14 53
-11 73 18 129 49 96 45 135 -34 294 -36 73 -70 156 -75 186 -11 61 -13 204 -3
214 12 13 55 7 81 -12z m542 -165 c119 -1 169 3 215 16 33 10 70 20 83 24 21
6 22 4 16 -22 -17 -72 -69 -189 -108 -242 -47 -63 -154 -172 -169 -172 -18 0
-132 88 -183 142 -29 29 -63 72 -78 95 -27 45 -78 182 -71 194 3 3 35 -3 72
-14 55 -16 98 -20 223 -21z m385 -913 c35 -68 129 -171 179 -198 24 -13 36
-27 36 -41 0 -20 -3 -21 -42 -13 -56 12 -154 60 -200 99 -39 32 -98 138 -98
176 0 26 11 32 60 33 33 1 37 -3 65 -56z m-165 27 c0 -41 43 -131 84 -177 57
-63 134 -108 221 -130 39 -10 73 -22 77 -28 9 -11 11 -75 3 -75 -7 0 -481 -88
-512 -95 l-23 -5 0 253 0 254 68 10 c37 5 70 11 75 11 4 1 7 -7 7 -18z m-220
-269 l0 -249 -22 -5 c-23 -6 -394 -58 -538 -75 -41 -6 -79 -6 -83 -2 -5 4 -7
26 -5 49 l3 42 70 24 c85 30 191 101 240 160 47 58 84 141 98 219 l11 63 75
10 c42 5 93 11 114 11 l37 2 0 -249z m-282 161 c-7 -103 -76 -206 -187 -281
-56 -38 -169 -86 -179 -76 -3 3 -6 19 -6 35 -1 27 6 35 53 61 104 59 192 158
227 256 18 52 26 58 78 62 16 1 18 -5 14 -57z m2282 -156 c0 -31 -5 -58 -12
-64 -12 -9 -109 -25 -694 -117 -82 -13 -157 -27 -166 -30 -9 -4 -35 3 -57 15
l-41 21 6 67 c4 37 8 68 9 70 1 1 22 -9 46 -22 50 -29 62 -28 264 11 116 23
583 98 628 102 14 1 17 -8 17 -53z m-1020 -170 l0 -64 -72 -17 c-293 -67 -831
-166 -842 -155 -5 5 -5 33 0 66 l9 58 135 23 c186 32 701 134 725 144 41 16
45 12 45 -55z m-28 -136 c12 -11 28 -20 35 -20 7 0 13 -9 13 -21 0 -11 -22
-246 -50 -522 -27 -276 -54 -565 -60 -642 -6 -77 -15 -144 -20 -149 -10 -10
-59 -5 -165 19 -136 30 -311 9 -430 -52 -16 -9 -57 -34 -89 -56 -88 -59 -152
-81 -197 -68 l-35 11 3 527 c2 291 6 592 9 671 6 135 7 142 27 142 l20 0 -6
-612 c-4 -337 -4 -639 0 -670 6 -63 26 -78 38 -30 3 15 10 317 15 671 4 354
12 647 17 651 4 4 125 28 268 54 143 26 330 62 415 80 85 19 159 34 163 35 4
1 17 -8 29 -19z m-948 -51 c4 -34 5 -63 3 -65 -6 -6 -423 -71 -637 -99 -436
-56 -575 -73 -579 -70 -2 3 4 21 14 41 12 26 16 50 11 80 l-6 44 43 0 c75 0
741 73 957 105 85 12 162 23 171 24 13 1 18 -12 23 -60z m-2531 -131 c54 -84
57 -87 89 -83 18 3 103 12 188 20 85 9 214 22 285 30 72 8 258 28 415 45 156
18 292 35 301 40 14 8 18 3 23 -28 7 -45 -28 -120 -59 -127 -11 -3 -195 -32
-410 -65 -214 -33 -459 -72 -543 -85 -195 -32 -195 -32 -259 105 -49 103 -110
261 -95 245 5 -5 34 -49 65 -97z m2437 -223 c0 -127 -3 -432 -6 -680 l-5 -450
-29 -3 c-16 -2 -56 6 -87 17 -154 55 -377 40 -523 -34 -25 -13 -79 -50 -120
-83 -93 -73 -128 -92 -177 -92 l-38 0 -2 138 c-2 132 -34 833 -53 1132 -4 80
-8 146 -7 147 1 1 72 9 157 18 151 16 845 112 865 119 6 3 14 3 18 2 5 -1 8
-105 7 -231z m-1096 73 c2 -13 12 -210 21 -438 21 -539 33 -757 46 -853 6 -44
9 -81 6 -83 -6 -6 -75 96 -156 229 l-72 119 -4 96 c-7 133 -53 795 -60 858
l-6 51 98 20 c129 26 122 26 127 1z m1926 -1053 c30 -8 74 -15 97 -15 53 0 59
-23 11 -39 -153 -49 -755 -181 -827 -181 -24 0 -29 5 -33 30 -4 27 -2 30 22
30 51 0 126 30 214 86 103 65 138 81 221 100 72 16 215 11 295 -11z m-2056
-98 c16 -28 58 -98 95 -154 74 -116 98 -133 183 -133 69 0 132 30 223 105 82
68 140 96 249 120 98 22 222 16 319 -14 77 -25 108 -28 156 -17 33 8 34 8 27
-20 -9 -41 -76 -98 -136 -117 -29 -9 -122 -26 -208 -37 -179 -23 -485 -73
-614 -99 l-87 -18 -40 46 c-80 96 -211 328 -211 376 0 28 15 15 44 -38z"/>
<path d="M3960 7415 c-22 -26 -25 -118 -5 -138 39 -39 75 -10 75 60 0 70 -40
114 -70 78z"/>
<path d="M4262 7408 c-7 -7 -12 -38 -12 -70 0 -45 4 -60 16 -65 30 -11 49 11
52 60 5 70 -23 108 -56 75z"/>
<path d="M4283 6844 c-77 -86 -105 -104 -162 -104 -36 0 -50 8 -118 68 -93 82
-129 106 -143 97 -17 -10 -12 -23 28 -67 62 -70 150 -137 193 -148 66 -18 132
2 188 59 98 99 132 143 120 157 -20 25 -36 15 -106 -62z"/>
</g>
</svg>
