<?xml version="1.0" standalone="no"?>
<!DOCTYPE svg PUBLIC "-//W3C//DTD SVG 20010904//EN"
 "http://www.w3.org/TR/2001/REC-SVG-20010904/DTD/svg10.dtd">
<svg version="1.0" xmlns="http://www.w3.org/2000/svg"
 width="720.000000pt" height="1117.000000pt" viewBox="0 0 720.000000 1117.000000"
 preserveAspectRatio="xMidYMid meet">
<metadata>
Created by potrace 1.16, written by Peter Selinger 2001-2019
</metadata>
<g transform="translate(0.000000,1117.000000) scale(0.100000,-0.100000)"
fill="#000000" stroke="none">
<path d="M3823 8912 c-131 -46 -258 -183 -533 -573 -56 -79 -111 -149 -123
-156 -37 -20 -117 -15 -173 11 -28 13 -113 66 -189 116 -166 112 -215 133
-312 134 -78 0 -106 -12 -147 -68 -20 -26 -21 -39 -19 -239 2 -196 15 -551 28
-758 l6 -86 -78 -59 c-246 -184 -462 -450 -608 -746 -110 -223 -170 -419 -206
-668 -30 -204 -23 -500 15 -705 67 -351 227 -698 450 -974 37 -45 66 -84 64
-86 -2 -1 -55 -27 -118 -56 -598 -276 -1095 -637 -1438 -1044 -156 -185 -336
-480 -411 -672 l-21 -53 3590 0 c1975 0 3590 4 3590 8 0 10 -104 162 -169 247
-283 370 -620 703 -976 965 -258 190 -610 395 -895 520 -52 23 -97 43 -99 45
-2 3 30 46 72 97 124 154 215 300 302 487 14 30 25 61 25 68 0 7 6 27 14 45 8
18 21 49 30 69 8 20 27 80 40 135 85 338 93 636 26 979 -16 83 -36 193 -44
245 -35 219 -120 393 -278 566 -30 33 -76 90 -102 128 -27 37 -107 129 -178
202 l-130 134 40 167 c124 518 137 606 103 661 -15 23 -28 32 -48 32 -15 0
-93 -31 -174 -69 -157 -75 -248 -106 -278 -96 -24 7 -84 137 -176 380 -82 215
-184 463 -225 546 -29 56 -98 129 -124 129 -7 0 -26 2 -42 5 -16 3 -52 -3 -81
-13z m139 -89 c14 -16 37 -50 51 -78 32 -66 164 -388 220 -540 76 -202 142
-348 176 -382 53 -55 116 -43 349 65 108 50 145 63 154 54 9 -9 5 -43 -15
-144 -70 -342 -125 -578 -136 -578 -3 0 -45 28 -93 63 -236 168 -502 278 -833
344 -113 22 -495 25 -620 5 -227 -37 -493 -128 -677 -232 l-103 -58 -6 26 c-4
15 -12 173 -18 352 -6 179 -13 368 -16 420 -5 106 6 205 24 223 19 19 129 13
181 -10 25 -11 109 -63 187 -115 159 -108 227 -138 310 -138 95 0 126 23 228
168 242 343 386 510 482 561 21 11 58 20 84 21 37 0 50 -5 71 -27z m-185
-1259 c425 -63 788 -244 1106 -553 104 -101 126 -129 90 -118 -148 49 -193 58
-283 58 -170 0 -312 -56 -424 -168 -86 -86 -107 -118 -176 -278 -24 -54 -45
-188 -45 -285 1 -342 191 -689 469 -856 274 -164 573 -144 786 53 74 68 137
162 171 255 11 29 22 60 26 68 24 63 42 -303 24 -485 -45 -438 -243 -880 -528
-1175 -66 -69 -72 -73 -73 -49 0 60 71 170 191 294 64 66 126 140 139 164 40
79 14 176 -54 201 -16 5 -80 10 -142 10 -63 0 -114 3 -114 6 0 4 31 38 69 78
79 81 185 206 202 237 14 27 -3 69 -28 69 -9 0 -82 -27 -162 -61 -857 -357
-1750 -402 -2666 -132 -66 19 -136 40 -155 45 -19 6 -113 39 -209 75 -185 69
-203 71 -209 22 -2 -20 17 -45 90 -119 417 -425 821 -681 1244 -790 141 -37
227 -47 490 -61 181 -9 238 -9 395 6 106 10 209 14 244 10 74 -8 209 -41 247
-61 61 -32 62 -116 2 -239 -36 -72 -45 -82 -94 -110 -136 -76 -340 -146 -556
-191 -123 -25 -462 -31 -600 -9 -297 46 -550 141 -798 302 -287 186 -534 462
-693 773 -104 203 -165 389 -209 635 -28 153 -26 527 3 690 120 661 522 1214
1093 1500 187 94 358 149 570 185 141 24 421 26 567 4z m1037 -699 c264 -56
503 -296 599 -600 150 -480 -102 -938 -518 -937 -104 0 -192 20 -279 64 -239
120 -405 342 -478 638 -8 34 -13 109 -12 195 0 119 4 152 25 220 97 318 360
484 663 420z m370 -2257 c36 -51 14 -91 -124 -233 -208 -214 -268 -383 -226
-637 22 -135 21 -215 -5 -284 -24 -64 -90 -139 -132 -149 -45 -12 -114 4 -148
33 -44 36 -59 79 -59 165 0 82 14 130 79 273 51 113 55 177 16 254 -25 49 -26
49 -117 79 -123 39 -241 55 -342 47 -301 -24 -357 -26 -491 -16 -125 10 -142
13 -157 33 -40 51 -8 126 71 166 61 32 138 41 397 51 277 10 321 18 510 90
333 128 412 148 596 149 110 1 118 0 132 -21z m-3055 -671 c244 -230 559 -403
886 -487 163 -42 310 -60 490 -60 325 0 547 51 903 207 9 4 12 -17 12 -88 1
-165 54 -241 190 -270 114 -24 201 27 266 158 34 69 39 88 42 163 2 51 -3 119
-12 169 -25 130 -23 144 27 190 23 22 49 41 57 41 8 0 74 -27 145 -61 72 -33
153 -71 181 -84 28 -13 95 -49 149 -80 53 -30 99 -55 101 -55 7 0 216 -132
294 -185 332 -228 651 -512 904 -805 124 -143 308 -389 300 -401 -7 -13 -6941
-12 -6949 1 -3 5 25 69 63 143 259 506 683 920 1321 1292 129 75 529 275 550
275 7 0 43 -28 80 -63z"/>
<path d="M2415 6890 c-147 -37 -257 -103 -371 -221 -117 -123 -190 -250 -241
-419 -25 -86 -28 -109 -28 -250 0 -177 11 -231 77 -366 192 -399 689 -454
1029 -115 190 189 277 388 286 656 4 120 2 153 -16 229 -62 259 -229 438 -458
490 -92 20 -189 19 -278 -4z m310 -82 c73 -24 135 -62 194 -120 41 -40 101
-123 101 -139 0 -4 -22 7 -50 26 -81 54 -149 75 -246 75 -146 0 -255 -49 -374
-169 -85 -86 -130 -157 -167 -262 -108 -311 11 -631 270 -724 55 -20 174 -25
242 -12 35 8 38 7 25 -6 -25 -25 -132 -75 -195 -92 -87 -22 -227 -20 -303 6
-189 64 -327 239 -367 464 -19 110 -19 167 0 278 30 170 98 320 197 435 193
225 444 315 673 240z"/>
<path d="M4595 6796 c-162 -51 -284 -193 -330 -384 -14 -59 -16 -99 -12 -195
10 -231 92 -416 251 -572 124 -121 240 -175 391 -183 74 -3 101 0 153 17 214
73 341 274 342 543 1 343 -226 678 -519 768 -73 23 -213 26 -276 6z m236 -72
c124 -37 249 -128 333 -243 160 -218 197 -522 89 -734 -77 -153 -241 -237
-404 -207 -112 19 -200 70 -300 169 -96 97 -161 208 -199 341 -86 304 32 602
266 674 65 20 148 20 215 0z"/>
<path d="M4602 6468 c-25 -25 -9 -51 96 -155 59 -60 114 -121 122 -137 15 -28
14 -29 -35 -73 -28 -25 -86 -70 -130 -102 -69 -49 -80 -61 -80 -86 0 -23 6
-32 26 -39 22 -7 36 -2 100 41 41 28 97 71 125 97 29 25 55 46 58 46 12 0 48
-94 72 -188 28 -110 29 -112 57 -112 27 0 42 10 50 32 9 25 -37 197 -74 278
l-31 68 56 80 c61 86 67 109 36 137 -27 24 -43 15 -92 -54 -24 -33 -48 -61
-53 -61 -6 0 -30 25 -55 57 -58 73 -187 183 -215 183 -11 0 -26 -5 -33 -12z"/>
</g>
</svg>
