<?xml version="1.0" standalone="no"?>
<!DOCTYPE svg PUBLIC "-//W3C//DTD SVG 20010904//EN"
 "http://www.w3.org/TR/2001/REC-SVG-20010904/DTD/svg10.dtd">
<svg version="1.0" xmlns="http://www.w3.org/2000/svg"
 width="720.000000pt" height="1117.000000pt" viewBox="0 0 720.000000 1117.000000"
 preserveAspectRatio="xMidYMid meet">
<metadata>
Created by potrace 1.16, written by Peter Selinger 2001-2019
</metadata>
<g transform="translate(0.000000,1117.000000) scale(0.100000,-0.100000)"
fill="#000000" stroke="none">
<path d="M1360 8971 c0 -172 11 -224 81 -378 15 -35 24 -65 19 -68 -11 -7
-109 14 -142 31 -15 8 -32 14 -38 14 -18 0 -11 -49 17 -118 39 -99 69 -148
145 -238 37 -45 68 -87 68 -94 0 -12 -70 -8 -137 10 -29 7 -33 6 -33 -12 0
-25 78 -170 133 -245 23 -32 55 -78 72 -102 16 -24 96 -114 178 -200 82 -86
158 -173 169 -194 23 -45 96 -144 152 -207 23 -25 59 -67 81 -94 90 -109 136
-154 253 -248 68 -55 151 -126 185 -157 86 -81 172 -148 255 -201 39 -25 70
-49 68 -55 -2 -9 -29 -20 -173 -70 -73 -26 -137 -32 -163 -16 -8 6 -18 7 -22
5 -9 -6 16 -59 40 -86 17 -21 5 -43 -31 -54 -32 -10 -166 -73 -407 -194 -118
-59 -233 -113 -255 -120 -22 -7 -58 -21 -81 -31 -23 -10 -95 -28 -162 -40
-142 -26 -148 -25 -256 61 -117 93 -227 211 -278 296 -58 96 -98 204 -98 262
0 38 -3 44 -29 53 -26 9 -33 22 -71 137 -50 147 -60 169 -92 199 -59 55 -120
52 -180 -10 l-40 -41 -41 23 c-149 85 -273 124 -339 108 -36 -9 -82 -50 -120
-105 -27 -39 -32 -57 -36 -123 -9 -149 45 -292 148 -397 68 -69 205 -187 242
-210 16 -9 28 -21 28 -27 0 -6 -24 -19 -52 -29 -29 -11 -57 -22 -61 -26 -11
-10 10 -50 25 -50 6 0 61 -25 122 -55 107 -53 168 -93 410 -267 138 -99 271
-164 439 -214 l58 -17 -5 -46 c-6 -48 -10 -133 -7 -163 0 -10 8 -18 16 -18 8
0 23 8 33 18 86 84 341 256 487 327 78 38 186 80 270 105 77 23 177 55 222 70
45 16 121 39 169 50 49 12 96 26 105 31 12 6 22 4 32 -6 19 -18 12 -49 -35
-165 -32 -77 -42 -115 -78 -275 -25 -109 -31 -185 -25 -300 5 -104 3 -128 -14
-177 -36 -104 -83 -166 -171 -228 -19 -14 -20 -17 -6 -35 12 -17 26 -20 85
-20 39 0 71 -4 71 -8 0 -19 -237 -468 -289 -547 -54 -83 -165 -206 -206 -228
-31 -17 -8 -44 59 -67 l58 -20 -6 -100 c-4 -55 -11 -224 -16 -375 -11 -301
-20 -359 -79 -481 -17 -37 -47 -87 -66 -112 -26 -35 -34 -53 -30 -70 6 -21 1
-26 -34 -41 -85 -33 -372 -181 -395 -203 -14 -13 -32 -23 -39 -23 -9 0 -17
-15 -21 -36 -6 -29 -3 -42 19 -69 68 -90 146 -122 322 -130 141 -7 425 8 573
31 242 38 238 38 298 24 31 -7 92 -13 134 -14 92 -1 124 17 148 85 30 84 3
189 -76 302 -19 26 -34 49 -34 51 0 2 20 11 45 20 54 21 56 34 16 114 -15 31
-32 68 -36 82 -4 14 -17 48 -30 75 -25 54 -54 157 -76 270 -15 74 -20 427 -7
441 4 3 21 1 38 -6 17 -7 33 -11 35 -8 3 3 7 70 9 149 5 156 17 214 67 305 49
92 78 133 129 185 28 28 50 55 50 60 0 5 24 33 53 62 60 62 141 98 223 102 28
1 57 6 64 10 21 13 86 6 140 -14 57 -22 228 -137 288 -195 106 -100 182 -253
201 -400 7 -56 5 -105 -5 -183 -15 -115 -10 -138 26 -115 32 20 40 14 40 -31
0 -49 -16 -189 -30 -262 -5 -27 -19 -97 -30 -154 -20 -106 -51 -212 -97 -335
-29 -76 -25 -86 35 -86 31 0 42 -12 22 -25 -16 -10 -107 -148 -124 -189 -18
-44 -21 -88 -8 -139 12 -45 26 -63 63 -83 40 -20 86 -18 234 13 127 26 133 26
275 14 269 -23 473 -30 598 -21 110 8 127 11 157 35 63 48 67 82 19 178 -41
79 -114 135 -257 197 -32 14 -58 30 -58 35 -1 6 17 16 40 23 23 8 41 18 41 23
0 5 -34 51 -75 102 -76 92 -135 199 -173 312 -36 107 -83 323 -97 453 -22 194
-24 184 35 205 33 12 50 23 50 35 0 9 -29 46 -64 82 -74 75 -182 234 -250 366
-38 75 -104 270 -110 323 -1 10 13 15 47 17 73 5 97 33 58 68 -10 9 -40 60
-67 113 l-49 96 -1 241 c-1 272 -16 405 -64 544 -31 88 -24 104 21 56 13 -14
98 -80 189 -147 181 -133 305 -234 361 -293 37 -39 177 -226 214 -286 11 -18
25 -33 30 -33 11 0 54 119 54 153 1 12 5 22 9 22 5 0 55 -25 113 -56 192 -103
446 -222 529 -247 149 -46 430 -99 430 -81 0 4 -9 27 -21 51 -20 42 -18 73 4
55 7 -5 23 -12 37 -15 291 -63 336 -69 458 -63 162 8 234 21 293 52 44 23 127
108 144 147 41 98 -56 255 -199 323 -39 19 -80 34 -92 34 -31 0 -41 17 -46 79
-8 79 -36 101 -128 101 -98 0 -184 -30 -290 -101 -49 -33 -94 -68 -99 -77 -7
-13 -13 -14 -21 -6 -8 8 -1 20 29 43 46 37 70 93 50 117 -14 17 -30 15 -109
-7 -60 -17 -427 -17 -665 0 -99 7 -182 15 -184 17 -2 2 6 23 19 47 34 64 25
77 -54 77 -93 0 -194 24 -302 71 -150 67 -216 117 -513 388 -75 68 -140 128
-146 133 -5 5 14 31 49 67 81 82 77 94 -39 103 -50 4 -116 13 -148 21 l-59 13
44 35 c23 20 65 51 93 69 140 96 512 457 627 609 136 181 231 321 323 478 43
73 85 140 94 150 19 20 93 117 131 172 14 20 43 70 64 111 21 41 65 123 98
181 53 97 65 139 37 139 -4 0 -49 -14 -99 -31 -51 -17 -95 -27 -98 -24 -4 4
10 20 31 37 71 58 158 196 190 305 20 66 8 80 -42 49 -49 -30 -166 -86 -180
-86 -13 0 -15 26 -2 34 33 21 128 261 146 369 3 18 8 48 11 68 5 29 2 38 -12
43 -12 5 -23 0 -34 -12 -50 -62 -405 -290 -434 -279 -12 5 -13 13 -5 39 13 46
11 84 -4 97 -10 8 -39 -1 -117 -35 -102 -45 -320 -97 -337 -80 -4 3 1 20 10
35 33 56 11 105 -35 80 -13 -7 -59 -23 -103 -36 -44 -13 -87 -26 -95 -28 -8
-2 -35 -9 -60 -15 -25 -6 -74 -20 -109 -32 -68 -22 -197 -31 -239 -16 -12 4
-123 12 -245 17 -122 6 -249 15 -282 22 -94 18 -641 -18 -723 -47 -32 -12 -70
-15 -160 -11 -64 2 -126 7 -137 10 -11 3 -55 15 -98 27 -92 23 -154 49 -199
83 -46 34 -62 26 -42 -21 26 -62 46 -124 41 -129 -3 -2 -25 2 -49 11 -137 48
-167 59 -203 75 -47 22 -125 88 -125 106 0 13 -21 25 -42 25 -7 0 -9 -23 -5
-66 l5 -65 -32 6 c-158 33 -274 106 -367 232 -22 29 -44 53 -49 53 -6 0 -10
-63 -10 -159z m66 50 c-7 -11 63 -81 81 -81 7 0 13 -6 13 -12 0 -7 12 -21 28
-31 15 -9 42 -26 60 -38 40 -26 176 -61 206 -53 14 3 27 -1 35 -10 8 -9 17
-16 22 -16 16 0 9 53 -8 66 -10 7 -15 15 -11 19 4 4 28 -7 53 -24 26 -17 63
-38 83 -47 74 -31 238 -82 285 -89 54 -8 59 0 27 45 -23 33 -42 80 -32 80 4 0
41 -11 82 -24 139 -45 257 -70 334 -69 89 0 250 14 271 24 18 8 250 28 380 33
28 1 56 5 62 9 6 4 14 3 17 -1 3 -5 38 -8 78 -6 41 2 77 -1 85 -7 7 -6 45 -12
85 -14 40 -1 109 -5 153 -9 44 -3 116 -8 160 -11 44 -2 112 -7 150 -11 57 -5
85 -2 149 16 44 12 87 26 95 30 9 5 36 14 61 20 88 22 126 31 165 39 22 5 49
12 59 16 16 7 18 5 12 -11 -29 -70 -29 -77 -11 -91 28 -19 86 -14 210 19 22 6
54 13 70 14 29 4 100 31 157 60 14 8 29 14 33 14 7 0 -2 -102 -12 -127 -3 -8
2 -13 15 -13 26 0 138 47 177 74 17 12 44 28 60 36 17 8 76 45 132 82 56 37
104 64 107 59 3 -5 -1 -25 -9 -45 -8 -19 -15 -46 -15 -59 0 -14 -7 -30 -15
-37 -8 -7 -15 -20 -15 -29 0 -24 -86 -190 -122 -234 -22 -28 -27 -42 -19 -50
7 -7 17 -8 33 0 13 6 50 18 83 28 33 9 74 25 90 34 37 22 74 31 79 22 7 -10
-55 -130 -103 -199 -22 -31 -67 -84 -100 -117 -95 -93 -84 -103 61 -55 49 17
91 30 94 30 19 0 -14 -79 -76 -180 -5 -8 -19 -35 -31 -60 -25 -51 -99 -165
-126 -195 -11 -11 -43 -52 -71 -92 -29 -39 -66 -86 -82 -103 -17 -18 -30 -40
-30 -50 0 -11 -4 -21 -9 -24 -5 -4 -28 -41 -52 -84 -23 -42 -49 -87 -58 -98
-9 -12 -23 -32 -31 -44 -8 -12 -19 -28 -25 -34 -20 -22 -75 -104 -75 -111 0
-4 -11 -16 -25 -27 -14 -11 -25 -24 -25 -30 0 -5 -26 -38 -58 -72 -32 -33 -81
-85 -108 -115 -48 -54 -251 -256 -302 -303 -15 -14 -56 -47 -92 -74 -36 -27
-72 -56 -80 -64 -9 -9 -34 -27 -55 -40 -22 -13 -42 -27 -45 -30 -29 -33 -255
-148 -365 -185 -44 -14 -84 -30 -90 -34 -5 -4 -30 -13 -55 -20 -25 -7 -55 -18
-67 -24 -29 -13 -136 -4 -193 17 -25 9 -56 19 -70 22 -32 6 -265 124 -336 169
-30 19 -57 35 -59 35 -11 0 -178 121 -183 133 -2 4 -8 7 -13 7 -10 0 -11 1
-189 155 -70 61 -154 131 -186 155 -63 48 -83 68 -211 206 -110 118 -186 217
-199 257 -4 9 -10 17 -15 17 -5 0 -9 5 -9 11 0 17 -102 139 -202 241 -53 53
-126 137 -164 187 -37 50 -71 91 -76 91 -4 0 -8 5 -8 12 0 7 -18 38 -41 70
-22 32 -44 72 -49 88 -8 26 -6 30 12 30 11 0 47 -7 79 -15 33 -9 64 -13 69
-10 29 18 11 47 -168 270 -23 29 -62 111 -68 142 -7 36 -6 36 22 29 85 -22
147 -27 161 -13 12 12 12 19 -1 48 -9 19 -25 48 -35 64 -11 17 -20 37 -20 46
-1 9 -8 22 -16 29 -8 7 -14 18 -13 24 1 6 -4 29 -12 51 -17 47 -21 272 -5 279
16 7 17 7 11 -3z m-1062 -2185 c21 -7 76 -35 122 -62 70 -41 84 -53 84 -74 0
-37 28 -74 45 -60 8 6 13 24 13 39 -2 57 58 131 107 131 48 0 73 -35 117 -167
53 -156 57 -204 27 -280 -13 -32 -24 -60 -26 -62 -1 -2 -18 8 -38 23 -61 47
-135 76 -194 76 -47 0 -52 -2 -46 -17 13 -30 55 -174 55 -189 0 -22 -16 -24
-66 -9 -57 17 -94 19 -94 5 0 -6 11 -28 25 -49 25 -40 42 -91 31 -91 -15 0
-127 90 -216 173 -52 49 -103 97 -113 106 -11 9 -28 33 -39 54 -21 42 -58 177
-58 211 1 18 5 17 30 -14 17 -19 30 -40 30 -47 0 -7 7 -13 15 -13 10 0 15 10
15 27 0 19 -14 42 -47 75 -46 46 -46 48 -35 85 6 21 25 54 41 73 l29 35 44
-40 c108 -101 107 -100 114 -80 7 18 6 20 -91 104 -37 32 -38 34 -19 48 21 16
72 12 138 -11z m2637 -483 c8 -6 39 -25 69 -41 30 -17 56 -34 58 -40 2 -7 -74
-26 -151 -36 -9 -1 -23 -8 -29 -14 -7 -7 -17 -12 -23 -12 -30 -1 -119 -92
-132 -135 -28 -98 -16 -167 41 -220 39 -36 79 -48 166 -50 71 -2 96 2 150 23
36 14 82 36 102 49 82 51 104 13 42 -72 -39 -54 -104 -186 -104 -211 0 -8 -6
-27 -14 -42 -19 -38 -26 -85 -16 -102 6 -10 41 -18 106 -25 104 -11 104 -11
109 43 1 15 5 34 8 42 3 8 8 40 11 70 7 80 17 129 27 136 5 3 9 15 9 27 0 13
9 41 20 62 20 40 21 40 84 42 61 2 64 1 75 -25 26 -67 41 -157 41 -246 0 -112
8 -123 68 -84 68 43 77 49 95 54 23 8 22 21 -9 90 -14 33 -30 70 -36 84 -23
57 -43 96 -56 112 -11 14 -12 21 -3 32 10 12 22 8 79 -21 69 -35 103 -44 177
-45 146 -3 265 65 265 153 0 47 -26 143 -39 147 -6 2 -11 8 -11 13 0 31 -100
97 -178 119 -51 13 -50 27 3 48 22 9 57 26 79 40 31 19 45 22 75 16 62 -12 75
-14 116 -19 115 -12 135 -28 91 -74 -14 -15 -26 -32 -26 -39 0 -6 24 -36 53
-65 28 -29 108 -111 177 -181 121 -123 251 -235 310 -266 16 -8 70 -38 122
-66 92 -51 139 -64 311 -91 20 -3 37 -9 37 -12 0 -10 -30 -52 -58 -83 -15 -16
-22 -33 -18 -43 5 -15 8 -15 28 -1 17 12 49 16 138 16 63 0 133 -5 155 -10 71
-16 450 -23 573 -10 63 6 115 10 118 8 2 -3 -16 -25 -41 -51 -40 -40 -44 -48
-34 -65 15 -24 127 -82 157 -82 49 0 17 -30 -88 -81 -60 -30 -110 -59 -110
-66 0 -13 54 -56 83 -66 42 -15 3 -49 -82 -71 -80 -19 -94 -31 -64 -54 23 -18
53 -82 53 -114 0 -15 -4 -18 -17 -13 -10 4 -41 11 -69 15 -28 5 -60 12 -70 18
-11 5 -25 7 -32 5 -8 -3 -32 2 -55 11 -23 8 -51 15 -62 15 -24 -1 -122 33
-190 65 -189 90 -314 152 -337 168 -14 10 -31 18 -36 18 -6 0 -45 20 -87 45
-73 44 -103 49 -91 18 3 -8 -1 -21 -9 -29 -8 -9 -15 -26 -15 -39 0 -53 -44
-35 -75 32 -9 19 -23 37 -31 40 -8 3 -14 10 -14 16 0 6 -7 17 -15 26 -8 9 -36
42 -61 74 -26 31 -50 57 -53 57 -4 0 -32 23 -62 51 -98 93 -108 102 -168 143
-122 84 -276 202 -321 246 -64 61 -91 80 -112 80 -22 0 -22 -9 -3 -34 8 -10
12 -23 9 -28 -4 -5 3 -19 14 -31 11 -12 25 -41 31 -64 7 -23 16 -45 22 -48 5
-4 9 -14 7 -23 -1 -10 3 -37 9 -62 36 -143 41 -205 37 -467 -3 -229 -2 -263
11 -263 9 0 21 -12 28 -27 6 -16 27 -54 45 -86 27 -47 31 -61 22 -73 -14 -16
-86 -19 -95 -4 -7 12 -65 14 -65 2 0 -5 11 -19 25 -32 14 -13 30 -42 36 -64 6
-23 17 -59 24 -81 7 -22 18 -60 26 -85 35 -120 196 -387 296 -491 60 -62 62
-85 8 -95 -19 -3 -36 -12 -39 -20 -3 -7 2 -48 10 -91 9 -43 15 -98 15 -122 0
-24 4 -65 10 -90 6 -25 12 -57 14 -71 2 -14 11 -54 20 -90 9 -36 20 -81 25
-100 21 -87 39 -136 94 -250 24 -51 95 -161 120 -186 10 -9 16 -26 14 -37 -2
-17 -14 -23 -58 -32 -72 -13 -200 -11 -229 4 -34 19 -51 7 -51 -36 0 -21 -3
-55 -6 -76 -9 -53 -35 -49 -113 17 -62 54 -101 67 -119 40 -12 -18 -125 -94
-140 -94 -10 0 -12 6 -7 23 41 131 37 137 -80 112 -111 -23 -118 -18 -87 68
13 34 23 71 23 81 0 10 7 32 15 48 8 16 12 33 9 38 -3 5 0 22 8 37 8 15 17 50
21 77 3 27 11 55 17 62 6 8 8 25 5 38 -3 14 -1 37 5 53 6 15 13 57 14 93 2 36
7 115 11 176 7 111 7 112 -17 125 -13 7 -26 12 -29 11 -3 -1 -4 15 -3 36 5 73
4 108 -5 177 -12 89 -19 108 -77 226 -20 42 -56 99 -79 127 -58 71 -332 272
-370 272 -8 0 -27 7 -42 15 -37 19 -141 19 -191 1 -21 -8 -63 -21 -93 -30 -82
-24 -110 -45 -191 -142 -41 -48 -86 -101 -100 -118 -34 -40 -107 -176 -130
-243 -10 -29 -21 -85 -24 -125 -4 -40 -10 -77 -13 -82 -3 -5 -4 -32 -3 -59 l2
-50 -28 7 c-56 14 -68 12 -65 -9 2 -11 5 -101 7 -200 4 -208 7 -244 28 -304 9
-24 13 -49 11 -56 -3 -7 1 -27 10 -43 8 -16 13 -32 10 -35 -3 -3 1 -20 9 -39
8 -18 25 -63 36 -100 12 -37 31 -83 44 -102 35 -51 52 -95 40 -107 -16 -16
-134 -32 -147 -19 -12 12 -46 13 -46 1 0 -11 -137 -175 -150 -179 -9 -3 -49
30 -127 105 -24 24 -50 43 -58 43 -7 0 -33 -23 -58 -50 -25 -28 -49 -50 -54
-50 -5 0 -16 12 -25 27 -35 60 -70 82 -131 86 -31 2 -60 6 -63 10 -4 4 18 58
50 119 31 62 59 131 61 153 3 22 9 60 14 85 5 25 14 151 19 280 6 129 11 245
12 258 1 12 3 67 3 122 1 55 5 100 10 100 4 0 7 7 7 15 0 23 -46 48 -80 43
-16 -3 -30 -1 -30 4 0 5 32 41 70 79 39 39 70 75 70 81 0 5 11 24 25 42 14 18
25 36 25 40 0 5 10 22 23 39 23 32 147 268 216 412 67 140 74 166 44 163 -45
-3 -93 3 -93 13 0 6 11 25 24 42 30 40 102 192 110 232 3 17 2 46 -4 65 -16
55 -23 186 -11 238 14 66 34 164 36 182 2 16 21 83 41 145 7 22 22 59 33 82
12 23 21 47 21 53 0 6 6 21 14 33 15 22 16 103 2 125 -8 13 -93 5 -112 -10 -7
-4 -29 -10 -50 -13 -36 -4 -61 -11 -139 -39 -16 -6 -35 -10 -41 -8 -6 1 -17
-5 -24 -13 -7 -8 -20 -15 -30 -15 -9 0 -43 -9 -76 -20 -32 -12 -68 -22 -79
-24 -11 -2 -33 -9 -50 -15 -16 -5 -59 -20 -95 -31 -60 -20 -103 -38 -140 -59
-8 -5 -53 -27 -100 -49 -71 -34 -162 -94 -285 -187 -82 -63 -135 -79 -122 -37
23 68 33 92 39 92 5 0 8 11 8 25 0 23 -31 51 -43 39 -12 -13 -74 -10 -101 3
-15 8 -37 13 -47 10 -10 -3 -23 1 -30 9 -6 8 -19 14 -28 14 -33 0 -210 97
-302 166 -53 40 -107 78 -120 85 -13 6 -30 20 -37 31 -7 10 -19 18 -26 18 -7
0 -23 11 -36 25 -13 14 -29 25 -37 25 -7 0 -13 5 -13 10 0 6 -5 10 -10 10 -6
0 -34 15 -63 33 -29 18 -69 41 -90 52 -20 11 -36 24 -34 29 2 6 33 17 70 25
65 13 86 32 52 45 -17 6 -70 115 -61 123 3 3 35 -3 71 -12 36 -10 68 -16 71
-13 6 7 -13 127 -28 181 -6 20 -8 40 -4 44 9 10 117 -26 141 -47 11 -9 29 -22
39 -28 11 -5 29 -27 41 -48 12 -22 26 -39 31 -38 8 1 17 34 31 111 6 35 26 58
42 48 6 -3 17 -28 25 -55 8 -27 23 -62 34 -77 11 -15 41 -61 67 -100 58 -91
241 -265 312 -298 28 -12 60 -37 72 -54 22 -30 54 -41 66 -22 3 6 13 10 23 10
9 0 40 5 67 11 28 6 70 15 95 19 67 13 122 33 260 93 25 11 61 27 80 35 99 42
562 278 575 293 17 19 15 23 -29 54 -19 13 -19 14 3 26 13 6 45 12 72 13 26 1
54 8 61 15 6 6 18 12 26 12 19 0 111 31 117 39 7 12 101 7 116 -6z m237 -149
c37 -8 48 -31 26 -55 -13 -14 -28 -18 -68 -15 -60 3 -165 -26 -190 -53 -23
-25 -35 -72 -25 -97 9 -26 61 -54 100 -54 16 0 61 14 100 32 59 26 72 29 80
17 17 -26 9 -36 -56 -68 -36 -18 -67 -36 -69 -40 -5 -8 -86 -15 -172 -15 -72
1 -126 30 -138 76 -30 119 66 238 217 268 52 10 154 12 195 4z m830 -47 c23
-11 60 -40 81 -64 33 -39 39 -53 40 -96 0 -30 -5 -60 -14 -74 -15 -22 -66 -54
-95 -59 -8 -1 -33 -7 -55 -13 -75 -19 -160 -4 -249 44 -21 12 -39 25 -40 30
-3 19 59 25 97 10 22 -9 70 -15 114 -15 73 0 79 2 110 32 18 18 33 38 33 46 0
26 -53 103 -80 117 -28 14 -155 13 -204 -1 -17 -6 -35 9 -36 28 -1 41 218 52
298 15z m-613 -11 c11 -4 35 -14 52 -21 31 -14 39 -14 81 1 9 4 30 8 46 10 16
2 34 8 40 13 7 6 22 1 40 -14 22 -17 29 -32 30 -63 2 -36 -3 -47 -48 -97 -44
-47 -59 -58 -109 -70 -114 -29 -178 -16 -252 49 -27 25 -47 48 -43 51 4 4 3
17 -2 29 -11 29 10 77 45 104 27 22 74 25 120 8z m-215 -76 c0 -25 -6 -32 -37
-45 -21 -9 -44 -22 -53 -29 -18 -17 -100 -30 -116 -19 -6 4 -14 18 -18 29 -5
17 1 29 31 53 21 17 44 29 53 26 8 -2 22 0 30 5 8 5 36 10 63 10 46 0 47 -1
47 -30z m778 -15 c64 -75 -33 -115 -195 -80 -45 10 -56 25 -40 58 17 37 66 54
145 51 58 -3 70 -7 90 -29z m-607 -205 c12 0 11 -13 -2 -47 -7 -15 -13 -35
-14 -43 -2 -8 -12 -55 -24 -105 -11 -49 -21 -107 -21 -128 0 -21 -5 -47 -11
-58 -9 -18 -17 -20 -62 -14 -48 7 -118 34 -89 35 6 0 12 8 12 19 0 24 22 78
72 176 60 119 100 177 116 170 7 -3 18 -5 23 -5z m282 -32 c15 -23 27 -49 27
-56 0 -8 16 -48 35 -88 19 -40 35 -77 35 -82 0 -13 -63 -52 -84 -52 -12 0 -16
10 -16 47 0 62 -19 172 -36 205 -18 34 -18 68 -1 68 7 0 25 -19 40 -42z m3044
-400 c42 -39 26 -116 -39 -185 -19 -19 -28 -38 -25 -47 11 -27 34 -18 76 31
l41 46 58 -13 c31 -7 75 -23 97 -36 44 -25 105 -76 105 -87 0 -4 -44 -7 -97
-7 -99 0 -131 -8 -119 -29 5 -7 50 -11 126 -11 111 0 120 -1 134 -22 19 -27
21 -82 3 -96 -7 -6 -71 -12 -145 -14 -113 -2 -132 -5 -130 -18 3 -13 21 -15
110 -12 121 3 135 -4 92 -50 -42 -43 -90 -65 -185 -82 -174 -32 -388 -13 -601
56 -61 19 -89 38 -55 38 30 0 157 56 157 70 0 8 -23 30 -50 48 -28 17 -50 36
-50 41 0 10 86 61 102 61 5 0 38 17 74 37 50 29 64 42 62 58 -2 16 -17 23 -77
35 -41 8 -76 20 -78 26 -10 31 165 141 268 168 79 21 119 20 146 -6z m-1950
-2817 c135 -29 286 -95 373 -162 36 -27 90 -119 90 -151 0 -9 -10 -24 -22 -32
-20 -15 -23 -14 -41 17 -36 61 -102 117 -137 117 -23 0 -7 -31 28 -54 49 -31
63 -48 65 -83 l2 -28 -95 -7 c-97 -7 -366 4 -500 22 -131 16 -310 12 -376 -9
-89 -28 -141 -35 -173 -21 -30 12 -51 46 -51 82 0 22 47 120 84 174 36 54 126
144 143 144 19 0 12 -46 -17 -105 -17 -34 -18 -42 -6 -53 21 -22 67 -6 152 51
43 29 86 58 98 65 19 13 28 9 91 -32 39 -25 82 -55 98 -67 33 -25 61 -19 52
12 -4 11 -4 47 0 80 8 70 5 69 142 40z m-1912 -156 c46 -63 85 -157 85 -202 0
-37 -26 -90 -50 -103 -36 -19 -158 -16 -220 5 -30 11 -59 18 -65 16 -34 -10
-119 -24 -245 -42 -114 -17 -202 -21 -407 -23 -296 -1 -303 0 -260 58 15 19
36 38 47 41 24 8 26 28 5 45 -21 17 -59 -9 -93 -65 -15 -25 -33 -45 -41 -45
-23 0 -81 50 -81 70 0 27 87 83 250 162 334 162 342 165 388 132 27 -18 52
-65 52 -95 0 -22 26 -59 40 -59 4 0 34 32 65 70 31 39 60 70 64 70 3 0 47 -36
96 -80 50 -44 92 -80 96 -80 3 0 28 30 56 68 66 86 102 119 133 124 34 5 34 6
85 -67z"/>
<path d="M3008 8280 c-52 -10 -130 -52 -189 -102 -65 -55 -106 -139 -115 -236
-7 -68 -5 -74 26 -124 37 -60 132 -146 182 -163 82 -29 108 -35 159 -35 91 0
248 66 282 118 9 15 26 41 38 59 15 24 22 55 26 120 5 85 4 91 -27 156 -74
154 -227 238 -382 207z m200 -62 c102 -50 172 -158 172 -264 0 -76 -10 -104
-60 -170 -29 -38 -55 -59 -107 -84 -62 -30 -76 -33 -158 -33 -105 0 -119 5
-203 68 -89 67 -112 107 -112 195 0 86 23 141 84 198 121 113 267 147 384 90z"/>
<path d="M2998 8186 c-20 -6 -47 -20 -60 -32 -13 -11 -40 -33 -62 -48 -108
-80 -94 -257 29 -350 37 -29 121 -49 164 -40 116 24 163 46 224 108 57 57 59
161 4 258 -28 51 -86 89 -160 105 -73 15 -90 15 -139 -1z"/>
<path d="M4095 8281 c-63 -17 -103 -40 -156 -94 -65 -65 -74 -85 -109 -247
-21 -100 -23 -157 -6 -182 31 -44 17 -46 -69 -8 -103 46 -219 43 -300 -8 -66
-40 -135 -95 -135 -107 0 -15 -81 -63 -136 -80 -62 -19 -205 -19 -266 0 -125
38 -248 117 -248 159 0 14 -71 63 -158 108 -78 40 -180 53 -231 30 -96 -44
-189 -140 -217 -224 -19 -57 -15 -167 6 -193 7 -9 10 -18 7 -21 -12 -12 28
-82 85 -148 33 -38 70 -85 83 -105 26 -40 79 -93 175 -170 36 -29 108 -91 160
-137 52 -46 120 -102 150 -124 116 -83 261 -181 282 -191 13 -5 41 -21 63 -34
54 -33 181 -95 195 -95 5 0 10 -4 10 -8 0 -20 182 -88 203 -75 4 2 14 -1 22
-7 15 -12 35 -11 90 8 17 6 62 21 100 33 39 12 79 28 90 36 11 7 29 13 42 13
12 0 34 5 50 12 15 7 33 13 38 13 15 3 96 42 130 64 17 11 41 26 55 34 60 32
81 46 185 123 124 91 180 137 245 199 40 38 70 71 188 203 19 20 44 48 58 62
13 14 24 28 24 32 0 5 20 34 45 67 25 32 45 64 45 70 0 6 4 11 10 11 5 0 12
11 16 25 3 14 9 25 13 25 4 0 19 26 34 58 21 46 27 74 28 137 1 50 -3 81 -10
83 -6 2 -11 10 -11 18 0 53 -87 143 -174 179 -93 39 -203 0 -316 -115 -44 -44
-92 -79 -150 -110 l-85 -45 -120 1 c-133 0 -150 6 -194 70 -29 42 -27 46 17
30 20 -7 53 -18 73 -25 47 -15 178 -16 192 -2 6 6 17 11 25 11 19 0 103 66
125 98 49 73 62 115 62 207 0 77 -4 98 -26 146 -63 134 -197 217 -304 190z
m172 -76 c43 -31 83 -82 83 -105 0 -7 -10 2 -22 20 -51 74 -181 103 -274 61
-68 -31 -134 -132 -153 -237 -7 -37 -5 -56 9 -89 32 -76 135 -145 215 -145 38
0 145 47 178 78 35 32 66 96 67 135 0 15 5 27 10 27 31 0 -9 -126 -60 -190
-95 -120 -256 -139 -393 -46 -66 44 -87 81 -69 119 6 12 13 58 16 101 6 101
45 184 110 239 67 55 101 68 176 64 54 -2 73 -8 107 -32z m-1729 -441 c30 -20
84 -66 118 -103 46 -49 81 -76 136 -102 143 -69 194 -78 336 -61 101 12 176
47 251 115 49 44 90 67 184 106 52 21 89 15 219 -37 16 -7 58 -42 95 -80 52
-52 80 -72 120 -85 59 -19 168 -22 245 -6 92 19 214 94 314 193 58 58 110 84
135 68 16 -10 21 -10 25 3 8 20 40 19 94 -6 93 -42 140 -116 140 -219 0 -32
-4 -62 -10 -65 -5 -3 -10 -15 -10 -26 0 -22 -61 -108 -109 -153 -18 -18 -31
-40 -31 -54 0 -26 -28 -68 -91 -137 -158 -174 -216 -235 -257 -268 -26 -21
-67 -55 -91 -75 -24 -20 -54 -44 -66 -52 -12 -8 -32 -26 -46 -38 -13 -13 -37
-31 -54 -39 -16 -9 -57 -34 -90 -57 -67 -46 -103 -66 -117 -66 -5 0 -26 -11
-46 -25 -20 -14 -50 -25 -67 -25 -17 0 -35 -4 -40 -8 -6 -5 -30 -14 -55 -21
-25 -8 -58 -19 -75 -26 -123 -52 -166 -61 -229 -46 -74 18 -119 34 -136 46 -8
6 -37 22 -65 34 -93 44 -150 74 -215 115 -36 23 -76 47 -91 54 -30 16 -240
172 -297 222 -22 19 -70 60 -108 90 -170 138 -297 261 -328 319 -5 9 -24 32
-42 51 -46 48 -69 97 -85 175 -22 111 18 199 128 281 64 48 87 54 186 48 57
-4 77 -10 125 -40z"/>
<path d="M4630 7590 c-19 -11 -42 -19 -52 -20 -9 0 -57 -31 -108 -68 -135
-101 -209 -134 -330 -147 -61 -7 -68 -7 -162 1 -65 5 -69 8 -140 69 -96 85
-155 115 -221 115 -78 0 -129 -22 -222 -95 -89 -70 -159 -88 -325 -82 -199 8
-276 22 -350 68 -25 16 -60 35 -77 43 -18 8 -48 26 -65 39 -58 43 -152 87
-186 87 -24 0 -42 -9 -64 -30 -27 -27 -30 -36 -26 -75 6 -47 34 -112 70 -160
47 -61 166 -174 258 -243 52 -39 154 -117 225 -172 72 -55 153 -116 180 -134
115 -77 192 -123 225 -136 19 -7 51 -20 70 -28 71 -29 75 -30 176 -57 11 -3
45 0 75 6 30 6 70 13 89 15 19 2 51 10 72 19 22 8 49 13 61 10 15 -4 32 1 49
14 14 12 31 21 36 21 5 0 15 7 22 15 7 9 19 14 26 11 8 -3 17 1 21 8 5 7 24
21 43 32 117 64 423 315 549 451 81 86 195 247 220 310 15 37 9 62 -26 103
-29 35 -62 38 -113 10z m91 -33 c18 -14 34 -67 20 -67 -5 0 -13 -10 -17 -22
-4 -13 -19 -41 -33 -62 -14 -22 -35 -54 -46 -71 -34 -54 -91 -115 -108 -115
-9 0 -21 -9 -28 -21 -8 -16 -14 -18 -22 -9 -9 9 -8 14 5 24 15 11 16 16 4 31
-17 24 -39 10 -33 -21 2 -13 -4 -47 -13 -75 -14 -40 -30 -63 -72 -98 -141
-119 -145 -120 -177 -66 -11 19 -25 35 -31 35 -5 0 -11 -24 -11 -52 -2 -88
-11 -110 -54 -140 -22 -15 -46 -27 -53 -28 -12 0 -73 115 -85 161 -10 39 -31
15 -34 -42 -2 -30 -8 -66 -14 -81 -6 -15 -9 -31 -6 -35 11 -18 -31 -86 -61
-99 -41 -17 -51 -4 -101 119 -77 193 -96 194 -97 5 0 -110 -3 -140 -17 -161
-9 -15 -17 -32 -17 -40 0 -15 -41 -37 -69 -37 -29 0 -69 44 -76 84 -4 20 -12
39 -18 43 -6 4 -8 -2 -3 -18 3 -13 9 -37 13 -52 5 -27 4 -28 -23 -21 -16 4
-44 13 -62 20 -38 16 -38 17 10 120 16 35 34 61 39 58 5 -3 9 -25 9 -50 0 -24
5 -44 11 -44 6 0 10 27 8 75 -1 41 1 78 4 82 12 11 8 41 -6 46 -22 8 -34 -5
-46 -48 -6 -22 -31 -78 -54 -125 -31 -63 -48 -86 -63 -88 -30 -4 -61 42 -74
109 -16 82 -43 159 -55 159 -6 0 -22 -19 -35 -42 -27 -48 -60 -88 -73 -88 -14
0 -136 90 -151 112 -10 14 -13 37 -10 72 6 60 -6 87 -30 67 -8 -7 -16 -25 -18
-39 -5 -44 -43 -40 -105 10 -52 42 -53 44 -53 98 0 82 -27 106 -50 44 -13 -33
-50 -31 -87 5 -17 15 -36 32 -44 37 -16 10 -75 81 -132 157 -37 49 -39 55 -35
110 3 36 10 62 19 68 16 10 109 8 124 -4 6 -4 29 -21 53 -38 27 -18 42 -36 40
-47 -2 -11 3 -16 14 -14 9 1 20 -3 24 -9 9 -16 -18 -31 -29 -16 -6 8 -7 6 -3
-6 3 -10 6 -25 6 -33 0 -22 16 -16 28 11 16 34 45 32 156 -11 89 -36 92 -38
88 -65 -2 -16 1 -36 8 -44 6 -8 9 -19 5 -25 -3 -5 -1 -10 4 -10 6 0 11 -11 11
-25 0 -14 5 -25 10 -25 6 0 10 7 10 15 0 19 -1 16 15 67 10 37 16 43 42 46 52
5 79 -13 107 -73 16 -32 24 -64 21 -75 -3 -10 1 -33 10 -50 31 -60 51 -30 56
83 0 9 6 17 14 17 8 0 18 6 22 14 11 19 35 25 56 14 14 -7 24 -5 38 8 16 14
21 15 35 3 14 -11 18 -11 21 -1 3 6 9 12 15 12 5 0 6 -9 3 -20 -4 -12 -2 -20
5 -20 6 0 9 -8 5 -18 -3 -11 3 -30 15 -45 12 -16 16 -28 10 -32 -14 -8 6 -45
25 -45 17 0 27 47 41 198 3 36 14 78 25 95 10 18 19 42 19 54 0 16 11 25 44
38 73 28 80 22 90 -75 6 -60 5 -103 -4 -148 -11 -56 -11 -66 3 -80 15 -14 17
-14 23 4 4 10 26 48 48 84 23 36 47 77 53 93 10 20 20 27 42 27 16 0 33 -6 39
-13 18 -21 34 -107 33 -169 -1 -70 16 -77 51 -20 13 20 39 59 58 85 31 43 38
48 69 45 31 -3 35 -7 46 -46 14 -45 31 -72 47 -72 6 0 8 7 5 15 -4 8 1 35 10
60 16 49 50 75 100 75 15 0 35 5 43 10 10 6 20 4 33 -8 18 -16 20 -16 38 7 10
13 19 31 19 41 0 10 16 28 38 41 20 13 57 40 81 61 24 21 46 36 49 33 3 -3 11
0 18 6 10 8 80 31 114 37 3 1 12 -4 21 -11z m-982 -764 c46 -124 47 -123 -22
-146 -32 -11 -60 -18 -62 -15 -3 2 2 38 11 79 8 41 16 95 17 121 1 27 7 48 12
48 6 0 26 -39 44 -87z"/>
</g>
</svg>
