<?xml version="1.0" standalone="no"?>
<!DOCTYPE svg PUBLIC "-//W3C//DTD SVG 20010904//EN"
 "http://www.w3.org/TR/2001/REC-SVG-20010904/DTD/svg10.dtd">
<svg version="1.0" xmlns="http://www.w3.org/2000/svg"
 width="720.000000pt" height="1117.000000pt" viewBox="0 0 720.000000 1117.000000"
 preserveAspectRatio="xMidYMid meet">
<metadata>
Created by potrace 1.16, written by Peter Selinger 2001-2019
</metadata>
<g transform="translate(0.000000,1117.000000) scale(0.100000,-0.100000)"
fill="#000000" stroke="none">
<path d="M3185 8890 c-276 -5 -291 -7 -337 -48 -29 -25 -32 -72 -8 -138 34
-91 67 -224 80 -322 12 -85 11 -90 -11 -133 -18 -34 -24 -61 -24 -119 -2 -89
-19 -150 -43 -150 -9 0 -113 16 -230 35 -118 19 -224 35 -237 35 -35 0 -74
-20 -81 -42 -18 -59 93 -119 396 -213 136 -43 168 -88 150 -211 -15 -99 -31
-487 -23 -567 4 -45 13 -79 27 -100 l21 -31 -89 -59 c-49 -32 -128 -81 -175
-108 -86 -48 -86 -48 -177 -48 -107 0 -164 -12 -259 -56 -91 -42 -152 -87
-248 -182 -119 -118 -224 -291 -242 -399 l-6 -41 -72 -6 c-159 -13 -199 -36
-391 -222 -59 -58 -136 -125 -170 -149 -83 -59 -194 -208 -217 -290 -8 -29 -7
-42 8 -67 11 -19 14 -32 8 -37 -50 -34 -86 -150 -65 -203 7 -17 23 -32 37 -35
18 -5 22 -11 17 -23 -27 -63 -6 -120 55 -145 l40 -16 -19 -42 c-12 -27 -20
-65 -20 -104 0 -51 5 -69 33 -115 18 -30 41 -75 51 -102 20 -54 112 -188 157
-229 23 -22 39 -28 72 -28 53 1 107 20 151 53 28 22 43 26 95 25 52 -1 73 5
136 36 42 21 83 49 92 62 22 35 21 79 -5 112 -88 113 -95 137 -53 185 31 35
161 108 214 121 34 8 90 -16 111 -49 9 -13 20 -45 26 -72 22 -98 66 -125 200
-125 98 0 135 13 170 62 19 27 22 41 18 104 -3 62 -8 82 -36 126 -32 52 -33
53 -12 67 30 21 44 53 46 103 1 25 12 77 24 115 19 59 22 92 22 215 -1 156 4
174 54 206 36 24 99 33 145 22 48 -13 123 -77 149 -128 34 -67 42 -152 25
-280 -8 -63 -16 -135 -17 -159 -3 -42 -5 -45 -41 -55 -43 -12 -87 -50 -87 -74
0 -48 54 -339 66 -352 11 -13 7 -27 -27 -95 -22 -44 -52 -113 -66 -155 -24
-70 -25 -83 -18 -194 l6 -119 -64 -61 c-90 -84 -106 -124 -72 -173 15 -21 14
-23 -13 -37 -41 -21 -58 -66 -40 -104 14 -27 13 -30 -25 -73 -50 -55 -105
-168 -113 -231 -6 -42 -9 -48 -31 -48 -100 0 -233 -199 -233 -348 1 -95 51
-172 114 -172 12 0 10 -10 -9 -52 -14 -29 -25 -60 -25 -69 0 -9 -26 -44 -59
-77 -65 -67 -91 -125 -91 -204 0 -62 11 -83 59 -107 66 -34 186 -44 536 -43
495 1 677 21 812 89 100 51 116 78 110 184 -3 44 -12 90 -22 110 -17 32 -17
34 0 44 45 27 65 49 76 86 16 52 1 85 -47 105 -30 13 -35 19 -30 37 3 12 9 38
12 59 5 31 11 37 39 42 78 15 123 128 74 190 -20 25 -20 29 -6 59 8 18 22 49
30 69 9 20 41 61 71 91 43 42 56 61 56 83 0 17 -5 35 -11 41 -7 7 -2 25 19 59
55 91 58 113 36 264 -5 31 1 44 43 100 32 43 57 91 74 145 21 63 31 81 47 83
33 5 38 -38 18 -153 -19 -114 -21 -267 -5 -346 6 -30 11 -60 12 -67 1 -7 -16
-20 -38 -27 -58 -21 -105 -75 -105 -123 0 -39 25 -127 43 -150 6 -8 3 -28 -12
-61 -30 -72 -29 -154 4 -186 22 -22 32 -25 105 -25 73 0 81 -2 76 -17 -3 -10
-8 -31 -12 -46 -6 -27 -8 -28 -53 -23 -25 4 -52 2 -60 -3 -16 -10 -30 -77 -31
-143 0 -40 4 -50 25 -64 l25 -16 -24 -31 c-55 -73 -86 -173 -86 -271 0 -79 16
-85 255 -93 188 -6 197 -5 224 15 25 18 31 19 49 6 68 -47 369 -70 827 -60
381 7 559 21 600 44 72 42 82 147 24 249 -65 114 -215 176 -457 191 l-107 7
-6 50 c-8 56 -24 103 -44 125 -25 29 -21 63 14 99 32 34 32 35 29 120 -4 89 0
105 61 244 30 69 28 118 -6 154 -16 16 -35 32 -43 35 -12 4 -13 9 -2 32 19 42
14 82 -18 157 -56 126 -60 210 -20 385 10 45 22 104 26 132 8 59 -10 169 -36
229 -12 28 -15 45 -8 49 24 15 47 96 58 202 6 63 8 122 5 132 -6 19 1 22 90
35 37 5 41 3 58 -26 9 -17 17 -39 17 -49 0 -10 19 -41 43 -70 61 -75 87 -111
87 -124 0 -7 -16 -36 -35 -66 -38 -60 -44 -103 -21 -149 20 -37 82 -91 106
-91 10 0 32 -11 48 -25 64 -54 105 -64 262 -64 135 0 149 2 197 25 66 32 151
108 193 173 48 76 90 194 90 254 -1 45 -16 105 -44 168 -6 14 2 18 46 24 29 4
64 14 77 22 21 13 22 20 16 61 -11 76 -63 220 -116 322 -49 93 -180 284 -310
450 -36 47 -82 110 -102 142 -54 85 -139 163 -220 202 l-71 35 -18 93 c-43
220 -161 351 -355 398 -29 6 -77 10 -106 8 -53 -3 -56 -2 -230 107 -97 61
-177 116 -177 124 0 7 14 55 32 105 l31 91 4 310 c5 327 12 383 54 406 10 5
78 24 151 43 181 46 246 72 291 116 55 55 47 124 -18 155 -44 20 -75 19 -250
-9 -83 -13 -167 -26 -188 -29 l-39 -6 7 69 c5 54 3 76 -10 104 -15 32 -17 61
-12 229 3 127 10 218 21 270 21 93 12 130 -39 176 -69 60 -79 61 -724 59 -322
-1 -707 -5 -856 -8z m1470 -74 c59 -25 67 -63 39 -188 -11 -47 -18 -133 -19
-243 -2 -93 -6 -169 -9 -169 -3 1 -65 5 -138 9 l-131 7 -49 54 c-32 34 -73 65
-114 85 -82 41 -194 48 -369 25 -163 -22 -273 -20 -402 6 -141 28 -297 30
-371 4 -29 -10 -54 -16 -56 -15 -1 2 -10 42 -20 89 -10 47 -34 134 -54 193
-31 93 -34 109 -21 122 12 12 117 16 629 23 987 14 1046 14 1085 -2z m-1227
-477 c148 -23 260 -22 497 1 191 19 261 3 338 -76 75 -78 84 -164 24 -222 -86
-83 -328 -110 -522 -58 -157 42 -207 43 -367 7 -215 -48 -307 -40 -384 34 -34
32 -44 50 -49 88 -10 65 29 145 94 192 80 59 158 66 369 34z m1280 -175 c18
-12 22 -23 22 -68 l0 -53 -42 8 c-24 4 -95 11 -158 15 l-115 7 0 59 0 59 135
-7 c89 -4 143 -11 158 -20z m536 -190 c63 -24 -70 -96 -240 -129 -39 -8 -111
-17 -161 -21 -73 -5 -94 -4 -114 9 -35 23 -135 47 -198 47 -84 0 -58 7 74 20
146 14 483 56 545 69 58 11 75 12 94 5z m-2654 -28 c47 -9 139 -23 205 -32 66
-8 121 -17 122 -18 2 -2 -7 -12 -20 -23 -21 -19 -25 -20 -102 -7 -84 15 -289
76 -315 95 -12 8 -11 9 5 5 11 -3 58 -12 105 -20z m1225 -96 c187 -5 435 -15
550 -21 239 -13 254 -17 295 -90 24 -43 25 -50 25 -234 0 -206 -17 -339 -61
-492 -46 -159 -86 -193 -239 -204 -287 -22 -1375 82 -1435 136 -19 17 -20 32
-20 222 0 112 7 270 15 351 16 150 41 318 51 333 7 12 392 11 819 -1z m-685
-1021 c103 -8 153 -17 213 -40 171 -62 350 -181 587 -391 112 -98 259 -204
364 -261 56 -30 110 -57 121 -61 19 -6 20 -13 18 -233 -2 -126 -6 -324 -9
-440 -6 -201 -7 -213 -25 -213 -26 0 -91 44 -116 78 -29 39 -40 85 -47 182 -3
47 -12 108 -21 136 -53 178 -309 263 -444 148 -22 -20 -44 -49 -49 -66 l-8
-31 -89 2 c-50 1 -135 6 -189 12 -83 7 -103 6 -123 -6 -33 -22 -39 -60 -16
-103 l19 -37 114 -17 c174 -27 367 -33 541 -18 131 12 152 16 161 33 12 23 5
107 -10 116 -6 3 -71 8 -144 9 -73 2 -137 7 -142 12 -14 14 17 62 54 81 90 48
223 -9 271 -117 10 -22 29 -104 43 -182 33 -195 65 -246 171 -277 33 -10 40
-16 39 -36 -1 -13 -2 -61 -3 -107 -1 -97 -15 -112 -60 -68 -57 55 -233 60
-307 10 l-37 -25 -461 -2 c-493 -2 -631 4 -640 30 -4 8 -13 72 -21 142 -33
267 -42 310 -90 408 -40 82 -54 99 -120 153 -41 34 -75 65 -75 70 0 5 17 12
38 15 163 26 272 77 357 166 98 102 147 247 125 367 -30 168 -149 289 -344
353 l-80 26 34 18 c59 30 186 124 209 156 14 19 28 28 39 25 9 -3 78 -10 152
-17z m645 -59 c77 -5 183 -10 236 -10 53 0 98 -2 101 -5 5 -5 -58 -214 -67
-223 -2 -2 -46 21 -98 52 -52 31 -159 87 -237 125 -78 38 -145 72 -148 76 -3
3 12 3 33 0 22 -3 103 -10 180 -15z m844 -24 c30 -48 27 -102 -9 -159 -16 -26
-34 -47 -38 -47 -5 0 -22 19 -37 43 -16 23 -52 72 -82 109 l-53 67 32 5 c32 6
83 11 140 14 20 2 31 -6 47 -32z m-277 -13 c32 -34 48 -73 48 -118 0 -38 -12
-43 -110 -46 -88 -2 -83 -7 -76 69 12 125 11 122 65 122 39 0 52 -5 73 -27z
m497 -100 c36 -26 79 -57 94 -70 16 -13 61 -42 100 -65 155 -90 218 -180 225
-323 7 -132 -17 -194 -155 -408 -35 -55 -75 -121 -88 -147 -40 -78 -102 -240
-115 -301 -13 -59 -9 -203 9 -294 5 -27 7 -67 4 -87 l-6 -38 -86 0 c-47 0
-136 3 -198 7 -94 5 -112 9 -116 23 -4 15 4 17 60 17 52 -1 68 3 85 20 51 52
-36 147 -91 99 -9 -7 -26 -17 -38 -20 -22 -7 -23 -4 -23 39 0 35 4 47 18 52
95 32 145 81 147 143 0 19 9 47 18 60 38 55 0 120 -71 120 -43 0 -62 -14 -62
-45 0 -18 -36 -52 -45 -43 -5 5 12 278 17 284 3 2 19 -1 37 -7 91 -32 184 66
126 131 -40 45 -132 32 -122 -16 4 -21 -15 -44 -35 -44 -2 0 2 44 9 98 7 53
14 136 16 183 2 82 4 89 38 130 61 75 110 159 142 243 27 72 30 94 31 193 1
62 3 113 5 113 2 0 33 -21 70 -47z m-2233 -109 c148 -92 218 -178 231 -281 14
-119 -61 -215 -247 -317 -142 -79 -220 -130 -255 -166 -16 -16 -32 -30 -37
-30 -4 0 -28 15 -53 34 -107 82 -322 185 -433 207 -34 7 -61 16 -60 19 78 155
147 251 277 381 147 146 269 208 412 209 75 0 77 -1 165 -56z m191 19 c111
-53 181 -143 202 -258 35 -194 -97 -386 -304 -440 -59 -15 -85 -12 -52 7 36
20 194 156 229 198 112 130 104 271 -23 405 -28 30 -73 69 -100 86 -27 17 -49
33 -49 36 0 7 39 -7 97 -34z m1873 -39 c-18 -109 -74 -232 -150 -324 l-28 -35
-83 44 c-172 92 -439 265 -534 347 -37 32 -34 31 87 -40 53 -31 103 -56 111
-56 21 0 35 20 46 69 5 23 11 44 13 47 3 2 19 -3 37 -12 27 -13 53 -15 140
-11 58 3 115 8 126 11 15 5 26 -3 47 -34 16 -23 39 -42 55 -46 24 -6 33 0 82
53 31 33 57 59 59 58 1 -1 -2 -33 -8 -71z m632 -41 c91 -40 167 -132 197 -238
17 -57 61 -390 61 -456 0 -61 -16 -90 -71 -129 -32 -24 -180 -49 -286 -50
l-62 0 69 133 c79 153 114 252 129 357 20 146 -16 266 -111 366 l-53 57 35 -8
c19 -4 61 -18 92 -32z m399 -550 c51 -55 61 -100 35 -152 -15 -27 -56 -61 -75
-61 -5 0 -7 17 -4 38 2 20 -2 76 -10 124 -8 48 -12 90 -9 92 7 8 34 -9 63 -41z
m-3976 -35 c65 -16 134 -44 250 -103 302 -154 357 -204 290 -271 -40 -40 -88
-55 -172 -53 -88 2 -97 -4 -107 -76 -7 -56 -60 -189 -93 -232 l-24 -33 -273 0
c-150 0 -364 -5 -476 -10 -111 -6 -204 -9 -207 -7 -2 3 0 26 4 53 l8 49 75 6
c180 16 407 163 444 289 20 68 20 100 0 129 -20 28 -88 60 -126 61 -16 0 -28
3 -28 7 0 4 48 53 108 110 l107 102 65 0 c35 1 105 -9 155 -21z m4135 -116 c0
-44 -43 -96 -102 -124 -70 -34 -81 -48 -77 -102 2 -24 1 -42 -3 -40 -6 4 -58
93 -58 100 0 2 22 15 49 28 57 29 140 117 148 157 5 24 8 27 24 18 12 -6 19
-21 19 -37z m156 -170 c65 -97 167 -305 212 -432 43 -121 71 -214 65 -222 -6
-11 -45 -10 -61 1 -8 4 -33 62 -57 129 -49 139 -88 199 -159 246 -48 32 -131
66 -160 66 -20 0 -52 40 -80 100 -37 79 -35 94 17 115 54 22 105 61 119 91 11
22 13 23 29 8 10 -9 44 -55 75 -102z m-2526 18 c167 -37 440 -52 533 -31 40
10 52 2 42 -28 -14 -44 -475 -54 -630 -14 -64 17 -70 20 -73 46 -5 41 5 60 26
52 9 -4 55 -15 102 -25z m-2149 -27 c56 -33 51 -90 -13 -160 -97 -105 -347
-178 -406 -119 -20 19 -8 34 13 16 24 -20 95 -16 143 9 51 26 178 143 199 184
8 16 13 43 11 58 -5 34 10 37 53 12z m-141 -31 c0 -30 -147 -162 -180 -162
-17 0 -11 53 10 87 21 36 112 93 148 93 14 0 22 -6 22 -18z m4320 -15 c0 -7
15 -44 34 -83 47 -99 69 -112 214 -129 133 -16 202 -35 251 -72 32 -25 72 -96
86 -154 l7 -27 -134 0 c-73 -1 -212 -8 -308 -16 -416 -37 -461 -40 -476 -31
-8 6 -26 35 -38 65 -13 30 -41 93 -62 140 -30 66 -39 101 -42 156 -6 100 4
109 134 118 54 4 142 15 194 25 119 23 140 24 140 8z m-3260 -241 c0 -77 -18
-198 -30 -210 -8 -8 -111 11 -219 40 -8 3 -10 10 -6 22 6 13 75 204 75 208 0
0 41 1 90 1 l90 0 0 -61z m-136 -267 c39 -10 81 -19 94 -19 25 0 28 -17 8 -45
-13 -18 -16 -18 -96 -1 -45 10 -129 19 -186 20 l-103 1 -40 -39 -40 -39 -188
12 c-225 13 -460 0 -594 -34 -36 -9 -42 13 -17 62 19 37 25 41 67 47 77 10
653 26 703 20 76 -10 197 5 216 27 20 22 61 19 176 -12z m3999 -41 c4 -12 5
-23 3 -25 -1 -1 -43 2 -92 8 -135 17 -550 5 -694 -20 -70 -12 -119 -16 -124
-11 -12 12 -4 14 124 35 155 25 268 32 536 34 241 1 242 1 247 -21z m-4088
-69 c125 -38 205 -140 205 -261 0 -43 -3 -50 -26 -58 -30 -12 -89 -4 -102 14
-5 6 -13 29 -17 51 -20 115 -104 187 -216 189 l-57 1 24 28 c13 16 24 35 24
43 0 21 85 18 165 -7z m3881 -15 l51 -6 -2 -97 c-1 -74 -5 -102 -19 -124 -29
-43 -69 -67 -113 -67 -33 0 -42 4 -51 25 -7 14 -12 40 -12 56 0 17 -5 39 -11
51 -14 25 -80 54 -144 63 -87 11 -154 34 -166 56 -6 11 -9 23 -6 25 15 16 379
29 473 18z m-1647 -31 c24 -16 24 -17 17 -142 -8 -141 -18 -207 -35 -224 -7
-7 -42 -12 -84 -12 l-72 0 -3 145 c-4 182 2 228 31 240 38 15 121 11 146 -7z
m1907 -23 c1 -20 10 -56 22 -82 11 -26 26 -89 32 -141 l12 -95 -31 -65 c-30
-62 -96 -140 -147 -174 -27 -18 -103 -19 -134 -3 -32 17 -22 72 25 149 27 44
39 76 43 114 3 34 13 61 28 79 33 41 48 120 37 196 l-10 63 61 -3 61 -3 1 -35z
m-4514 -16 l88 -7 -78 -48 c-91 -58 -118 -81 -166 -144 -45 -58 -47 -97 -8
-151 16 -21 36 -45 45 -53 9 -7 17 -24 17 -36 0 -18 -10 -27 -45 -40 -24 -10
-50 -15 -58 -12 -21 8 -201 244 -211 276 -6 21 -4 38 8 62 9 18 14 35 11 37
-13 14 -62 -16 -78 -48 -34 -66 -3 -179 78 -285 l38 -49 -38 -33 c-21 -18 -44
-33 -51 -33 -16 0 -113 127 -145 190 -29 58 -29 139 -1 243 26 92 26 97 7 97
-8 0 -26 -20 -41 -45 -14 -25 -28 -44 -31 -42 -2 3 1 25 7 50 l12 45 61 12
c148 27 329 32 579 14z m1788 4 c201 -2 405 -1 454 1 l88 4 2 -130 1 -130
-290 -8 c-159 -5 -339 -9 -400 -9 -143 -1 -481 15 -494 23 -12 8 -72 242 -64
254 3 5 77 6 172 3 91 -3 330 -7 531 -8z m1314 -14 l288 -7 -6 -46 c-3 -25 -9
-79 -12 -119 -6 -65 -9 -73 -30 -78 -13 -4 -111 -1 -218 5 -106 6 -232 11
-278 11 l-85 0 -6 78 c-3 42 -13 97 -22 121 -8 24 -15 46 -15 49 0 2 21 2 48
-1 26 -4 177 -9 336 -13z m801 -59 c67 -11 85 -28 85 -83 0 -94 50 -126 193
-127 75 0 97 -3 97 -13 0 -30 -36 -86 -91 -143 -40 -42 -59 -69 -59 -86 0 -23
-3 -25 -32 -19 -37 7 -76 33 -92 60 -9 15 -3 25 41 64 29 26 56 58 61 72 10
26 6 50 -8 50 -13 0 -143 -90 -177 -123 -32 -30 -33 -30 -53 -12 -11 10 -20
23 -20 30 0 6 25 36 55 67 44 44 55 62 55 87 0 45 -23 85 -83 142 -34 33 -45
49 -32 46 11 -3 38 -8 60 -12z m-1870 -271 l300 -7 26 -28 c34 -36 94 -51 185
-47 41 2 74 0 74 -4 0 -13 -65 -57 -120 -82 -72 -33 -149 -52 -242 -61 l-76
-7 -20 38 c-26 50 -90 124 -107 124 -24 0 -24 -13 3 -90 20 -59 26 -95 26
-170 1 -106 -15 -167 -67 -260 -25 -45 -32 -71 -37 -145 -6 -72 -14 -103 -38
-150 -56 -112 -53 -110 -184 -108 -62 2 -171 7 -243 13 -71 5 -238 17 -370 25
-132 9 -248 18 -257 21 -27 8 -21 28 12 43 39 17 64 53 55 81 -4 11 -23 28
-43 38 -19 9 -38 23 -40 30 -2 8 34 49 81 94 111 103 123 135 108 273 -12 116
0 172 62 290 l43 80 154 7 c85 4 171 9 190 12 19 2 78 2 130 0 52 -2 230 -7
395 -10z m1315 11 c0 -2 14 -89 31 -192 31 -184 31 -191 19 -313 -12 -115 -9
-251 6 -371 5 -38 3 -47 -11 -53 -16 -6 -104 -20 -281 -46 -143 -22 -475 -50
-579 -50 l-113 0 -8 108 c-4 59 -8 179 -9 267 -1 88 -5 201 -9 250 l-8 90 58
25 c65 27 185 133 206 181 7 16 18 29 25 29 6 0 24 15 39 33 26 32 28 32 133
38 140 7 501 10 501 4z m-2045 -1046 c239 -12 465 -35 539 -54 31 -8 60 -15
63 -15 4 0 -17 -22 -47 -48 -39 -35 -63 -69 -94 -132 l-41 -85 -80 -3 c-106
-4 -359 22 -575 58 -225 38 -320 57 -327 63 -11 12 30 114 70 174 l42 63 130
-6 c71 -2 216 -9 320 -15z m2154 -10 c47 -16 45 -33 -13 -163 l-43 -96 -546
-2 c-354 -2 -549 1 -556 7 -14 14 -30 124 -24 158 10 51 31 54 409 72 381 17
674 31 715 34 14 0 40 -4 58 -10z m-2493 -329 c260 -32 510 -56 699 -68 104
-6 120 -9 123 -25 2 -10 -4 -30 -13 -44 l-17 -26 -212 6 c-211 6 -450 30 -667
67 -64 11 -119 20 -122 20 -5 0 -47 86 -47 96 0 6 4 6 256 -26z m1984 -8 c471
1 476 0 467 -59 -4 -20 -12 -40 -19 -44 -6 -4 -46 -11 -88 -16 -95 -10 -926
-7 -1000 4 l-55 8 -3 65 -3 66 143 -13 c90 -8 297 -12 558 -11z m-2424 -17
c22 -54 18 -151 -10 -210 -13 -27 -32 -58 -44 -68 -20 -18 -20 -18 -27 13 -7
34 0 119 16 185 10 42 39 115 46 115 2 0 11 -16 19 -35z m449 -130 c94 -9 282
-27 418 -39 136 -13 249 -25 251 -27 3 -2 -2 -26 -9 -54 -10 -39 -17 -50 -31
-48 -11 1 -93 11 -182 22 -118 15 -614 61 -659 61 -2 0 -3 25 -3 56 0 53 1 56
23 51 12 -3 99 -13 192 -22z m2283 -41 c85 -7 92 -8 92 -28 0 -21 -7 -23 -157
-35 -87 -7 -287 -15 -445 -18 l-288 -6 0 53 0 53 353 -6 c193 -4 394 -10 445
-13z m-2253 -139 c99 -8 257 -19 350 -25 195 -12 395 -37 410 -51 6 -6 1 -17
-13 -31 -21 -22 -23 -22 -174 -10 -744 59 -868 71 -882 83 -6 5 0 19 14 34 21
22 30 24 69 20 25 -3 127 -12 226 -20z m2399 -28 c4 -26 6 -50 3 -54 -23 -22
-901 -30 -1029 -9 -43 7 -79 14 -82 17 -2 2 -6 21 -10 43 l-7 38 113 -7 c163
-12 565 -7 763 9 94 7 186 13 205 12 34 -1 35 -3 44 -49z m-596 -161 c-95 -39
-183 -96 -147 -96 6 0 50 13 98 29 79 27 358 77 384 68 6 -2 -9 -13 -33 -26
-57 -29 -155 -107 -175 -137 -27 -42 8 -41 67 2 72 51 219 120 314 146 67 19
105 22 249 22 158 0 175 -2 250 -27 147 -50 146 -53 -21 -61 -253 -11 -322
-29 -348 -90 -10 -24 -24 -37 -48 -44 -20 -7 -170 -12 -383 -13 -347 -3 -351
-2 -455 23 -58 15 -145 29 -195 33 -49 3 -93 9 -97 13 -9 9 30 90 66 136 l27
36 167 3 c92 1 205 3 252 5 l85 2 -57 -24z m-1633 -20 c96 -22 186 -59 255
-106 70 -48 125 -110 107 -122 -29 -19 -60 -6 -116 46 -31 30 -70 60 -86 67
-28 11 -344 27 -621 32 -114 2 -122 1 -157 -23 -20 -14 -42 -38 -48 -55 -26
-66 -80 -95 -109 -60 -10 13 -10 23 5 54 34 76 122 136 241 165 33 8 68 17 79
20 44 11 381 -2 450 -18z m339 -2 c124 -8 119 -4 135 -114 10 -77 7 -98 -11
-66 -35 62 -155 155 -223 172 -14 3 -28 11 -32 17 -4 6 0 8 9 4 9 -3 64 -9
122 -13z m2496 -189 c0 -69 -11 -85 -70 -103 -101 -30 -192 -37 -505 -36 -345
0 -591 15 -689 40 -88 22 -93 35 -10 26 90 -9 651 -9 685 0 36 10 79 56 79 84
0 53 12 55 271 53 l239 -1 0 -63z m-2686 31 c18 -7 50 -35 71 -60 50 -61 84
-79 148 -74 29 2 52 -1 54 -8 3 -9 -83 -26 -252 -49 -16 -3 -156 -10 -310 -16
-360 -13 -615 4 -623 43 -2 12 9 17 47 22 61 8 106 43 132 103 26 61 31 62
422 57 207 -3 286 -8 311 -18z m1208 -62 c49 -14 58 -20 58 -40 0 -12 -3 -25
-7 -27 -5 -2 -75 4 -158 14 -82 10 -156 18 -162 19 -7 0 -13 9 -13 19 0 15 8
21 38 24 93 9 189 6 244 -9z"/>
<path d="M3126 8300 c-207 -81 -141 -305 94 -318 153 -9 285 97 251 201 -37
111 -210 170 -345 117z m194 -55 c72 -37 90 -104 40 -154 -52 -51 -127 -63
-196 -32 -132 60 -78 199 79 201 26 0 61 -7 77 -15z"/>
<path d="M3887 8293 c-26 -9 -65 -33 -86 -54 -66 -63 -66 -134 -1 -199 82 -82
250 -95 351 -27 57 38 82 84 76 142 -4 43 -10 54 -46 86 -75 66 -190 87 -294
52z m168 -54 c78 -20 111 -79 76 -136 -54 -87 -207 -97 -269 -18 -56 71 13
157 131 164 10 1 38 -4 62 -10z"/>
<path d="M3401 7784 c-40 -50 -39 -117 2 -161 23 -26 73 -31 101 -10 33 24 33
148 0 182 -25 25 -79 19 -103 -11z"/>
<path d="M3757 7760 c-49 -9 -97 -33 -97 -49 0 -5 9 -11 20 -14 12 -3 20 -14
20 -27 0 -12 13 -35 30 -51 57 -57 125 -22 137 69 l6 42 53 0 c55 0 72 13 32
23 -47 12 -155 15 -201 7z"/>
<path d="M3848 7229 c-172 -88 -314 -98 -486 -33 -100 38 -102 38 -102 21 0
-30 59 -84 122 -113 58 -27 72 -29 183 -29 136 0 217 21 302 78 47 32 93 88
93 113 0 19 -3 18 -112 -37z"/>
<path d="M4142 4848 c-8 -8 -12 -51 -12 -129 0 -91 -3 -119 -15 -129 -20 -17
-19 -26 5 -50 39 -39 112 -18 131 37 7 21 10 77 7 138 -3 84 -7 107 -22 124
-21 23 -75 28 -94 9z"/>
</g>
</svg>
