<?xml version="1.0" standalone="no"?>
<!DOCTYPE svg PUBLIC "-//W3C//DTD SVG 20010904//EN"
 "http://www.w3.org/TR/2001/REC-SVG-20010904/DTD/svg10.dtd">
<svg version="1.0" xmlns="http://www.w3.org/2000/svg"
 width="720.000000pt" height="1117.000000pt" viewBox="0 0 720.000000 1117.000000"
 preserveAspectRatio="xMidYMid meet">

<g transform="translate(0.000000,1117.000000) scale(0.100000,-0.100000)"
fill="#000000" stroke="none">
<path d="M3873 9040 c-110 -20 -231 -82 -296 -154 -71 -77 -94 -162 -127 -461
-33 -303 -27 -277 -60 -270 -37 8 -65 -7 -113 -61 -34 -38 -89 -73 -142 -88
-19 -6 -22 1 -33 76 -20 138 -99 278 -229 404 -180 173 -533 257 -898 213
-151 -18 -226 -53 -262 -123 -36 -70 3 -123 190 -258 158 -114 274 -226 347
-336 53 -79 166 -301 176 -343 5 -23 2 -27 -25 -32 -100 -20 -351 -272 -351
-352 0 -25 25 -68 96 -164 71 -98 76 -120 50 -216 -20 -78 -43 -115 -117 -187
-51 -50 -70 -76 -75 -103 -6 -32 -9 -36 -28 -30 -55 18 -230 16 -426 -5 -382
-40 -854 -121 -906 -155 -13 -8 -31 -27 -40 -40 -34 -52 -6 -188 104 -505 22
-63 63 -199 92 -301 28 -102 55 -191 60 -199 5 -8 30 -16 56 -19 l47 -6 27
-75 c14 -41 29 -80 33 -87 7 -11 290 -245 355 -293 27 -20 43 -23 119 -24 l88
0 1 -72 c0 -65 4 -78 36 -131 48 -78 53 -99 38 -192 -15 -96 -5 -135 46 -183
l34 -32 0 -96 c0 -52 5 -160 10 -240 5 -80 10 -395 11 -701 1 -306 5 -576 9
-599 8 -45 19 -57 60 -65 41 -9 254 -68 585 -163 416 -120 409 -118 440 -104
21 10 27 9 32 -3 8 -23 40 -37 102 -45 31 -4 128 -22 216 -39 88 -18 333 -66
545 -107 212 -41 393 -79 402 -85 27 -14 60 -11 90 9 209 137 429 319 466 387
14 27 17 113 24 770 4 407 4 795 1 863 -5 106 -4 122 10 122 8 0 66 -20 129
-44 214 -82 452 -156 505 -156 21 0 103 42 273 140 36 20 101 56 145 80 172
92 211 114 229 129 28 24 51 77 75 173 23 95 71 224 102 274 16 26 27 32 86
43 209 37 303 107 353 260 39 124 18 227 -102 501 -33 74 -69 143 -81 152 -12
10 -38 21 -57 24 -32 5 -39 13 -70 72 -78 151 -323 536 -379 595 -54 58 -26
63 -735 -144 -216 -63 -301 -73 -546 -66 -334 10 -470 51 -470 143 0 9 21 45
47 81 54 76 67 138 39 191 -22 42 -20 48 12 60 46 16 62 39 62 88 0 59 17 123
40 154 18 24 24 25 112 25 104 0 148 17 148 57 0 11 -36 70 -80 130 -44 59
-76 108 -72 108 4 0 70 -22 146 -50 76 -27 142 -50 146 -50 5 0 16 7 24 16 14
14 14 18 0 47 -9 18 -34 55 -55 84 l-39 52 41 23 c22 12 49 36 59 54 22 35 26
103 9 137 -23 43 -114 149 -141 163 -38 20 -87 17 -133 -6 -22 -11 -41 -20
-42 -20 -2 0 -3 27 -3 60 0 116 -59 241 -153 326 -50 45 -51 46 -38 77 50 121
64 192 65 327 1 156 -12 218 -74 348 -91 191 -250 277 -447 242z m150 -67
c170 -47 299 -301 284 -563 -10 -190 -109 -397 -273 -576 l-29 -31 -131 5
-132 4 47 62 c46 60 89 165 76 186 -10 16 -42 12 -92 -14 -58 -30 -243 -116
-249 -116 -2 0 -2 10 1 23 6 28 33 365 45 568 16 262 63 363 200 434 76 39
158 45 253 18z m-1484 -367 c193 -63 320 -193 386 -394 28 -87 65 -313 51
-317 -6 -2 -38 -6 -71 -8 -107 -9 -228 -64 -332 -153 l-41 -35 -38 68 c-61
107 -244 320 -517 600 -160 163 -167 177 -116 215 47 35 156 47 399 44 181 -2
236 -6 279 -20z m1808 -634 c52 -71 66 -113 60 -187 -3 -39 -12 -88 -21 -108
l-15 -37 -75 46 c-64 38 -132 70 -209 97 -14 5 -4 20 57 77 40 39 89 92 107
119 31 45 35 47 54 35 12 -8 30 -26 42 -42z m-974 1 c8 -21 17 -52 21 -68 6
-29 4 -32 -50 -58 l-57 -28 -51 19 c-28 11 -59 23 -69 26 -15 5 -3 18 60 62
43 31 85 62 93 70 23 23 37 17 53 -23z m396 -15 c-24 -48 -84 -111 -135 -145
-30 -20 -54 -41 -54 -48 0 -31 25 -35 136 -24 155 16 324 8 398 -19 61 -22
226 -120 226 -135 0 -4 -12 -4 -27 0 -16 3 -93 7 -173 7 -155 0 -248 -14 -382
-60 -63 -21 -78 -23 -132 -14 -63 10 -263 14 -254 5 3 -3 43 -12 89 -19 162
-26 291 -66 214 -66 -17 0 -93 7 -170 15 -77 8 -149 15 -160 15 -77 -1 181
-59 355 -80 52 -6 129 -10 170 -8 70 3 75 4 74 26 0 12 2 22 6 22 17 0 206
-103 276 -150 91 -62 295 -263 272 -268 -32 -6 -333 113 -573 228 -116 55
-251 101 -294 100 -10 -1 5 -20 38 -50 62 -57 199 -117 452 -199 l156 -51 -29
-57 c-17 -35 -31 -83 -35 -121 -5 -49 -9 -62 -20 -58 -8 4 -19 6 -25 6 -6 0
-7 11 -4 26 4 15 7 58 7 96 0 79 -12 97 -69 98 -40 0 -67 -13 -109 -52 l-32
-31 -43 35 c-24 20 -62 48 -85 63 -44 29 -47 44 -10 47 12 1 -286 5 -663 9
-415 4 -707 12 -740 18 -102 20 -167 24 -174 12 -10 -16 12 -41 52 -58 37 -15
37 -15 16 -55 -20 -39 -26 -33 -93 96 -69 132 -68 142 17 253 76 97 227 240
237 223 17 -27 59 -8 129 58 200 189 366 227 621 140 50 -17 113 -41 140 -53
l50 -23 -67 -1 c-95 -1 -214 -19 -273 -42 -35 -13 -75 -19 -137 -19 -110 0
-222 -15 -295 -41 -58 -20 -198 -97 -190 -105 2 -2 30 5 62 16 31 11 116 32
189 47 116 24 153 27 328 27 186 0 233 7 151 22 -24 4 -31 9 -22 14 19 10 161
28 287 36 56 3 102 10 102 15 0 5 -51 34 -112 65 l-112 56 69 18 c135 35 330
114 355 145 19 23 32 18 19 -7z m924 -347 c83 -91 96 -183 32 -225 -35 -23
-52 -20 -104 18 -64 47 -141 85 -241 118 l-85 28 60 -6 c112 -13 130 -11 128
11 -1 15 15 29 65 57 37 20 77 37 88 38 13 0 36 -16 57 -39z m-598 -81 c133
-15 238 -45 352 -101 82 -39 118 -64 180 -124 42 -41 75 -77 71 -80 -3 -3 -45
8 -94 24 -49 16 -129 37 -179 46 -53 9 -119 30 -160 49 -85 41 -203 79 -327
105 -151 32 -241 60 -197 61 8 1 52 7 99 14 107 18 143 18 255 6z m-364 -490
c19 -17 72 -56 119 -89 l85 -58 -3 -55 c-4 -62 13 -106 73 -184 65 -85 42
-148 -87 -235 -64 -44 -78 -63 -78 -108 0 -23 -7 -34 -28 -45 -53 -27 -230
-85 -348 -112 -111 -26 -133 -28 -339 -28 -240 0 -347 13 -493 59 -95 30 -164
74 -205 132 l-30 43 -16 268 -15 268 22 45 c12 25 22 60 22 78 0 32 0 32 43
27 23 -3 104 -8 180 -12 l137 -6 0 -47 c0 -70 47 -124 89 -101 26 13 55 92 47
125 l-7 26 102 -3 101 -3 2 -46 c2 -60 28 -99 64 -99 49 0 72 33 72 103 l0 45
93 6 c160 11 342 28 346 32 9 8 19 3 52 -26z m386 -82 c-2 -7 -17 -50 -32 -94
-37 -109 -32 -135 46 -220 81 -90 79 -116 -16 -223 -45 -50 -124 -111 -145
-111 -10 0 -22 10 -25 21 -6 17 5 34 53 83 66 67 92 111 92 153 0 15 -18 64
-40 107 -30 60 -40 91 -40 128 0 55 20 112 52 145 23 24 64 32 55 11z m-1862
-301 c-9 -19 -35 -56 -59 -83 -42 -46 -44 -47 -55 -27 -19 36 -14 46 56 109
70 64 88 64 58 1z m44 -209 c1 -33 -2 -49 -8 -43 -10 11 -14 35 -12 78 2 48
18 20 20 -35z m-369 16 c30 -12 53 -34 91 -86 28 -38 49 -71 47 -73 -2 -1
-102 -15 -223 -30 -399 -48 -892 -130 -1003 -166 -35 -12 -65 -19 -66 -18 -2
2 -11 29 -21 59 -10 30 -28 77 -41 104 -13 28 -24 53 -24 58 0 32 536 125 930
162 113 10 272 5 310 -10z m3998 -265 c46 -68 140 -218 209 -334 69 -115 140
-230 157 -255 55 -77 89 -141 80 -150 -5 -4 -34 -21 -64 -38 -262 -140 -267
-142 -278 -130 -21 27 -209 361 -299 533 -52 99 -128 231 -169 293 -40 61 -73
112 -71 113 41 15 335 96 342 95 5 -2 47 -58 93 -127z m-3644 41 c52 -8 126
-44 126 -61 0 -4 -28 -10 -62 -13 -279 -31 -837 -115 -1133 -172 -128 -24
-185 -39 -198 -53 -21 -21 -36 31 152 -524 50 -147 91 -275 91 -283 0 -10 -17
-2 -53 27 -54 41 -54 42 -152 278 -54 130 -127 301 -162 380 -35 80 -63 154
-61 165 4 29 60 54 170 77 329 67 779 142 1033 173 151 17 176 18 249 6z
m1582 -65 c38 -8 202 -28 364 -45 453 -47 431 -35 187 -103 l-209 -58 -91 10
c-51 5 -137 13 -192 16 -141 8 -653 55 -694 64 -27 5 -5 10 105 25 162 22 318
56 389 84 61 25 57 25 141 7z m1552 -73 c49 -82 86 -139 225 -339 95 -136 295
-509 281 -522 -5 -5 -70 -20 -144 -35 -74 -15 -319 -65 -545 -111 l-410 -84
-33 37 c-46 51 -200 284 -318 482 -54 91 -122 205 -151 254 -39 65 -50 92 -41
97 7 3 85 27 173 53 88 26 255 76 370 111 248 75 492 143 520 144 16 1 33 -21
73 -87z m-2843 -89 c10 -43 41 -157 70 -253 70 -231 165 -564 165 -577 0 -25
-791 -178 -1117 -216 l-43 -5 -49 92 c-61 111 -106 226 -160 406 -63 209 -120
434 -112 442 18 20 1052 181 1197 187 30 1 31 0 49 -76z m324 7 c84 -11 159
-20 166 -20 9 0 15 -31 19 -107 9 -144 25 -338 32 -390 5 -41 4 -43 -20 -43
-29 0 -58 -26 -54 -48 5 -26 67 -62 107 -62 20 0 51 9 69 20 41 25 44 69 7 98
-22 18 -25 28 -25 83 0 35 -5 146 -11 247 -7 100 -10 184 -8 186 2 2 38 0 79
-5 199 -22 758 -69 818 -69 12 0 22 -6 22 -14 0 -7 7 -20 16 -27 15 -13 16
-61 10 -574 -9 -680 -13 -746 -43 -775 -30 -27 -29 -38 5 -73 l27 -29 -35 6
c-19 3 -105 8 -190 11 -584 22 -1074 75 -1805 196 -296 49 -281 44 -299 90 -9
22 -16 65 -16 97 l0 58 368 67 c406 75 730 142 780 163 21 9 32 20 32 34 0 11
-59 210 -130 443 -164 528 -150 470 -109 463 19 -4 103 -15 188 -26z m-1619
-146 c0 -45 116 -475 170 -629 24 -67 70 -252 69 -275 -1 -31 -99 182 -164
355 -96 256 -195 534 -195 544 0 10 32 17 88 20 23 1 32 -3 32 -15z m5165
-303 c38 -75 103 -243 125 -324 56 -202 -1 -297 -222 -373 -38 -12 -68 -20
-68 -16 0 24 41 56 108 87 42 20 85 43 95 53 27 23 57 90 57 128 0 39 -36 176
-61 234 -16 37 -18 49 -8 67 12 23 13 21 -45 156 -23 54 -11 46 19 -12z
m-2169 7 c21 -43 103 -181 171 -288 29 -47 53 -89 53 -93 0 -4 -15 -28 -34
-54 -38 -54 -154 -245 -206 -340 -19 -35 -38 -63 -41 -63 -4 0 -5 17 -3 38 7
61 24 570 24 706 0 75 4 126 10 126 5 0 17 -15 26 -32z m-1116 -158 c0 -5 -2
-10 -4 -10 -3 0 -8 5 -11 10 -3 6 -1 10 4 10 6 0 11 -4 11 -10z m2977 -264
c38 -13 82 -30 97 -38 l27 -14 -103 -70 c-57 -39 -139 -93 -183 -121 l-80 -50
-227 86 c-125 47 -225 87 -223 89 2 2 109 26 237 52 316 66 369 78 376 84 7 8
-2 10 79 -18z m-1523 -141 c21 -35 52 -76 69 -91 26 -22 38 -25 86 -22 31 2
151 26 268 52 l211 48 134 -50 c359 -137 443 -172 440 -183 -2 -7 -16 -29 -31
-48 -16 -20 -119 -171 -231 -336 -111 -165 -210 -308 -219 -318 -17 -18 -27
-15 -259 72 -133 49 -315 121 -405 160 -148 63 -416 186 -425 195 -5 6 66 144
166 322 49 88 101 183 116 212 14 28 30 52 34 52 4 0 25 -29 46 -65z m1538
-172 c-26 -54 -75 -150 -110 -213 -34 -63 -81 -152 -103 -197 l-41 -82 -145
-76 c-80 -42 -147 -74 -149 -72 -3 2 64 109 147 238 83 128 163 257 178 287
23 48 39 63 141 133 63 43 118 79 122 79 4 0 -14 -44 -40 -97z m-3986 -328
c249 -35 752 -93 1219 -140 138 -14 284 -29 325 -34 41 -5 154 -15 251 -22
l176 -13 6 -115 c3 -72 1 -121 -5 -128 -22 -28 -317 -12 -648 33 -102 14 -304
41 -450 59 -313 40 -790 105 -1018 139 -198 29 -207 34 -198 116 6 60 15 117
22 139 3 9 14 11 38 7 19 -4 146 -22 282 -41z m2384 -296 c0 -6 -212 -89 -228
-89 -8 0 -12 19 -12 53 0 28 -3 75 -6 104 l-7 52 127 -57 c69 -31 126 -59 126
-63z m-2375 -63 c149 -19 339 -42 423 -52 l152 -17 1 -331 c1 -379 -1 -618 -7
-627 -2 -4 -21 -3 -41 2 -21 5 -91 20 -155 34 -64 14 -201 50 -305 79 -103 30
-221 59 -261 67 -40 7 -75 16 -78 21 -12 18 -33 339 -40 597 l-7 274 24 -7
c13 -3 146 -22 294 -40z m2432 -178 c-4 -79 -7 -306 -7 -505 l0 -362 -30 -16
c-17 -9 -70 -30 -118 -46 -48 -17 -104 -40 -125 -51 -22 -11 -41 -18 -43 -15
-2 2 -7 226 -11 498 l-6 495 114 51 c63 28 134 60 159 71 76 34 74 40 67 -120z
m-1277 52 c387 -31 451 -38 633 -62 l167 -23 0 -511 c0 -281 -2 -513 -5 -515
-2 -3 -43 3 -91 12 -47 10 -179 29 -293 44 -113 14 -273 36 -356 50 -82 13
-197 29 -254 35 -58 5 -107 13 -110 16 -6 6 -8 137 -13 702 l-3 284 35 -6 c19
-3 150 -14 290 -26z m-451 -799 c1 -123 -1 -222 -3 -220 -2 2 -6 126 -8 274
-3 149 -2 248 2 220 5 -27 9 -151 9 -274z m-758 -31 c47 -11 139 -36 205 -56
223 -68 314 -93 369 -99 l55 -7 -6 -212 c-4 -116 -8 -213 -10 -215 -1 -2 -69
13 -151 33 -81 19 -220 51 -309 71 -166 36 -323 80 -335 93 -6 6 -29 322 -29
400 0 24 1 24 63 18 34 -4 101 -16 148 -26z m2465 -292 c-3 -51 -9 -146 -13
-211 l-6 -117 -46 -28 c-25 -16 -86 -59 -135 -96 -49 -37 -90 -65 -91 -64 -1
2 -5 108 -8 235 l-5 233 46 30 c25 16 81 43 126 60 45 17 90 35 101 40 36 16
38 12 31 -82z m-1361 57 c191 -12 370 -37 609 -85 133 -27 252 -50 266 -52
l25 -3 -4 -235 c-1 -129 -5 -237 -7 -239 -2 -3 -48 3 -102 12 -53 9 -234 40
-402 67 -168 28 -361 63 -430 79 l-125 28 -7 74 c-14 141 -26 354 -21 362 3 5
26 6 52 3 25 -3 91 -8 146 -11z m-1140 -285 c44 -10 193 -46 330 -81 138 -34
267 -66 288 -71 l37 -9 0 -64 c0 -38 -4 -65 -10 -65 -6 0 -63 15 -128 34 -64
19 -236 69 -381 111 -145 42 -268 78 -273 81 -4 3 -8 25 -8 49 l0 45 33 -6
c17 -4 68 -14 112 -24z m2485 -224 c0 -42 -3 -47 -67 -103 -38 -33 -98 -83
-135 -112 l-68 -53 0 49 0 48 102 85 c56 47 113 95 127 107 36 31 41 29 41
-21z m-1295 -46 c77 -11 268 -44 425 -74 157 -30 308 -57 335 -61 89 -12 85
-8 85 -87 l0 -71 -47 7 c-41 5 -914 176 -980 191 -17 4 -23 15 -29 50 -9 62
-2 75 38 69 18 -2 96 -13 173 -24z"/>
<path d="M3295 6603 c-131 -47 -205 -57 -397 -56 -104 0 -188 -3 -188 -8 0 -5
11 -16 25 -25 14 -9 25 -23 25 -31 0 -17 60 -112 87 -135 48 -43 195 -63 283
-38 57 16 127 65 157 111 22 34 28 54 28 101 0 45 5 61 19 71 28 21 6 26 -39
10z m-5 -86 c0 -41 -180 -87 -340 -87 -109 0 -130 6 -130 35 0 22 3 23 143 27
123 4 153 9 227 34 86 29 100 28 100 -9z m-117 -148 c-23 -11 -63 -21 -90 -24
-47 -5 -47 -4 -13 6 19 6 53 17 75 24 59 20 76 16 28 -6z"/>
<path d="M1988 4029 c-26 -15 -22 -56 7 -75 32 -21 425 -86 484 -80 28 2 50
11 58 22 35 47 -12 68 -242 109 -205 36 -277 42 -307 24z"/>
<path d="M3300 3843 c-49 -18 -63 -58 -31 -87 21 -19 74 -28 301 -51 226 -22
335 -22 360 0 25 23 26 61 2 74 -10 5 -86 15 -168 21 -129 9 -345 32 -424 45
-14 2 -32 1 -40 -2z"/>
<path d="M3940 1990 c-12 -8 -10 -10 8 -10 13 0 20 4 17 10 -7 12 -6 12 -25 0z"/>
<path d="M5305 1990 c-4 -6 7 -10 24 -10 17 0 31 5 31 10 0 6 -11 10 -24 10
-14 0 -28 -4 -31 -10z"/>
<path d="M5845 1990 c-3 -5 3 -10 15 -10 12 0 18 5 15 10 -3 6 -10 10 -15 10
-5 0 -12 -4 -15 -10z"/>
<path d="M6025 1990 c-3 -5 3 -10 15 -10 12 0 18 5 15 10 -3 6 -10 10 -15 10
-5 0 -12 -4 -15 -10z"/>
<path d="M4893 1983 c9 -2 25 -2 35 0 9 3 1 5 -18 5 -19 0 -27 -2 -17 -5z"/>
</g>
</svg>
