<?xml version="1.0" standalone="no"?>
<!DOCTYPE svg PUBLIC "-//W3C//DTD SVG 20010904//EN"
 "http://www.w3.org/TR/2001/REC-SVG-20010904/DTD/svg10.dtd">
<svg version="1.0" xmlns="http://www.w3.org/2000/svg"
 width="720.000000pt" height="1117.000000pt" viewBox="0 0 720.000000 1117.000000"
 preserveAspectRatio="xMidYMid meet">
<metadata>
Created by potrace 1.16, written by Peter Selinger 2001-2019
</metadata>
<g transform="translate(0.000000,1117.000000) scale(0.100000,-0.100000)"
fill="#000000" stroke="none">
<path d="M3120 8877 c0 -7 14 -35 31 -61 16 -27 28 -50 26 -52 -2 -2 -27 -8
-56 -14 -63 -12 -138 -44 -167 -71 l-21 -20 -89 25 c-109 31 -225 52 -324 61
-41 3 -95 8 -120 10 -25 2 -51 1 -59 -4 -20 -13 -7 -68 29 -125 17 -25 30 -50
30 -54 0 -4 -15 -14 -33 -22 -51 -24 -62 -58 -41 -133 32 -118 36 -105 -66
-192 -120 -102 -135 -142 -66 -184 54 -33 137 -43 325 -40 204 5 201 7 157
-91 -29 -65 -28 -87 8 -155 19 -36 21 -52 17 -170 -6 -181 -7 -440 -1 -499 l5
-50 -65 -12 c-63 -12 -405 -39 -465 -36 -663 30 -1235 22 -1386 -18 -102 -28
-133 -99 -119 -273 5 -62 14 -265 20 -452 5 -187 13 -359 16 -383 5 -37 1 -48
-26 -82 l-31 -39 119 -198 c101 -167 313 -575 441 -852 40 -84 80 -118 158
-132 79 -15 143 0 584 142 200 64 259 78 259 63 0 -3 -4 -13 -9 -22 -5 -9 -14
-84 -20 -167 -42 -542 -84 -923 -161 -1440 -33 -221 -50 -381 -50 -464 0 -59
-4 -82 -16 -92 -21 -18 -44 -64 -44 -90 0 -13 18 -39 43 -64 64 -61 116 -72
402 -85 282 -12 367 -20 700 -62 277 -34 332 -33 423 14 100 51 139 152 79
204 -24 21 -26 25 -11 31 9 3 258 -20 553 -53 295 -32 573 -59 618 -59 90 0
122 15 155 71 25 43 51 216 44 291 -6 58 -3 72 55 230 129 355 116 291 128
623 39 1013 39 997 -33 1052 -22 18 -43 34 -46 36 -3 2 2 8 11 13 9 4 22 22
29 39 9 21 18 29 28 25 30 -11 448 -114 547 -134 209 -42 406 -37 511 14 94
46 90 37 179 420 21 88 64 266 96 395 106 429 103 409 101 645 -3 701 -6 771
-27 795 -36 41 -95 59 -251 75 -419 45 -1065 22 -1161 -41 -24 -15 -26 -15
-52 10 -34 32 -67 42 -168 51 -95 7 -218 32 -255 51 -42 22 -51 48 -44 128 4
39 15 157 24 263 l18 192 47 44 c40 37 47 49 47 83 0 21 4 44 8 50 4 6 48 14
97 17 50 3 113 13 140 21 104 32 194 113 178 161 -16 51 -93 113 -176 141
l-48 16 43 47 c80 85 118 175 118 276 0 136 -60 167 -212 110 -105 -40 -137
-58 -191 -105 l-47 -42 -20 24 c-11 12 -19 26 -20 30 0 12 -96 77 -157 107
-112 56 -369 124 -570 151 -45 6 -144 12 -220 14 -123 3 -144 6 -193 28 -105
49 -310 78 -310 45z m275 -91 c50 -25 112 -63 137 -86 52 -45 113 -118 106
-126 -3 -2 -25 12 -49 32 -44 37 -123 91 -191 133 -62 37 -43 6 26 -43 61 -43
176 -160 176 -178 0 -12 -73 27 -170 91 -91 60 -250 209 -250 234 0 24 108 -5
215 -57z m600 -71 c232 -33 394 -90 479 -169 51 -48 42 -54 -13 -11 -55 44
-144 88 -168 83 -12 -2 -18 -12 -18 -31 1 -15 -1 -27 -3 -27 -2 0 -23 16 -46
35 -49 40 -135 80 -218 101 -53 14 -62 14 -82 0 -18 -11 -32 -12 -65 -5 -53
12 -122 -5 -164 -40 -23 -19 -32 -22 -35 -12 -3 8 -20 31 -38 51 -19 21 -34
41 -34 45 0 12 281 -2 405 -20z m-725 -51 c55 -57 165 -141 243 -184 122 -68
40 -50 -131 28 -162 76 -192 84 -117 33 81 -55 111 -79 105 -84 -20 -18 -367
96 -403 132 -19 19 36 30 104 21 35 -4 66 -6 67 -4 6 4 -71 24 -96 24 -48 0 4
33 103 66 64 21 77 17 125 -32z m-680 22 c116 -18 230 -41 297 -61 40 -12 49
-19 49 -37 -1 -20 40 -58 77 -71 7 -2 9 -7 6 -11 -18 -20 -302 57 -361 98 -12
9 -29 16 -36 16 -12 0 -12 -3 -1 -17 15 -18 129 -92 169 -110 77 -33 78 -34
35 -27 -112 17 -239 81 -329 166 l-71 67 35 1 c19 0 78 -7 130 -14z m1315 -44
c6 -4 16 -29 23 -57 7 -27 27 -79 44 -114 l31 -64 -23 -19 c-38 -31 -95 -43
-139 -30 -81 25 -121 81 -121 169 0 53 18 82 65 106 31 17 103 22 120 9z m213
-53 c84 -41 184 -136 217 -205 27 -57 44 -144 28 -144 -16 0 -167 161 -218
234 -94 132 -52 15 46 -131 27 -39 53 -74 59 -78 5 -3 10 -11 10 -16 0 -17
-86 51 -150 117 -66 69 -106 144 -117 219 l-6 48 34 -7 c19 -3 62 -20 97 -37z
m869 -29 c18 -36 16 -91 -8 -162 -20 -62 -84 -168 -106 -175 -6 -2 -19 11 -28
30 -16 34 -16 36 8 75 20 30 57 129 57 149 0 2 -6 3 -14 3 -8 0 -16 -10 -20
-22 -3 -13 -26 -46 -51 -75 -42 -47 -49 -51 -97 -55 -29 -2 -61 -8 -70 -12
-38 -17 -11 93 35 142 37 40 74 62 160 98 93 39 116 39 134 4z m-561 -56 c69
-46 130 -115 159 -179 35 -75 39 -95 21 -95 -8 0 -21 -3 -29 -6 -10 -3 -17 4
-21 23 -4 15 -16 58 -27 96 -18 62 -22 67 -48 67 -28 0 -58 26 -99 87 -38 55
-30 56 44 7z m-1859 -28 c3 -3 0 -13 -7 -21 -7 -9 -14 -35 -14 -59 -1 -41 -3
-45 -36 -55 -31 -10 -37 -8 -52 12 -9 12 -22 41 -29 64 -17 63 -2 77 74 70 32
-3 61 -8 64 -11z m561 -65 c48 -9 65 -21 42 -29 -8 -3 -27 -17 -41 -32 -28
-28 -133 -54 -272 -67 -37 -3 -67 -9 -67 -13 0 -12 147 -21 221 -14 65 6 69 5
69 -14 0 -11 3 -27 6 -35 7 -20 -66 -37 -164 -37 -117 0 -332 58 -332 90 0 14
81 67 154 101 111 52 268 72 384 50z m630 -46 c20 -14 43 -25 50 -25 7 0 10
-4 7 -10 -4 -6 -55 -10 -121 -10 -63 0 -114 -4 -114 -9 0 -11 127 -21 277 -21
96 0 123 -3 123 -13 0 -13 -58 -26 -180 -42 -100 -12 -308 31 -362 75 l-22 18
42 21 c57 29 104 39 190 40 62 1 78 -3 110 -24z m-396 -24 c-5 -33 21 -55 100
-87 27 -10 48 -21 48 -25 0 -12 -282 -61 -316 -54 -86 16 -61 145 36 184 14 5
50 10 81 10 l56 1 -5 -29z m1133 -52 c21 -61 35 -169 23 -169 -5 0 -33 16 -63
35 -53 33 -60 45 -55 90 3 26 59 107 70 100 5 -3 16 -28 25 -56z m-419 29 c33
-37 132 -96 200 -118 35 -12 64 -25 64 -30 0 -13 -65 -21 -112 -14 -101 16
-188 85 -188 151 0 38 9 41 36 11z m-1514 -20 c-18 -18 -14 -49 9 -74 l21 -22
-54 -20 c-30 -11 -75 -23 -101 -27 -26 -4 -47 -12 -47 -18 0 -14 146 -1 210
20 42 13 57 14 90 4 22 -6 40 -16 40 -20 0 -12 -69 -39 -144 -56 -100 -24
-298 -15 -330 15 -18 17 97 114 192 163 91 46 140 61 114 35z m2205 -44 c40
-43 56 -146 31 -199 -11 -25 -64 -62 -74 -52 -3 2 0 17 6 33 19 48 3 113 -36
152 -39 39 -42 54 -13 83 24 24 54 19 86 -17z m-817 -98 c259 -35 484 -120
593 -224 31 -30 37 -43 37 -78 0 -50 -8 -74 -24 -74 -7 0 -50 25 -96 56 -152
101 -280 155 -465 199 -340 80 -616 44 -1039 -137 -156 -66 -189 -70 -194 -23
-3 40 28 88 78 121 64 43 307 125 350 118 23 -4 62 3 116 20 44 14 111 30 150
35 87 12 356 5 494 -13z m1024 -64 c27 -15 56 -37 64 -50 15 -23 14 -26 -19
-53 -19 -16 -55 -35 -82 -43 -59 -19 -226 -23 -256 -7 -37 20 -14 32 50 25 58
-7 59 -6 97 32 30 30 41 50 46 87 8 55 13 55 100 9z m-1198 -68 c18 -5 20 -11
16 -63 -3 -41 1 -67 12 -89 14 -28 22 -32 56 -32 55 0 74 30 68 109 l-4 59 37
-18 c20 -11 51 -31 68 -46 36 -30 51 -25 31 11 -7 14 -11 27 -9 29 6 6 153
-45 214 -74 73 -34 175 -102 213 -142 l32 -34 -10 -75 c-6 -41 -21 -180 -34
-310 l-23 -237 -34 -48 c-84 -117 -315 -174 -644 -160 -216 10 -627 44 -716
61 -151 27 -212 79 -245 205 -14 54 -16 94 -10 235 5 154 26 359 37 369 2 2
74 33 159 69 158 67 266 105 375 133 33 8 67 17 76 20 13 4 16 -6 15 -62 -1
-58 2 -68 23 -85 32 -27 79 -21 103 11 11 16 21 51 25 92 l6 67 51 4 c28 2 60
4 71 5 11 1 29 -1 41 -4z m931 -1078 c1 -1 -3 -19 -9 -40 -18 -56 5 -189 53
-316 70 -181 81 -226 82 -335 2 -98 -21 -215 -42 -215 -23 0 -77 168 -87 270
-3 38 -11 70 -17 70 -17 0 -1 -226 23 -310 12 -41 45 -127 75 -191 59 -125 78
-195 73 -256 -3 -31 -5 -34 -12 -18 -56 134 -103 205 -137 205 -18 0 -19 -4
-12 -37 16 -76 9 -204 -15 -275 -31 -90 -59 -129 -112 -156 -39 -20 -55 -23
-120 -18 -97 6 -159 28 -201 72 -33 34 -34 38 -34 112 1 71 5 86 52 188 28 60
58 135 67 166 34 117 41 354 11 350 -5 -1 -15 -34 -21 -74 -11 -69 -48 -215
-57 -225 -3 -2 -8 31 -12 74 -4 43 -23 173 -42 288 -43 265 -53 474 -26 549
18 48 19 49 95 76 42 16 86 34 96 42 15 10 57 12 173 10 85 -2 155 -5 156 -6z
m-2707 -16 c36 -6 87 -18 114 -26 46 -16 48 -18 42 -46 -3 -17 -6 -146 -6
-287 l0 -256 -312 0 c-172 0 -480 -4 -684 -9 l-371 -8 -7 53 c-3 30 -11 144
-17 254 -17 303 -19 301 254 321 100 7 218 15 262 17 148 8 659 -1 725 -13z
m2943 -2 c14 -7 17 -22 17 -81 1 -181 30 -1114 35 -1132 9 -30 -52 -215 -70
-215 -8 0 -15 1 -15 3 0 1 7 24 15 51 31 102 11 213 -61 343 l-35 63 27 82
c24 71 28 100 28 203 1 112 -3 133 -47 305 -46 176 -70 343 -54 383 4 12 19
14 74 10 37 -3 76 -10 86 -15z m1062 12 c208 -13 342 -29 381 -45 50 -20 57
-58 58 -305 1 -118 -3 -244 -7 -281 l-8 -65 -592 1 c-649 2 -722 6 -732 39
-10 37 -18 519 -8 556 17 65 83 85 324 99 210 12 403 12 584 1z m-3010 -24
c44 -9 101 -18 126 -21 42 -5 48 -9 64 -46 26 -57 92 -113 189 -159 93 -44
114 -68 136 -155 16 -63 82 -203 110 -232 11 -13 27 -23 35 -23 39 0 124 138
179 291 21 59 52 86 156 141 l85 45 2 -131 c1 -97 9 -177 33 -311 57 -322 62
-368 56 -535 -3 -85 -8 -185 -12 -222 l-6 -68 -71 0 c-40 0 -214 -5 -387 -12
-338 -13 -589 -6 -1040 28 l-225 17 -72 146 c-40 80 -93 182 -118 226 l-46 80
10 125 c6 69 13 190 16 270 10 255 26 484 36 518 7 20 18 34 32 37 12 2 31 6
42 9 47 12 591 -3 670 -18z m365 -71 c23 -19 59 -39 81 -45 79 -22 153 -113
165 -204 4 -25 13 -47 20 -50 24 -9 44 5 44 31 0 66 65 139 180 199 36 19 81
43 100 54 19 11 50 20 69 20 33 0 34 0 16 -20 -10 -11 -52 -40 -94 -64 -102
-59 -133 -95 -181 -205 -41 -97 -83 -176 -100 -186 -14 -8 -60 77 -85 158 -12
40 -29 86 -38 104 -18 33 -75 84 -142 124 -46 27 -125 97 -125 110 0 21 52 6
90 -26z m407 -1 l72 -6 -59 -45 c-33 -24 -75 -63 -95 -85 -19 -23 -36 -40 -38
-37 -2 2 -16 21 -32 42 -16 22 -54 56 -85 77 -105 71 -103 74 40 66 69 -3 157
-9 197 -12z m-1993 -615 c99 -5 224 -9 278 -9 93 0 98 -1 98 -21 0 -19 -4 -21
-32 -15 -18 4 -137 11 -264 16 -218 10 -794 0 -991 -17 -69 -5 -73 -4 -73 15
0 17 9 21 63 27 187 23 549 24 921 4z m4569 -61 l87 1 0 -65 c0 -58 -2 -65
-17 -60 -75 23 -780 42 -1073 29 -107 -5 -198 -7 -202 -4 -3 3 -9 27 -13 53
-7 45 -6 47 21 52 16 2 272 2 569 -2 297 -3 579 -5 628 -4z m-4363 -43 c85 -8
158 -14 163 -15 7 0 11 -50 4 -50 -2 0 -19 8 -38 18 -52 26 -171 20 -429 -23
-325 -53 -571 -110 -780 -179 -41 -14 -78 -22 -81 -18 -4 4 -10 57 -14 119
l-7 111 56 12 c165 34 399 49 686 45 157 -3 355 -11 440 -20z m108 -117 c5 -7
13 -24 17 -38 9 -29 68 -160 190 -420 95 -204 198 -440 193 -445 -30 -27 -299
-126 -553 -203 -208 -64 -566 -162 -589 -162 -32 1 -219 331 -381 675 -75 160
-139 298 -142 308 -4 13 7 22 48 41 155 68 408 137 679 185 96 17 222 40 280
50 127 22 243 26 258 9z m4067 -40 c154 -6 281 -12 283 -14 5 -4 -74 -376
-118 -559 -35 -142 -161 -559 -172 -571 -3 -2 -54 7 -114 20 -60 14 -165 37
-234 51 -187 40 -850 207 -871 221 -5 3 -7 9 -4 14 7 12 209 654 236 752 l24
87 80 4 c205 8 636 6 890 -5z m-2631 -543 l648 -5 40 -45 c93 -106 293 -152
409 -94 40 20 105 88 119 124 8 22 15 24 90 27 45 2 83 2 85 0 6 -6 -90 -287
-99 -291 -5 -2 -25 -19 -45 -37 -32 -29 -36 -38 -36 -82 0 -38 6 -57 27 -84
29 -39 126 -93 185 -104 27 -5 33 -11 31 -27 -2 -12 -14 -27 -28 -34 -38 -19
-410 -16 -892 7 -441 21 -1016 45 -1345 56 -111 3 -227 9 -259 13 l-57 6 84
34 c50 20 98 48 118 68 30 31 33 38 28 76 -3 23 -42 124 -86 225 l-79 183 206
-5 c114 -4 499 -8 856 -11z m1671 -445 c257 -56 505 -120 700 -178 72 -22 149
-43 172 -47 24 -4 45 -10 47 -14 3 -4 -28 -20 -67 -37 -69 -28 -79 -29 -212
-28 -160 1 -139 -4 -585 138 -297 95 -365 124 -392 172 -16 27 -16 32 -3 51
14 20 17 21 62 7 27 -8 152 -37 278 -64z m-2675 45 c0 -24 -41 -44 -223 -110
-358 -129 -822 -275 -875 -275 -34 0 -72 10 -72 19 0 13 537 183 821 260 103
28 222 66 265 85 44 19 80 34 82 35 1 1 2 -6 2 -14z m735 -285 c259 -5 675
-15 925 -20 660 -14 800 -27 800 -72 0 -12 -818 -3 -935 10 -49 6 -169 18
-266 27 -162 16 -178 16 -207 1 -35 -18 -52 -62 -52 -135 l0 -44 -107 7 c-60
4 -223 16 -363 26 -140 10 -364 27 -497 36 l-243 17 0 68 c0 37 -3 75 -7 85
-6 16 8 17 238 11 134 -3 456 -11 714 -17z m1254 -142 c278 -1 488 -3 466 -5
-22 -2 -119 -13 -215 -24 -504 -56 -633 -69 -828 -83 -117 -9 -230 -16 -252
-16 l-40 0 0 72 0 71 182 -6 c99 -4 409 -8 687 -9z m-2030 -136 l30 -39 -41
-49 c-22 -27 -42 -51 -43 -53 -6 -5 -85 61 -85 71 0 16 82 108 96 108 7 0 26
-17 43 -38z m2201 -37 c-62 -63 -65 -64 -84 -47 -76 63 -105 93 -94 97 13 5
86 10 188 13 l54 2 -64 -65z m-1911 30 c12 -12 8 -22 -29 -70 -24 -30 -47 -58
-52 -61 -4 -3 -30 19 -57 48 l-49 53 22 28 c20 26 24 27 86 22 36 -3 71 -12
79 -20z m1471 -49 l47 -44 -36 -36 c-20 -20 -41 -36 -45 -36 -5 0 -32 22 -61
49 l-52 49 29 31 c16 17 38 31 50 31 11 0 42 -20 68 -44z m592 -3 c26 -26 48
-52 48 -58 -1 -5 -25 -36 -53 -68 l-53 -58 -63 57 -62 57 57 58 c32 33 63 59
68 59 6 0 32 -21 58 -47z m-272 -69 c12 -12 9 -19 -20 -49 -19 -19 -38 -35
-43 -35 -5 0 -38 26 -74 58 l-65 57 42 38 43 37 51 -47 c28 -25 58 -52 66 -59z
m-1132 53 c18 -17 30 -37 28 -43 -9 -23 -71 -103 -81 -103 -5 -1 -33 22 -62
51 l-52 51 36 44 c32 39 39 43 67 37 17 -3 46 -20 64 -37z m564 26 c10 -9 18
-21 18 -27 0 -6 -25 -32 -54 -58 l-54 -48 -56 44 -55 43 32 24 c28 21 68 33
131 37 11 1 28 -5 38 -15z m-836 -34 l42 -42 -50 -61 c-28 -33 -54 -62 -57
-64 -4 -1 -28 20 -55 47 l-49 50 53 55 c29 31 58 56 64 56 6 0 29 -19 52 -41z
m-283 -27 l47 -47 -53 -62 c-28 -34 -54 -62 -57 -61 -3 0 -25 22 -49 49 -42
47 -43 49 -27 73 23 35 77 96 85 96 4 0 28 -21 54 -48z m-269 -21 l49 -50 -43
-51 -42 -51 -52 48 c-28 25 -53 48 -55 49 -4 4 81 104 88 104 4 0 29 -22 55
-49z m1512 -33 l55 -52 -52 -52 -52 -53 -24 19 c-14 11 -43 36 -66 56 l-41 37
53 49 c29 26 57 48 62 48 6 0 35 -23 65 -52z m-291 -18 l40 -41 -50 -43 -50
-44 -45 41 c-25 23 -47 45 -49 50 -2 5 16 28 39 52 49 50 53 49 115 -15z m603
-37 l33 -28 -46 -45 -45 -44 -62 62 -62 62 38 39 39 40 36 -29 c20 -16 51 -41
69 -57z m-914 52 c3 -8 8 -38 11 -67 3 -29 8 -69 10 -88 8 -68 -9 -71 -70 -10
-30 30 -55 59 -55 64 0 12 80 116 90 116 4 0 10 -7 14 -15z m1447 -37 c27 -29
49 -54 49 -56 0 -9 -86 -102 -95 -102 -5 1 -35 23 -65 50 l-55 49 55 56 c30
30 56 55 58 55 2 0 26 -23 53 -52z m-1671 -13 l53 -54 -49 -65 c-27 -36 -51
-66 -54 -66 -3 0 -31 26 -62 58 l-57 57 51 63 c29 34 54 62 58 62 3 0 30 -25
60 -55z m1381 -7 c32 -29 59 -57 59 -62 0 -6 -16 -27 -36 -47 l-37 -38 -68 62
-69 61 37 38 c20 21 41 38 46 38 4 0 35 -24 68 -52z m-1663 -11 c23 -23 42
-49 42 -56 0 -8 -21 -39 -47 -70 -26 -31 -48 -58 -50 -60 -5 -7 -103 92 -103
104 0 12 98 125 109 125 4 0 26 -19 49 -43z m-524 -36 l49 -49 -54 -61 c-29
-34 -58 -61 -63 -61 -9 0 -89 68 -94 81 -3 8 99 138 108 139 3 0 28 -22 54
-49z m261 9 c44 -45 42 -53 -17 -119 l-30 -34 -50 50 -49 49 41 47 c23 26 47
47 54 47 6 0 29 -18 51 -40z m1218 -41 c31 -28 57 -55 57 -60 0 -6 -23 -33
-51 -61 l-50 -52 -62 62 -62 62 50 50 c27 27 52 50 55 50 3 0 32 -23 63 -51z
m309 -8 l63 -60 -52 -52 -52 -52 -63 61 -63 61 50 51 c27 27 50 50 51 50 1 0
31 -27 66 -59z m290 -30 l63 -59 -40 -43 c-21 -24 -43 -46 -48 -48 -5 -2 -38
25 -73 60 l-64 63 42 43 c23 24 46 43 50 43 4 0 36 -26 70 -59z m-1127 -27
c54 -63 54 -66 -15 -145 l-39 -44 -57 57 -57 57 49 65 c27 36 54 65 60 66 6 0
33 -25 59 -56z m1395 7 l54 -49 -34 -40 c-19 -22 -39 -42 -45 -45 -5 -2 -37
20 -70 49 l-60 53 40 41 c21 22 44 40 50 40 5 0 35 -22 65 -49z m-1673 -29
l51 -58 -49 -60 c-27 -32 -53 -60 -57 -62 -4 -1 -33 24 -65 56 l-57 57 51 63
c28 34 57 62 63 62 6 0 35 -26 63 -58z m-283 -7 c52 -60 52 -59 -2 -120 l-34
-38 -56 56 -55 55 44 51 c24 27 47 50 50 51 4 0 28 -25 53 -55z m-240 -18 c27
-23 29 -29 17 -49 -7 -13 -30 -43 -51 -66 l-39 -44 -56 47 -55 47 58 63 c64
71 50 71 126 2z m1190 -36 l58 -58 -49 -46 -48 -47 -52 58 c-29 31 -52 61 -53
67 0 10 70 85 80 85 3 0 32 -26 64 -59z m339 -29 l28 -30 -56 -53 c-31 -30
-61 -56 -67 -58 -6 -2 -34 23 -63 55 l-53 59 56 57 55 57 36 -29 c20 -15 49
-42 64 -58z m274 14 l68 -64 -54 -52 -54 -51 -69 68 -68 67 47 48 c26 26 51
48 55 48 4 0 38 -29 75 -64z m275 -13 l57 -58 -48 -52 -48 -51 -62 62 -61 61
47 48 c26 26 50 47 53 47 3 0 31 -26 62 -57z m249 5 c36 -29 39 -35 39 -84 0
-36 -6 -59 -19 -75 l-19 -24 -64 60 c-34 32 -65 60 -67 62 -5 3 80 93 87 93 2
0 21 -14 43 -32z m-1417 -20 c8 -13 19 -49 24 -82 9 -56 8 -59 -20 -92 -17
-19 -33 -34 -37 -34 -3 0 -28 25 -54 55 l-48 55 52 60 c29 33 56 60 60 60 5 0
15 -10 23 -22z m-786 -41 l53 -54 -51 -61 c-29 -34 -54 -62 -57 -62 -9 0 -113
103 -113 113 0 13 93 116 105 116 6 1 34 -23 63 -52z m312 -72 c0 -5 -20 -32
-43 -59 l-43 -49 -51 59 c-29 32 -53 63 -54 68 -1 4 16 30 37 57 l39 49 57
-57 c32 -32 58 -62 58 -68z m229 65 l52 -60 -52 -60 c-29 -33 -55 -60 -59 -60
-4 0 -30 25 -59 55 -33 35 -50 59 -45 67 14 24 98 118 104 118 4 0 30 -27 59
-60z m-825 -19 l49 -49 -49 -56 c-27 -31 -54 -56 -59 -56 -6 0 -33 23 -60 50
l-49 50 54 55 c30 30 57 55 60 55 3 0 28 -22 54 -49z m1824 -44 l62 -63 -64
-63 c-35 -35 -68 -62 -73 -60 -6 2 -36 32 -68 67 l-58 63 59 60 c32 32 63 59
69 59 6 0 39 -28 73 -63z m-324 -3 l50 -55 -49 -49 c-27 -28 -52 -50 -55 -50
-3 0 -27 27 -54 61 l-49 60 44 45 c24 24 48 44 54 43 5 -1 32 -26 59 -55z
m611 -4 l60 -60 -53 -52 -52 -53 -60 60 -60 60 47 52 c27 29 50 52 53 53 3 0
32 -27 65 -60z m280 -19 c30 -29 55 -58 55 -65 0 -6 -20 -32 -45 -56 l-45 -44
-60 59 c-33 33 -60 64 -60 69 0 13 82 97 92 94 4 -2 32 -27 63 -57z m-1915
-116 c-1 -5 -23 -35 -51 -65 l-49 -55 -55 60 c-30 33 -53 63 -52 67 1 4 22 32
47 62 l45 54 58 -56 c31 -31 57 -61 57 -67z m-331 51 l54 -54 -54 -61 c-29
-34 -56 -61 -59 -61 -3 0 -30 25 -59 54 l-54 55 39 46 c21 26 43 53 49 61 16
23 28 17 84 -40z m540 -3 c28 -32 50 -60 49 -64 -6 -14 -78 -89 -87 -89 -12 0
-101 97 -101 111 0 12 70 96 82 98 3 1 29 -25 57 -56z m277 1 l42 -49 -54 -60
-54 -60 -44 50 c-25 28 -45 54 -46 59 0 15 92 117 103 113 6 -2 29 -25 53 -53z
m-1108 -17 l52 -53 -45 -44 -45 -44 -36 34 c-33 33 -35 38 -30 79 5 40 29 81
45 81 4 0 30 -24 59 -53z m1510 -22 c23 -30 42 -57 42 -62 0 -4 -24 -29 -54
-55 l-53 -47 -47 54 c-25 29 -46 56 -46 59 0 11 94 106 105 105 5 0 29 -24 53
-54z m607 -16 l60 -61 -70 -64 c-38 -35 -73 -64 -77 -64 -3 0 -30 27 -59 61
l-52 60 64 65 c35 35 66 64 69 64 3 0 32 -27 65 -61z m-320 -18 l60 -63 -53
-49 c-29 -27 -57 -49 -62 -49 -10 0 -110 114 -110 126 0 11 93 105 100 102 3
-2 32 -32 65 -67z m606 7 c32 -35 58 -65 59 -68 0 -3 -23 -28 -50 -55 l-50
-49 -59 64 -58 65 46 52 c25 29 48 52 50 52 3 1 31 -27 62 -61z m257 -64 c4
-123 -7 -131 -78 -59 l-54 55 49 50 c70 71 79 65 83 -46z m-2228 -129 l-60
-60 -55 56 -56 55 57 63 57 62 59 -58 58 -58 -60 -60z m280 118 l51 -56 -53
-54 -52 -53 -53 52 c-29 29 -53 55 -53 58 0 9 91 110 100 110 4 0 31 -25 60
-57z m550 -74 c0 -27 -9 -48 -32 -77 -18 -23 -37 -41 -43 -41 -9 0 -89 93
-109 126 -6 11 6 30 45 70 l54 54 43 -48 c33 -37 42 -55 42 -84z m-1070 0 c0
-9 -80 -99 -89 -99 -4 0 -29 25 -55 55 l-47 55 43 50 43 50 52 -52 c29 -29 53
-55 53 -59z m770 61 c46 -55 46 -62 -12 -118 l-34 -32 -48 56 -49 56 44 44
c24 24 46 44 50 44 4 0 26 -22 49 -50z m691 -55 l52 -59 -39 -34 c-79 -70 -80
-70 -119 -26 -65 75 -65 78 -10 134 27 28 53 49 57 48 3 -2 30 -30 59 -63z
m619 -7 l54 -61 -69 -64 c-38 -34 -72 -63 -75 -63 -4 0 -33 28 -66 61 l-58 62
67 63 c37 35 73 64 80 64 6 0 37 -28 67 -62z m-330 -11 l54 -58 -54 -49 c-30
-27 -60 -49 -67 -50 -6 0 -34 26 -62 58 l-51 57 56 53 c31 29 59 52 63 50 3
-2 31 -29 61 -61z m609 2 l44 -51 -51 -51 -52 -51 -33 33 c-19 18 -40 43 -47
57 -13 23 -11 27 30 69 24 25 49 45 55 45 5 0 30 -23 54 -51z m-1987 -166
c-31 -29 -59 -53 -62 -53 -3 0 -27 22 -53 48 l-47 48 56 63 57 63 53 -59 53
-58 -57 -52z m276 102 l44 -54 -43 -51 c-23 -27 -46 -50 -50 -50 -9 0 -92 86
-98 102 -3 10 87 109 99 108 3 -1 25 -25 48 -55z m-551 -7 l53 -52 -52 -53
c-29 -29 -56 -53 -60 -53 -12 0 -87 84 -88 98 0 13 80 112 90 112 2 0 28 -23
57 -52z m797 -14 c26 -36 49 -71 52 -78 2 -6 -13 -28 -33 -49 l-38 -37 -58 65
c-31 35 -57 66 -57 70 0 9 73 95 80 95 4 0 28 -30 54 -66z m-1064 5 l43 -51
-49 -49 c-27 -27 -51 -48 -55 -47 -4 2 -28 23 -54 46 l-46 44 48 53 c26 29 53
53 59 54 6 1 30 -22 54 -50z m1510 -80 c8 -14 -1 -26 -44 -63 -30 -25 -59 -46
-64 -46 -6 0 -27 23 -47 51 l-37 52 54 54 53 54 38 -43 c20 -24 42 -50 47 -59z
m258 20 c23 -27 42 -53 42 -57 0 -14 -111 -94 -124 -89 -7 3 -30 26 -51 52
l-38 46 53 54 c29 29 58 51 64 48 6 -2 30 -27 54 -54z m617 0 l48 -51 -69 -69
c-38 -38 -72 -69 -75 -69 -4 0 -28 24 -54 54 l-46 55 68 65 c37 36 71 65 74
66 4 0 28 -23 54 -51z m-326 -16 c28 -31 51 -62 51 -67 -1 -13 -103 -96 -117
-96 -13 0 -103 104 -103 118 0 11 100 101 112 102 3 0 29 -26 57 -57z m-1656
-51 l48 -48 -60 -52 c-33 -29 -64 -52 -69 -52 -5 0 -25 19 -45 43 l-35 43 50
57 c27 31 53 57 57 57 4 0 28 -22 54 -48z m281 -4 l46 -52 -47 -48 c-26 -27
-50 -47 -54 -46 -4 2 -31 25 -59 52 l-53 49 49 48 c27 26 54 48 61 48 6 1 32
-23 57 -51z m264 -15 l51 -68 -42 -42 c-22 -24 -46 -43 -52 -43 -10 0 -105
112 -105 124 0 10 81 96 90 96 4 0 31 -30 58 -67z m-788 -40 c0 -5 -20 -29
-45 -53 l-45 -44 -46 45 -45 45 47 53 48 53 43 -45 c24 -25 43 -50 43 -54z
m1445 -9 c29 -33 44 -59 39 -64 -5 -5 -45 -14 -88 -20 -69 -10 -80 -9 -97 6
-10 9 -19 22 -18 28 0 8 103 101 115 106 1 0 23 -25 49 -56z m908 -11 c44 -52
45 -49 -50 -125 l-64 -50 -34 38 c-19 22 -34 43 -35 49 0 13 122 135 135 134
5 0 27 -21 48 -46z m-309 -31 l50 -53 -25 -25 -25 -25 -80 22 c-43 11 -83 24
-87 28 -9 9 94 112 108 109 6 -2 32 -27 59 -56z m-2190 -90 c-6 -9 -31 -28
-57 -42 l-47 -25 -32 32 -32 33 49 50 49 50 41 -40 c33 -33 38 -43 29 -58z
m1055 25 c22 -30 41 -61 41 -69 0 -16 -76 -81 -89 -76 -5 2 -27 26 -49 53
l-41 50 47 48 c25 26 47 47 48 47 1 0 20 -24 43 -53z m801 -32 c133 -23 258
-56 271 -71 7 -8 9 -28 5 -49 -8 -39 -6 -38 -126 -36 -95 2 -322 39 -377 61
l-22 9 21 51 21 50 61 0 c33 0 99 -7 146 -15z m-345 -56 c-36 -78 -31 -83 100
-93 101 -8 485 -55 520 -64 17 -5 37 -7 46 -5 20 5 39 45 39 83 0 17 4 30 9
30 12 0 35 -86 27 -105 -6 -17 -49 -37 -68 -30 -7 2 -96 11 -198 20 -102 9
-263 27 -358 41 -95 13 -177 24 -182 24 -5 0 -16 7 -24 16 -14 14 -14 18 -1
44 16 31 83 90 102 90 8 0 4 -17 -12 -51z m-921 12 l81 -16 -3 -65 c-2 -36
-10 -71 -17 -78 -10 -11 -51 -12 -236 -2 -123 6 -227 15 -232 19 -4 4 -1 29 7
57 8 27 16 60 18 74 3 22 9 26 58 31 76 9 227 0 324 -20z m-495 -80 c-21 -109
2 -121 261 -141 80 -6 177 -14 215 -18 135 -14 179 10 190 102 4 31 5 62 1 71
-6 16 -2 18 32 9 19 -5 22 -13 22 -53 0 -58 -25 -109 -69 -138 -29 -20 -47
-23 -125 -23 -87 0 -408 23 -508 36 -92 12 -114 53 -84 154 10 33 20 47 42 56
16 7 30 11 32 9 2 -2 -2 -30 -9 -64z m1246 8 c-6 -24 -2 -36 16 -55 30 -32 66
-40 234 -54 155 -13 375 -41 505 -65 131 -25 204 -8 230 54 6 15 8 40 4 56 -6
25 -5 26 13 17 11 -6 36 -27 55 -48 l36 -36 -22 -67 c-13 -36 -31 -100 -41
-141 -10 -41 -21 -79 -25 -83 -10 -11 -253 5 -717 48 -204 19 -378 35 -386 35
-21 0 -37 52 -37 117 0 44 7 66 41 126 35 62 84 127 97 127 2 0 1 -14 -3 -31z
m-1372 -167 c38 -40 77 -48 307 -67 400 -34 456 -32 531 18 40 26 79 98 79
144 0 20 5 33 13 33 22 0 117 -90 137 -131 25 -48 25 -66 0 -129 -27 -70 -26
-105 6 -137 l27 -27 -35 -32 c-60 -54 -113 -60 -391 -41 -268 19 -867 85 -881
98 -16 15 -24 103 -14 154 18 86 69 166 145 227 l38 30 5 -55 c4 -43 11 -62
33 -85z m-226 -379 c66 9 744 -49 973 -83 98 -14 239 -12 297 5 27 8 67 26 88
40 20 14 39 25 41 23 1 -2 -4 -18 -13 -36 -36 -74 -140 -94 -343 -68 -189 23
-549 54 -790 66 -118 6 -231 13 -250 16 -44 7 -80 30 -80 51 0 14 2 14 20 -2
14 -12 29 -16 57 -12z"/>
<path d="M3275 7479 c-16 -25 17 -121 56 -160 28 -28 47 -24 66 16 9 19 20 35
23 35 3 0 16 -13 28 -30 13 -16 31 -30 42 -30 18 0 60 48 60 69 0 22 15 10 35
-27 30 -56 53 -53 102 13 l42 56 20 -40 c12 -22 21 -50 21 -61 0 -24 26 -37
48 -23 9 5 22 28 31 51 8 23 18 42 22 42 3 0 18 -27 33 -60 15 -33 31 -60 36
-60 17 0 44 36 72 99 32 69 31 94 -4 89 -17 -2 -30 -19 -49 -58 l-26 -55 -27
53 c-14 28 -33 52 -40 52 -8 0 -26 -15 -41 -32 -23 -30 -27 -31 -36 -15 -5 9
-21 29 -34 45 l-24 27 -48 -53 -48 -54 -38 51 c-21 29 -42 49 -48 46 -5 -4
-17 -23 -27 -42 -9 -20 -21 -36 -27 -37 -5 0 -21 16 -34 37 -13 20 -30 37 -36
37 -7 0 -20 -18 -30 -41 -17 -38 -20 -39 -32 -23 -7 10 -18 35 -24 56 -8 31
-14 38 -34 38 -13 0 -27 -5 -30 -11z"/>
</g>
</svg>
