<?xml version="1.0" standalone="no"?>
<!DOCTYPE svg PUBLIC "-//W3C//DTD SVG 20010904//EN"
 "http://www.w3.org/TR/2001/REC-SVG-20010904/DTD/svg10.dtd">
<svg version="1.0" xmlns="http://www.w3.org/2000/svg"
 width="720.000000pt" height="1117.000000pt" viewBox="0 0 720.000000 1117.000000"
 preserveAspectRatio="xMidYMid meet">
<metadata>
Created by potrace 1.16, written by Peter Selinger 2001-2019
</metadata>
<g transform="translate(0.000000,1117.000000) scale(0.100000,-0.100000)"
fill="#000000" stroke="none">
<path d="M3661 9048 c-4 -13 -11 -39 -15 -58 -5 -29 -20 -45 -89 -96 -166
-124 -170 -126 -360 -104 -55 7 -94 7 -105 1 -12 -6 -26 -41 -41 -103 -13 -51
-44 -142 -68 -203 -55 -132 -58 -155 -44 -287 13 -117 64 -433 86 -523 7 -33
16 -135 18 -227 l5 -168 -211 0 c-204 0 -212 1 -261 25 -29 14 -84 29 -126 34
-42 6 -312 11 -600 13 l-525 3 -40 -24 c-22 -14 -42 -26 -44 -27 -8 -7 -11
-43 -56 -899 -14 -264 -34 -579 -46 -700 -11 -121 -17 -230 -14 -242 3 -12 14
-27 26 -33 18 -10 504 -58 1058 -105 152 -12 178 -12 208 0 20 8 38 15 42 15
4 0 7 -34 7 -75 0 -41 5 -80 11 -87 6 -7 13 -25 17 -40 5 -20 58 -73 83 -83 1
0 -5 -20 -13 -44 -13 -37 -13 -90 -5 -385 6 -187 15 -615 22 -951 6 -370 15
-621 21 -638 16 -43 46 -76 89 -97 37 -19 61 -20 621 -20 657 0 607 -6 657 81
l28 49 19 -42 c24 -55 88 -124 136 -149 49 -25 96 -25 590 6 542 34 577 38
626 69 79 50 82 58 82 245 0 145 -12 672 -36 1589 l-7 263 -40 38 c-39 37 -39
39 -23 62 11 17 16 45 16 101 l0 77 53 5 c28 3 305 28 614 55 309 27 571 54
582 60 30 17 34 62 17 222 -22 217 -25 247 -51 744 -43 808 -49 903 -56 908
-2 2 -22 14 -44 28 l-40 24 -525 -3 c-312 -2 -555 -7 -600 -14 -95 -14 -116
-15 -389 -19 l-224 -4 -3 138 c-3 113 -1 142 12 162 10 16 20 75 30 172 16
177 18 189 55 417 16 99 29 205 29 235 0 51 -5 62 -49 122 -52 71 -69 79 -170
79 -41 0 -49 5 -120 73 -90 85 -198 165 -249 183 -20 7 -140 49 -266 93 -246
87 -291 96 -305 59z m339 -134 c267 -94 264 -92 419 -237 80 -75 120 -97 179
-97 54 0 102 -11 102 -22 0 -6 13 -30 29 -54 25 -37 28 -48 21 -76 -5 -18 -16
-114 -25 -213 -9 -99 -23 -229 -31 -289 -8 -61 -14 -116 -14 -123 0 -7 -4 -13
-10 -13 -5 0 -10 12 -10 26 0 51 -43 210 -75 281 -63 137 -173 217 -343 249
-125 23 -722 16 -802 -10 -140 -45 -229 -118 -280 -229 -31 -66 -66 -189 -76
-268 -4 -27 -10 -49 -14 -49 -9 0 -44 193 -70 388 l-21 154 45 91 c42 88 106
270 106 303 0 13 7 15 38 11 20 -4 78 -9 127 -13 l90 -6 75 42 c94 54 154 94
202 138 31 28 38 41 38 71 0 46 6 52 33 41 12 -5 132 -48 267 -96z m95 -599
c327 -17 448 -130 509 -475 21 -118 29 -298 21 -434 l-7 -114 -303 -7 c-167
-4 -319 -10 -337 -14 -34 -7 -43 -19 -79 -106 l-20 -49 -25 44 c-14 25 -35 60
-47 77 l-22 33 -332 0 -331 0 -8 153 c-4 83 -7 154 -7 157 1 3 6 59 12 126 21
230 89 426 173 498 95 82 185 106 433 115 105 4 208 6 230 4 22 -1 85 -5 140
-8z m-2442 -1015 l47 0 0 -174 c0 -159 -2 -175 -20 -199 -34 -43 -77 -51 -244
-43 -82 4 -151 8 -152 9 -1 1 1 85 3 188 l6 185 31 22 c29 21 39 22 156 17 69
-3 146 -5 173 -5z m4781 -12 l33 -22 6 -185 c3 -102 4 -187 3 -188 -1 -1 -70
-5 -152 -9 -167 -8 -210 0 -244 43 -18 24 -20 40 -20 199 l0 173 93 4 c245 8
245 8 281 -15z m-3945 -12 c29 -7 45 -17 43 -25 -3 -14 -16 -460 -28 -955 l-6
-288 -41 6 c-23 4 -43 9 -46 11 -2 3 3 130 12 283 21 342 40 800 35 866 -2 27
-8 51 -14 53 -8 3 -13 -43 -18 -144 -12 -260 -45 -875 -52 -972 l-7 -93 -86 6
c-186 14 -910 56 -969 56 -45 0 -64 4 -68 14 -3 8 1 131 10 273 8 142 18 311
22 376 l6 117 81 -7 c155 -15 258 -10 301 13 78 40 81 52 78 256 l-3 181 352
-8 c212 -4 370 -12 398 -19z m3528 -136 c-6 -180 1 -218 43 -254 49 -41 118
-50 276 -37 75 6 139 10 140 8 4 -4 36 -587 37 -687 l2 -85 -225 -12 c-124 -6
-375 -21 -559 -33 -183 -11 -335 -19 -337 -18 -2 2 -10 145 -19 318 -25 509
-46 884 -51 889 -26 26 -24 -231 6 -782 13 -229 21 -419 19 -422 -3 -2 -21 -6
-39 -7 l-35 -3 -12 265 c-6 146 -16 378 -22 515 -6 138 -14 298 -17 358 l-5
107 28 12 c29 12 275 23 597 26 l179 2 -6 -160z m-843 -37 c22 -498 34 -858
30 -863 -8 -8 -171 39 -284 81 -250 94 -390 223 -424 392 l-13 62 -199 8
c-109 5 -201 11 -204 14 -3 2 -7 42 -8 88 l-4 83 54 12 c127 31 283 117 376
207 l64 63 217 3 c119 1 255 3 302 5 l86 2 7 -157z m-691 141 c9 -9 -92 -96
-159 -137 -56 -33 -250 -117 -273 -117 -20 0 -22 -123 -19 -813 l3 -707 -70 0
-70 0 3 687 c4 709 0 833 -23 833 -21 0 -28 -250 -22 -885 3 -319 7 -591 9
-605 3 -24 1 -25 -70 -28 l-73 -3 8 103 c13 163 9 1379 -4 1403 -9 16 -32 24
-102 38 -145 27 -270 88 -350 171 l-35 36 64 0 c59 0 65 -2 96 -34 63 -65 181
-108 354 -127 52 -6 103 -15 113 -21 13 -7 26 -7 41 0 11 6 53 13 91 16 119 8
247 62 329 137 43 39 60 48 97 52 24 2 47 4 50 5 3 1 8 -1 12 -4z m-203 -35
c-51 -44 -135 -84 -217 -103 -69 -15 -133 -21 -133 -12 0 3 12 36 26 74 l25
70 167 1 167 1 -35 -31z m-1035 -55 c45 -44 89 -75 148 -103 84 -41 217 -81
269 -81 l28 0 0 -84 c0 -47 -4 -87 -8 -90 -4 -2 -97 -8 -205 -12 -221 -8 -198
1 -212 -86 -15 -95 -119 -219 -245 -294 -84 -50 -211 -101 -344 -139 -137 -39
-124 -55 -120 163 2 103 7 325 10 493 l6 307 304 -6 305 -5 64 -63z m543 9
l40 -68 -29 -3 c-40 -4 -190 25 -252 49 -28 11 -69 33 -91 49 l-39 29 109 4
c60 1 134 4 165 5 l57 2 40 -67z m-103 -428 c0 -18 -11 -21 -135 -33 -74 -7
-140 -14 -146 -16 -6 -3 -14 -23 -18 -46 -15 -92 -79 -174 -200 -255 -145 -96
-287 -153 -523 -208 -56 -14 -105 -22 -108 -19 -3 3 -5 12 -5 21 0 12 37 26
148 58 183 51 280 91 378 155 133 86 226 207 240 311 5 36 11 47 28 50 11 3
93 4 181 3 153 -1 160 -2 160 -21z m723 19 c26 -5 30 -11 35 -46 14 -107 128
-249 264 -330 103 -61 204 -101 369 -146 124 -33 134 -38 134 -60 0 -18 -4
-22 -17 -18 -10 3 -57 14 -104 25 -372 86 -643 249 -704 421 -8 23 -15 53 -15
65 0 24 -3 25 -207 41 -79 7 -83 8 -83 30 l0 24 149 0 c82 0 162 -3 179 -6z
m-727 -506 c0 -238 2 -460 4 -493 2 -33 6 -110 10 -171 l6 -110 -53 -10 c-46
-8 -55 -13 -68 -41 l-15 -32 -516 -3 -516 -3 4 115 c3 63 8 227 11 364 l7 249
145 38 c172 44 247 69 357 119 214 99 352 232 373 360 l5 35 110 6 c61 3 116
6 123 7 9 2 12 -90 13 -430z m637 417 c6 -3 12 -15 12 -27 0 -39 47 -125 96
-178 126 -135 366 -248 681 -321 l102 -24 5 -35 c3 -19 8 -118 11 -220 4 -102
11 -242 16 -311 5 -70 7 -134 3 -143 -6 -14 -53 -16 -495 -16 -441 0 -489 2
-497 16 -6 11 -28 18 -61 22 -31 3 -55 10 -58 18 -3 7 -21 16 -40 20 -33 6
-35 8 -28 38 4 17 9 288 12 601 l5 570 111 -3 c62 -2 118 -5 125 -7z m-2848
-635 c91 -5 327 -19 525 -31 198 -11 363 -24 367 -27 3 -4 2 -72 -2 -152 -16
-265 -10 -401 15 -361 6 11 23 261 28 431 l2 85 45 -4 c25 -1 46 -4 47 -5 2
-1 0 -126 -4 -277 l-6 -274 -53 -24 -53 -23 -398 36 c-219 20 -488 43 -598 52
-110 10 -202 18 -203 20 -2 1 1 24 6 51 6 27 18 150 27 273 9 124 18 230 20
237 2 7 17 10 37 8 18 -3 107 -9 198 -15z m5072 -206 c9 -120 21 -248 28 -283
6 -35 10 -64 8 -65 -2 -2 -274 -26 -605 -55 l-601 -52 -41 20 -41 21 0 123 c0
67 -3 192 -7 278 l-6 156 31 5 c17 2 35 2 40 -1 5 -3 14 -120 20 -259 6 -140
13 -257 17 -260 3 -4 10 0 15 8 11 17 11 258 1 405 -4 55 -5 103 -2 107 3 3
209 18 456 33 248 15 495 30 550 34 55 5 105 7 110 6 6 -1 17 -96 27 -221z
m-2457 -405 c13 -21 -6 -57 -40 -78 -47 -27 -45 -52 5 -73 36 -15 40 -20 40
-52 l0 -36 -227 2 -226 3 -10 28 c-12 36 8 87 34 87 12 0 19 -7 19 -20 0 -28
37 -40 118 -40 85 0 97 7 88 54 -8 40 -33 49 -38 14 -3 -20 -10 -23 -60 -26
-46 -2 -58 0 -58 12 0 21 -39 46 -71 46 -31 0 -55 37 -44 69 6 21 11 21 235
21 150 0 231 -4 235 -11z m119 -25 c12 -5 16 -21 16 -68 0 -84 -7 -103 -38
-109 -21 -4 -32 1 -50 23 -12 16 -38 34 -57 40 -44 14 -44 23 -1 38 23 8 39
24 50 47 17 35 41 44 80 29z m-606 -68 c13 -12 12 -17 -2 -37 -9 -13 -16 -37
-16 -54 l0 -30 -523 0 -522 0 -3 70 -3 70 527 -2 c447 -2 530 -4 542 -17z
m1702 -22 c0 -23 -3 -55 -6 -72 l-6 -31 -512 -1 c-282 0 -514 2 -517 4 -2 2
-3 35 -1 73 l3 68 520 0 519 0 0 -41z m-1647 -159 c30 -6 37 -11 37 -31 l0
-24 -272 0 c-150 0 -380 -3 -510 -7 -249 -6 -267 -4 -330 39 -16 11 -28 24
-28 29 0 11 1045 6 1103 -6z m1627 1 c-8 -7 -37 -25 -65 -39 l-50 -26 -547 6
c-545 6 -563 7 -540 38 20 28 73 31 636 34 507 2 579 0 566 -13z m34 -104 c35
-37 37 -42 34 -98 l-3 -59 -71 2 c-137 4 -273 50 -341 116 -18 17 -31 32 -29
34 2 2 62 5 132 7 93 2 139 7 164 19 53 24 72 21 114 -21z m-2274 -3 c0 -24
-104 -118 -163 -147 -71 -36 -163 -62 -219 -62 l-38 0 0 80 c0 78 15 133 40
142 25 8 380 -4 380 -13z m90 -2 c0 -23 -60 -105 -105 -144 -60 -54 -157 -99
-252 -118 -102 -21 -148 -18 -148 10 0 18 9 21 85 27 47 3 99 11 116 16 88 28
179 94 229 167 36 52 75 74 75 42z m92 -329 c-2 -340 2 -388 29 -361 9 9 12
97 10 358 l-2 345 217 -2 217 -3 -2 -70 c-3 -117 17 -406 30 -421 9 -11 41
-14 130 -14 l119 0 0 -450 0 -450 -361 0 -362 0 6 38 c4 20 9 108 13 194 6
143 5 158 -10 164 -35 13 -41 -12 -47 -202 -3 -101 -8 -186 -10 -188 -2 -2
-127 -6 -276 -8 l-273 -4 0 60 c0 105 -20 887 -24 962 l-4 71 83 6 c199 14
375 117 451 262 20 39 35 55 49 55 20 0 20 -6 17 -342z m751 334 c3 -4 3 -109
0 -235 l-6 -227 -102 0 -102 0 -6 68 c-4 37 -10 142 -13 235 l-7 167 116 0
c64 0 118 -3 120 -8z m267 -114 c0 -68 3 -174 7 -236 l6 -113 -114 3 -114 3
-7 145 c-3 80 -9 184 -12 233 l-7 87 121 0 120 0 0 -122z m402 -206 c-3 -346
3 -410 34 -367 13 17 15 72 12 358 l-3 337 31 0 c25 0 34 -6 44 -29 17 -42 99
-119 172 -164 92 -55 174 -78 304 -84 l112 -6 6 -376 c4 -207 8 -455 9 -551
l2 -175 -135 -6 c-74 -4 -219 -10 -322 -14 l-188 -7 0 155 c0 85 -3 175 -6
201 -6 40 -10 47 -28 44 -21 -3 -21 -7 -21 -201 l0 -197 -30 -4 c-28 -5 -528
-26 -587 -26 l-28 0 0 465 0 464 138 3 137 3 -3 220 c-1 121 -5 235 -8 253
l-5 32 183 0 183 0 -3 -328z m233 286 c57 -79 166 -128 343 -154 130 -20 135
-21 127 -34 -11 -18 -165 -11 -245 11 -89 24 -150 56 -205 107 -45 41 -85 90
-85 103 0 23 38 3 65 -33z m495 -1441 l0 -53 -482 -27 c-266 -16 -543 -33
-616 -38 -82 -6 -138 -7 -145 -1 -7 5 -33 17 -59 27 -44 16 -48 21 -48 50 l0
33 83 6 c125 8 1091 53 1185 55 l82 1 0 -53z m-1400 -26 l0 -61 -660 0 -660 0
0 53 c0 30 2 56 4 58 3 2 300 6 660 8 l656 3 0 -61z m1404 -133 c3 -35 7 -133
10 -219 5 -166 1 -185 -44 -209 -40 -21 -720 -74 -1041 -82 -112 -2 -130 5
-184 80 -35 48 -56 109 -76 222 -15 83 -21 240 -10 240 5 0 26 -7 47 -16 46
-19 141 -17 784 20 217 13 421 24 452 25 l56 1 6 -62z m-1406 18 c8 -8 3 -115
-9 -216 -12 -102 -32 -166 -62 -202 l-22 -26 -577 -3 c-559 -3 -578 -2 -599
17 -46 42 -50 62 -44 252 3 97 5 181 5 186 0 10 1298 2 1308 -8z"/>
<path d="M4036 7695 c-3 -8 4 -21 15 -29 19 -13 19 -14 -13 -19 -41 -8 -306
-27 -412 -30 -87 -2 -115 -21 -50 -33 75 -14 500 14 556 37 38 16 46 48 18 71
-28 23 -105 25 -114 3z"/>
</g>
</svg>
