<?xml version="1.0" standalone="no"?>
<!DOCTYPE svg PUBLIC "-//W3C//DTD SVG 20010904//EN"
 "http://www.w3.org/TR/2001/REC-SVG-20010904/DTD/svg10.dtd">
<svg version="1.0" xmlns="http://www.w3.org/2000/svg"
 width="720.000000pt" height="1117.000000pt" viewBox="0 0 720.000000 1117.000000"
 preserveAspectRatio="xMidYMid meet">

<g transform="translate(0.000000,1117.000000) scale(0.100000,-0.100000)"
fill="#000000" stroke="none">
<path d="M3720 9070 c-187 -9 -276 -30 -415 -95 -38 -18 -104 -41 -145 -50
-245 -57 -497 -239 -598 -432 -44 -86 -75 -118 -166 -171 -96 -57 -112 -114
-77 -269 16 -72 17 -89 5 -138 -14 -62 -11 -79 19 -112 18 -20 30 -23 103 -23
l83 0 5 -42 c9 -70 25 -297 36 -531 15 -316 39 -421 116 -523 34 -44 133 -116
200 -144 l49 -22 -90 -23 c-139 -35 -261 -89 -372 -162 -57 -39 -61 -47 -65
-136 l-3 -59 -57 -23 c-173 -70 -394 -283 -513 -495 -68 -120 -142 -304 -210
-515 -36 -115 -82 -255 -102 -310 -19 -55 -61 -174 -93 -265 -32 -91 -67 -189
-79 -218 -30 -75 -28 -86 24 -116 25 -15 45 -29 45 -31 0 -2 -23 -8 -52 -15
-70 -14 -183 -70 -235 -114 -111 -96 -124 -251 -29 -363 40 -47 165 -127 236
-151 34 -12 97 -27 141 -33 70 -11 84 -10 114 4 57 27 57 58 -3 121 -81 86
-88 148 -26 244 4 6 129 -60 249 -132 130 -78 171 -87 231 -52 114 68 121 246
14 356 -29 30 -101 69 -127 70 -6 0 -23 4 -37 9 -33 13 -24 44 18 59 107 39
175 137 372 532 126 252 278 520 295 520 4 0 9 -28 13 -62 4 -35 14 -88 22
-118 15 -55 15 -56 -14 -121 -16 -36 -55 -103 -86 -150 -61 -91 -65 -112 -24
-156 15 -16 18 -29 14 -50 -8 -33 15 -290 44 -498 47 -341 70 -683 69 -1040
l-1 -220 -34 -37 c-45 -51 -47 -110 -5 -183 60 -105 309 -357 431 -438 133
-88 275 -103 506 -53 283 61 347 112 348 276 l0 75 75 -38 c276 -137 647 -52
760 175 33 66 39 121 17 153 -7 11 -17 34 -20 51 -4 18 -23 50 -42 72 l-35 41
11 193 c18 326 44 546 110 903 31 165 90 542 90 570 0 9 -11 27 -24 40 -14 14
-20 27 -15 30 34 21 -11 104 -113 211 l-40 42 65 194 c36 107 69 211 72 232 4
20 11 38 15 41 4 3 46 -39 93 -93 126 -144 270 -280 374 -352 l93 -64 -35 -29
c-121 -99 -68 -253 117 -342 165 -80 291 -66 275 29 l-5 34 105 -51 c88 -43
115 -51 159 -51 65 1 122 30 149 74 26 46 25 149 -2 210 -44 98 -169 182 -302
203 l-71 11 0 37 c0 20 -7 42 -15 49 -23 19 -184 224 -252 320 -88 125 -330
516 -408 660 -38 69 -80 143 -95 165 -15 22 -31 51 -35 65 -25 81 -220 201
-394 243 l-95 23 50 24 c61 30 126 89 157 143 55 95 71 192 87 512 6 116 15
269 20 340 6 72 10 167 10 213 l0 82 203 0 c223 0 250 6 255 54 5 40 -21 63
-99 86 -94 28 -101 41 -97 184 3 113 3 115 -27 158 -24 33 -48 52 -111 82
l-80 39 -49 96 c-53 103 -149 212 -235 266 -74 47 -174 93 -238 111 l-60 17
-7 54 c-5 39 -14 63 -35 86 l-28 32 -149 1 c-81 1 -213 -2 -293 -6z m131 -115
c-1 -33 -5 -75 -9 -93 l-7 -32 -35 23 c-81 54 -229 97 -331 97 -73 0 -52 16
54 39 119 27 135 29 241 27 l90 -1 -3 -60z m276 52 c1 -2 4 -46 6 -98 l2 -94
-114 -3 -113 -3 6 68 c4 37 9 86 12 107 l6 39 96 -6 c52 -4 97 -8 99 -10z
m-597 -121 c103 -17 153 -35 245 -85 65 -36 77 -39 182 -46 l113 -7 44 -72
c112 -179 165 -396 137 -562 l-12 -71 -187 -12 c-103 -7 -204 -15 -224 -18
l-38 -6 0 55 c0 177 -97 306 -248 330 -164 25 -299 -37 -358 -164 -25 -56 -29
-74 -29 -160 0 -60 -4 -98 -10 -99 -32 -3 -294 2 -371 7 l-92 6 -12 112 c-12
105 -25 149 -52 188 -28 39 56 208 156 315 129 139 371 263 571 292 87 12 92
12 185 -3z m870 -131 c75 -38 165 -109 202 -159 33 -45 102 -184 113 -229 6
-22 2 -34 -16 -53 -18 -19 -29 -55 -49 -151 l-25 -125 -134 1 c-74 1 -138 4
-143 7 -4 3 -8 42 -8 87 -1 199 -51 386 -146 542 l-42 70 27 6 c39 8 51 17 51
38 0 10 3 20 6 24 8 7 96 -24 164 -58z m-840 -407 c50 -26 86 -73 96 -126 4
-19 3 -78 -2 -131 l-9 -96 -145 -12 c-231 -18 -226 -19 -240 20 -21 60 -24
149 -6 209 37 127 189 195 306 136z m1341 -56 c39 -35 47 -91 26 -207 -12 -72
-16 -80 -35 -77 -12 2 -50 6 -84 10 l-63 7 0 105 c1 158 15 190 86 190 28 0
47 -7 70 -28z m-2331 -62 c11 -20 36 -247 29 -254 -2 -2 -30 -6 -62 -10 l-58
-6 -13 32 c-14 33 -21 101 -18 166 4 67 96 121 122 72z m2173 -264 c59 -8 110
-15 112 -17 2 -2 -128 -4 -288 -4 -251 0 -724 -15 -937 -30 -44 -3 -57 -1 -40
5 14 4 149 18 300 29 151 12 293 23 315 24 115 10 442 5 538 -7z m267 -74 c54
-8 54 -8 20 -15 -97 -19 -327 -28 -855 -34 -540 -5 -1655 10 -1690 23 -8 4
-15 11 -15 17 0 7 31 8 93 3 418 -30 838 -27 1492 9 249 14 850 12 955 -3z
m-314 -98 c-6 -16 -17 -181 -36 -569 -22 -438 -30 -477 -124 -571 -75 -75
-168 -116 -336 -150 -271 -54 -552 -57 -849 -8 -414 68 -587 175 -645 399 -16
64 -31 299 -42 661 l-7 221 769 8 c658 6 877 10 1223 23 45 2 52 0 47 -14z
m-1192 -1395 c162 -15 496 -7 626 16 67 11 101 13 115 6 11 -6 32 -15 48 -21
31 -11 34 -26 11 -58 -51 -73 -373 -126 -631 -104 -209 18 -336 60 -424 139
-74 67 -71 72 34 52 51 -10 150 -23 221 -30z m-408 -33 c64 -64 196 -136 305
-166 158 -43 296 -44 557 -5 56 9 148 20 203 25 139 13 177 25 221 70 30 30
38 45 38 74 0 31 3 36 18 32 9 -2 44 -11 77 -20 121 -30 315 -124 315 -152 0
-13 -10 -16 -145 -38 -486 -81 -1220 -171 -1491 -183 -156 -7 -214 2 -301 46
-58 29 -312 211 -313 224 0 11 136 72 207 93 68 20 210 52 237 53 10 1 43 -23
72 -53z m-496 -212 c0 -6 -68 4 -81 12 -5 3 -9 16 -9 30 l0 25 45 -31 c25 -17
45 -33 45 -36z m2225 -56 c-28 -250 -88 -531 -166 -783 -38 -122 -144 -402
-158 -417 -14 -16 -432 -130 -631 -172 -176 -38 -684 -105 -697 -93 -9 10 -86
358 -138 625 -28 144 -51 299 -60 405 -8 95 -17 193 -19 220 l-5 47 102 0 c56
0 149 7 207 15 58 8 193 23 300 35 303 32 701 87 975 134 138 24 261 44 273
45 23 1 24 0 17 -61z m-2190 -29 c52 -15 119 -82 134 -134 6 -22 11 -69 11
-105 0 -148 -56 -276 -207 -476 -160 -212 -375 -539 -473 -717 -23 -42 -50
-81 -59 -87 -10 -5 -64 -21 -122 -35 -114 -30 -240 -42 -314 -31 -42 7 -46 10
-42 29 35 158 135 477 227 722 148 396 346 657 594 782 116 59 179 72 251 52z
m2319 -76 c71 -150 250 -428 419 -653 65 -85 116 -159 114 -165 -5 -17 -96
-74 -135 -85 -20 -5 -63 -10 -94 -10 -50 0 -62 4 -94 33 -58 50 -127 125 -210
228 -42 52 -88 108 -104 124 l-28 30 34 155 c18 85 41 206 51 268 9 61 20 112
23 112 3 0 14 -17 24 -37z m-2086 -380 c40 -183 60 -280 117 -578 36 -181 63
-330 61 -332 -6 -6 -133 116 -201 194 -68 78 -73 86 -95 175 -13 51 -36 131
-52 177 -15 47 -28 90 -28 97 0 7 26 54 59 104 32 49 71 119 87 155 16 35 31
65 34 65 3 0 11 -26 18 -57z m2710 -540 c51 -65 56 -82 36 -105 -22 -23 -66
-43 -145 -63 -71 -19 -90 -11 -157 58 l-44 44 58 8 c77 9 155 39 184 70 13 14
27 25 31 25 4 0 21 -17 37 -37z m-2791 -245 c51 -54 176 -176 231 -224 l33
-29 -19 -45 c-10 -25 -30 -73 -43 -108 -13 -34 -27 -61 -31 -60 -11 4 -313
256 -333 278 -17 19 -16 22 23 82 22 35 51 84 63 111 13 26 24 47 26 47 1 0
24 -23 50 -52z m3053 42 c20 -6 15 -8 -26 -9 -95 -2 -209 -48 -266 -108 -42
-44 -71 -119 -64 -163 3 -21 9 -45 12 -54 3 -9 2 -16 -3 -16 -21 0 -106 65
-129 99 -56 82 -9 181 86 181 51 0 123 20 180 49 44 23 68 29 120 29 36 0 76
-4 90 -8z m-1236 -114 c25 -36 46 -69 46 -74 0 -5 -69 -27 -152 -47 -84 -21
-259 -69 -388 -107 -129 -38 -329 -91 -445 -118 -265 -62 -595 -122 -595 -107
0 2 11 29 24 60 14 30 32 79 41 109 l15 54 113 18 c61 9 195 35 297 57 102 22
273 58 380 80 248 50 497 106 552 124 24 7 48 13 55 14 6 1 32 -28 57 -63z
m1384 29 c82 -44 112 -128 77 -212 -16 -38 -41 -62 -63 -63 -10 0 -8 10 7 34
56 90 -7 189 -137 217 -85 18 -176 -10 -221 -67 -27 -34 -27 -104 -2 -159 14
-28 16 -45 10 -57 -14 -26 -25 -22 -52 15 -41 54 -49 77 -48 134 1 85 40 134
140 175 37 15 66 18 142 15 82 -3 103 -8 147 -32z m-68 -80 c65 -34 88 -102
54 -167 -14 -28 -19 -30 -54 -25 -20 2 -81 24 -134 48 -91 41 -96 46 -91 69 8
32 22 49 60 72 37 22 124 24 165 3z m-1205 -132 c-23 -56 -77 -423 -120 -818
-39 -353 -35 -335 -58 -347 -11 -6 -102 -39 -201 -73 -100 -35 -211 -74 -247
-88 -37 -14 -79 -27 -95 -29 l-28 -3 3 60 c1 33 6 97 11 143 5 46 15 177 22
292 l12 209 31 7 c37 7 115 51 115 64 0 15 -37 12 -145 -14 -55 -13 -116 -26
-135 -30 -19 -3 -50 -15 -67 -26 l-33 -20 0 -92 c-1 -108 -26 -628 -32 -633
-6 -6 -283 -107 -358 -131 -86 -28 -237 -60 -326 -70 l-61 -6 -7 28 c-3 16 -9
166 -12 334 -5 265 -3 334 15 522 12 120 21 245 21 278 0 40 4 62 13 64 6 2
62 12 122 21 141 21 226 42 515 122 129 36 336 87 460 114 124 28 286 66 360
86 187 49 193 51 214 52 13 1 16 -3 11 -16z m-2073 -91 c4 -10 243 -221 276
-244 20 -14 22 -19 12 -37 -22 -42 -31 -248 -26 -601 3 -195 9 -407 12 -470
l7 -114 -64 53 c-35 30 -81 68 -102 86 l-38 33 -24 248 c-13 137 -29 353 -35
479 -11 236 -27 471 -37 538 -3 23 -2 37 5 37 6 0 12 -4 14 -8z m-637 -69
c-16 -86 -74 -156 -143 -170 -20 -4 -98 -8 -172 -8 -104 1 -144 5 -172 17 -21
10 -38 21 -38 27 0 8 40 121 46 129 1 2 42 -1 91 -8 102 -14 240 -2 326 29 71
25 70 26 62 -16z m-270 -312 c28 -7 25 -9 -40 -30 -93 -29 -221 -92 -268 -131
-21 -18 -51 -55 -67 -84 -36 -62 -39 -130 -11 -211 l19 -54 -47 23 c-72 37
-149 102 -171 146 -68 134 43 285 248 334 60 15 284 19 337 7z m221 -60 c81
-37 119 -134 90 -234 -17 -59 -44 -87 -84 -87 -32 0 -37 22 -13 61 71 116 -42
209 -219 182 -79 -13 -172 -52 -214 -91 -81 -76 -74 -195 15 -282 51 -50 48
-76 -8 -67 -21 4 -49 15 -63 25 -61 44 -98 198 -67 272 35 82 178 177 332 221
81 24 179 24 231 0z m-119 -120 c60 -28 71 -53 43 -107 -12 -24 -23 -44 -26
-44 -2 0 -33 18 -68 40 -36 21 -88 51 -116 65 -29 15 -50 29 -47 32 3 2 23 11
44 18 54 20 121 18 170 -4z m2089 -98 c-3 -16 -10 -122 -16 -238 -24 -461 -60
-856 -81 -900 l-10 -20 7 20 c3 11 10 162 14 335 10 373 36 702 62 793 13 43
32 51 24 10z m606 -562 c-11 -30 -100 -66 -307 -126 -82 -24 -177 -52 -209
-64 -33 -11 -61 -19 -63 -17 -2 2 -1 22 3 44 6 35 12 44 48 63 22 12 115 44
206 71 90 27 201 61 245 76 l80 27 3 -25 c2 -14 -1 -36 -6 -49z m-22 -137 c0
-15 -14 -108 -26 -169 -3 -18 -11 -20 -107 -20 -96 0 -108 -3 -169 -33 -78
-38 -149 -110 -184 -187 l-25 -55 -31 16 c-28 14 -30 19 -24 52 3 21 6 83 6
138 l0 101 68 30 c37 17 150 52 251 77 102 26 192 51 200 56 24 14 41 12 41
-6z m-775 -66 c-4 -24 -10 -46 -14 -50 -25 -28 -617 -218 -677 -218 -24 0 -34
23 -34 77 0 30 4 33 43 43 237 62 567 154 605 169 77 31 85 28 77 -21z m-900
-51 c39 -33 73 -62 77 -66 13 -12 19 -91 7 -91 -6 0 -49 37 -95 82 -73 70 -84
86 -84 115 0 41 0 41 95 -40z m885 -252 c0 -85 -2 -155 -4 -155 -2 0 -30 12
-62 27 -49 22 -77 27 -168 31 -173 7 -287 -30 -377 -123 l-46 -47 -16 108
c-10 59 -16 108 -15 109 29 21 623 201 676 204 9 1 12 -36 12 -154z m-790 -90
c0 -33 3 -85 6 -115 8 -70 2 -65 -100 89 -75 113 -76 116 -76 179 l0 64 85
-79 84 -78 1 -60z m1553 196 c66 -16 127 -93 127 -162 0 -185 -358 -280 -577
-153 -48 28 -56 44 -18 36 33 -6 51 11 60 55 13 73 75 156 144 192 64 35 188
49 264 32z m-1598 -461 c98 -136 165 -202 243 -238 48 -22 76 -27 172 -32 114
-5 114 -5 50 -13 -84 -9 -167 6 -248 45 -150 74 -455 425 -428 494 7 18 60
-46 211 -256z m709 186 c71 -22 114 -55 132 -103 51 -131 -84 -252 -317 -286
-129 -18 -256 17 -319 90 l-29 32 22 53 c38 92 162 191 273 217 61 14 186 12
238 -3z m375 -77 c99 -60 153 -74 291 -73 110 0 133 3 190 26 36 14 74 29 85
33 11 4 2 -5 -20 -21 -160 -113 -427 -103 -562 21 -57 52 -52 56 16 14z m-274
-298 c-8 -14 -110 -50 -187 -66 -105 -23 -104 -16 1 11 51 13 112 33 135 43
47 22 60 25 51 12z"/>
<path d="M3941 7751 c-45 -45 -51 -168 -12 -221 34 -47 92 -34 117 25 18 44
18 83 -2 142 -24 73 -64 93 -103 54z"/>
<path d="M4331 7751 c-48 -48 -33 -220 21 -236 10 -4 27 -4 37 0 34 11 55 107
39 179 -16 72 -58 96 -97 57z"/>
<path d="M4441 7076 c-7 -8 -28 -46 -46 -84 -41 -86 -85 -137 -146 -167 -104
-53 -190 -39 -283 45 -48 44 -81 100 -109 182 -16 45 -107 23 -107 -25 0 -42
52 -129 115 -193 137 -140 296 -163 438 -65 80 54 192 230 185 288 -3 32 -29
41 -47 19z"/>
</g>
</svg>
