<?xml version="1.0" standalone="no"?>
<!DOCTYPE svg PUBLIC "-//W3C//DTD SVG 20010904//EN"
 "http://www.w3.org/TR/2001/REC-SVG-20010904/DTD/svg10.dtd">
<svg version="1.0" xmlns="http://www.w3.org/2000/svg"
 width="720.000000pt" height="1117.000000pt" viewBox="0 0 720.000000 1117.000000"
 preserveAspectRatio="xMidYMid meet">
<metadata>
Created by potrace 1.16, written by Peter Selinger 2001-2019
</metadata>
<g transform="translate(0.000000,1117.000000) scale(0.100000,-0.100000)"
fill="#000000" stroke="none">
<path d="M1868 9063 c-24 -28 -77 -204 -98 -330 -50 -292 -8 -586 126 -872 30
-63 42 -101 38 -117 -10 -40 15 -91 68 -139 27 -25 54 -45 58 -45 4 0 31 -27
60 -60 l52 -60 -26 -30 c-66 -79 -90 -280 -46 -393 47 -124 172 -227 276 -227
l44 0 0 -57 c0 -54 19 -165 35 -205 5 -12 2 -18 -8 -18 -24 0 -169 -77 -212
-112 -38 -32 -43 -33 -130 -35 -192 -3 -371 -108 -451 -265 -50 -99 -66 -158
-71 -275 l-6 -113 -36 -27 c-81 -62 -279 -255 -292 -284 -10 -25 -10 -38 -1
-62 10 -27 9 -33 -5 -41 -9 -5 -96 -82 -193 -171 -311 -287 -355 -347 -355
-490 0 -141 75 -295 162 -331 59 -25 148 -11 181 28 9 11 25 14 61 10 52 -5
111 10 151 39 16 10 44 17 72 17 25 0 59 7 76 16 36 19 80 69 88 102 7 28 -12
81 -33 93 -11 6 4 26 64 88 63 65 94 87 165 121 119 58 168 123 168 226 0 39
3 43 43 63 38 19 135 88 246 178 24 19 55 38 68 41 55 14 148 -75 173 -166 33
-121 35 -412 4 -620 -22 -147 -19 -200 11 -232 l26 -28 -25 -37 c-40 -61 -154
-343 -161 -399 -6 -40 -1 -78 19 -160 58 -241 85 -372 91 -439 4 -38 9 -77 11
-86 3 -11 -11 -22 -46 -38 -28 -13 -65 -35 -82 -49 -68 -57 -148 -222 -148
-304 0 -58 35 -124 84 -160 48 -36 213 -116 306 -148 81 -28 263 -39 349 -20
81 17 204 80 296 150 44 34 152 116 241 182 88 66 171 135 183 154 33 48 27
134 -14 195 -23 36 -28 53 -26 94 2 40 -4 63 -27 107 -41 77 -102 158 -189
249 -40 42 -73 80 -73 84 0 13 91 138 134 183 74 79 128 92 177 43 29 -29 29
-30 29 -154 0 -178 15 -273 66 -408 60 -161 84 -254 93 -362 8 -91 8 -92 -17
-111 -41 -32 -85 -141 -88 -216 -1 -36 -9 -82 -18 -102 -81 -188 140 -425 436
-469 172 -25 424 29 567 120 63 41 123 106 154 168 27 52 67 178 92 286 17 75
20 183 6 191 -5 3 -7 41 -4 84 4 66 2 86 -21 146 -34 90 -72 156 -146 251 -33
43 -60 86 -60 96 0 10 19 55 41 99 38 74 42 90 47 174 6 111 -9 203 -49 306
l-29 76 20 42 c32 66 27 139 -22 289 -40 123 -41 133 -42 263 0 128 1 139 31
218 59 154 183 351 234 373 26 10 38 7 121 -35 66 -33 122 -52 193 -67 136
-28 195 -57 225 -111 12 -24 27 -48 32 -55 6 -7 12 -34 13 -60 4 -50 117 -353
161 -432 31 -55 30 -61 -4 -61 -54 0 -163 -63 -224 -129 -56 -59 -82 -107
-173 -308 -62 -136 -48 -197 52 -222 89 -23 181 15 261 108 45 51 58 61 86 61
58 0 77 -36 108 -205 29 -160 24 -193 -45 -294 -74 -109 -86 -146 -63 -205 44
-116 170 -155 292 -90 40 21 50 23 90 14 90 -20 212 19 331 107 29 21 71 49
94 63 49 30 131 125 163 189 13 25 36 91 51 145 37 134 32 181 -45 405 -60
179 -98 322 -97 376 0 72 -26 271 -53 405 -46 229 -134 484 -250 724 -148 305
-340 470 -645 552 -86 23 -126 27 -282 31 l-183 5 0 26 c0 50 -72 102 -244
176 -87 37 -204 81 -260 98 -55 17 -103 32 -105 33 -1 2 9 19 23 38 32 42 82
151 91 199 6 33 10 36 47 41 60 8 160 61 223 119 96 87 195 252 195 324 0 11
13 45 29 75 16 30 37 81 47 114 10 35 34 79 55 106 121 147 236 356 294 534
61 186 70 248 69 475 0 204 0 206 -37 343 -43 160 -69 227 -91 227 -33 0 -56
-63 -107 -289 -16 -74 -38 -146 -48 -160 -44 -62 -100 -192 -127 -294 -9 -36
-32 -81 -60 -120 -55 -74 -88 -136 -104 -197 -6 -25 -23 -60 -36 -77 -50 -66
-164 -123 -251 -126 l-46 -2 3 85 c5 134 4 142 -19 161 -12 10 -26 19 -31 21
-6 2 -6 27 0 68 19 138 40 392 33 418 -23 95 -89 119 -428 159 -221 26 -1291
26 -1470 1 -157 -23 -236 -50 -287 -99 l-41 -38 8 -73 c4 -40 8 -144 10 -230
2 -87 6 -167 10 -178 5 -15 0 -23 -18 -31 -14 -6 -29 -21 -35 -33 -9 -20 -10
-20 -21 9 -22 56 -53 110 -94 165 -28 37 -49 81 -65 134 -27 93 -72 200 -113
265 -19 31 -36 86 -54 166 -27 125 -35 156 -67 243 -20 55 -35 63 -60 35z
m3561 -285 c21 -277 -25 -593 -124 -848 -51 -135 -169 -360 -187 -360 -4 0 -8
15 -8 33 0 38 -16 71 -23 47 -35 -118 -61 -186 -91 -236 -36 -63 -78 -109 -62
-69 44 107 45 174 3 250 l-25 44 49 29 c74 42 156 113 170 146 9 21 10 36 2
56 -10 25 -8 29 12 34 32 8 37 29 24 104 -16 91 -6 276 22 382 34 135 41 130
34 -26 -7 -155 -2 -197 24 -192 29 6 112 437 152 794 3 30 20 -80 28 -188z
m-3538 16 c18 -141 82 -484 110 -586 11 -44 36 -50 45 -12 4 15 4 90 0 168 -7
155 0 161 35 29 24 -91 36 -311 22 -389 -11 -58 -3 -90 25 -98 49 -16 72 30
72 143 0 35 3 62 6 58 11 -11 23 -151 15 -187 l-7 -34 -64 -2 c-36 -2 -84 -8
-108 -15 -23 -6 -44 -10 -46 -8 -2 2 -17 40 -34 84 -39 103 -76 237 -97 350
-23 122 -32 463 -15 579 7 48 14 85 17 83 2 -3 13 -76 24 -163z m2219 -177
c235 -26 301 -38 323 -60 19 -19 19 -28 13 -151 -6 -118 -16 -209 -32 -288
l-6 -28 -108 0 -109 0 -64 49 c-93 70 -173 95 -291 89 -105 -5 -179 -34 -244
-95 l-37 -36 -177 7 -178 7 -51 35 c-76 51 -143 67 -258 62 -113 -5 -184 -31
-231 -84 -27 -31 -34 -34 -85 -34 l-55 0 0 50 c0 27 -9 95 -20 150 -32 168
-35 216 -15 246 9 14 32 32 50 40 46 19 198 44 325 54 174 13 1094 4 1250 -13z
m-153 -482 c107 -32 171 -105 180 -204 21 -228 -268 -298 -458 -112 -41 40
-60 68 -69 99 -23 87 13 161 99 205 44 22 68 27 126 27 39 0 94 -7 122 -15z
m-931 -16 c65 -24 134 -83 158 -133 49 -103 -24 -211 -169 -251 -98 -28 -197
-7 -270 56 -75 66 -86 144 -34 248 26 52 39 67 73 82 58 26 168 25 242 -2z
m377 -105 c53 -3 97 -10 97 -14 0 -4 -3 -21 -6 -38 l-6 -30 -92 -4 c-50 -3
-98 -8 -107 -12 -14 -6 -18 0 -21 36 -3 24 -8 51 -13 62 -7 16 -4 18 21 13 16
-4 73 -9 127 -13z m-827 -82 l0 -79 -52 13 c-29 6 -57 15 -63 19 -6 3 -11 33
-11 66 l0 59 63 0 63 0 0 -78z m1954 13 l0 -65 -145 0 -145 0 0 38 c0 20 -3
47 -6 59 -6 22 -4 22 92 26 55 1 123 4 152 5 l52 2 0 -65z m-990 -142 c64 -82
184 -132 336 -140 133 -8 194 11 269 79 l54 49 123 2 123 2 0 -54 0 -54 -75
-31 c-57 -24 -75 -36 -75 -51 0 -13 8 -21 21 -23 12 -2 106 28 210 66 221 82
389 135 406 130 24 -8 -134 -92 -272 -144 -219 -84 -706 -173 -1110 -205 -167
-13 -457 -8 -600 11 -237 30 -707 146 -805 198 -51 28 -98 84 -93 111 6 29 49
42 117 36 58 -5 147 -34 177 -57 13 -10 7 -48 -8 -48 -5 0 -50 19 -99 42 -88
41 -127 44 -79 7 47 -36 195 -107 278 -133 280 -88 689 -106 1257 -56 327 28
424 44 403 65 -4 4 -100 -1 -215 -12 -161 -14 -300 -18 -618 -18 -412 0 -475
4 -689 42 l-88 15 6 37 c3 20 6 53 6 74 l0 37 63 0 c50 0 68 -4 81 -19 9 -10
44 -31 77 -46 165 -74 346 -49 476 65 53 46 56 47 205 49 116 1 117 1 138 -26z
m1276 -258 c31 -74 16 -144 -49 -230 -28 -37 -189 -197 -193 -192 -1 1 13 49
32 106 38 116 45 206 19 255 -9 16 -13 32 -9 35 7 8 155 59 172 60 7 1 20 -15
28 -34z m-292 -87 c7 -40 -1 -75 -43 -193 -32 -89 -32 -92 -35 -300 -3 -224
-7 -249 -61 -356 -41 -79 -147 -180 -236 -222 -215 -102 -499 -142 -844 -118
-372 25 -585 90 -682 209 -64 78 -74 125 -78 352 -2 107 -7 245 -10 307 -7
111 -7 113 24 174 20 41 29 70 25 85 -7 29 -33 28 251 5 127 -11 317 -23 424
-27 l194 -7 -34 -28 c-49 -40 -30 -53 42 -29 115 39 239 43 312 9 34 -16 44
-6 30 31 l-11 29 57 6 c210 21 342 41 479 70 200 42 189 41 196 3z m-2030 -33
c34 -31 33 -60 -5 -115 -53 -79 -72 -124 -78 -185 l-7 -60 -18 35 c-44 81 -39
158 15 239 24 35 30 52 26 78 -5 29 -3 33 17 33 13 0 35 -11 50 -25z m-121
-36 c8 -13 4 -24 -18 -50 -43 -52 -65 -108 -65 -169 0 -73 25 -124 89 -183 42
-40 51 -54 51 -82 0 -34 -1 -35 -38 -35 -64 0 -135 59 -174 145 -50 111 -16
321 62 373 38 25 77 26 93 1z m2531 -130 c14 -70 -46 -180 -152 -281 -47 -46
-144 -108 -167 -108 -3 0 -5 13 -5 30 0 25 9 35 58 66 113 71 166 143 160 214
-3 35 1 41 42 74 25 19 48 35 51 35 4 1 9 -13 13 -30z m-2252 -938 c35 -16 91
-38 125 -48 68 -19 68 -19 54 -56 -8 -21 -29 -31 -123 -62 -197 -66 -374 -167
-496 -284 -59 -57 -63 -59 -71 -38 -31 84 -18 212 31 317 39 81 155 198 253
256 l69 40 48 -47 c26 -26 76 -61 110 -78z m1789 60 c101 -34 289 -111 359
-146 l50 -25 -24 -38 c-42 -67 -113 -223 -159 -352 -50 -138 -80 -287 -81
-397 -1 -45 -5 -73 -12 -73 -17 0 -127 119 -268 290 -215 260 -329 366 -482
447 l-86 46 72 38 c40 21 82 47 94 57 12 12 55 27 106 37 47 9 112 26 145 37
62 20 180 81 190 98 8 13 -2 15 96 -19z m-2341 -116 c0 -3 -13 -29 -29 -58
-49 -88 -66 -153 -65 -252 0 -117 27 -197 106 -316 l59 -91 -26 -53 c-17 -36
-55 -81 -113 -137 -86 -81 -231 -188 -257 -188 -7 0 -43 14 -81 31 -38 18
-127 56 -198 85 -117 48 -145 65 -146 86 0 8 197 202 211 206 5 2 9 -5 9 -15
0 -20 18 -43 33 -43 19 0 59 116 82 241 41 222 72 304 148 386 43 47 130 97
195 112 44 11 72 13 72 6z m1110 -56 c143 -10 280 -8 420 7 71 8 62 -1 -65
-64 -164 -81 -221 -97 -355 -97 -129 0 -174 14 -243 75 -30 26 -37 39 -37 67
l0 36 63 -7 c34 -3 132 -11 217 -17z m-355 -99 c44 -65 177 -110 332 -110 155
0 282 21 399 67 l60 24 75 -35 c189 -86 363 -242 551 -491 133 -175 231 -275
306 -311 32 -15 59 -29 61 -30 1 -2 -11 -20 -27 -41 -45 -56 -98 -167 -123
-258 -35 -122 -33 -329 4 -482 15 -61 27 -136 27 -165 0 -61 -29 -134 -57
-141 -131 -37 -351 -73 -546 -88 -192 -15 -464 1 -680 42 -252 47 -613 178
-720 263 -17 13 -17 22 -2 175 27 285 15 543 -31 686 -27 81 -59 139 -185 332
-66 100 -119 186 -119 191 0 15 151 155 222 207 99 72 359 193 418 195 8 0 24
-13 35 -30z m2598 -64 c232 -51 410 -182 542 -400 180 -298 304 -698 322
-1038 l6 -117 -34 -5 c-38 -5 -306 -33 -414 -42 -80 -7 -116 4 -140 40 -9 14
-39 80 -67 148 -27 68 -67 161 -89 208 -51 108 -53 144 -11 181 36 32 99 53
212 70 146 21 151 59 7 59 -103 0 -175 -16 -241 -53 -45 -25 -45 -25 -63 -5
-25 29 -150 89 -273 133 -148 53 -215 89 -280 151 -126 120 -156 290 -83 474
51 127 117 193 210 210 68 13 315 4 396 -14z m-3949 -876 c92 -44 178 -83 192
-86 40 -10 48 -37 26 -87 -19 -42 -55 -76 -137 -129 -23 -14 -68 -60 -100
-103 -68 -88 -112 -117 -189 -122 -71 -5 -80 3 -61 56 32 91 9 251 -36 251
-17 0 -19 -8 -19 -64 0 -56 -5 -75 -40 -142 -22 -43 -40 -87 -40 -98 1 -27 28
-59 67 -79 67 -35 45 -112 -38 -133 l-44 -11 -6 48 c-4 26 -16 68 -28 92 -21
43 -76 105 -86 96 -2 -3 4 -29 15 -57 49 -129 0 -255 -77 -194 -31 25 -78 108
-102 180 -18 54 -20 69 -10 105 15 58 56 113 130 177 123 105 399 362 399 371
0 16 15 10 184 -71z m4850 -865 c3 -50 16 -105 46 -190 63 -180 88 -267 101
-356 10 -69 9 -86 -5 -123 -9 -24 -28 -53 -41 -66 l-25 -23 0 91 c0 123 -18
123 -47 0 -28 -116 -70 -203 -133 -272 -45 -48 -120 -96 -152 -96 -6 0 6 17
26 38 21 20 50 57 64 82 24 40 27 55 26 130 0 55 -9 114 -23 168 -30 105 -46
119 -37 29 9 -86 -8 -189 -42 -250 -36 -67 -122 -143 -228 -202 -93 -52 -131
-59 -186 -37 -21 9 -28 18 -28 39 0 22 17 44 79 103 100 95 114 117 114 183 0
41 -13 85 -63 212 -36 89 -77 173 -93 192 -75 85 -226 66 -361 -45 -53 -44
-94 -58 -114 -38 -17 17 6 62 76 152 26 33 71 95 100 137 59 86 123 140 196
162 59 18 144 19 198 3 48 -14 70 0 50 33 -13 20 -11 20 243 17 l256 -3 3 -70z
m-3709 -151 c101 -41 280 -88 491 -129 l141 -28 -75 -111 c-107 -158 -144
-240 -150 -332 -4 -71 5 -104 29 -104 4 0 22 29 40 65 18 36 36 68 40 71 12 7
83 -119 120 -211 58 -145 51 -198 -33 -251 -107 -68 -264 -102 -387 -84 -80
12 -238 57 -315 90 l-46 19 0 74 c0 90 -17 150 -82 286 -28 58 -53 124 -55
146 -3 31 10 80 55 210 33 94 73 207 88 252 16 45 34 81 39 78 6 -2 51 -21
100 -41z m1866 -221 c31 -83 33 -95 33 -218 0 -71 -3 -176 -8 -232 l-9 -102
57 -113 c62 -124 86 -212 86 -321 0 -72 -13 -83 -25 -20 -14 79 -71 180 -145
258 -75 80 -100 123 -100 178 0 18 16 89 35 157 27 96 35 143 35 206 0 88 -24
186 -60 239 -26 40 -26 43 13 48 17 2 37 5 44 5 6 1 26 -37 44 -85z m-207 11
c61 -109 71 -238 36 -447 -25 -146 -19 -187 46 -302 75 -134 115 -223 130
-293 22 -104 21 -108 -27 -116 -218 -35 -539 -19 -578 28 -21 25 -129 286
-144 347 -9 36 -21 126 -27 198 -5 73 -12 137 -15 142 -4 5 -10 91 -14 192 -6
130 -13 193 -25 221 -9 21 -16 39 -16 41 0 1 107 5 238 9 130 4 262 11 292 15
30 5 60 9 67 10 6 0 23 -20 37 -45z m-1908 -945 c-69 -74 -116 -153 -116 -195
0 -38 30 -67 100 -100 74 -34 115 -32 154 9 17 18 37 51 44 73 22 63 71 138
107 163 l34 23 52 -29 c72 -39 93 -70 92 -136 -1 -28 -9 -69 -18 -91 -36 -86
6 -87 179 -2 179 88 325 214 358 307 10 30 12 31 25 14 26 -36 16 -62 -39
-106 -29 -23 -102 -89 -163 -147 -162 -156 -237 -199 -409 -237 -178 -40 -474
21 -573 117 -43 42 -43 85 -2 185 34 79 77 144 120 175 26 20 101 49 108 42 2
-2 -22 -31 -53 -65z m814 -38 c0 -12 -125 -127 -182 -168 l-45 -32 5 47 c4 41
-9 88 -35 132 -2 3 36 6 85 8 48 1 103 7 122 11 48 12 50 12 50 2z m1473 -288
c-19 -73 -51 -136 -103 -201 -41 -52 -60 -59 -60 -21 0 36 -48 116 -95 156
l-45 41 88 17 c48 9 114 27 147 40 87 33 85 33 68 -32z m-773 -8 c0 -3 -16
-27 -35 -54 -19 -26 -42 -67 -50 -91 -18 -52 -20 -124 -2 -138 12 -10 108 -26
239 -39 44 -4 59 -3 62 8 2 8 16 66 31 129 28 122 44 150 82 150 66 0 134 -75
173 -189 20 -61 31 -78 53 -89 42 -20 73 -8 145 61 l65 62 -38 -72 c-46 -88
-95 -135 -189 -178 -180 -83 -469 -99 -615 -34 -197 87 -203 329 -12 451 39
24 91 38 91 23z m178 -29 c1 -2 -5 -20 -14 -42 -9 -21 -19 -74 -22 -116 -2
-43 -8 -78 -11 -78 -3 1 -33 6 -66 13 -54 11 -60 15 -63 39 -4 35 26 101 69
155 31 39 37 42 69 37 19 -3 36 -7 38 -8z"/>
<path d="M3791 8090 c-71 -26 -98 -44 -121 -83 -55 -90 9 -182 159 -232 122
-40 207 -17 250 68 76 154 -109 314 -288 247z m156 -88 c61 -33 72 -120 24
-174 -24 -27 -36 -33 -70 -32 -80 2 -150 78 -137 148 6 32 37 69 65 78 21 6
92 -6 118 -20z"/>
<path d="M2842 8101 c-93 -24 -144 -161 -89 -242 66 -98 241 -117 324 -34 42
42 44 90 6 165 -39 76 -89 113 -155 116 -29 2 -68 -1 -86 -5z m143 -70 c79
-36 101 -96 54 -147 -52 -56 -117 -69 -162 -34 -61 48 -54 149 13 182 43 22
45 22 95 -1z"/>
<path d="M3137 7323 c-42 -11 -62 -119 -33 -187 45 -107 171 -96 183 16 7 62
-13 144 -40 163 -20 14 -72 18 -110 8z"/>
<path d="M3550 7312 c-62 -30 -94 -143 -60 -207 18 -34 74 -58 116 -51 95 18
125 205 41 256 -39 24 -53 25 -97 2z"/>
<path d="M3619 6990 c-1 -3 -7 -45 -13 -95 l-11 -90 -78 -9 c-60 -7 -139 -4
-335 13 -278 24 -306 22 -318 -23 -8 -33 25 -103 67 -143 19 -17 63 -43 98
-57 113 -46 209 -60 403 -61 l176 0 6 -35 c3 -19 6 -64 6 -100 0 -71 10 -96
33 -87 15 6 32 65 42 154 8 61 36 108 84 140 44 30 83 39 209 53 108 12 132
17 132 30 0 12 -55 19 -152 21 -49 1 -88 5 -88 10 0 5 10 29 22 54 31 63 21
70 -83 56 -45 -6 -97 -11 -115 -11 -35 0 -36 1 -49 101 -5 39 -31 95 -36 79z
m-69 -230 c0 -6 -27 -24 -61 -40 -45 -23 -84 -34 -152 -41 -51 -6 -94 -13 -96
-15 -12 -11 19 -17 126 -24 115 -8 193 -27 193 -49 0 -6 -20 -11 -44 -11 -25
0 -79 -5 -121 -11 -55 -7 -97 -7 -153 1 -121 19 -173 43 -231 106 -28 31 -51
61 -51 68 0 10 30 12 128 9 70 -2 177 0 237 5 154 12 225 13 225 2z m110 -34
c23 -25 97 -56 132 -56 28 0 13 -17 -22 -25 -34 -8 -100 -76 -100 -105 0 -32
-14 -23 -32 20 -17 41 -62 76 -110 87 -37 7 -35 20 3 28 17 4 45 22 62 40 18
19 35 34 38 34 3 1 16 -10 29 -23z"/>
<path d="M3115 5757 c-23 -19 -29 -37 -41 -122 -9 -55 -14 -133 -12 -173 l3
-74 -30 6 c-16 4 -59 20 -94 36 -69 33 -95 37 -108 18 -9 -15 -34 -133 -72
-350 -36 -204 -38 -200 101 -266 231 -110 486 -213 513 -206 14 3 27 9 29 13
2 3 29 121 60 261 32 140 59 262 61 270 4 13 18 15 76 12 114 -7 222 21 277
71 50 46 18 80 -88 94 -41 6 -110 24 -153 41 -145 59 -250 62 -362 13 -49 -22
-54 -18 -28 19 21 31 38 46 96 87 59 41 81 75 72 110 -9 37 -80 102 -147 136
-66 34 -118 35 -153 4z m114 -74 c45 -36 81 -72 81 -80 0 -2 -24 -27 -53 -56
-29 -29 -64 -74 -77 -102 l-25 -50 -8 60 c-9 64 -4 218 8 248 10 25 22 22 74
-20z m358 -337 c33 -13 85 -29 114 -36 109 -25 109 -26 64 -39 -63 -19 -195
-25 -271 -12 -81 14 -194 49 -194 61 0 7 76 43 115 53 34 9 110 -2 172 -27z
m-590 -38 c101 -50 257 -109 371 -138 23 -6 42 -15 42 -19 0 -5 -20 -96 -45
-202 -25 -106 -45 -197 -45 -201 0 -16 -28 -6 -245 87 -121 52 -226 95 -233
95 -15 0 -15 -10 3 150 8 74 18 170 21 213 3 43 9 77 12 75 4 -2 57 -29 119
-60z"/>
<path d="M2966 5169 c-3 -8 -14 -39 -26 -69 -25 -70 -25 -82 3 -107 28 -26
201 -86 226 -78 33 10 51 41 67 116 18 87 18 88 -86 120 -89 27 -178 36 -184
18z"/>
</g>
</svg>
