<?xml version="1.0" standalone="no"?>
<!DOCTYPE svg PUBLIC "-//W3C//DTD SVG 20010904//EN"
 "http://www.w3.org/TR/2001/REC-SVG-20010904/DTD/svg10.dtd">
<svg version="1.0" xmlns="http://www.w3.org/2000/svg"
 width="720.000000pt" height="1117.000000pt" viewBox="0 0 720.000000 1117.000000"
 preserveAspectRatio="xMidYMid meet">

<g transform="translate(0.000000,1117.000000) scale(0.100000,-0.100000)"
fill="#000000" stroke="none">
<path d="M3221 8908 c-69 -5 -130 -13 -138 -19 -8 -7 -13 -34 -13 -74 l0 -62
-77 -12 c-95 -15 -142 -37 -226 -106 -129 -107 -297 -339 -297 -412 0 -11 -9
-28 -21 -39 -31 -28 -61 -92 -61 -131 0 -18 8 -78 17 -133 l18 -99 58 -22 c43
-15 59 -27 59 -40 0 -18 64 -420 96 -605 8 -50 26 -114 39 -143 22 -48 23 -52
7 -58 -233 -83 -380 -171 -501 -299 -38 -41 -76 -74 -84 -74 -24 0 -109 -41
-167 -80 -139 -94 -218 -220 -227 -363 -5 -73 -10 -89 -44 -142 -57 -91 -144
-278 -178 -382 -41 -125 -75 -306 -67 -356 13 -78 70 -148 139 -169 27 -8 47
-24 67 -52 41 -60 124 -141 195 -192 59 -41 220 -124 243 -124 16 0 21 -24 33
-163 9 -118 8 -150 -11 -297 -15 -112 -28 -179 -43 -210 -13 -28 -23 -71 -25
-112 -4 -60 -1 -75 26 -131 60 -125 77 -212 77 -404 0 -166 -1 -172 -24 -197
-13 -13 -24 -38 -25 -54 -1 -26 -13 -38 -78 -81 -42 -29 -90 -68 -106 -89 -74
-93 -100 -200 -64 -258 49 -78 149 -88 887 -88 597 -1 625 1 676 48 13 12 38
32 56 44 19 13 38 41 49 68 17 44 17 48 0 98 -19 56 -22 85 -11 127 7 27 -4
58 -107 305 -19 44 -70 146 -115 225 -189 336 -199 377 -134 565 42 123 59
203 67 317 7 97 7 98 31 93 12 -4 44 -9 69 -13 37 -5 48 -11 57 -32 7 -14 92
-175 189 -358 97 -183 182 -352 188 -375 36 -141 127 -373 211 -541 16 -32 29
-64 29 -72 0 -7 22 -80 49 -160 l49 -147 -18 -41 c-28 -63 -33 -111 -20 -166
24 -103 63 -114 395 -114 333 0 881 44 986 79 25 8 56 25 68 38 29 31 52 130
42 179 -10 43 -50 114 -79 141 -12 10 -26 42 -32 71 -6 29 -28 80 -48 113 -44
70 -223 307 -304 403 -32 37 -58 74 -58 82 0 9 -11 29 -25 45 -14 17 -25 34
-25 38 0 5 -14 27 -30 48 -17 22 -30 43 -30 48 0 5 -18 33 -41 63 -37 49 -40
58 -34 94 7 43 0 54 -111 171 -44 47 -52 62 -57 105 -5 49 -121 406 -151 466
-14 27 -14 33 -1 46 18 17 19 25 5 39 -10 10 -62 136 -57 139 1 1 40 14 87 29
112 37 186 72 298 145 116 76 174 130 275 256 86 108 147 220 147 271 0 17 11
53 26 79 14 26 39 102 56 169 26 103 31 142 33 261 1 77 8 153 14 168 17 44
13 75 -24 177 -18 52 -58 163 -88 246 -29 83 -67 174 -82 202 -85 156 -275
241 -573 257 -174 9 -156 -5 -171 132 -15 142 -53 369 -81 489 -20 84 -20 88
-3 98 39 21 92 84 104 124 12 42 12 43 -21 77 -19 19 -34 43 -35 52 -5 55 -29
135 -46 157 -12 15 -31 26 -44 26 -17 0 -37 18 -73 63 -62 77 -222 233 -282
273 -99 67 -293 134 -389 134 -28 0 -51 4 -51 9 0 34 -108 113 -150 109 -8 0
-71 -5 -139 -10z m219 -88 c26 -37 31 -35 -135 -50 -71 -6 -142 -14 -157 -17
-27 -5 -28 -4 -28 35 0 22 -3 47 -6 56 -5 14 4 16 57 17 35 1 93 4 129 8 76 8
108 -3 140 -49z m166 -95 c-7 -26 10 -232 20 -260 5 -13 -7 -15 -89 -15 l-95
0 -7 38 c-9 47 -23 245 -18 255 2 4 47 7 100 7 l95 0 -6 -25z m-242 2 c-3 -8
2 -72 10 -142 8 -71 14 -130 13 -131 -1 -1 -50 -4 -109 -6 l-107 -3 -8 45 c-4
25 -7 88 -8 140 l0 95 45 6 c25 3 73 7 107 7 48 2 61 -1 57 -11z m421 -33 c45
-19 86 -34 93 -34 20 0 201 -169 277 -259 47 -56 84 -89 111 -101 35 -16 42
-23 48 -57 3 -21 9 -48 12 -61 6 -19 -7 -13 -77 38 -46 33 -147 92 -224 130
-135 68 -144 71 -250 83 l-109 12 -7 35 c-8 38 -11 99 -10 199 l1 63 28 -7
c15 -3 63 -22 107 -41z m-683 -32 c-2 -27 1 -87 7 -132 6 -46 9 -85 6 -88 -4
-4 -37 -11 -171 -34 -17 -3 -20 8 -30 127 -10 117 -10 131 5 140 17 11 172 43
182 38 3 -1 4 -24 1 -51z m-228 -132 c4 -41 9 -89 12 -105 5 -30 4 -31 -68
-54 -87 -28 -207 -82 -249 -112 -17 -12 -32 -19 -34 -17 -2 2 29 53 70 114 82
123 242 287 255 262 4 -7 10 -47 14 -88z m858 -134 c144 -13 150 -14 245 -60
172 -83 413 -259 413 -301 0 -13 -9 -10 -42 15 -124 93 -360 232 -441 260
-123 43 -651 52 -877 16 -228 -37 -406 -109 -517 -211 -66 -60 -77 -58 -41 6
64 114 318 228 605 273 115 18 465 19 655 2z m33 -98 l130 -12 100 -54 c156
-86 364 -227 365 -248 0 -18 -53 -50 -58 -35 -12 36 -278 137 -466 177 -147
31 -469 44 -608 25 -244 -35 -452 -100 -624 -196 -62 -35 -64 -37 -64 -76 0
-37 -2 -40 -22 -33 -39 11 -46 23 -53 88 -8 80 3 104 80 175 191 174 632 242
1220 189z m45 -207 c122 -26 297 -84 380 -124 74 -37 65 -16 115 -262 30 -148
75 -450 75 -504 0 -17 -13 -19 -167 -25 -523 -20 -952 -78 -1342 -181 -104
-28 -99 -30 -131 40 -29 61 -43 140 -130 700 -12 72 -23 138 -26 147 -4 13 12
26 73 56 156 79 338 136 528 167 135 21 498 14 625 -14z m590 -955 c0 -2 -11
-23 -24 -47 -50 -90 -68 -166 -73 -309 l-6 -134 -110 -106 c-305 -291 -496
-610 -592 -989 -31 -124 -55 -307 -55 -427 l0 -94 -91 0 -92 0 6 108 c3 59 13
146 22 193 16 82 16 87 -3 145 -33 96 -46 215 -39 356 4 80 3 130 -4 133 -5 4
-40 2 -77 -4 -37 -5 -116 -13 -176 -17 l-109 -7 7 44 c16 97 36 298 36 367 0
53 4 74 14 78 9 4 17 30 21 75 8 77 0 96 -42 101 -24 3 -19 11 77 118 241 271
328 346 417 360 32 6 70 10 84 10 l26 0 7 -172 c4 -104 2 -240 -6 -341 -8
-126 -8 -171 0 -179 31 -31 42 46 49 332 3 161 1 265 -6 304 -6 33 -10 60 -8
62 18 17 747 56 747 40z m176 -21 c45 -26 88 -87 104 -147 5 -18 16 -81 24
-139 22 -154 47 -212 158 -363 32 -43 63 -97 69 -119 18 -67 -4 -184 -51 -278
-13 -24 -23 -45 -24 -46 0 -1 -41 9 -90 23 -49 13 -142 29 -207 36 l-118 12
17 29 c23 39 101 89 194 123 43 16 78 35 78 42 0 16 -6 16 -86 -9 -78 -24
-135 -51 -180 -85 -17 -13 -33 -24 -36 -24 -6 0 -25 64 -33 116 -3 23 0 70 9
112 13 61 13 75 1 99 -26 52 -47 147 -52 238 -7 108 17 217 72 333 33 70 35
72 71 72 22 0 55 -11 80 -25z m154 5 c29 -6 32 -8 15 -14 -11 -4 -34 -14 -52
-23 -31 -15 -32 -14 -72 18 -23 18 -41 33 -41 34 0 4 118 -8 150 -15z m183
-45 c84 -34 160 -88 192 -137 15 -22 69 -166 120 -319 l93 -279 -20 -37 c-20
-38 -20 -48 -1 -176 4 -31 -31 -249 -53 -335 -3 -8 -18 4 -37 30 -49 64 -147
113 -147 73 0 -8 18 -24 39 -35 45 -22 79 -62 87 -99 3 -14 9 -33 14 -42 5 -9
5 -32 1 -50 -9 -40 -90 -209 -100 -209 -3 0 -15 23 -25 52 -25 72 -59 123
-125 191 -60 63 -165 140 -192 142 -9 1 -45 15 -80 32 -79 38 -142 53 -236 56
-40 1 -73 5 -73 8 0 3 14 31 31 62 30 56 31 57 76 57 132 0 375 -55 483 -110
33 -17 67 -30 76 -30 33 0 -14 37 -77 59 -32 12 -59 26 -59 31 0 5 9 24 19 42
29 50 50 143 52 238 3 95 -1 106 -63 177 -105 122 -145 214 -172 396 -9 64
-23 117 -40 148 -28 55 -31 50 46 74 64 20 102 18 171 -10z m-1573 -43 c-45
-33 -175 -164 -317 -317 l-111 -120 -35 33 c-47 45 -86 119 -108 206 -10 39
-19 74 -19 78 0 15 275 85 500 128 126 24 131 24 90 -8z m-626 -180 c8 -62 64
-179 111 -231 l37 -40 -21 -27 c-41 -52 -23 -134 29 -134 26 0 30 -4 30 -27 0
-28 -34 -315 -48 -408 l-7 -50 -117 -5 c-64 -3 -121 -9 -126 -15 -25 -28 -82
-115 -101 -152 -12 -24 -23 -43 -25 -43 -2 0 -4 31 -4 69 0 128 -27 185 -197
414 -117 159 -137 299 -58 405 35 47 158 142 246 191 41 23 76 41 79 41 2 0
-7 -33 -20 -72 -27 -80 -37 -228 -16 -235 8 -3 13 26 16 89 3 64 13 115 30
163 24 69 26 70 79 92 30 12 59 23 65 23 6 0 14 -22 18 -48z m1521 -368 c-303
-342 -504 -704 -566 -1019 -15 -74 -19 -346 -7 -402 l8 -33 -47 0 -46 0 6 153
c19 477 226 928 602 1315 106 110 120 121 128 104 8 -17 -6 -37 -78 -118z
m-1329 67 c-17 -19 -17 -20 3 -30 24 -13 32 -13 51 -1 13 9 11 13 -10 30 l-25
19 40 -3 40 -4 3 -56 3 -57 -73 3 c-66 3 -73 5 -76 24 -5 33 24 94 44 94 16 0
16 -1 0 -19z m-781 -104 c0 -71 4 -91 31 -147 18 -36 73 -119 123 -185 103
-135 130 -186 141 -265 10 -65 -2 -88 -68 -133 l-42 -28 -94 35 c-121 46 -214
60 -352 54 l-111 -5 8 38 c5 20 8 118 6 216 l-2 178 34 69 c43 87 127 171 222
219 103 53 104 53 104 -46z m2226 44 c15 -35 15 -45 2 -103 -17 -73 -12 -143
17 -220 27 -74 22 -111 -27 -195 -24 -39 -43 -83 -43 -96 0 -22 -14 -31 -117
-77 -264 -118 -304 -140 -363 -191 -33 -29 -60 -59 -60 -66 0 -8 16 -31 35
-50 32 -32 39 -35 85 -31 27 1 50 2 50 1 0 -1 -46 -35 -101 -75 -56 -40 -110
-79 -120 -87 -17 -12 -19 -11 -19 16 0 53 30 206 56 288 59 184 166 388 307
585 85 118 264 340 275 340 4 0 14 -18 23 -39z m-1379 -161 c-8 -205 -50 -493
-108 -730 -32 -135 -153 -518 -173 -549 -17 -26 -21 7 -6 49 32 89 126 442
154 576 40 186 79 461 87 604 7 135 8 143 31 138 16 -3 18 -14 15 -88z m-1261
-525 c-11 -49 -13 -51 -73 -78 -34 -15 -63 -26 -64 -24 -4 4 92 213 117 253
l24 39 3 -70 c2 -38 -1 -93 -7 -120z m1597 80 c-27 -96 -6 -361 35 -445 12
-23 12 -39 2 -96 -7 -38 -19 -121 -25 -184 -6 -63 -15 -119 -20 -124 -5 -4
-129 -5 -279 -1 -211 6 -271 10 -271 20 0 7 16 55 35 105 57 150 145 488 176
676 l11 71 122 7 c66 4 141 11 166 15 25 4 48 5 52 1 4 -3 2 -23 -4 -45z
m-468 18 c0 -38 -84 -414 -121 -541 -36 -123 -88 -274 -99 -285 -4 -5 -79 7
-166 27 -88 19 -170 36 -184 38 -16 2 -24 9 -21 18 2 8 10 49 18 90 10 47 24
84 38 100 36 41 92 140 128 225 18 44 68 132 110 195 l77 115 102 11 c57 6
106 12 111 13 4 0 7 -2 7 -6z m1540 -13 c-20 -13 -40 -13 -40 0 0 6 12 10 28
10 21 0 24 -2 12 -10z m268 -36 c154 -47 156 -48 237 -129 75 -75 120 -151
154 -254 l21 -63 -32 -47 c-46 -67 -143 -166 -218 -221 -107 -79 -237 -136
-411 -180 -78 -20 -84 -20 -166 -5 -107 20 -170 44 -253 95 -56 34 -73 40
-122 40 -47 0 -62 5 -88 27 -25 20 -70 97 -70 117 0 6 221 177 297 230 45 31
85 61 88 65 8 13 -26 72 -38 68 -7 -2 -11 -17 -10 -33 2 -29 1 -30 -80 -51
-72 -18 -86 -19 -114 -7 -86 35 -2 99 302 233 127 56 253 112 280 126 28 13
63 24 78 24 16 1 81 -15 145 -35z m-2567 -108 c95 -20 202 -71 197 -93 -3 -15
-14 -18 -78 -17 -41 1 -99 6 -128 13 -227 48 -488 -56 -532 -214 -17 -59 -8
-174 18 -243 11 -28 16 -54 12 -57 -16 -10 -78 61 -91 104 -11 37 -11 58 4
140 9 53 30 139 46 192 28 89 33 96 63 107 18 6 64 22 102 37 120 45 265 57
387 31z m354 -38 c-3 -18 -13 -57 -21 -86 l-15 -52 -50 26 c-48 24 -50 26 -36
47 12 18 114 97 125 97 2 0 1 -15 -3 -32z m-372 -99 c-3 -13 10 -15 86 -11 98
5 147 -6 198 -45 l33 -24 -19 -37 c-10 -20 -44 -65 -75 -100 -56 -63 -70 -95
-83 -188 -4 -30 -13 -54 -25 -62 -10 -7 -18 -22 -18 -33 0 -11 -19 -40 -42
-65 l-43 -46 38 -33 38 -33 -20 -40 c-11 -22 -23 -59 -27 -82 -6 -39 -9 -41
-33 -35 -65 15 -250 117 -308 170 -147 133 -224 342 -181 489 35 117 201 197
398 193 71 -2 85 -5 83 -18z m1705 -539 c73 -2 192 -33 192 -49 0 -6 -241 7
-247 12 -1 2 -5 23 -9 47 l-7 45 32 -28 c18 -15 36 -27 39 -27z m-1341 4 c62
-14 138 -34 170 -45 51 -18 99 -21 408 -30 193 -5 359 -8 371 -5 11 3 161 1
333 -4 295 -9 316 -11 394 -36 45 -14 120 -29 167 -32 l85 -7 27 -69 c16 -38
27 -71 25 -72 -2 -2 -59 1 -128 7 -68 6 -371 12 -674 14 -302 2 -590 6 -640
10 -254 18 -629 96 -777 162 l-58 26 30 33 c16 19 33 46 36 60 6 25 8 26 63
19 31 -3 106 -17 168 -31z m-32 -215 c52 -13 95 -26 95 -29 0 -3 -15 -15 -32
-25 -29 -17 -51 -20 -170 -20 -75 0 -140 3 -144 7 -4 4 1 36 10 71 l17 64 65
-23 c36 -12 107 -33 159 -45z m244 -54 c214 -38 369 -46 845 -49 464 -2 472
-2 518 -24 78 -37 196 -62 319 -69 l116 -6 23 -61 c12 -34 44 -126 72 -206 45
-132 49 -152 46 -217 -3 -68 5 -93 18 -58 4 8 10 15 14 15 5 0 38 -36 74 -80
62 -74 65 -80 44 -85 -13 -2 -94 -16 -182 -30 -154 -25 -196 -36 -196 -54 0
-20 36 -17 211 14 101 18 187 31 191 29 5 -3 8 -13 8 -24 0 -10 18 -39 40 -66
22 -26 38 -50 36 -51 -2 -2 -61 5 -130 16 -140 23 -182 26 -191 12 -8 -14 21
-21 177 -40 101 -13 143 -22 146 -32 3 -8 25 -33 50 -57 74 -70 63 -108 -49
-167 -56 -29 -77 -51 -61 -67 8 -8 30 1 79 32 37 23 78 51 89 62 l22 19 65
-93 c35 -51 109 -149 162 -218 100 -128 145 -205 145 -251 0 -16 13 -38 36
-60 43 -40 73 -101 74 -146 l0 -32 -47 24 c-27 13 -78 31 -115 40 -56 15 -67
21 -73 43 -9 37 -59 106 -102 140 -50 39 -89 58 -181 89 -71 24 -90 26 -227
25 -156 -1 -192 -7 -336 -57 -61 -20 -93 -40 -153 -90 -41 -36 -80 -74 -87
-86 -6 -12 -14 -17 -19 -13 -4 5 -28 74 -54 154 -27 80 -72 197 -102 260 -54
116 -108 258 -170 449 -24 73 -83 197 -200 420 -91 174 -175 329 -186 344 -11
15 -18 30 -16 32 19 19 154 68 229 83 116 23 136 48 33 40 -82 -7 -217 -48
-267 -82 -30 -20 -44 -24 -89 -20 -68 6 -118 22 -143 44 -50 45 -208 101 -228
81 -7 -7 -5 -12 9 -17 61 -23 209 -94 209 -101 -9 -156 -39 -324 -79 -438 -52
-153 -54 -177 -16 -287 37 -106 80 -196 151 -314 27 -45 49 -84 49 -87 0 -4
13 -29 30 -56 16 -28 55 -114 86 -192 56 -141 56 -142 40 -176 -12 -25 -14
-39 -6 -47 5 -7 7 -16 3 -19 -12 -13 -258 -7 -378 8 -220 29 -283 44 -448 109
-250 99 -319 113 -414 82 -35 -11 -29 20 6 39 78 40 237 36 443 -10 210 -47
330 -53 426 -19 59 22 55 39 -5 28 -27 -5 -102 -9 -168 -8 -98 1 -145 7 -260
33 -144 34 -290 45 -380 29 l-40 -7 -1 182 c-1 165 -3 190 -26 267 -14 47 -29
93 -33 103 -7 17 -4 18 37 12 54 -8 128 10 128 31 0 12 -14 14 -88 8 -77 -6
-89 -4 -102 11 -20 24 -19 130 2 175 39 86 52 187 52 415 1 121 -3 244 -8 273
l-9 53 44 -8 c129 -23 302 1 344 47 22 24 19 24 124 5z m1773 -79 c4 -6 8 -17
8 -25 0 -12 -18 -13 -102 -7 -99 6 -272 36 -285 50 -4 3 79 3 183 0 119 -5
192 -11 196 -18z m-2058 -1617 c21 -6 102 -38 180 -71 86 -37 178 -67 236 -80
52 -10 114 -23 137 -28 93 -21 236 -31 378 -28 l150 3 3 -40 c4 -49 -22 -103
-54 -111 -12 -3 -217 11 -456 31 -238 20 -471 40 -518 43 l-85 7 -8 55 c-11
78 -58 173 -96 196 -17 10 -31 22 -31 26 0 12 119 10 164 -3z m-188 -35 c46
-22 79 -81 102 -179 l18 -80 49 -12 c28 -6 142 -19 255 -27 342 -27 704 -58
720 -63 13 -4 13 -5 0 -12 -8 -5 -78 -2 -155 5 -357 33 -946 42 -1206 17 -62
-5 -68 -4 -79 17 -30 56 7 158 86 237 39 39 146 109 172 113 2 0 19 -7 38 -16z
m2791 -29 c102 -40 174 -100 207 -172 17 -38 25 -43 95 -69 106 -38 145 -59
164 -87 15 -23 15 -26 -1 -32 -9 -3 -226 -10 -482 -15 -496 -10 -671 -23 -830
-61 -9 -3 -17 9 -24 34 -17 67 34 183 129 289 86 96 257 146 505 147 143 1
146 1 237 -34z m-2001 -364 c23 -15 -747 -5 -793 10 -18 5 117 8 373 5 287 -2
407 -7 420 -15z m2432 -46 c-6 -6 -239 -31 -477 -50 -350 -29 -732 -32 -716
-5 14 22 390 50 710 51 138 1 302 4 365 8 114 6 128 6 118 -4z"/>
<path d="M3098 8033 c-14 -16 -31 -39 -38 -52 -17 -32 -17 -116 -1 -135 62
-74 182 111 125 192 -21 30 -55 28 -86 -5z"/>
<path d="M3367 8053 c-23 -23 15 -129 56 -155 8 -5 98 32 116 48 8 7 -52 76
-83 95 -31 19 -77 25 -89 12z"/>
<path d="M3490 7557 c0 -9 9 -19 20 -22 29 -9 25 -27 -19 -77 -76 -86 -214
-136 -346 -125 -104 8 -101 -26 3 -39 74 -9 185 11 258 46 67 33 145 104 164
150 8 19 20 30 38 32 51 6 35 26 -25 30 -32 2 -66 8 -75 12 -13 6 -18 4 -18
-7z"/>
<path d="M2825 4253 c-27 -14 -77 -36 -110 -47 -33 -12 -59 -26 -57 -32 11
-31 242 61 242 97 0 15 -22 10 -75 -18z"/>
<path d="M2890 4077 c-171 -78 -278 -147 -227 -147 28 0 352 158 352 171 0 25
-30 19 -125 -24z"/>
<path d="M4135 3898 c-16 -5 -90 -10 -162 -11 -164 -1 -175 -11 -38 -32 63 -9
245 24 245 45 0 12 -5 12 -45 -2z"/>
<path d="M2915 3848 c-57 -43 -187 -103 -272 -123 -74 -17 -88 -35 -30 -35
114 0 367 122 367 177 0 21 -22 15 -65 -19z"/>
<path d="M4020 3729 c0 -37 387 -64 488 -33 55 16 10 22 -135 18 -109 -4 -189
-1 -255 8 -54 8 -98 11 -98 7z"/>
<path d="M4570 3455 c-19 -7 -74 -28 -122 -46 -85 -30 -110 -49 -68 -49 27 0
210 59 238 76 48 31 15 44 -48 19z"/>
<path d="M4670 3343 c-30 -9 -106 -28 -169 -42 -70 -16 -116 -32 -119 -40 -9
-27 107 -7 326 55 32 9 52 20 52 29 0 18 -19 18 -90 -2z"/>
<path d="M2315 3321 c-16 -3 -30 -13 -30 -20 0 -11 17 -14 80 -12 87 3 114 14
71 31 -29 11 -73 11 -121 1z"/>
<path d="M4554 3215 c-70 -15 -164 -53 -164 -66 0 -13 10 -11 71 9 158 55 349
55 532 2 60 -17 111 -29 114 -26 10 10 -94 54 -176 75 -99 25 -278 28 -377 6z"/>
<path d="M2653 3057 c-3 -5 -2 -11 1 -14 13 -13 200 -25 311 -19 126 6 176 15
182 32 4 13 -486 13 -494 1z"/>
</g>
</svg>
