<?xml version="1.0" standalone="no"?>
<!DOCTYPE svg PUBLIC "-//W3C//DTD SVG 20010904//EN"
 "http://www.w3.org/TR/2001/REC-SVG-20010904/DTD/svg10.dtd">
<svg version="1.0" xmlns="http://www.w3.org/2000/svg"
 width="720.000000pt" height="1117.000000pt" viewBox="0 0 720.000000 1117.000000"
 preserveAspectRatio="xMidYMid meet">

<g transform="translate(0.000000,1117.000000) scale(0.100000,-0.100000)"
fill="#000000" stroke="none">
<path d="M6065 8286 c-63 -15 -99 -25 -645 -196 -190 -60 -471 -147 -625 -195
-154 -48 -395 -123 -535 -167 -140 -45 -293 -93 -340 -107 -63 -20 -88 -33
-96 -50 -12 -22 -15 -19 -81 70 -110 150 -138 192 -162 234 -43 77 -205 173
-353 209 -263 65 -603 -9 -873 -189 -226 -151 -350 -405 -282 -580 19 -49 87
-156 134 -213 l45 -53 -38 6 c-22 3 -174 26 -339 51 -507 76 -636 94 -666 94
-53 0 -92 -28 -131 -93 -62 -106 -183 -345 -263 -522 -94 -208 -125 -287 -125
-323 0 -33 35 -69 95 -99 22 -10 99 -49 171 -86 119 -60 324 -147 414 -176 36
-11 372 -75 584 -112 67 -11 142 -25 168 -30 l46 -10 7 -52 c28 -229 92 -495
160 -669 5 -12 -6 -23 -42 -43 l-48 -27 -28 -152 c-38 -210 -130 -730 -162
-916 -14 -85 -46 -266 -71 -401 -53 -298 -54 -326 -14 -390 17 -26 37 -50 44
-52 34 -13 999 -187 1036 -187 22 0 307 119 481 200 26 12 29 23 100 381 41
203 76 369 79 369 9 0 61 -197 90 -339 33 -166 28 -162 325 -316 123 -63 98
-61 300 -25 202 35 460 89 674 140 210 51 209 50 250 115 l20 31 -45 219 c-25
121 -101 497 -169 835 -68 338 -128 629 -134 646 -5 17 -7 51 -4 75 2 24 -7
127 -21 229 -53 391 -117 851 -136 979 -11 74 -19 135 -18 136 2 1 55 14 118
29 363 87 1690 483 1816 542 63 29 90 72 82 130 -6 39 -136 335 -278 630 -73
154 -82 166 -161 245 -149 148 -193 182 -247 185 -26 2 -74 -3 -107 -10z m238
-453 c87 -230 160 -425 163 -433 4 -11 -11 -19 -58 -31 -35 -9 -141 -40 -237
-68 -96 -29 -211 -63 -255 -76 -162 -47 -588 -175 -847 -254 -147 -45 -273
-81 -280 -81 -8 0 -21 21 -29 48 -13 40 -24 52 -70 80 l-55 33 -303 -1 c-166
-1 -306 1 -311 4 -19 12 -51 99 -70 190 -11 53 -31 117 -45 142 -20 35 -26 61
-26 104 l0 57 78 22 c42 13 262 81 487 151 226 71 552 172 725 225 424 130
912 285 930 296 39 22 43 14 203 -408z m104 202 c42 -47 66 -89 112 -195 32
-74 109 -240 170 -368 61 -129 111 -241 111 -250 -1 -22 -18 -44 -51 -66 -35
-22 -436 -146 -1029 -317 -267 -77 -576 -167 -688 -201 -111 -33 -205 -58
-208 -55 -5 4 -43 228 -44 253 0 6 37 21 83 33 45 12 246 71 447 131 201 59
498 147 660 195 424 124 513 152 535 169 24 18 37 -22 -153 476 -74 195 -137
362 -140 370 -8 21 131 -103 195 -175z m-3247 11 c134 -24 279 -95 352 -172
35 -37 328 -457 328 -470 0 -4 14 -34 30 -68 56 -113 50 -250 -16 -362 -46
-79 -188 -194 -271 -218 -17 -5 -53 11 -150 69 -70 42 -137 78 -148 80 -38 7
-180 25 -325 40 -192 20 -526 64 -571 76 -28 7 -54 30 -119 106 -126 147 -166
254 -141 375 18 89 55 152 141 239 86 87 158 138 285 201 209 105 409 139 605
104z m-1817 -915 c67 -11 250 -38 407 -61 157 -22 341 -49 410 -60 69 -10 195
-26 280 -35 85 -9 256 -31 380 -50 124 -19 270 -39 325 -45 122 -14 131 -16
117 -33 -5 -6 -30 -59 -55 -117 -24 -58 -92 -211 -149 -340 -58 -129 -127
-291 -154 -358 l-48 -124 -31 7 c-78 16 -1059 190 -1385 245 -201 33 -426 72
-501 86 -75 13 -146 24 -158 24 -12 0 -21 5 -21 10 0 27 116 284 247 548 111
223 152 296 172 307 33 18 21 18 164 -4z m2637 -101 c10 -18 157 -28 456 -29
168 -1 204 -4 214 -16 7 -9 11 -18 8 -20 -14 -15 -535 -98 -812 -130 l-60 -7
48 53 c49 54 106 154 106 186 1 16 2 16 16 -2 8 -11 19 -27 24 -35z m735 -122
c2 -13 20 -133 39 -268 20 -135 49 -337 65 -450 50 -338 89 -625 111 -805 11
-93 22 -176 25 -182 2 -7 -7 -30 -21 -52 -23 -33 -32 -40 -73 -45 -158 -21
-512 -58 -730 -77 -247 -21 -255 -22 -302 -52 -45 -28 -65 -32 -306 -62 -142
-18 -400 -52 -573 -74 -173 -23 -342 -44 -376 -48 l-60 -6 -61 154 c-34 85
-77 205 -97 266 -38 120 -90 363 -102 477 -6 64 -5 68 12 63 11 -3 87 -18 169
-32 83 -15 222 -40 310 -56 535 -97 613 -108 668 -95 66 16 110 39 129 68 24
37 330 719 373 830 14 39 15 51 5 63 -7 8 -77 53 -156 100 -79 47 -144 89
-144 93 0 19 129 71 190 77 103 9 613 84 750 110 158 29 149 29 155 3z m-1372
-84 c18 -10 145 -87 282 -172 138 -86 251 -157 253 -158 1 -1 -27 -64 -64
-140 -134 -280 -314 -678 -314 -694 0 -6 -6 -10 -14 -10 -24 0 -233 87 -414
172 -155 73 -172 83 -166 102 4 12 43 98 87 191 111 239 297 665 304 698 6 32
5 32 46 11z m-2323 -623 c118 -22 339 -63 490 -91 721 -133 1202 -220 1275
-230 54 -7 95 -20 130 -39 52 -29 279 -130 433 -191 147 -58 62 -66 -173 -17
-66 14 -293 55 -505 91 -1259 214 -1181 199 -1345 259 -144 52 -327 126 -446
181 -58 27 -115 76 -88 76 8 0 111 -18 229 -39z m4004 -1433 c99 -553 228
-1185 262 -1291 16 -47 15 -48 -9 -80 -18 -24 -38 -36 -74 -45 -326 -78 -707
-158 -879 -186 l-40 -7 -26 98 c-141 534 -398 1605 -398 1659 0 11 12 29 28
41 23 17 49 21 182 26 237 11 820 66 863 83 10 3 17 10 17 15 0 5 4 9 8 9 4 0
34 -145 66 -322z m-2644 182 c0 -5 -7 -10 -16 -10 -8 0 -12 5 -9 10 3 6 10 10
16 10 5 0 9 -4 9 -10z m55 -119 c18 -37 41 -73 50 -81 15 -12 57 -9 309 23
l291 37 140 -27 c77 -14 143 -28 147 -32 3 -3 -2 -49 -12 -101 -10 -52 -57
-306 -104 -565 -47 -258 -106 -580 -131 -715 -25 -135 -53 -290 -62 -345 -9
-55 -17 -101 -18 -102 -1 -2 -204 34 -451 78 -247 44 -467 83 -489 86 -29 4
-50 16 -76 43 l-37 37 19 74 c19 77 38 184 193 1096 52 303 96 555 99 560 3 4
26 7 52 5 46 -4 46 -4 80 -71z m1380 47 c3 -13 25 -122 51 -243 111 -533 296
-1297 343 -1418 6 -16 11 -30 11 -33 0 -7 -169 81 -254 133 l-80 48 -27 132
c-33 159 -81 334 -115 420 -23 58 -24 68 -14 119 11 52 2 485 -15 771 l-5 82
27 4 c63 9 73 7 78 -15z m-155 -17 c0 -15 -19 -23 -116 -46 -115 -27 -116 -27
-201 -11 -83 15 -113 25 -82 27 8 0 88 11 179 23 215 30 220 30 220 7z m4
-148 c3 -43 11 -204 17 -358 11 -274 11 -283 -10 -376 -12 -53 -57 -270 -100
-483 l-78 -388 -79 -35 c-44 -19 -132 -59 -196 -89 -64 -30 -119 -54 -122 -54
-2 0 0 15 5 33 30 102 127 608 244 1277 26 146 56 321 68 390 l22 125 85 16
c145 28 136 32 144 -58z"/>
<path d="M2414 7135 c-6 -14 24 -72 53 -100 19 -19 62 -19 69 0 7 17 -9 45
-49 88 -28 29 -64 36 -73 12z"/>
<path d="M2666 7133 c-7 -18 35 -85 67 -108 21 -15 53 -9 61 11 3 7 -13 36
-35 64 -41 52 -81 66 -93 33z"/>
</g>
</svg>
