<?xml version="1.0" standalone="no"?>
<!DOCTYPE svg PUBLIC "-//W3C//DTD SVG 20010904//EN"
 "http://www.w3.org/TR/2001/REC-SVG-20010904/DTD/svg10.dtd">
<svg version="1.0" xmlns="http://www.w3.org/2000/svg"
 width="720.000000pt" height="1117.000000pt" viewBox="0 0 720.000000 1117.000000"
 preserveAspectRatio="xMidYMid meet">
<metadata>
Created by potrace 1.16, written by Peter Selinger 2001-2019
</metadata>
<g transform="translate(0.000000,1117.000000) scale(0.100000,-0.100000)"
fill="#000000" stroke="none">
<path d="M4024 9000 c-22 -11 -92 -73 -155 -136 -144 -147 -187 -184 -214
-184 -11 0 -68 35 -126 78 -125 93 -160 109 -194 94 -40 -19 -48 -73 -47 -319
l1 -222 -67 -45 c-211 -140 -373 -403 -428 -695 -43 -226 18 -532 146 -732 17
-25 30 -48 30 -52 0 -3 -73 -47 -162 -98 -471 -267 -792 -494 -1128 -799 -176
-159 -197 -180 -336 -331 -157 -171 -261 -300 -272 -337 -4 -15 -7 -81 -7
-148 l0 -121 42 -85 c73 -146 207 -253 352 -280 120 -22 310 33 393 115 18 18
135 149 260 293 124 143 257 289 295 325 89 84 162 143 169 137 2 -3 31 -192
64 -419 118 -832 124 -926 73 -1199 -115 -609 -129 -941 -57 -1375 20 -123 31
-151 67 -185 66 -61 212 -109 337 -109 111 -1 311 70 344 122 9 13 19 77 26
157 28 323 83 646 139 813 52 153 114 307 121 302 11 -7 87 -182 125 -289 52
-147 76 -287 120 -701 20 -194 30 -256 44 -275 22 -31 127 -84 206 -105 76
-19 224 -19 300 0 74 20 169 70 199 106 46 54 94 434 82 644 -15 251 -48 448
-141 834 -29 124 -57 251 -60 282 -7 59 1 180 40 619 13 146 34 371 45 500 12
129 24 243 28 253 7 16 9 16 36 -5 55 -44 238 -254 295 -338 65 -98 183 -332
266 -530 31 -74 61 -141 68 -148 17 -21 116 -68 182 -87 90 -27 212 -18 295
21 75 35 174 122 219 193 65 101 94 248 72 365 -26 142 -272 557 -493 832
-289 361 -589 604 -1025 830 -81 43 -150 78 -151 80 -2 1 25 36 60 77 110 130
177 260 219 428 27 110 37 333 19 432 -27 155 -104 330 -202 460 l-49 67 54
127 c62 148 91 245 83 279 -9 36 -44 39 -177 13 -129 -25 -147 -23 -160 22 -4
13 -26 87 -49 164 -80 273 -124 330 -216 285z m106 -106 c20 -39 53 -134 74
-210 21 -76 47 -156 58 -176 18 -37 19 -38 76 -38 31 0 95 9 141 20 90 20 101
19 101 -9 0 -36 -113 -331 -127 -331 -3 0 -29 22 -58 48 -72 66 -155 120 -245
159 -115 49 -184 64 -320 70 -149 6 -276 -12 -401 -56 -46 -16 -86 -27 -89
-25 -8 9 -12 312 -5 379 11 109 18 109 171 -6 58 -43 117 -82 131 -85 42 -11
89 22 223 158 140 143 186 180 215 176 14 -2 31 -26 55 -74z m-112 -543 c161
-47 329 -158 437 -288 72 -87 73 -106 5 -59 -19 12 -52 29 -73 36 -53 17 -172
9 -222 -15 -60 -29 -123 -98 -158 -173 -30 -63 -32 -74 -32 -182 0 -106 2
-120 28 -172 36 -73 127 -164 197 -197 74 -35 204 -37 265 -4 104 55 174 175
183 312 6 98 16 90 39 -32 48 -253 -46 -580 -229 -796 -55 -65 -125 -124 -139
-116 -21 14 16 75 87 143 117 113 127 169 37 195 l-43 13 40 39 c38 37 51 65
31 65 -5 0 -51 -11 -103 -25 -181 -48 -248 -57 -448 -62 -194 -5 -264 1 -405
32 -151 33 -361 117 -462 185 -26 18 -50 27 -54 23 -10 -10 49 -111 101 -174
134 -160 239 -229 440 -288 111 -34 291 -61 398 -61 108 0 212 -36 212 -74 0
-5 -20 -52 -45 -102 l-46 -92 -87 -14 c-135 -21 -349 -16 -452 11 -211 54
-394 184 -516 367 -238 358 -222 829 41 1177 140 185 325 297 562 342 111 21
315 14 411 -14z m390 -362 c177 -88 258 -340 167 -519 -52 -102 -170 -170
-268 -155 -113 18 -217 96 -270 204 -28 58 -32 75 -32 151 0 59 6 100 19 135
70 184 231 261 384 184z m43 -1029 c28 -15 13 -40 -81 -130 -90 -88 -96 -101
-105 -265 -7 -118 -18 -166 -42 -190 -18 -18 -87 -20 -101 -2 -33 39 -18 128
35 208 14 21 28 59 30 83 5 39 2 48 -20 69 -14 13 -43 29 -64 35 -44 14 -237
39 -365 48 -95 6 -110 17 -79 55 17 22 28 23 212 30 182 7 273 19 429 53 80
18 125 19 151 6z m-1344 -319 c192 -182 426 -259 733 -240 63 4 138 10 166 14
52 7 52 7 58 -23 15 -65 90 -97 158 -69 47 20 67 59 77 147 7 72 28 102 77
116 62 17 524 -253 754 -440 293 -238 572 -583 798 -986 87 -156 118 -230 127
-300 8 -69 -9 -168 -42 -237 -35 -75 -146 -186 -218 -219 -113 -52 -247 -40
-370 31 -37 21 -45 34 -84 132 -68 169 -213 459 -277 555 -111 164 -405 468
-453 468 -31 0 -36 -24 -11 -58 21 -28 21 -33 11 -128 -6 -54 -22 -214 -36
-354 -13 -140 -34 -358 -46 -485 -14 -142 -23 -301 -23 -415 0 -184 0 -186 37
-314 49 -171 103 -416 130 -585 18 -113 21 -180 21 -396 1 -227 -2 -275 -22
-380 -20 -110 -25 -122 -55 -148 -18 -16 -72 -41 -127 -58 -86 -28 -104 -31
-185 -26 -93 5 -161 26 -241 72 l-41 24 -17 168 c-39 386 -74 614 -112 733
-26 84 -111 296 -145 362 -18 36 -19 45 -8 89 23 90 -31 95 -70 6 -149 -336
-226 -594 -266 -887 -21 -160 -45 -384 -45 -431 0 -49 -22 -70 -114 -106 -64
-25 -83 -28 -196 -28 -98 0 -135 4 -170 18 -45 19 -119 64 -132 81 -15 22 -50
243 -64 411 -23 266 -2 546 72 975 14 80 27 154 30 165 2 11 11 66 18 123 11
85 11 128 0 245 -15 170 -65 568 -100 797 -14 91 -31 212 -39 270 -8 58 -18
123 -21 145 -6 44 -16 34 149 154 44 33 57 48 55 64 -6 42 -40 29 -170 -65
-229 -168 -369 -304 -658 -638 -172 -200 -241 -268 -294 -293 -119 -56 -225
-65 -328 -26 -50 19 -78 39 -139 99 -110 110 -146 201 -137 351 4 66 9 85 34
120 103 149 426 484 665 690 319 275 574 451 1034 713 83 46 152 85 154 85 1
1 46 -39 98 -88z"/>
<path d="M3259 8127 c-68 -19 -131 -60 -184 -119 -86 -95 -121 -195 -112 -322
5 -90 15 -119 65 -189 64 -90 167 -127 294 -107 138 21 216 80 276 209 32 68
36 87 40 176 3 85 1 109 -19 159 -55 147 -216 233 -360 193z m196 -55 c54 -27
99 -76 127 -137 32 -70 32 -205 0 -286 -57 -143 -240 -249 -378 -219 -299 66
-266 540 45 657 50 19 156 11 206 -15z"/>
<path d="M3217 8026 c-205 -76 -252 -388 -69 -468 128 -57 273 26 318 180 29
100 -3 227 -69 274 -38 27 -126 34 -180 14z"/>
<path d="M4260 7805 c-10 -12 -10 -21 -2 -40 7 -14 16 -25 21 -25 5 0 19 -13
31 -29 l21 -30 -55 -38 c-60 -41 -75 -65 -55 -89 15 -18 41 -11 96 29 24 17
46 27 50 23 4 -4 12 -37 18 -74 10 -59 14 -67 34 -70 13 -2 28 2 32 10 14 22
10 82 -10 140 l-19 56 24 23 c30 28 39 56 24 74 -17 21 -37 19 -57 -5 -10 -11
-20 -20 -24 -20 -3 0 -25 18 -48 40 -45 43 -62 48 -81 25z"/>
</g>
</svg>
