<?xml version="1.0" standalone="no"?>
<!DOCTYPE svg PUBLIC "-//W3C//DTD SVG 20010904//EN"
 "http://www.w3.org/TR/2001/REC-SVG-20010904/DTD/svg10.dtd">
<svg version="1.0" xmlns="http://www.w3.org/2000/svg"
 width="720.000000pt" height="1117.000000pt" viewBox="0 0 720.000000 1117.000000"
 preserveAspectRatio="xMidYMid meet">

<g transform="translate(0.000000,1117.000000) scale(0.100000,-0.100000)"
fill="#000000" stroke="none">
<path d="M3817 9140 c-70 -12 -133 -47 -174 -96 -28 -34 -42 -42 -58 -38 -33
8 -173 -14 -219 -35 -23 -10 -71 -26 -109 -34 -145 -35 -348 -158 -469 -285
-59 -62 -82 -96 -117 -173 -36 -78 -50 -99 -80 -116 -60 -35 -126 -99 -145
-142 -35 -77 7 -158 95 -181 24 -6 49 -13 55 -15 8 -2 6 -31 -7 -97 -10 -51
-32 -190 -49 -308 -17 -118 -42 -258 -56 -311 l-26 -96 -137 0 c-377 1 -723
-176 -844 -431 -35 -75 -45 -142 -35 -236 9 -88 -5 -122 -66 -167 -99 -70
-138 -172 -117 -306 39 -245 72 -350 131 -424 16 -20 32 -54 35 -75 13 -69 80
-197 149 -281 68 -84 90 -103 123 -103 11 0 44 -30 78 -71 107 -128 254 -245
404 -320 69 -34 233 -89 267 -89 17 0 17 -1 3 -37 -6 -15 -13 -48 -15 -73 -8
-93 -16 -114 -60 -156 -44 -43 -73 -114 -88 -214 -10 -66 -37 -172 -49 -195
-5 -11 -34 -47 -64 -79 -29 -33 -59 -77 -65 -99 -7 -25 -33 -60 -69 -96 -68
-68 -98 -124 -105 -194 -9 -87 -13 -95 -58 -126 -46 -32 -76 -87 -76 -140 0
-31 -42 -74 -183 -190 -96 -80 -129 -125 -201 -274 -63 -132 -112 -189 -195
-232 -58 -29 -63 -47 -23 -72 15 -9 28 -18 30 -19 2 -1 -4 -17 -13 -34 -9 -18
-18 -58 -20 -89 -1 -31 -8 -68 -15 -82 -10 -22 -9 -41 4 -105 19 -94 32 -107
96 -99 388 48 903 28 1285 -52 147 -30 256 -29 322 5 56 29 73 64 68 138 -7
116 -13 169 -20 185 -3 10 -2 20 4 24 6 3 11 22 11 42 0 31 9 46 59 98 84 87
90 116 56 251 -26 101 -27 105 -12 178 11 53 39 120 97 237 103 205 136 257
220 344 70 73 84 100 95 195 9 76 22 99 136 235 113 136 166 222 172 280 l4
40 77 3 76 3 0 -29 c0 -32 61 -350 86 -446 8 -34 27 -85 42 -114 24 -49 25
-54 10 -63 -35 -20 -60 -76 -57 -132 2 -52 1 -55 -48 -103 -53 -50 -56 -57
-87 -197 -10 -46 -30 -90 -62 -140 -135 -208 -193 -317 -234 -437 -31 -92 -26
-111 33 -125 l28 -7 -20 -22 c-44 -47 -53 -122 -21 -171 11 -16 29 -44 41 -62
33 -52 64 -57 282 -43 143 10 312 11 667 4 810 -14 900 -11 1007 36 58 25 78
60 78 135 0 81 -32 143 -116 228 -85 86 -156 120 -254 124 -38 1 -71 3 -73 3
-2 0 6 12 17 26 26 33 27 62 2 88 -17 19 -18 31 -11 161 10 169 28 232 113
400 58 115 61 123 62 195 0 80 -7 98 -100 268 -39 71 -44 115 -20 183 28 78
36 132 36 229 -1 83 -8 127 -36 218 -7 21 -5 22 41 22 144 0 361 89 463 190
57 56 121 161 121 198 0 6 8 12 18 12 40 1 99 38 115 73 22 45 22 148 1 257
-20 109 -46 175 -94 244 -30 43 -40 67 -40 96 0 22 -9 64 -21 94 -21 58 -104
191 -132 215 -10 8 -17 28 -17 50 0 136 -131 352 -282 466 -72 54 -203 121
-275 139 -42 11 -53 19 -85 68 -83 125 -263 244 -478 319 -52 18 -97 34 -99
35 -2 2 8 33 23 69 14 36 60 209 101 385 114 489 102 448 145 470 104 53 135
166 78 290 -14 31 -21 68 -22 120 -1 65 -6 85 -38 151 -75 153 -294 339 -430
364 -23 4 -43 17 -57 36 -28 38 -72 60 -146 74 -59 11 -60 12 -57 41 6 60 -34
116 -101 141 -36 13 -139 15 -210 3z m165 -66 c36 -17 58 -53 58 -95 0 -16 -4
-17 -31 -7 -16 6 -88 15 -160 22 l-129 11 18 35 c11 19 30 41 43 48 32 18 153
9 201 -14z m-369 -135 c12 -15 17 -32 13 -49 -3 -14 -11 -82 -18 -152 l-12
-128 -66 0 c-36 0 -82 -3 -103 -6 l-37 -7 2 174 3 173 25 14 c17 9 50 12 99 9
63 -4 77 -8 94 -28z m585 -21 c84 -21 104 -76 98 -263 -3 -69 -7 -89 -17 -87
-7 2 -51 9 -96 15 l-83 12 -3 120 c-2 87 -8 131 -20 159 -10 22 -16 45 -13 52
5 14 62 10 134 -8z m-197 -15 c12 -12 23 -192 15 -247 l-7 -48 -175 4 c-113 2
-174 7 -174 14 0 5 9 59 20 119 11 60 20 123 20 140 0 18 2 34 4 36 8 7 288
-9 297 -18z m-691 -100 c0 -43 -3 -108 -6 -144 l-7 -66 -101 -17 c-143 -23
-284 -61 -383 -102 -47 -19 -87 -33 -89 -31 -7 7 120 150 188 212 76 69 189
140 304 190 43 19 82 35 87 35 4 0 7 -35 7 -77z m1122 -49 c105 -61 192 -138
250 -221 31 -46 78 -141 78 -160 0 -6 -23 4 -51 23 -70 47 -168 92 -269 125
l-85 27 0 41 c2 118 5 201 9 201 3 0 33 -16 68 -36z m-302 -229 c209 -32 338
-69 470 -135 91 -46 170 -106 210 -162 48 -66 34 -66 -26 0 -189 209 -506 293
-1108 292 -321 -1 -530 -30 -750 -107 -148 -51 -252 -108 -318 -174 -32 -32
-58 -55 -58 -52 0 20 45 72 95 110 177 133 460 218 830 247 118 9 553 -3 655
-19z m-25 -69 c372 -49 650 -178 719 -333 l19 -42 -28 -46 -27 -47 -35 42
c-40 47 -91 75 -217 119 -194 69 -367 107 -611 137 -192 23 -580 23 -770 0
-253 -31 -340 -52 -504 -123 -10 -5 -9 1 3 25 64 124 386 249 726 282 132 12
592 4 725 -14z m-290 -216 c144 -13 299 -37 540 -85 204 -41 276 -70 313 -125
26 -38 25 -41 -7 -160 -43 -156 -173 -688 -185 -755 l-12 -70 -43 -3 c-104 -8
-733 72 -848 108 -140 43 -339 60 -733 60 l-259 1 5 82 c6 82 14 131 73 468
17 97 35 209 39 250 7 70 8 74 48 104 67 52 269 102 499 124 129 12 430 13
570 1z m-544 -1096 l36 -6 -4 -92 c-4 -76 -1 -108 21 -190 41 -154 32 -267
-30 -401 -32 -69 -46 -136 -34 -165 14 -34 72 -64 106 -56 47 12 64 40 64 108
0 46 7 74 27 116 35 71 43 214 19 347 -19 107 -20 216 -2 265 12 30 17 35 44
33 45 -4 179 -63 252 -112 61 -40 400 -373 400 -392 0 -5 -13 -15 -29 -24 -34
-17 -47 -57 -36 -113 9 -49 29 -69 75 -77 l38 -6 -10 -42 c-15 -64 -4 -158 37
-324 21 -84 36 -155 34 -157 -5 -6 -301 19 -406 34 -114 15 -128 2 -107 -105
17 -90 17 -226 0 -290 -15 -57 -43 -115 -80 -164 -31 -41 -34 -98 -11 -206 8
-39 15 -108 15 -156 0 -54 5 -90 13 -98 10 -11 5 -12 -28 -7 -22 3 -75 8 -118
12 l-79 7 7 91 c9 112 -11 237 -59 381 -46 137 -208 530 -263 639 -104 207
-231 353 -408 472 -61 41 -124 87 -139 103 l-28 29 16 64 c31 123 9 314 -49
428 -22 43 -24 55 -13 62 13 10 661 2 729 -8z m-1136 -56 c-58 -59 -75 -118
-75 -269 0 -205 -20 -251 -160 -372 -111 -95 -135 -138 -135 -237 0 -67 5 -84
42 -162 23 -48 53 -103 68 -122 26 -35 27 -56 0 -56 -25 0 -231 -109 -295
-155 -58 -43 -63 -45 -80 -30 -30 27 -77 126 -106 220 -20 69 -27 113 -28 185
-1 108 17 160 80 236 52 64 64 102 64 198 0 268 205 500 511 580 99 26 140 34
150 29 4 -1 -13 -22 -36 -45z m355 -43 c53 -106 70 -170 70 -269 0 -86 -17
-155 -64 -263 -44 -100 -45 -133 -5 -247 31 -90 32 -133 4 -156 -11 -9 -23 -5
-57 18 -109 75 -249 125 -387 138 -82 8 -75 -3 15 -22 97 -20 237 -91 309
-157 33 -30 58 -57 55 -59 -7 -7 -376 -99 -417 -105 -19 -3 -33 -1 -33 5 0 5
-20 36 -44 69 -72 96 -90 139 -90 218 -1 88 13 114 114 220 113 118 121 139
131 320 8 137 11 155 38 210 35 71 67 103 141 145 47 26 64 30 115 28 l60 -3
45 -90z m935 68 c-29 -67 -29 -94 -7 -226 12 -73 25 -155 28 -183 10 -83 -30
-234 -63 -234 -18 0 -16 16 7 78 26 68 25 96 -7 222 -47 187 -34 360 28 360
16 0 19 -4 14 -17z m575 -83 c69 -11 190 -29 270 -41 161 -23 170 -28 170 -93
0 -59 -31 -113 -114 -195 l-75 -74 -33 25 c-18 14 -91 85 -163 158 -71 72
-159 155 -195 183 -36 28 -69 55 -75 60 -11 11 21 7 215 -23z m585 -146 c61
-40 114 -95 137 -139 32 -61 40 -172 23 -290 -13 -87 -13 -101 0 -114 16 -16
111 -25 120 -11 3 5 6 53 6 107 1 61 7 114 16 140 15 42 11 102 -12 157 -7 16
-5 17 11 8 39 -21 185 -166 209 -207 34 -57 57 -172 49 -238 -15 -113 -47
-167 -191 -320 -122 -129 -137 -161 -131 -281 4 -60 14 -117 31 -166 l25 -75
-29 35 c-45 53 -79 134 -96 227 -13 70 -20 87 -41 101 -23 15 -106 22 -358 31
-19 1 -25 14 -45 94 -25 97 -30 238 -15 380 7 65 8 67 36 67 41 0 53 23 54 98
l1 67 -37 20 c-21 11 -38 23 -38 27 0 4 42 52 94 107 89 96 126 150 126 185 0
22 9 20 55 -10z m218 -117 c30 -51 41 -106 32 -159 -9 -49 -16 -43 -21 18 -4
47 -34 121 -75 183 l-22 33 31 -16 c17 -9 42 -35 55 -59z m-1919 -508 c163
-173 287 -383 370 -630 25 -74 46 -142 46 -151 0 -11 -14 -3 -42 24 -126 116
-365 236 -559 278 -55 12 -56 13 -68 59 -11 42 -54 111 -73 119 -4 2 -8 16 -8
30 0 15 -9 38 -19 51 -18 24 -18 24 20 58 56 50 59 83 19 194 -34 94 -37 154
-11 222 l11 28 118 -100 c65 -55 153 -137 196 -182z m1421 259 c1 -2 6 -22 10
-46 l7 -43 -59 3 c-58 3 -58 3 -61 36 -5 53 1 59 53 56 26 -1 48 -4 50 -6z
m511 -144 c-3 -8 -11 -14 -17 -14 -8 0 -10 15 -5 53 13 94 21 108 24 38 2 -35
1 -70 -2 -77z m470 87 c151 -73 256 -174 318 -305 27 -58 96 -321 96 -367 0
-67 25 -78 35 -17 l7 42 22 -29 c26 -35 96 -162 96 -175 0 -5 -19 0 -42 10
-162 71 -470 71 -710 -1 l-68 -19 -36 40 c-20 22 -51 49 -69 60 l-33 20 13 51
c22 83 62 150 153 260 92 112 126 175 142 261 10 54 3 123 -19 181 -14 37 -3
36 95 -12z m-1910 -98 c-10 -69 -16 -83 -32 -83 -18 0 -18 25 2 83 21 62 38
62 30 0z m-890 -451 c51 -77 51 -79 -14 -87 -85 -10 -267 -58 -352 -93 -41
-16 -78 -28 -82 -25 -5 2 -20 29 -35 59 -26 52 -36 63 -47 46 -8 -14 12 -77
33 -103 l19 -24 -54 -32 -53 -32 -26 31 c-27 32 -55 90 -55 114 0 15 170 100
270 134 96 33 226 59 300 59 l65 0 31 -47z m1724 -90 l85 -7 12 -40 c23 -82
117 -413 139 -494 26 -94 51 -244 57 -343 l5 -66 -37 -6 c-58 -9 -615 -19
-656 -12 -28 6 -35 10 -26 19 14 14 14 156 1 248 l-10 67 44 65 c68 102 89
164 94 289 4 108 -11 243 -30 254 -6 4 -8 -1 -5 -12 14 -50 18 -180 7 -247
-14 -87 -66 -201 -111 -242 -25 -23 -30 -26 -25 -10 103 273 119 365 90 524
l-7 34 144 -8 c79 -4 182 -10 229 -13z m265 -27 c55 -8 119 -15 143 -15 41 0
42 -1 42 -33 0 -30 10 -71 34 -142 5 -13 2 -12 -8 5 -8 14 -25 53 -36 88 -24
69 -46 85 -35 25 23 -131 149 -300 295 -398 49 -33 66 -52 86 -95 22 -46 63
-207 64 -247 0 -6 -49 -22 -112 -37 -116 -26 -340 -68 -343 -63 -1 1 -7 48
-14 105 -23 195 -74 381 -176 642 -68 174 -69 180 -53 180 7 0 58 -7 113 -15z
m-2673 -86 c4 -40 12 -58 37 -82 l31 -31 -42 -43 -41 -42 -39 49 c-32 41 -68
106 -68 125 0 6 101 74 111 74 4 1 9 -22 11 -50z m836 22 c181 -52 314 -111
435 -193 63 -43 197 -165 197 -179 0 -5 -10 -9 -22 -9 -27 0 -266 72 -321 96
-35 16 -39 16 -54 2 -14 -15 -14 -19 5 -50 44 -71 145 -147 296 -223 143 -72
186 -110 186 -165 0 -32 -6 -43 -32 -64 -103 -77 -411 -55 -663 49 -17 8 -18
7 -7 -7 19 -23 143 -82 245 -116 49 -17 84 -33 79 -36 -6 -3 -56 -11 -113 -17
-152 -17 -283 7 -414 75 -79 41 -82 42 -64 24 46 -46 228 -138 274 -138 10 0
13 -5 9 -11 -10 -17 -171 -4 -268 21 -197 50 -359 163 -554 386 l-72 81 19 66
c25 92 73 167 162 252 178 170 426 227 677 156z m-980 -115 c13 -50 54 -103
89 -117 l24 -9 -23 -40 c-13 -22 -27 -38 -33 -37 -17 6 -63 78 -91 145 -26 60
-26 63 -9 82 25 28 29 26 43 -24z m3742 -12 c0 -14 5 -34 10 -45 10 -18 7 -19
-39 -19 -46 0 -52 3 -66 30 -21 40 -19 48 13 53 71 11 82 8 82 -19z m298 6
c160 -38 241 -104 284 -228 19 -55 23 -87 23 -182 0 -71 -5 -123 -12 -135 -11
-17 -12 -9 -13 48 0 125 -62 249 -158 318 -64 45 -146 73 -269 91 l-86 12 -18
44 c-11 24 -19 46 -19 48 0 13 195 1 268 -16z m-748 -26 c26 -18 40 -34 40
-48 0 -12 5 -27 12 -34 8 -8 5 -14 -16 -22 -15 -5 -31 -10 -36 -10 -9 0 -50
102 -50 125 0 20 4 19 50 -11z m303 -1 c2 -10 8 -25 11 -33 5 -12 -1 -16 -23
-18 -23 -2 -35 4 -47 24 -15 22 -15 27 -3 35 23 15 56 10 62 -8z m-3673 -42
c0 -18 54 -115 90 -161 27 -34 32 -82 9 -95 -9 -6 -49 46 -77 100 -28 57 -64
183 -56 197 8 13 34 -17 34 -41z m3580 -23 c0 -14 -17 -8 -34 11 -10 11 -15
25 -11 32 6 8 13 5 26 -12 10 -13 19 -27 19 -31z m-72 -6 c2 -7 -2 -10 -12 -6
-9 3 -16 11 -16 16 0 13 23 5 28 -10z m504 -58 c179 -34 277 -106 321 -238 17
-50 23 -146 10 -146 -5 0 -19 25 -32 55 -32 75 -55 93 -34 28 47 -154 -58
-362 -228 -448 -71 -37 -186 -72 -256 -80 -58 -6 -61 -6 -68 17 -4 12 -19 38
-33 57 -24 32 -24 35 -8 61 32 55 17 107 -53 175 -23 22 -41 48 -41 61 0 70
-79 253 -130 300 -17 16 -40 46 -51 67 l-20 37 28 11 c86 34 112 39 192 39 48
0 125 -9 175 -20 105 -23 96 -22 96 -12 0 5 -27 17 -60 27 -32 10 -57 22 -54
27 7 11 147 1 246 -18z m-2470 -125 c102 -41 170 -53 214 -36 19 7 22 1 37
-68 24 -109 24 -112 -20 -77 -21 16 -81 53 -133 82 -95 53 -210 127 -210 135
0 8 7 6 112 -36z m2032 -440 c29 -34 42 -72 31 -90 -5 -7 -21 14 -41 52 -19
35 -34 64 -34 66 0 12 23 -2 44 -28z m-59 -41 c15 -35 32 -66 38 -69 12 -8 0
-29 -16 -28 -7 0 -28 34 -48 74 -32 68 -33 81 -8 84 4 1 19 -27 34 -61z m-60
-34 c19 -42 35 -80 35 -84 0 -15 -172 -70 -295 -95 -286 -58 -699 -68 -1265
-30 -124 8 -232 15 -242 15 -14 0 -16 12 -13 106 2 59 6 109 10 112 3 3 83 -3
178 -14 137 -15 241 -19 517 -19 363 1 502 10 845 60 88 12 168 23 177 24 12
1 28 -21 53 -75z m-1812 -31 c-4 -27 -8 -74 -8 -106 l0 -57 -46 0 -47 0 -6 53
c-4 28 -2 66 3 84 5 17 7 34 3 37 -24 25 -66 -67 -59 -130 l5 -44 -38 0 c-34
0 -38 3 -44 31 -3 17 -6 51 -6 75 l0 43 53 15 c28 8 61 22 72 30 12 9 42 15
73 16 l53 0 -8 -47z m-407 -45 c-3 -13 -6 -44 -6 -70 0 -44 -2 -48 -25 -48
-23 0 -25 3 -25 50 0 36 4 52 15 56 8 4 15 12 15 20 0 8 7 14 16 14 12 0 15
-6 10 -22z m120 6 c-3 -9 -6 -40 -6 -70 l0 -54 -35 0 -36 0 3 70 2 70 39 0
c32 0 38 -3 33 -16z m-229 -81 c-4 -47 -5 -48 -42 -51 -32 -3 -37 -1 -31 13 3
9 6 29 6 45 0 24 5 29 28 33 15 2 31 5 35 6 4 0 6 -20 4 -46z m-123 -16 c-4
-30 -12 -47 -20 -47 -17 0 -17 -1 -3 41 6 19 13 40 15 48 9 29 14 2 8 -42z
m2618 8 c12 -24 19 -47 17 -50 -11 -10 -113 -25 -175 -25 -62 0 -164 18 -164
29 0 3 44 17 98 30 54 13 118 32 142 41 61 24 58 25 82 -25z m-376 -85 c58
-29 152 -42 264 -38 l94 3 12 -75 c16 -98 17 -198 3 -346 -14 -144 -5 -186 66
-296 93 -143 97 -167 38 -254 -60 -87 -100 -172 -128 -271 -28 -94 -55 -252
-55 -318 l0 -40 -128 0 c-154 0 -227 -18 -447 -107 -82 -33 -186 -74 -229 -91
-133 -52 -67 -41 112 18 278 91 348 107 492 107 129 0 208 -12 248 -38 54 -35
-23 -45 -135 -17 -89 22 -171 9 -345 -56 -326 -123 -484 -160 -703 -168 -136
-5 -286 5 -301 19 -2 2 6 39 17 83 23 91 64 185 107 248 60 87 253 162 581
228 l96 19 -149 -6 c-160 -5 -261 -21 -344 -52 -48 -19 -53 -19 -46 -4 27 63
43 124 44 165 0 81 35 127 98 127 16 0 37 9 46 19 16 18 16 21 -3 57 -12 21
-21 49 -21 61 0 29 17 73 28 73 9 0 328 -165 407 -210 84 -48 209 -110 222
-110 29 0 10 22 -54 64 -38 24 -153 96 -258 161 -243 149 -283 187 -313 298
-12 44 -5 46 45 11 93 -64 551 -270 577 -260 6 2 -7 12 -29 21 -283 122 -424
206 -581 348 -48 44 -48 44 -85 193 -20 82 -40 157 -44 166 -5 13 0 19 22 23
159 36 384 113 399 137 8 12 2 11 -136 -25 -168 -44 -328 -60 -607 -58 -139 0
-253 -3 -253 -8 0 -9 123 -46 188 -56 38 -6 42 -9 36 -28 -19 -59 -42 -95
-129 -205 -53 -67 -103 -138 -112 -159 -24 -58 -43 -134 -43 -176 0 -64 -23
-100 -105 -167 -131 -107 -189 -202 -263 -431 -53 -162 -65 -238 -56 -364 7
-113 0 -137 -54 -188 l-30 -29 -72 55 c-137 104 -292 166 -509 202 -140 24
-397 16 -521 -14 -134 -34 -253 -86 -335 -145 -57 -42 -60 -39 -13 11 28 30
69 95 103 163 66 132 82 154 195 253 l86 74 36 -31 c47 -41 178 -89 356 -132
131 -32 315 -63 370 -64 40 0 14 17 -35 25 -128 18 -437 110 -563 167 -74 34
-111 75 -117 130 -6 62 20 105 86 143 63 37 76 58 96 155 14 67 74 180 95 180
4 0 32 -11 61 -24 66 -30 258 -81 267 -71 12 12 -47 52 -118 79 -93 37 -158
80 -166 110 -8 34 23 82 89 139 67 57 102 122 117 217 18 117 29 151 63 203
29 43 35 47 62 42 43 -7 265 20 360 45 44 12 116 37 160 55 l80 35 240 -10
c760 -31 1030 -30 1270 5 61 9 115 18 120 20 21 8 40 4 81 -15z m-1791 -9
c-45 -42 -438 -92 -509 -65 -63 24 61 50 309 64 188 11 210 11 200 1z m-664
-1805 c90 -22 179 -59 179 -72 0 -3 -8 -3 -17 0 -39 15 -228 35 -393 41 -194
8 -307 -3 -399 -37 -71 -27 -175 -128 -215 -209 l-27 -56 -94 -11 c-52 -7 -99
-12 -104 -12 -15 0 -14 23 5 69 13 33 22 41 61 52 25 7 80 35 122 62 146 96
337 170 506 197 96 15 267 4 376 -24z m2669 4 c22 -7 19 -8 -16 -9 -38 -1
-122 -14 -169 -27 l-20 -5 20 13 c48 30 137 43 185 28z m50 -87 c-43 -37 -90
-120 -90 -160 0 -51 -24 -114 -45 -118 -11 -2 -103 -6 -205 -9 -102 -3 -293
-12 -425 -20 -132 -9 -323 -21 -424 -27 -174 -11 -185 -11 -198 7 -16 22 -17
63 -1 112 l12 38 132 -4 c231 -8 440 33 759 147 93 33 170 59 172 57 2 -1 -19
-17 -47 -34 -67 -42 -116 -122 -74 -122 8 0 41 17 72 39 74 50 133 79 196 98
55 17 198 42 205 36 3 -2 -15 -20 -39 -40z m-2815 6 c208 -18 306 -46 416
-120 111 -75 183 -182 196 -296 6 -42 5 -43 -38 -63 -62 -28 -158 -26 -434 10
-303 38 -560 51 -798 40 -104 -5 -209 -12 -233 -16 -63 -9 -94 1 -94 30 0 51
45 75 152 82 46 4 93 13 105 20 13 8 39 47 59 87 20 39 48 86 61 104 46 60
153 112 258 126 62 8 234 6 350 -4z m3130 -25 c99 -46 203 -160 220 -241 20
-96 -166 -137 -620 -137 -270 0 -988 15 -982 20 13 13 433 36 685 38 l303 2
24 25 c19 19 27 41 34 97 11 88 44 148 100 185 75 50 145 53 236 11z m-3305
-444 c201 -12 352 -32 486 -64 136 -33 193 -40 237 -28 45 13 50 -2 6 -17 -49
-17 -139 -13 -333 14 -260 37 -478 55 -751 62 -315 9 -282 17 165 41 14 1 99
-3 190 -8z"/>
<path d="M3613 8178 c-30 -33 -73 -107 -73 -128 0 -6 33 -27 74 -46 61 -29 78
-34 95 -24 28 15 51 62 58 120 5 45 3 51 -25 79 -42 43 -87 42 -129 -1z"/>
<path d="M3982 8203 c-35 -7 -56 -46 -47 -90 13 -73 85 -182 136 -209 35 -18
89 -13 109 11 18 22 14 88 -9 139 -46 106 -118 162 -189 149z"/>
<path d="M3496 7631 c-44 -3 -81 -11 -83 -17 -4 -11 38 -34 62 -34 7 0 27 -24
44 -53 57 -100 188 -166 349 -175 90 -5 206 11 218 29 3 5 -39 9 -93 9 -115 0
-200 18 -281 59 -60 30 -172 116 -172 131 0 5 12 15 27 22 28 14 43 39 21 36
-7 -1 -49 -4 -92 -7z"/>
<path d="M2345 5890 c3 -5 13 -10 21 -10 8 0 12 5 9 10 -3 6 -13 10 -21 10 -8
0 -12 -4 -9 -10z"/>
<path d="M2142 5838 c3 -20 46 -53 56 -43 6 5 -41 64 -51 64 -5 1 -7 -9 -5
-21z"/>
<path d="M5550 5582 c0 -12 28 -48 33 -42 8 8 -11 50 -23 50 -5 0 -10 -4 -10
-8z"/>
<path d="M5710 5540 c0 -5 5 -10 10 -10 6 0 10 5 10 10 0 6 -4 10 -10 10 -5 0
-10 -4 -10 -10z"/>
<path d="M4930 4837 c0 -37 22 -88 49 -111 36 -32 37 -8 2 57 -43 79 -51 88
-51 54z"/>
<path d="M4791 4785 c-1 -44 36 -122 51 -107 14 14 -6 83 -34 116 -17 21 -17
21 -17 -9z"/>
<path d="M3399 4753 c-13 -34 -8 -105 8 -110 8 -3 12 18 15 66 3 74 -5 90 -23
44z"/>
<path d="M3585 4748 c-10 -55 -2 -123 15 -123 12 0 15 15 15 74 0 80 -19 110
-30 49z"/>
<path d="M3803 4724 c-8 -20 8 -66 25 -72 8 -2 12 7 12 26 0 55 -23 83 -37 46z"/>
<path d="M4622 4694 c2 -15 9 -29 16 -32 10 -3 13 4 10 24 -2 15 -9 29 -16 32
-10 3 -13 -4 -10 -24z"/>
<path d="M4130 4690 c0 -5 7 -10 15 -10 8 0 15 5 15 10 0 6 -7 10 -15 10 -8 0
-15 -4 -15 -10z"/>
<path d="M2275 3394 c-106 -8 -208 -26 -248 -43 l-42 -19 45 -6 c26 -4 105 -1
185 9 77 8 254 18 393 22 139 3 251 8 249 10 -16 15 -462 36 -582 27z"/>
<path d="M5022 3170 c-39 -16 -338 -77 -559 -115 -117 -19 -219 -37 -225 -40
-7 -2 -32 -9 -55 -15 -72 -18 -49 -30 60 -30 163 0 352 36 587 112 173 56 230
78 230 89 0 11 -8 11 -38 -1z"/>
<path d="M1738 2911 c-75 -11 -147 -31 -155 -44 -4 -7 34 -8 118 -2 68 4 219
11 334 14 l210 6 -95 13 c-119 17 -336 23 -412 13z"/>
</g>
</svg>
