<?xml version="1.0" standalone="no"?>
<!DOCTYPE svg PUBLIC "-//W3C//DTD SVG 20010904//EN"
 "http://www.w3.org/TR/2001/REC-SVG-20010904/DTD/svg10.dtd">
<svg version="1.0" xmlns="http://www.w3.org/2000/svg"
 width="720.000000pt" height="1117.000000pt" viewBox="0 0 720.000000 1117.000000"
 preserveAspectRatio="xMidYMid meet">

<g transform="translate(0.000000,1117.000000) scale(0.100000,-0.100000)"
fill="#000000" stroke="none">
<path d="M3693 9048 c-5 -7 -18 -33 -28 -58 -30 -70 -246 -493 -259 -508 -10
-10 -30 -2 -101 39 -49 28 -108 64 -132 81 -64 44 -150 80 -172 73 -26 -8 -31
-25 -21 -71 5 -22 16 -91 25 -154 9 -63 27 -187 41 -275 l25 -160 -28 -23
c-110 -93 -140 -122 -198 -197 -76 -97 -144 -233 -177 -355 -19 -72 -23 -109
-23 -245 0 -169 18 -269 65 -372 11 -24 20 -47 20 -51 0 -5 25 -50 55 -100 57
-94 64 -112 43 -112 -16 0 -132 -61 -258 -135 -118 -70 -248 -137 -360 -184
-41 -18 -84 -36 -95 -41 -152 -67 -372 -145 -665 -235 -397 -122 -568 -211
-731 -383 -96 -100 -162 -225 -181 -344 -10 -68 -10 -87 5 -148 31 -131 126
-240 266 -307 62 -30 87 -37 136 -36 114 0 218 50 365 173 409 343 743 546
1029 626 101 28 125 34 241 59 134 30 127 33 156 -78 16 -60 19 -110 19 -297
0 -248 -14 -374 -65 -580 -69 -278 -101 -356 -282 -685 -180 -329 -271 -576
-299 -809 -15 -128 -7 -380 16 -461 43 -158 155 -319 259 -372 77 -40 163 -38
236 4 30 18 79 53 108 78 92 82 229 293 312 480 37 87 125 333 147 415 10 40
17 41 108 14 83 -24 245 -23 343 3 40 11 75 17 77 13 2 -4 0 -103 -6 -221 -18
-384 14 -652 99 -813 47 -89 138 -187 205 -220 132 -67 292 -5 394 153 146
224 199 599 158 1111 -16 209 -39 358 -96 640 -94 460 -116 678 -100 1018 12
240 40 455 74 559 21 64 27 72 141 176 119 109 209 172 727 507 520 336 854
643 1101 1010 126 187 245 463 263 610 18 150 -77 348 -199 413 -35 19 -56 22
-146 21 -191 -1 -313 -56 -466 -208 -102 -102 -228 -279 -336 -471 -213 -379
-292 -488 -448 -619 -99 -83 -164 -126 -350 -230 -85 -48 -170 -97 -188 -108
-18 -11 -35 -18 -38 -15 -3 3 5 27 19 54 153 288 156 629 10 918 -57 113 -111
184 -211 283 l-95 93 36 112 c20 62 59 179 87 260 55 161 62 212 31 222 -19 6
-94 -23 -247 -96 -45 -22 -84 -39 -87 -39 -11 0 -120 204 -219 407 -94 195
-112 221 -135 191z m69 -170 c52 -116 134 -276 200 -390 44 -76 54 -88 77 -88
15 0 91 29 169 64 78 36 142 61 142 56 0 -4 -23 -75 -51 -157 -67 -197 -99
-296 -99 -308 0 -5 -4 -16 -9 -24 -8 -12 -16 -11 -48 10 -125 81 -288 129
-465 136 -195 8 -326 -17 -493 -97 -37 -18 -68 -30 -71 -27 -2 2 -11 58 -19
123 -8 66 -19 145 -25 175 -18 92 -40 262 -35 267 2 2 44 -20 92 -51 183 -116
262 -159 282 -152 13 4 64 94 158 280 76 151 141 275 146 275 4 0 26 -42 49
-92z m2676 -643 c69 -29 126 -102 168 -212 22 -58 25 -79 21 -138 -12 -145
-117 -397 -251 -597 -108 -164 -192 -264 -356 -428 -223 -224 -413 -369 -856
-655 -465 -301 -557 -368 -685 -501 -74 -77 -86 -106 -119 -272 -32 -166 -44
-321 -44 -602 0 -248 2 -278 32 -470 17 -113 47 -279 67 -370 31 -147 50 -257
85 -485 23 -158 34 -482 22 -659 -17 -238 -44 -357 -121 -521 -90 -193 -255
-276 -384 -193 -63 40 -143 136 -177 213 -71 156 -97 410 -79 782 8 175 8 237
-1 253 -13 24 -12 24 -125 -10 -125 -38 -324 -27 -414 23 -46 25 -55 14 -92
-112 -146 -504 -431 -931 -620 -931 -73 0 -112 19 -179 88 -120 123 -169 257
-177 479 -12 314 73 601 304 1028 171 315 188 352 228 490 95 325 119 484 119
785 1 243 -4 282 -47 399 l-19 54 -82 -6 c-93 -6 -315 -62 -455 -114 -254 -94
-543 -280 -906 -582 -125 -104 -184 -139 -270 -161 -68 -18 -79 -18 -131 -4
-68 18 -178 88 -220 141 -74 93 -79 109 -79 228 0 99 3 116 29 175 38 87 77
142 155 221 134 133 319 231 606 319 283 87 489 158 666 229 255 103 357 151
520 246 210 123 243 141 276 152 29 11 33 9 74 -34 135 -139 329 -244 534
-289 115 -25 325 -20 448 11 24 6 27 5 27 -19 0 -68 49 -127 121 -146 74 -20
136 31 158 133 9 39 8 55 -8 97 l-19 50 67 52 c36 29 89 74 116 101 64 62 200
151 390 257 204 112 299 177 404 276 134 126 199 219 401 567 264 456 415 613
642 662 87 19 190 18 236 0z m-2584 -129 c172 -48 317 -129 437 -244 306 -292
389 -731 209 -1108 -67 -139 -163 -253 -301 -357 -20 -15 -39 -27 -42 -27 -12
0 -40 116 -41 170 -1 65 3 72 129 234 101 130 205 306 205 349 0 34 -20 43
-57 24 -15 -8 -64 -27 -108 -41 -351 -115 -887 -107 -1281 19 -121 38 -139 41
-147 22 -7 -20 55 -138 120 -229 112 -155 289 -305 423 -358 199 -79 218 -80
472 -34 32 6 38 3 55 -22 15 -23 18 -47 17 -127 0 -54 -5 -102 -11 -108 -36
-36 -336 -52 -466 -24 -451 95 -776 491 -777 945 0 363 197 684 515 842 79 40
182 76 253 88 75 14 328 5 396 -14z m-841 -1035 c101 -35 298 -71 472 -87 299
-27 611 5 835 85 30 11 57 15 58 10 4 -10 -59 -127 -97 -179 -14 -19 -26 -37
-28 -39 -1 -2 -18 4 -37 13 -46 22 -53 21 -119 -19 -70 -42 -82 -45 -177 -48
-68 -2 -79 -5 -124 -37 -45 -33 -52 -35 -118 -32 -55 2 -80 -2 -114 -18 -45
-22 -84 -72 -84 -109 0 -11 -6 -21 -13 -21 -23 0 -167 79 -225 123 -104 80
-241 242 -301 355 -15 28 -4 29 72 3z m1185 -258 c2 -15 -11 -38 -41 -70 -111
-120 -120 -238 -32 -421 50 -105 52 -115 29 -172 -24 -60 -65 -75 -124 -45
-43 22 -56 75 -42 164 15 88 15 165 1 216 -13 45 -77 115 -105 115 -11 0 -59
-11 -109 -25 -147 -41 -227 -30 -233 31 -5 52 24 68 138 74 94 5 100 7 142 40
39 32 49 35 108 36 111 2 116 3 176 44 64 43 87 47 92 13z"/>
<path d="M3141 7898 c-127 -36 -239 -191 -249 -344 -8 -133 37 -235 131 -296
48 -31 57 -33 137 -33 100 0 139 17 211 90 181 181 147 508 -60 580 -50 17
-118 18 -170 3z m175 -63 c154 -79 168 -341 25 -478 -89 -87 -209 -109 -289
-54 -87 61 -127 173 -103 290 41 199 220 317 367 242z"/>
<path d="M3166 7815 c-165 -59 -241 -312 -129 -435 61 -68 139 -76 218 -22 46
32 100 107 115 160 5 20 10 68 10 105 0 101 -34 159 -113 192 -44 18 -51 18
-101 0z"/>
<path d="M4012 7889 c-112 -22 -191 -117 -206 -249 -14 -117 38 -254 130 -340
77 -73 130 -95 230 -95 72 0 86 3 129 30 94 58 129 140 123 282 -3 70 -9 100
-31 146 -32 69 -112 157 -173 191 -37 21 -130 48 -152 45 -4 -1 -26 -5 -50
-10z m171 -64 c134 -63 227 -247 197 -388 -22 -103 -73 -160 -168 -188 -74
-22 -169 10 -249 84 -106 98 -147 282 -88 396 22 43 83 100 119 111 44 13 146
6 189 -15z"/>
<path d="M3990 7788 c-66 -36 -95 -92 -95 -183 1 -60 6 -79 35 -133 120 -225
392 -228 426 -5 4 30 0 63 -14 110 -53 171 -228 277 -352 211z m136 -29 c54
-14 135 -84 167 -143 16 -30 21 -59 22 -112 0 -62 -3 -75 -27 -106 -37 -49
-83 -64 -148 -48 -137 33 -233 187 -195 315 17 59 28 71 82 91 47 16 45 16 99
3z"/>
<path d="M4028 7686 c-14 -32 -5 -53 32 -74 54 -31 51 -56 -10 -72 -30 -8 -41
-17 -46 -36 -14 -55 63 -79 99 -30 10 14 25 26 32 26 18 0 35 -31 35 -65 0
-50 79 -60 88 -10 2 9 -7 29 -21 43 -54 59 -53 86 3 94 47 6 35 78 -13 78 -11
0 -31 -10 -45 -22 -23 -23 -24 -23 -38 -4 -8 11 -14 32 -14 46 0 35 -17 50
-57 50 -26 0 -36 -6 -45 -24z"/>
</g>
</svg>
