<?xml version="1.0" standalone="no"?>
<!DOCTYPE svg PUBLIC "-//W3C//DTD SVG 20010904//EN"
 "http://www.w3.org/TR/2001/REC-SVG-20010904/DTD/svg10.dtd">
<svg version="1.0" xmlns="http://www.w3.org/2000/svg"
 width="720.000000pt" height="1117.000000pt" viewBox="0 0 720.000000 1117.000000"
 preserveAspectRatio="xMidYMid meet">

<g transform="translate(0.000000,1117.000000) scale(0.100000,-0.100000)"
fill="#000000" stroke="none">
<path d="M3430 8554 c-220 -38 -366 -127 -433 -264 -49 -101 -58 -170 -64
-491 -6 -319 3 -477 39 -683 12 -67 21 -130 22 -141 1 -20 -5 -20 -270 -20
-252 0 -273 -1 -293 -19 -19 -17 -26 -18 -80 -7 -145 29 -580 46 -811 32 -281
-17 -430 -37 -456 -62 -43 -40 -48 -69 -35 -202 71 -721 178 -1708 216 -1991
26 -190 32 -209 101 -282 l30 -32 522 -1 522 -1 40 37 c43 38 68 38 32 0 -21
-22 -22 -33 -22 -173 0 -83 4 -231 10 -330 5 -98 21 -399 35 -669 39 -769 34
-709 64 -768 15 -30 44 -65 68 -83 l42 -32 468 2 c418 2 471 4 501 20 30 16
34 16 65 0 29 -16 82 -18 500 -20 l468 -2 42 32 c23 17 54 54 69 82 26 49 27
57 43 349 8 165 24 467 35 670 11 204 24 487 30 629 l10 259 -27 29 c-36 37
-15 36 24 -2 l30 -30 522 2 522 1 49 55 c57 64 62 81 90 307 37 301 143 1277
201 1861 l23 221 -32 40 c-36 46 -29 44 -267 69 -278 29 -846 19 -1017 -17
-45 -10 -55 -9 -82 7 -28 17 -58 19 -276 22 -184 2 -244 6 -241 15 23 70 31
179 47 580 20 514 17 572 -36 685 -51 110 -160 204 -300 260 -120 48 -171 54
-450 57 -146 2 -276 1 -290 -1z m480 -64 c317 -30 509 -176 543 -412 12 -91
-25 -982 -44 -1038 -6 -19 -23 -50 -36 -67 l-24 -33 -634 0 c-595 0 -634 1
-639 18 -11 36 -56 322 -68 432 -6 63 -12 246 -12 405 -1 274 0 294 22 370 13
44 37 102 54 128 69 108 200 176 376 197 99 11 342 11 462 0z m-1784 -1601
c87 -5 183 -17 211 -25 l52 -14 -15 -34 c-15 -30 -15 -60 5 -372 11 -186 41
-665 66 -1064 25 -399 48 -750 51 -781 l6 -55 -45 -41 -46 -40 -263 -6 c-145
-4 -367 -7 -494 -7 l-232 0 -46 56 c-38 47 -46 63 -46 98 0 23 -9 132 -20 242
-39 383 -91 871 -121 1139 -59 526 -90 800 -91 810 -1 6 5 24 15 41 16 32 17
32 119 39 345 26 649 31 894 14z m3837 0 c284 -15 306 -18 330 -50 19 -27 19
-27 -6 -235 -14 -115 -31 -256 -37 -314 -5 -58 -23 -226 -40 -375 -45 -417
-87 -825 -115 -1108 l-25 -258 -41 -50 -42 -49 -231 0 c-127 0 -350 3 -496 7
l-265 6 -42 41 -42 41 9 70 c16 118 137 1812 147 2062 5 127 4 143 -12 159
-17 17 -16 19 21 31 90 29 546 40 887 22z m-981 -55 l47 -45 -9 -102 c-26
-275 -132 -1816 -137 -1986 -6 -192 -6 -194 -32 -220 l-26 -26 -1110 5 -1111
5 -30 25 -31 25 -6 170 c-7 164 -63 1088 -108 1762 l-22 322 37 55 37 56 1227
0 1227 0 47 -46z m-1306 -3139 c2 -390 6 -823 8 -962 4 -233 3 -253 -14 -268
-16 -15 -66 -17 -490 -16 -440 0 -474 1 -492 18 -39 35 -45 64 -51 248 -6 170
-16 366 -52 995 -26 463 -36 614 -41 637 -3 18 3 27 33 42 36 19 61 19 566 18
l529 -2 4 -710z m1165 695 c39 -21 40 -21 34 -68 -13 -122 -38 -523 -65 -1067
-11 -220 -22 -427 -25 -460 -3 -33 -6 -105 -7 -160 -1 -102 -10 -136 -46 -168
-18 -17 -52 -18 -485 -19 -256 0 -472 4 -481 9 -14 8 -16 59 -21 433 -11 1021
-16 1302 -21 1402 l-6 108 513 3 c283 1 527 3 542 5 15 1 46 -7 68 -18z"/>
<path d="M3486 8174 c-12 -11 -16 -36 -16 -95 0 -95 10 -119 49 -119 45 0 53
19 50 116 -3 71 -7 88 -23 100 -25 18 -41 18 -60 -2z"/>
<path d="M3810 8175 c-15 -18 -15 -168 0 -196 13 -23 62 -26 80 -4 20 24 10
168 -14 194 -22 25 -49 27 -66 6z"/>
<path d="M3844 7478 c-33 -40 -79 -99 -102 -130 -23 -31 -46 -59 -52 -63 -12
-7 -68 34 -159 118 -75 69 -117 97 -149 97 -61 0 -32 -78 61 -167 186 -176
254 -205 320 -135 43 46 217 283 217 296 0 6 -7 22 -16 34 -27 39 -55 28 -120
-50z"/>
</g>
</svg>
