<?xml version="1.0" standalone="no"?>
<!DOCTYPE svg PUBLIC "-//W3C//DTD SVG 20010904//EN"
 "http://www.w3.org/TR/2001/REC-SVG-20010904/DTD/svg10.dtd">
<svg version="1.0" xmlns="http://www.w3.org/2000/svg"
 width="720.000000pt" height="1117.000000pt" viewBox="0 0 720.000000 1117.000000"
 preserveAspectRatio="xMidYMid meet">
<metadata>
Created by potrace 1.16, written by Peter Selinger 2001-2019
</metadata>
<g transform="translate(0.000000,1117.000000) scale(0.100000,-0.100000)"
fill="#000000" stroke="none">
<path d="M6265 8950 c-179 -32 -532 -88 -915 -145 -206 -30 -402 -59 -434 -65
-56 -9 -96 -31 -96 -53 0 -6 -43 -96 -94 -201 -52 -105 -152 -310 -222 -456
-149 -311 -144 -274 -89 -560 20 -102 37 -191 38 -199 2 -11 -43 -22 -198 -47
-110 -18 -200 -32 -201 -31 -1 1 5 36 13 77 11 56 13 117 9 240 -16 509 -56
745 -146 859 -50 63 -80 85 -148 112 -51 20 -80 23 -257 27 -267 5 -744 -14
-815 -32 -95 -25 -119 -34 -175 -66 -137 -78 -236 -267 -221 -421 3 -30 13
-166 21 -304 17 -291 19 -307 47 -400 43 -144 104 -224 219 -284 32 -18 59
-34 59 -35 0 -5 -221 -38 -225 -34 -2 1 -15 71 -28 153 -14 83 -30 162 -36
177 -11 29 -56 65 -236 185 -211 140 -548 338 -707 414 l-47 22 -39 -26 c-48
-34 -720 -723 -734 -752 -8 -17 16 -133 101 -501 123 -532 124 -537 145 -569
18 -28 123 -99 489 -331 164 -104 318 -202 343 -217 42 -27 44 -28 77 -12 19
9 58 45 88 80 30 35 59 64 64 64 11 1 71 -290 155 -759 l48 -265 12 -910 c14
-1080 20 -1269 44 -1293 15 -15 75 -17 639 -20 l622 -4 174 36 c193 40 239 52
260 65 16 10 17 70 6 531 l-6 225 54 -150 c29 -82 63 -171 74 -197 21 -45 22
-46 75 -52 111 -12 1113 -27 1139 -18 39 15 75 65 88 119 10 43 47 338 72 573
15 143 11 227 -16 335 -52 206 -100 382 -221 817 -91 328 -124 463 -124 504 0
55 -60 464 -141 954 -22 135 -41 267 -42 295 l-2 50 95 17 c185 33 528 88 760
123 129 20 244 40 256 44 11 5 67 60 124 123 57 62 126 138 154 168 217 237
432 475 457 506 21 27 28 44 24 59 -10 31 -38 180 -100 525 -177 992 -165 934
-191 944 -19 7 -17 8 -139 -14z m104 -122 c6 -29 29 -161 51 -293 21 -132 69
-406 105 -610 36 -203 67 -379 68 -389 2 -18 -16 -23 -213 -53 -188 -29 -1206
-173 -1222 -173 -3 0 -9 21 -13 48 -7 46 -41 242 -165 940 -35 193 -61 354
-59 356 5 5 417 73 669 111 96 15 301 46 455 70 154 23 288 43 297 44 12 1 19
-12 27 -51z m-1459 -524 c102 -603 168 -970 181 -1011 9 -30 6 -37 -44 -110
-30 -43 -97 -148 -149 -233 -113 -186 -161 -260 -169 -260 -7 0 -27 101 -64
316 -28 162 -44 201 -91 224 -31 15 -31 16 -74 235 -23 121 -46 229 -50 240
-9 23 32 116 229 522 77 161 141 294 141 296 0 13 32 78 36 74 3 -2 27 -134
54 -293z m-1195 120 c183 -45 217 -139 265 -734 22 -274 21 -343 -12 -457 -18
-62 -24 -73 -47 -77 -14 -3 -152 -26 -306 -51 -154 -25 -373 -61 -487 -80
-114 -19 -222 -35 -240 -35 -27 0 -44 12 -98 68 -108 110 -113 131 -145 607
-28 423 -30 515 -11 572 20 60 86 132 150 163 43 20 160 33 416 43 154 7 455
-5 515 -19z m-1105 -100 c-55 -88 -59 -158 -35 -579 29 -500 38 -564 100 -657
30 -44 22 -47 -44 -14 -164 84 -203 187 -231 611 -23 347 -13 450 57 552 37
56 133 128 175 132 4 1 -6 -20 -22 -45z m-1164 -571 c313 -172 814 -482 814
-505 0 -3 -24 -35 -53 -70 -29 -35 -101 -122 -160 -194 -96 -118 -112 -133
-150 -143 -91 -22 -157 -92 -157 -165 -1 -37 -8 -49 -79 -126 l-79 -85 -193
130 c-106 72 -305 205 -442 296 -136 91 -251 170 -255 174 -4 4 153 166 348
360 195 194 356 353 356 354 1 0 23 -11 50 -26z m5074 -370 c-30 -32 -103
-110 -165 -173 -156 -161 -406 -429 -435 -466 -23 -30 -33 -33 -155 -54 -71
-12 -218 -37 -325 -56 -170 -29 -656 -104 -679 -104 -5 0 -11 14 -15 31 -5 26
8 52 88 182 52 84 119 189 148 234 30 45 76 122 103 171 l49 89 200 31 c283
45 641 96 916 132 129 17 240 32 245 35 6 2 25 4 44 4 l34 1 -53 -57z m-1986
-203 c14 -5 29 -18 35 -29 6 -10 33 -151 60 -313 64 -375 60 -355 82 -361 21
-6 19 4 53 -232 67 -452 163 -1066 170 -1085 4 -9 -38 -70 -105 -155 -62 -77
-114 -141 -118 -143 -3 -1 -14 62 -24 140 -9 79 -33 249 -52 378 -82 547 -99
658 -170 1125 -41 270 -81 525 -88 568 l-14 79 24 9 c13 5 34 9 46 10 12 0 31
4 42 9 27 11 30 12 59 0z m-2230 -37 c15 -71 34 -238 28 -244 -10 -8 -268 -51
-285 -47 -10 2 26 54 111 160 70 86 130 157 134 157 3 1 9 -11 12 -26z m2009
-64 c39 -312 293 -2032 323 -2188 7 -42 14 -81 14 -88 0 -7 -33 -13 -92 -17
-51 -3 -280 -20 -508 -36 -228 -16 -723 -48 -1100 -70 -377 -22 -698 -41 -714
-43 -17 -1 -32 4 -37 13 -9 16 -178 871 -304 1535 -41 220 -80 419 -85 443
-19 78 31 135 127 146 128 15 427 60 778 117 661 106 1236 200 1405 229 91 15
170 27 175 26 6 -2 14 -32 18 -67z m-3544 -127 c36 -27 207 -144 379 -261 426
-289 402 -271 402 -299 0 -14 20 -131 45 -261 55 -293 96 -543 90 -549 -2 -3
-147 84 -322 193 -462 289 -453 283 -453 303 0 15 -199 850 -216 905 -8 26 2
21 75 -31z m1064 -794 c43 -216 77 -400 77 -408 0 -14 -149 -182 -150 -169 0
4 -9 51 -20 105 -12 55 -43 233 -70 396 -27 164 -52 302 -55 308 -6 10 120
160 134 160 4 0 41 -177 84 -392z m3176 -1271 c82 -347 254 -1005 292 -1124
20 -60 20 -67 5 -160 -8 -54 -27 -208 -41 -343 -30 -297 -35 -330 -46 -330 -4
0 -13 19 -20 43 -16 63 -232 784 -301 1007 -33 107 -73 239 -89 292 -16 53
-36 112 -44 131 -15 37 -6 71 144 497 23 63 41 127 41 143 0 63 17 17 59 -156z
m-243 -198 l-74 -214 -194 -7 c-240 -8 -603 -34 -760 -53 -160 -20 -150 -22
-134 23 7 20 21 73 31 117 9 44 20 83 23 87 8 7 215 23 502 38 450 23 548 36
550 73 0 14 125 168 128 159 1 -5 -31 -105 -72 -223z m-1180 -76 c-4 -16 -22
-82 -42 -148 l-35 -120 132 -390 132 -390 9 -355 c4 -195 12 -425 16 -510 5
-85 7 -156 6 -158 -1 -2 -68 -18 -150 -36 -82 -19 -161 -37 -176 -41 l-28 -7
0 158 c0 88 -4 323 -10 524 -5 201 -14 577 -20 835 -5 259 -13 511 -16 562
l-5 92 33 4 c18 2 62 5 97 5 l63 2 -6 -27z m-232 -285 c3 -167 10 -643 16
-1058 7 -415 14 -767 17 -782 l6 -28 -514 0 c-283 0 -544 -3 -580 -6 l-65 -7
-13 654 c-6 360 -14 683 -16 719 -2 36 -7 212 -11 392 -5 273 -4 328 7 332 8
3 127 12 264 21 191 13 659 47 866 64 15 1 17 -30 23 -301z m1394 -83 c22 -77
74 -252 115 -390 41 -137 117 -389 167 -560 51 -170 100 -332 111 -359 l18
-49 -322 7 c-177 3 -423 9 -547 13 l-225 6 -98 296 c-55 163 -163 481 -242
706 l-143 410 246 22 c318 28 859 54 873 43 4 -3 25 -68 47 -145z"/>
<path d="M3404 8165 c-8 -33 5 -156 18 -172 14 -18 53 -16 68 2 10 12 10 32 1
92 -13 85 -23 103 -57 103 -17 0 -25 -7 -30 -25z"/>
<path d="M3082 8158 c-13 -13 -15 -135 -3 -178 8 -29 44 -39 68 -19 29 25 -6
195 -42 206 -6 2 -16 -2 -23 -9z"/>
<path d="M3578 7633 c-9 -10 -36 -49 -60 -88 -54 -83 -69 -98 -131 -125 -77
-34 -105 -23 -276 103 -56 42 -108 74 -116 71 -20 -8 -27 -34 -14 -50 26 -32
217 -179 254 -195 56 -26 129 -24 190 4 112 52 251 267 189 291 -21 8 -19 9
-36 -11z"/>
</g>
</svg>
