<?xml version="1.0" standalone="no"?>
<!DOCTYPE svg PUBLIC "-//W3C//DTD SVG 20010904//EN"
 "http://www.w3.org/TR/2001/REC-SVG-20010904/DTD/svg10.dtd">
<svg version="1.0" xmlns="http://www.w3.org/2000/svg"
 width="720.000000pt" height="1117.000000pt" viewBox="0 0 720.000000 1117.000000"
 preserveAspectRatio="xMidYMid meet">
<metadata>
Created by potrace 1.16, written by Peter Selinger 2001-2019
</metadata>
<g transform="translate(0.000000,1117.000000) scale(0.100000,-0.100000)"
fill="#000000" stroke="none">
<path d="M4357 9025 c-49 -57 -106 -78 -271 -99 -272 -35 -401 -76 -666 -211
-227 -115 -414 -175 -549 -175 -165 0 -259 -35 -342 -129 -58 -65 -125 -195
-141 -273 -30 -145 56 -337 178 -398 27 -14 51 -27 54 -28 3 -2 5 -126 6 -275
1 -251 3 -278 23 -347 33 -109 79 -196 138 -260 l52 -57 -111 -7 c-243 -15
-523 -70 -710 -142 -140 -53 -138 -51 -138 -139 0 -84 1 -83 -75 -60 -100 31
-270 66 -318 67 -35 0 -55 -5 -68 -19 -10 -10 -49 -92 -87 -183 -39 -91 -141
-322 -227 -515 -90 -200 -159 -367 -161 -390 -8 -76 -17 -892 -10 -928 4 -20
17 -49 31 -65 l23 -28 -43 -27 c-55 -35 -127 -112 -156 -168 -19 -36 -24 -60
-24 -129 0 -74 4 -93 29 -145 60 -124 201 -232 431 -330 171 -73 282 -90 407
-64 57 13 108 53 108 87 0 31 -42 85 -94 119 -102 67 -146 128 -146 203 0 31
7 44 35 68 86 76 199 67 414 -33 65 -29 145 -62 179 -71 59 -17 63 -16 124 4
35 11 64 19 65 19 1 -1 9 -126 18 -277 17 -298 31 -390 62 -417 12 -10 40 -39
63 -65 l42 -48 -21 -45 c-56 -119 -18 -196 263 -539 226 -275 246 -297 312
-333 124 -68 266 -77 511 -33 240 43 390 109 443 195 27 44 27 123 0 158 -11
14 -20 37 -20 51 0 56 -47 120 -184 249 -75 71 -134 133 -130 138 13 22 42 5
83 -47 52 -66 314 -294 396 -343 97 -59 155 -74 290 -74 113 0 294 24 398 54
60 16 113 76 128 144 10 44 10 64 1 89 -7 18 -12 51 -12 74 0 137 -108 248
-260 268 -53 6 -80 18 -80 34 0 4 28 13 63 20 104 21 213 59 231 79 15 16 20
48 26 163 5 79 17 271 26 428 9 157 18 362 18 456 l1 171 46 17 c68 24 70 31
94 331 20 254 19 248 50 233 20 -9 23 -15 17 -37 -4 -14 -6 -56 -5 -94 3 -119
57 -193 193 -262 75 -38 251 -95 293 -95 58 0 127 58 127 106 0 32 18 31 92
-7 80 -41 118 -69 129 -96 13 -35 66 -57 134 -57 108 1 213 74 263 182 67 146
-24 344 -198 432 -66 33 -193 70 -244 70 -42 0 -24 13 59 43 38 13 73 31 78
38 6 10 -14 46 -68 124 -79 113 -169 266 -206 351 -65 149 -148 431 -168 574
-6 41 -16 109 -21 150 -13 90 -28 116 -105 176 -130 101 -302 161 -485 171
-115 5 -239 -14 -270 -42 -9 -9 -24 -13 -32 -10 -13 5 -12 13 3 58 14 45 18
120 25 557 4 278 8 558 8 623 l1 119 53 17 c57 20 114 67 139 116 21 39 43
122 43 161 0 90 -68 206 -150 254 -23 14 -79 62 -122 107 -44 45 -119 109
-167 142 -67 46 -91 69 -106 100 -18 40 -52 71 -77 71 -7 -1 -30 -20 -51 -45z
m68 -77 c-15 -70 -70 -120 -265 -243 -69 -43 -150 -98 -180 -121 -152 -115
-210 -230 -176 -347 9 -30 16 -58 16 -62 0 -12 -80 4 -125 24 -134 59 -181
192 -115 325 29 56 115 139 200 192 52 32 74 54 54 54 -4 0 -48 -21 -98 -47
-207 -109 -313 -281 -262 -429 9 -26 16 -48 16 -49 0 -2 -23 -5 -50 -9 -134
-18 -386 -135 -483 -225 -57 -53 -60 -54 -53 -27 12 48 61 140 107 201 48 64
133 138 220 191 68 42 80 65 17 33 -200 -101 -374 -278 -429 -436 -11 -31 -23
-87 -26 -125 -3 -37 -8 -68 -10 -68 -12 0 -47 51 -76 110 -28 57 -32 75 -32
150 0 74 4 93 29 145 35 71 120 160 193 201 29 16 53 32 53 37 0 32 -135 -48
-216 -128 -112 -110 -163 -237 -144 -360 4 -27 6 -51 5 -53 -2 -2 -15 16 -29
40 -39 67 -59 159 -54 253 5 89 23 133 82 202 59 67 102 83 269 93 163 11 258
35 391 102 63 32 77 36 72 21 -12 -31 -12 -37 6 -40 9 -3 42 20 80 55 81 75
137 113 240 162 117 56 178 69 383 85 99 7 202 20 228 29 52 16 127 60 140 83
15 25 29 14 22 -19z m285 -275 c110 -164 120 -285 33 -401 -21 -28 -115 -92
-136 -92 -4 0 3 17 16 38 29 45 53 120 62 187 12 97 -38 266 -120 406 -19 33
-35 63 -35 67 1 15 134 -136 180 -205z m-190 125 c84 -187 93 -346 29 -484
-28 -59 -100 -138 -156 -170 -39 -23 -150 -64 -174 -64 -5 0 7 21 27 47 77
100 121 213 131 334 10 125 -19 185 -32 67 -15 -131 -74 -254 -162 -339 -61
-60 -81 -69 -141 -69 -38 0 -59 7 -95 31 -71 47 -92 82 -92 154 0 106 65 203
193 287 41 26 79 48 84 48 5 0 -9 -26 -30 -57 -50 -75 -79 -146 -88 -212 -9
-73 11 -65 40 14 52 144 169 289 280 348 33 17 81 53 106 79 25 26 46 47 48
47 2 1 16 -27 32 -61z m425 -292 c46 -92 26 -190 -54 -258 -38 -33 -113 -63
-125 -51 -3 3 11 22 31 42 20 20 49 64 65 99 27 57 30 69 25 140 -2 42 -8 88
-12 102 l-8 25 26 -24 c15 -14 38 -47 52 -75z m-1375 -352 c9 -7 42 -25 75
-41 50 -22 77 -28 160 -31 55 -2 105 -7 110 -11 32 -23 110 -43 158 -39 36 2
55 -1 63 -10 5 -8 29 -17 51 -21 68 -13 150 4 243 51 107 53 226 90 240 73 5
-7 12 -246 16 -597 6 -646 5 -668 -54 -753 -51 -74 -174 -129 -392 -176 -92
-21 -134 -23 -340 -24 -240 0 -300 6 -465 46 -411 101 -632 263 -676 494 -11
55 -5 512 6 523 2 2 14 -3 27 -12 26 -18 61 -21 89 -6 16 9 19 22 19 82 0 86
20 134 87 208 80 89 300 219 433 254 60 16 126 12 150 -10z m1738 -1460 c82
-27 138 -57 192 -103 l35 -29 -25 -5 c-14 -3 -86 -19 -161 -37 l-136 -31 -69
68 c-62 61 -178 133 -213 133 -6 0 -11 4 -11 9 0 6 19 12 43 15 23 3 56 8 72
10 67 9 199 -5 273 -30z m-2307 -47 c137 -53 200 -84 292 -144 186 -119 289
-279 316 -488 34 -268 48 -1029 23 -1305 -21 -233 -44 -425 -51 -433 -18 -19
-513 -77 -656 -77 l-72 0 -7 118 c-3 64 -13 234 -21 377 -8 143 -19 348 -25
455 -21 393 -63 807 -95 948 -52 222 -242 374 -540 432 -89 18 -93 20 -75 30
24 13 236 67 355 89 114 22 385 52 420 46 11 -2 72 -23 136 -48z m1795 -21
c115 -45 202 -95 241 -137 38 -42 65 -117 70 -198 5 -71 -16 -311 -67 -790
-11 -102 -36 -358 -55 -570 -20 -212 -37 -386 -38 -387 -8 -6 -358 -66 -362
-62 -3 3 6 185 20 404 14 220 30 523 35 675 5 152 14 326 20 385 13 138 13
246 0 314 -23 119 -91 218 -188 273 l-54 30 63 17 c66 17 163 62 174 80 10 16
23 13 141 -34z m-1221 -97 c121 -16 499 -16 610 -1 90 12 105 6 105 -38 0 -52
-89 -101 -220 -121 -93 -14 -212 -3 -327 32 -77 23 -303 129 -303 142 0 5 8 6
18 3 9 -3 62 -11 117 -17z m881 -81 c95 -88 127 -177 126 -356 -1 -67 -4 -126
-6 -131 -3 -5 -26 -11 -52 -14 -63 -7 -120 -49 -161 -119 -28 -47 -41 -59 -80
-75 -63 -24 -157 -23 -203 1 -19 10 -63 45 -98 77 -78 73 -129 100 -202 106
l-57 6 -13 70 c-23 129 -81 272 -142 350 -33 41 -24 47 35 22 20 -8 80 -27
134 -41 117 -30 328 -43 437 -26 126 20 216 82 216 150 0 32 14 28 66 -20z
m-2339 1 c245 -55 395 -126 455 -214 60 -89 92 -263 108 -580 12 -227 42
-1397 36 -1402 -5 -5 -136 93 -300 224 -70 57 -134 103 -141 103 -11 0 -14 64
-17 333 -3 330 -3 332 19 366 26 38 28 44 78 256 37 156 77 288 126 413 47
119 35 184 -45 248 -22 18 -115 57 -248 106 l-213 76 -3 51 c-2 28 -1 51 2 51
2 0 67 -14 143 -31z m3427 -46 c11 -106 51 -301 86 -413 17 -56 30 -103 28
-105 -2 -1 -39 -14 -83 -28 -44 -14 -144 -48 -222 -76 -132 -46 -142 -49 -148
-31 -6 20 7 198 31 412 8 76 14 158 12 184 l-3 46 135 38 c74 21 140 38 146
39 7 1 14 -26 18 -66z m-3846 -34 c94 -23 172 -47 172 -52 0 -5 -8 -21 -19
-35 -26 -38 -96 -155 -189 -319 -45 -78 -119 -199 -165 -270 -46 -70 -109
-174 -141 -230 -31 -57 -60 -103 -63 -103 -3 0 -52 14 -109 32 -67 20 -104 36
-104 45 0 15 47 131 255 633 70 168 133 315 141 328 9 14 22 21 32 18 9 -2 95
-23 190 -47z m452 -131 c107 -33 207 -71 222 -82 45 -35 60 -77 48 -133 -23
-103 -84 -292 -127 -392 -25 -58 -62 -151 -83 -206 -53 -142 -47 -140 -311
-121 -112 8 -260 18 -329 21 -69 4 -130 8 -137 10 -7 2 18 69 68 182 115 259
155 336 285 548 149 245 142 235 156 235 7 0 100 -28 208 -62z m2420 -377 c0
-65 -12 -91 -50 -111 -80 -41 -140 -140 -124 -207 10 -45 52 -110 84 -133 23
-17 30 -29 30 -56 0 -19 -3 -34 -7 -34 -5 0 -38 15 -74 34 -89 45 -209 63
-309 46 -106 -18 -195 -67 -274 -150 -36 -39 -68 -70 -71 -70 -3 0 -5 34 -5
75 0 73 1 76 28 86 71 27 131 119 132 202 0 84 -50 153 -148 200 l-43 21 3 51
c3 49 4 50 37 53 53 5 74 -4 141 -64 90 -80 134 -97 250 -98 84 -1 102 2 154
27 33 15 84 49 113 75 101 88 133 101 133 53z m1343 -454 c43 -64 76 -121 73
-126 -3 -5 -18 -12 -33 -16 -16 -3 -93 -38 -173 -77 -153 -74 -284 -123 -301
-113 -38 24 -261 549 -241 569 3 3 13 6 22 6 15 0 323 110 400 143 l34 15 71
-142 c39 -77 105 -194 148 -259z m-2110 253 c22 -19 39 -46 47 -74 11 -40 10
-49 -6 -77 -19 -31 -70 -77 -78 -68 -8 9 -14 249 -5 249 4 0 24 -13 42 -30z
m1449 -325 c22 -71 55 -163 73 -202 33 -72 33 -73 12 -73 -28 0 -113 41 -151
72 l-29 24 13 175 c13 195 18 221 32 169 6 -19 28 -93 50 -165z m-912 -26 c31
-11 78 -37 105 -57 l50 -38 -3 -60 c-2 -32 -14 -180 -28 -329 -13 -148 -24
-296 -24 -327 l0 -56 -67 -16 c-38 -8 -185 -38 -328 -66 -143 -28 -273 -53
-289 -57 l-29 -5 7 73 c10 117 24 359 32 541 l7 167 28 11 c28 12 68 53 138
140 78 97 254 131 401 79z m-2810 -58 c118 -7 303 -19 410 -27 107 -8 198 -14
203 -14 4 0 7 -69 8 -152 0 -84 4 -229 8 -323 5 -94 5 -177 0 -186 -5 -10 -30
-22 -56 -27 -66 -15 -466 -48 -651 -54 l-83 -3 -4 85 c-24 492 -34 616 -47
580 -4 -11 -59 -516 -71 -655 -2 -17 -12 -21 -85 -29 -45 -4 -89 -6 -97 -3
-12 5 -14 74 -15 440 0 238 2 436 5 439 3 3 63 -9 133 -27 109 -28 157 -34
342 -44z m4562 -175 c243 -86 316 -279 162 -429 -47 -45 -96 -69 -132 -65 -37
4 -32 18 19 54 52 36 86 83 95 130 17 93 -64 189 -188 221 -151 39 -291 -28
-328 -158 -7 -23 -5 -50 6 -93 18 -69 9 -102 -30 -112 -65 -16 -136 77 -136
177 1 96 44 173 128 231 103 71 275 90 404 44z m-532 -75 c0 -5 -6 -14 -14
-20 -8 -6 -24 -35 -36 -64 -24 -54 -32 -160 -18 -224 4 -19 3 -33 -2 -33 -5 0
-37 26 -71 58 -78 71 -139 163 -139 208 0 63 2 64 114 65 55 1 112 5 126 9 35
11 40 11 40 1z m526 -110 c114 -52 110 -168 -8 -231 l-46 -24 -41 37 c-49 45
-110 76 -164 86 -39 6 -42 9 -40 37 2 34 56 86 105 102 54 17 148 14 194 -7z
m-1212 -498 c-3 -16 -8 -35 -10 -43 -5 -13 -32 -450 -50 -790 -3 -74 -8 -142
-10 -150 -1 -8 -3 -40 -3 -70 l-1 -55 -162 -28 c-90 -16 -253 -44 -363 -63
-110 -19 -212 -37 -227 -40 l-28 -6 0 349 c-1 363 -6 428 -36 450 -24 18 -31
17 -59 -11 -51 -51 -75 -215 -81 -566 -3 -151 -6 -275 -7 -276 -9 -6 -672
-167 -736 -179 -105 -19 -108 -19 -120 3 -10 19 -44 316 -56 482 -3 47 -10
213 -15 369 -7 229 -12 288 -25 307 l-15 24 57 0 c183 0 459 39 918 130 193
38 478 92 635 120 157 28 301 54 320 59 19 5 45 9 58 10 19 1 22 -3 16 -26z
m-3309 7 c-11 -5 -48 -20 -83 -33 -147 -58 -265 -158 -322 -273 -60 -123 -50
-272 26 -371 14 -19 24 -36 22 -38 -8 -8 -104 54 -170 109 -70 58 -119 129
-139 201 -24 85 29 200 126 275 95 73 174 99 364 120 199 21 202 21 176 10z
m500 -44 c132 -36 193 -106 217 -248 10 -59 10 -68 -8 -99 -51 -89 -178 -84
-144 5 30 80 -3 144 -102 195 -58 29 -79 34 -160 38 -112 6 -191 -7 -274 -46
-194 -91 -241 -282 -106 -432 25 -28 69 -64 97 -80 29 -16 60 -38 69 -48 16
-17 15 -19 -11 -37 -21 -13 -47 -18 -98 -18 -58 0 -81 5 -135 31 -77 38 -152
108 -188 178 -23 43 -27 63 -27 135 0 74 4 92 29 139 76 145 226 246 436 292
104 23 311 20 405 -5z m448 -99 c163 -120 271 -178 298 -161 9 5 10 0 5 -17
-43 -155 -47 -499 -10 -1003 l6 -89 -33 24 c-19 13 -82 71 -141 129 -97 95
-108 110 -108 141 0 20 -15 130 -34 245 -22 133 -40 294 -50 444 -9 129 -18
259 -20 288 -2 28 0 52 5 52 5 0 42 -24 82 -53z m-569 -62 c63 -17 110 -45
127 -77 11 -20 -3 -101 -21 -121 -4 -5 -40 8 -80 28 -106 54 -209 78 -295 69
-38 -3 -80 -10 -92 -15 -34 -13 -28 6 10 34 70 53 182 95 257 96 20 1 62 -6
94 -14z m2471 -1124 c-129 -46 -229 -122 -272 -205 l-19 -37 -91 96 c-102 106
-102 98 12 111 l60 6 -19 -21 c-18 -20 -18 -22 -1 -41 27 -30 57 -24 100 21
63 64 121 86 230 87 l50 1 -50 -18z m347 -53 c60 -26 93 -64 113 -130 39 -132
-4 -217 -134 -263 -99 -35 -375 -47 -452 -20 -42 15 -149 90 -149 105 0 4 11
11 25 14 20 5 24 12 23 39 -1 44 32 115 73 156 110 108 363 159 501 99z
m-2023 -292 c76 -113 243 -317 298 -366 97 -86 195 -120 361 -127 206 -9 378
33 512 124 l25 17 -20 -24 c-91 -109 -248 -166 -492 -177 -208 -10 -303 18
-411 120 -98 94 -408 487 -427 545 -12 32 -11 94 1 132 3 8 25 -23 53 -75 26
-50 71 -125 100 -169z m1266 39 c118 -116 203 -174 295 -202 116 -36 395 -10
514 47 33 16 63 27 65 24 6 -5 -39 -53 -62 -65 -30 -17 -176 -39 -292 -46
-127 -7 -247 12 -331 53 -28 13 -82 52 -119 87 -77 70 -265 284 -265 301 0 6
19 -11 41 -39 23 -27 92 -99 154 -160z m-1195 80 c73 -48 78 -50 157 -53 l83
-4 -35 -41 c-51 -60 -43 -97 21 -97 24 0 38 8 58 35 61 79 177 131 317 140
l84 5 -50 -13 c-74 -19 -173 -68 -231 -115 -56 -44 -128 -145 -146 -204 -6
-21 -14 -38 -18 -38 -29 0 -330 395 -330 432 0 13 3 11 90 -47z m890 -111
c140 -40 240 -135 240 -229 0 -38 -65 -94 -164 -141 -128 -60 -239 -88 -357
-88 -91 -1 -99 1 -171 36 l-75 38 -13 60 c-37 173 79 307 294 341 66 10 176 2
246 -17z"/>
<path d="M3983 7940 c-12 -5 -29 -20 -38 -33 -37 -57 -27 -197 17 -244 25 -27
73 -30 105 -8 21 15 43 82 43 134 0 36 -27 121 -43 138 -17 17 -59 24 -84 13z"/>
<path d="M4304 7936 c-12 -8 -29 -40 -39 -71 -29 -95 -7 -200 46 -219 61 -21
112 24 125 112 8 54 -11 144 -35 166 -26 24 -72 30 -97 12z"/>
<path d="M4474 7212 c-6 -4 -13 -35 -16 -69 -5 -76 -39 -131 -105 -173 -123
-78 -357 -61 -456 34 -57 56 -84 122 -62 153 19 26 1 53 -34 53 -37 0 -56 -22
-42 -49 6 -11 11 -36 11 -56 0 -81 83 -184 184 -231 199 -90 450 -23 550 149
58 98 36 233 -30 189z"/>
</g>
</svg>
