<?xml version="1.0" standalone="no"?>
<!DOCTYPE svg PUBLIC "-//W3C//DTD SVG 20010904//EN"
 "http://www.w3.org/TR/2001/REC-SVG-20010904/DTD/svg10.dtd">
<svg version="1.0" xmlns="http://www.w3.org/2000/svg"
 width="720.000000pt" height="1117.000000pt" viewBox="0 0 720.000000 1117.000000"
 preserveAspectRatio="xMidYMid meet">
<metadata>
Created by potrace 1.16, written by Peter Selinger 2001-2019
</metadata>
<g transform="translate(0.000000,1117.000000) scale(0.100000,-0.100000)"
fill="#000000" stroke="none">
<path d="M3834 9022 c-6 -4 -25 -28 -43 -54 -17 -27 -33 -48 -35 -48 -2 0 -25
10 -51 21 -39 17 -62 21 -119 17 -87 -6 -129 -26 -253 -120 -135 -103 -144
-106 -244 -95 -181 18 -511 -15 -677 -69 -183 -60 -312 -137 -451 -269 -85
-80 -90 -83 -189 -115 -120 -38 -162 -74 -162 -137 0 -40 37 -98 70 -108 27
-9 25 -30 -6 -70 -41 -54 -64 -129 -75 -243 -5 -59 -16 -154 -24 -212 -8 -58
-17 -128 -20 -157 -4 -28 -12 -59 -19 -69 -12 -15 -18 -14 -72 24 -32 22 -122
93 -199 157 -167 141 -222 170 -304 162 -125 -11 -241 -108 -241 -201 0 -38
37 -90 71 -101 23 -8 244 -147 339 -214 134 -95 351 -266 363 -288 6 -9 -2
-26 -24 -50 -46 -53 -62 -99 -56 -159 l5 -51 -36 -13 c-20 -7 -49 -26 -63 -41
-17 -18 -60 -41 -121 -63 -378 -137 -589 -370 -563 -621 9 -83 53 -208 122
-350 l58 -120 0 -270 c0 -248 -2 -279 -25 -385 -16 -79 -24 -148 -25 -220 0
-117 10 -148 70 -204 40 -38 55 -99 31 -131 -19 -25 -20 -113 -2 -181 47 -177
201 -330 411 -409 162 -61 413 -85 485 -46 59 31 60 55 5 161 -44 85 -47 97
-42 145 6 60 38 130 66 145 86 45 112 -50 72 -257 -35 -180 -68 -238 -239
-423 -165 -178 -187 -228 -138 -321 14 -28 26 -54 26 -59 0 -4 -13 -24 -30
-45 -58 -74 -40 -123 123 -322 115 -142 250 -262 349 -312 122 -62 195 -74
421 -68 168 4 204 8 285 31 191 54 323 142 337 226 4 19 13 52 21 73 20 52 18
121 -5 166 -11 21 -44 60 -74 88 l-55 50 51 129 c28 71 52 131 53 133 2 1 31
-27 65 -64 102 -109 397 -291 559 -345 126 -43 283 -15 503 88 93 44 168 106
198 164 24 48 24 121 -1 176 -23 50 -108 143 -159 174 -20 12 -38 23 -39 24
-2 1 7 17 20 34 21 29 23 41 21 133 0 56 -2 188 -4 292 -3 193 2 250 43 455
26 133 21 283 -12 377 -20 57 -20 64 -6 92 28 53 21 101 -26 172 -79 122 -104
203 -115 364 -5 77 -2 104 20 187 47 173 105 264 300 467 169 174 231 275 271
436 16 66 20 71 57 89 29 13 73 59 170 177 82 100 138 160 152 163 12 2 52 8
89 14 79 12 113 33 164 105 61 85 102 124 227 214 199 144 305 239 321 288 3
12 28 37 55 57 28 21 70 69 100 113 45 67 63 84 139 132 247 155 458 418 438
546 -8 45 -41 100 -87 143 -92 86 -585 429 -640 445 -53 16 -107 3 -144 -34
-17 -18 -61 -87 -99 -155 -80 -145 -145 -220 -218 -253 -50 -23 -64 -24 -243
-24 -184 0 -192 -1 -240 -25 -32 -16 -56 -37 -66 -57 -9 -17 -30 -44 -48 -58
-17 -15 -45 -47 -61 -70 -72 -105 -270 -132 -270 -37 0 15 11 59 25 97 13 39
25 84 25 102 0 43 -33 127 -73 185 -34 49 -413 512 -459 560 -26 28 -78 38
-104 20z m62 -229 c56 -290 -70 -532 -335 -644 -36 -15 -67 -26 -69 -24 -2 2
17 24 42 50 24 26 60 77 79 114 43 81 89 228 76 237 -14 8 -13 9 -42 -64 -62
-151 -147 -251 -266 -310 -73 -36 -77 -37 -190 -37 -83 0 -132 5 -174 18 l-58
18 58 43 c69 51 149 133 140 142 -3 3 -25 -9 -49 -28 -92 -74 -214 -127 -403
-176 -61 -15 -116 -32 -124 -36 -9 -6 -11 -20 -7 -46 8 -51 -11 -70 -100 -104
-45 -17 -85 -40 -108 -63 -20 -20 -38 -34 -40 -32 -2 2 -21 42 -42 89 -32 71
-38 95 -38 150 0 54 6 75 34 129 44 81 131 168 206 205 55 27 70 30 214 36
169 7 211 18 265 70 74 69 146 99 159 65 3 -8 13 -15 22 -15 17 0 326 204 382
252 62 53 112 30 112 -53 0 -42 3 -49 23 -54 48 -12 186 74 202 127 10 29 17
16 31 -59z m148 -98 c81 -96 109 -160 114 -260 5 -99 -7 -146 -56 -215 -75
-108 -203 -175 -355 -186 -45 -3 -100 -2 -122 3 l-40 9 85 44 c150 79 254 210
290 369 17 71 8 217 -18 299 l-20 62 32 -27 c17 -16 58 -59 90 -98z m1938
-144 c106 -72 219 -150 251 -176 l57 -45 0 -58 c0 -32 -7 -85 -15 -117 -20
-77 -125 -285 -144 -285 -41 0 -681 424 -681 451 0 5 13 15 29 24 16 8 56 40
89 70 54 50 86 93 166 223 14 23 33 42 40 42 8 0 102 -58 208 -129z m-3078 30
c-47 -44 -76 -54 -224 -77 -142 -21 -226 -48 -297 -95 -56 -36 -140 -116 -175
-167 l-15 -22 -83 27 -83 27 39 34 c206 180 540 307 819 311 l60 0 -41 -38z
m1391 -311 c0 -90 -30 -161 -85 -197 -31 -22 -89 -31 -103 -16 -4 3 12 26 34
50 66 72 93 142 98 253 l4 95 26 -55 c21 -44 26 -70 26 -130z m1253 -99 c237
-168 444 -311 502 -346 27 -16 48 -34 46 -40 -5 -17 -60 -44 -126 -61 -191
-49 -463 33 -820 246 -161 96 -224 149 -233 196 -2 14 2 29 10 36 8 6 67 15
131 19 120 8 234 30 287 54 17 7 31 14 33 14 2 1 79 -52 170 -118z m906 36
c17 -23 18 -31 7 -66 -12 -43 -123 -181 -129 -162 -2 7 0 17 6 24 27 34 44
122 40 198 l-5 79 31 -24 c17 -13 39 -35 50 -49z m-4410 8 c32 -9 71 -23 85
-31 26 -15 27 -19 27 -99 l-1 -84 -30 20 c-82 54 -196 100 -297 119 -63 12
-73 28 -34 53 57 38 156 46 250 22z m862 -139 c130 -53 242 -64 402 -40 23 4
42 3 42 -2 0 -5 -32 -15 -71 -21 -105 -16 -112 -33 -14 -33 102 0 192 -21 278
-65 79 -40 80 -40 102 -19 14 14 14 18 1 33 -13 15 -5 16 102 17 101 0 127 4
189 28 l72 26 33 -20 c18 -11 41 -20 51 -20 11 0 17 -8 17 -22 0 -13 -18 -201
-39 -418 -22 -217 -45 -449 -51 -515 -13 -150 -29 -193 -87 -244 -86 -76 -207
-104 -525 -122 -342 -18 -885 17 -1043 68 -79 25 -143 72 -170 124 l-14 26 72
5 c116 8 196 63 214 146 4 20 8 138 8 262 0 313 -22 411 -103 450 l-32 15 24
36 c27 40 97 88 166 115 86 33 108 57 119 123 6 33 9 35 76 52 55 14 113 32
121 38 0 1 27 -10 60 -23z m2211 -264 c181 -122 254 -163 350 -201 87 -34 207
-61 303 -68 l91 -6 -28 -29 c-15 -17 -40 -39 -56 -50 -26 -18 -30 -19 -75 -4
-26 8 -81 20 -122 26 -153 22 -368 93 -487 161 -95 54 -207 139 -285 217 -43
42 -78 82 -78 88 0 7 14 37 32 68 l32 55 71 -67 c39 -38 152 -123 252 -190z
m-3062 164 c61 -29 95 -64 132 -136 25 -49 28 -65 27 -150 0 -99 -31 -228 -61
-260 -13 -13 -16 -13 -29 4 -8 11 -14 33 -14 48 0 91 -67 300 -116 365 -67 88
-179 82 -220 -11 l-13 -31 -1 41 c-1 124 159 194 295 130z m2290 -24 c73 -55
125 -135 131 -203 4 -30 1 -67 -6 -84 l-11 -29 -25 29 c-13 17 -65 90 -116
164 -85 125 -90 135 -73 148 29 20 46 16 100 -25z m770 -48 c68 -37 503 -214
586 -238 30 -9 82 -20 114 -25 l60 -9 -68 -1 c-137 -2 -287 44 -517 159 -115
57 -310 175 -310 187 0 3 17 -5 38 -17 20 -13 64 -38 97 -56z m-353 -130 c88
-92 193 -167 326 -234 170 -84 418 -150 567 -150 59 0 75 -3 75 -14 0 -19 -77
-77 -280 -212 -194 -128 -276 -204 -310 -286 -28 -69 -53 -83 -132 -73 -93 12
-122 -7 -250 -161 -61 -74 -115 -134 -119 -134 -5 0 -9 11 -9 24 0 13 -18 60
-40 104 -30 59 -57 96 -108 143 -96 91 -255 169 -345 169 -21 0 -28 4 -25 16
2 13 18 17 68 19 169 8 329 128 416 310 19 39 37 97 41 130 11 82 0 192 -25
243 -16 33 -17 43 -7 52 7 6 25 40 41 75 15 36 28 65 30 65 2 0 41 -39 86 -86z
m-479 -33 c72 -132 75 -307 6 -444 -27 -53 -84 -124 -112 -138 -21 -11 -21
-11 -5 7 25 29 75 141 93 209 31 121 14 287 -41 384 -13 24 -24 55 -24 70 l1
26 28 -33 c16 -18 40 -55 54 -81z m-2341 79 c14 -10 34 -41 46 -67 20 -49 72
-263 72 -301 0 -28 39 -71 70 -76 14 -2 42 2 63 9 20 7 37 12 38 11 0 0 3 -72
5 -159 6 -197 -6 -254 -64 -291 -20 -14 -53 -28 -73 -31 -45 -8 -140 15 -211
52 l-53 27 40 8 c175 38 192 405 28 606 -44 54 -92 76 -142 67 l-36 -7 20 24
c12 12 38 43 60 68 40 47 82 80 101 80 6 0 23 -9 36 -20z m411 -167 c54 -62
75 -447 32 -601 -18 -63 -58 -112 -91 -112 -18 0 -18 0 4 41 14 29 17 61 16
219 -1 102 -6 247 -11 323 -4 76 -6 140 -4 143 10 10 39 3 54 -13z m-508 -54
c90 -83 121 -201 91 -350 -30 -144 -58 -189 -121 -189 -65 0 -128 81 -155 199
-24 100 2 273 48 324 18 21 72 57 85 57 4 0 27 -18 52 -41z m2633 -87 c23 -13
51 -1 69 29 13 22 14 19 9 -47 -8 -121 -80 -242 -198 -331 -56 -42 -138 -88
-138 -77 0 4 20 34 44 68 100 141 142 267 132 396 l-6 75 35 -52 c19 -29 43
-56 53 -61z m-3458 28 c12 -7 12 -12 0 -35 -19 -36 -58 -62 -113 -77 -50 -13
-77 -2 -77 31 0 21 46 66 80 80 32 12 91 13 110 1z m290 -225 c9 -11 10 -28 4
-62 l-9 -48 -69 -3 c-96 -4 -97 -3 -78 55 8 26 17 54 18 61 5 18 118 16 134
-3z m174 -167 c17 -75 18 -73 -63 -76 -41 -2 -78 1 -83 6 -5 5 -6 27 -2 50 l7
42 68 0 c63 0 69 -2 73 -22z m430 -266 c3 -5 -12 -25 -32 -44 -75 -71 -180
-130 -289 -162 -51 -14 -53 -14 -53 5 0 10 16 37 36 59 32 36 41 40 83 40 54
0 153 44 190 84 24 26 55 34 65 18z m2306 -50 c107 -52 209 -151 258 -250 36
-73 37 -80 37 -181 0 -98 -2 -111 -32 -173 -49 -105 -86 -151 -244 -314 -81
-83 -163 -176 -183 -207 -48 -74 -78 -169 -116 -362 -48 -244 -33 -361 68
-529 23 -39 42 -80 42 -93 0 -70 -92 -154 -265 -240 -228 -115 -571 -181
-1120 -215 -229 -14 -362 -16 -387 -6 -16 6 -15 10 5 46 19 35 20 43 9 81 -7
23 -27 57 -44 77 -17 20 -42 58 -54 85 -13 27 -34 64 -48 82 l-25 32 34 101
c18 55 41 136 50 181 19 94 11 161 -30 250 -29 63 -122 161 -184 192 l-43 22
9 82 c15 153 9 353 -15 450 -43 176 -125 323 -243 439 -65 64 -149 118 -185
118 -45 0 17 17 293 82 342 80 382 86 475 64 129 -30 237 -97 399 -246 159
-146 236 -200 352 -246 l48 -19 -6 -50 c-9 -73 -54 -259 -81 -337 -13 -37 -24
-83 -24 -102 0 -97 138 -134 204 -55 14 16 35 60 46 97 23 75 60 287 60 345
l0 38 83 -6 c57 -5 86 -12 95 -23 34 -43 6 -238 -68 -467 -26 -82 -53 -175
-60 -206 -15 -69 -10 -273 7 -290 7 -7 39 -15 71 -17 46 -3 68 0 101 17 78 40
99 117 66 241 -32 117 -18 189 76 396 75 167 86 215 70 290 -7 31 -9 60 -4 64
10 9 104 32 110 27 9 -10 -37 -198 -70 -286 -19 -52 -33 -100 -30 -107 6 -17
57 -34 103 -34 49 0 120 39 143 78 19 32 56 298 57 407 0 48 3 53 63 112 87
85 122 157 122 248 0 97 -36 158 -132 225 l-22 15 21 63 c24 72 19 72 138 14z
m-2183 22 l23 -6 -30 -37 c-93 -115 -86 -110 -205 -138 -166 -38 -167 -38 -63
17 58 31 121 74 160 110 63 60 75 65 115 54z m2002 -185 c71 -43 92 -96 72
-181 -11 -49 -73 -158 -90 -158 -5 0 -11 12 -14 28 -12 61 -51 145 -93 203
-25 33 -44 62 -42 62 2 1 30 16 63 33 74 39 64 38 104 13z m-1277 -83 c198
-18 259 -48 297 -150 21 -56 37 -192 26 -225 l-6 -21 -39 20 c-55 28 -138 97
-260 214 -58 56 -125 119 -150 139 -25 20 -38 36 -30 36 8 0 81 -6 162 -13z
m973 -47 c64 -71 89 -139 93 -255 l4 -101 -53 -21 c-98 -39 -188 -55 -314 -56
-66 0 -132 3 -147 7 l-27 7 1 128 c1 141 -14 212 -56 275 l-25 37 57 1 c31 1
120 5 197 8 255 13 228 16 270 -30z m-627 1 c88 -64 122 -147 122 -301 l0
-108 -29 10 c-27 10 -28 13 -35 92 -4 45 -14 112 -22 149 -15 65 -64 155 -91
165 -7 3 -13 9 -13 14 0 17 27 9 68 -21z m-1557 -157 c104 -79 198 -216 247
-359 47 -137 55 -271 38 -629 -13 -281 -4 -322 136 -609 169 -346 165 -359
-138 -435 -242 -62 -605 -103 -718 -82 -99 18 -122 44 -150 171 -27 116 -29
219 -12 415 30 340 23 391 -89 660 -86 206 -109 295 -102 393 16 206 198 367
546 483 153 50 165 50 242 -8z m2405 -295 c-7 -73 -47 -247 -68 -293 -10 -22
-56 -61 -63 -53 -1 2 11 89 29 195 31 191 31 192 61 207 17 8 34 15 39 15 5 1
6 -30 2 -71z m-729 -2 c8 -7 -31 -209 -60 -311 -41 -146 -50 -165 -82 -165
-37 0 -39 31 -6 102 43 95 70 190 83 295 12 94 12 94 38 88 14 -4 26 -8 27 -9z
m399 -66 c17 -48 17 -164 0 -230 -8 -30 -35 -100 -59 -155 -63 -142 -71 -183
-62 -325 l7 -119 -26 -26 c-18 -18 -35 -25 -53 -23 -23 2 -30 11 -41 48 -26
89 -6 192 84 420 29 75 60 162 69 195 17 66 20 164 6 212 -8 28 -7 32 12 36
40 8 50 2 63 -33z m-1631 -757 c19 -21 50 -67 68 -103 28 -56 32 -74 31 -140
0 -52 -8 -98 -26 -150 l-25 -75 -17 40 c-38 87 -96 465 -71 465 3 0 21 -17 40
-37z m2086 -809 c14 -80 11 -96 -25 -119 -35 -23 -46 -12 -46 44 0 57 -16 75
-57 65 -73 -18 -79 -26 -87 -116 -4 -45 -8 -84 -10 -85 -2 -2 -40 -9 -84 -15
-133 -20 -422 23 -422 62 0 13 16 20 73 30 211 37 429 107 562 178 39 21 73
36 77 32 4 -3 13 -37 19 -76z m-1906 -94 c15 -24 -10 -51 -78 -85 -150 -73
-423 -151 -617 -175 -132 -16 -338 -13 -393 6 -44 15 -107 64 -107 84 0 4 21
2 48 -6 146 -45 507 -14 854 71 125 31 247 80 263 105 8 13 22 13 30 0z m1081
-117 c-4 -27 -9 -66 -12 -88 -5 -39 -7 -41 -77 -67 -130 -49 -122 -51 -133 34
-9 71 -10 73 -38 76 -54 6 -115 -8 -127 -29 -13 -25 -39 -123 -39 -149 0 -46
-323 -32 -575 27 -38 9 -72 17 -74 19 -2 2 10 15 27 28 16 14 37 41 46 60 16
34 17 34 54 24 65 -18 271 1 612 56 179 30 329 54 334 55 4 0 5 -20 2 -46z
m841 -65 c-4 -51 -13 -133 -22 -181 -28 -160 -45 -340 -45 -475 0 -149 -11
-210 -44 -241 -27 -25 -103 -53 -206 -76 -85 -18 -422 -32 -514 -21 -76 10
-91 36 -90 156 1 74 7 105 53 244 75 225 101 347 108 499 5 111 8 127 22 122
193 -59 422 -47 636 33 44 17 86 31 94 31 11 1 13 -16 8 -91z m-1937 18 c0
-21 -48 -74 -84 -93 -23 -13 -71 -19 -196 -24 -186 -8 -219 -17 -270 -75 -108
-124 -72 -260 103 -388 87 -63 14 -59 -103 7 -152 86 -280 254 -280 368 l0 49
54 0 c179 0 541 74 712 145 32 13 60 24 62 25 1 0 2 -6 2 -14z m-1004 -164
l102 -5 -5 -33 c-8 -47 14 -149 43 -208 34 -68 96 -140 155 -177 27 -18 47
-34 44 -37 -16 -16 -204 55 -292 110 -126 79 -235 235 -250 355 l-6 51 53 -25
c43 -20 74 -26 156 -31z m1045 -30 l75 -25 -53 -172 c-83 -270 -133 -378 -274
-590 -111 -167 -138 -228 -139 -308 l0 -57 -37 19 c-103 52 -135 127 -99 229
8 23 64 122 124 220 133 215 171 291 206 402 23 72 27 100 25 195 l-2 110 34
6 c19 4 41 4 49 1 8 -3 49 -17 91 -30z m1013 1 c-20 -85 -94 -286 -149 -403
-64 -137 -159 -384 -242 -628 -25 -74 -57 -147 -70 -163 -31 -37 -123 -66
-256 -81 -120 -13 -253 -1 -424 39 -105 25 -118 30 -134 57 -41 67 -33 188 19
300 16 34 61 115 101 181 133 219 223 432 251 593 l13 72 51 -7 c28 -5 152 -8
276 -7 233 0 340 12 482 53 88 26 89 26 82 -6z m909 -863 c69 -63 91 -107 85
-172 -7 -65 -47 -107 -153 -158 -87 -42 -222 -88 -270 -92 l-30 -3 3 57 c7
105 -34 203 -117 284 l-42 40 103 23 c125 27 219 55 273 80 49 22 67 15 148
-59z m-752 -54 c151 -3 158 -4 190 -29 40 -30 67 -65 100 -127 18 -35 23 -61
24 -117 0 -40 -5 -76 -10 -82 -17 -17 -264 109 -415 212 -46 32 -190 165 -190
177 0 4 33 -2 73 -13 53 -13 114 -19 228 -21z m-1663 -320 c115 -58 356 -124
506 -138 22 -2 37 -15 62 -51 54 -78 76 -151 72 -234 -2 -40 -8 -77 -14 -83
-13 -13 -122 2 -198 27 -147 48 -337 215 -469 413 -32 47 -49 100 -32 100 3 0
36 -15 73 -34z m1112 -78 c93 -64 90 -196 -6 -277 -67 -55 -212 -117 -346
-145 -25 -6 -26 -4 -33 46 -12 84 -42 175 -79 243 -20 35 -36 66 -36 69 0 3
31 6 70 6 79 0 239 29 320 59 70 25 71 25 110 -1z"/>
<path d="M3420 7844 c-48 -41 -63 -80 -64 -162 -1 -69 1 -75 27 -98 53 -46
136 -24 171 45 37 71 27 156 -23 210 -36 38 -69 40 -111 5z"/>
<path d="M3746 7758 c-10 -15 -19 -57 -23 -105 -5 -66 -3 -82 11 -96 55 -55
166 40 166 141 l0 42 54 0 c53 0 78 11 56 25 -6 4 -64 9 -129 12 -118 6 -119
6 -135 -19z"/>
<path d="M3841 7109 c-66 -74 -171 -123 -272 -128 -90 -4 -161 14 -262 65 -37
19 -72 32 -78 29 -39 -24 28 -111 116 -151 226 -104 521 -14 563 172 18 79 -4
83 -67 13z"/>
</g>
</svg>
