<?xml version="1.0" standalone="no"?>
<!DOCTYPE svg PUBLIC "-//W3C//DTD SVG 20010904//EN"
 "http://www.w3.org/TR/2001/REC-SVG-20010904/DTD/svg10.dtd">
<svg version="1.0" xmlns="http://www.w3.org/2000/svg"
 width="720.000000pt" height="1117.000000pt" viewBox="0 0 720.000000 1117.000000"
 preserveAspectRatio="xMidYMid meet">
<metadata>
Created by potrace 1.16, written by Peter Selinger 2001-2019
</metadata>
<g transform="translate(0.000000,1117.000000) scale(0.100000,-0.100000)"
fill="#000000" stroke="none">
<path d="M2948 8935 c-129 -33 -249 -117 -359 -252 -35 -43 -73 -85 -84 -95
-11 -9 -87 -36 -170 -61 -325 -98 -406 -138 -461 -223 -39 -61 -39 -84 2 -84
l27 0 -20 -22 c-59 -65 -92 -207 -50 -216 10 -2 27 4 38 14 10 9 22 15 25 12
3 -3 12 -34 20 -67 17 -76 51 -143 99 -199 82 -94 181 -139 398 -177 225 -41
401 -77 410 -85 5 -4 -33 -9 -82 -12 -74 -4 -102 -11 -148 -34 -53 -27 -58
-32 -61 -66 -3 -40 -8 -35 108 -111 35 -23 63 -46 63 -51 -1 -5 -25 -17 -54
-27 l-51 -18 5 21 c3 12 0 36 -8 55 -11 25 -20 33 -40 33 -14 0 -27 -6 -29
-12 -2 -7 -20 -58 -41 -113 -21 -55 -43 -116 -51 -135 -10 -27 -18 -34 -34
-33 -32 4 -60 -15 -60 -40 0 -13 13 -77 30 -143 42 -172 47 -195 70 -344 74
-482 196 -808 355 -948 83 -73 179 -101 231 -68 47 32 55 71 56 275 0 102 -2
215 -6 251 -3 36 -8 99 -11 140 -2 41 -7 109 -10 150 -30 425 -42 760 -27 760
19 0 22 -16 10 -78 -15 -80 3 -166 44 -216 34 -42 45 -44 82 -15 16 13 31 18
36 13 20 -20 40 -133 40 -221 l0 -93 -30 0 c-37 0 -85 23 -99 47 -10 17 -12
17 -26 -1 -25 -33 -20 -126 10 -170 14 -20 25 -39 25 -41 0 -3 -11 -5 -25 -5
-29 0 -32 -16 -8 -50 12 -17 13 -25 5 -28 -42 -14 21 -62 82 -62 33 0 35 -2
41 -42 16 -104 66 -171 145 -197 29 -9 44 -26 84 -94 254 -427 394 -705 431
-851 67 -266 -4 -605 -217 -1031 -90 -179 -220 -357 -397 -545 -45 -48 -80
-94 -81 -106 0 -28 58 -80 98 -89 l34 -7 -70 -64 c-44 -40 -73 -75 -77 -93 -4
-19 9 -80 40 -187 68 -233 76 -276 84 -421 8 -150 17 -171 87 -207 45 -24 220
-36 257 -18 12 6 39 16 59 22 40 12 103 58 126 92 24 33 -6 77 -84 123 -36 21
-72 48 -80 61 -28 42 -76 259 -89 404 l-7 75 22 -27 c22 -28 53 -37 65 -18 10
16 23 12 30 -10 8 -27 40 -25 60 3 9 12 27 60 41 107 14 47 58 180 99 295 102
295 121 356 170 560 30 124 45 174 50 160 15 -41 190 -466 257 -625 69 -164
153 -334 186 -378 21 -27 52 -21 52 9 0 22 22 25 38 6 11 -14 2 -147 -22 -308
-27 -179 -35 -196 -150 -310 -79 -78 -86 -88 -86 -125 1 -38 2 -40 68 -71 58
-28 79 -33 157 -35 73 -1 99 2 136 19 57 26 118 80 159 140 27 42 30 54 30
127 0 131 18 262 51 375 35 121 59 231 59 267 0 16 -17 44 -50 78 l-50 53 28
20 c32 24 54 89 46 132 -4 20 -33 54 -95 111 -108 99 -206 228 -323 423 -145
243 -262 504 -311 691 -34 132 -43 240 -60 726 -9 234 -19 520 -24 635 -5 116
-7 235 -4 267 l5 56 37 -15 c91 -38 261 13 336 100 81 94 140 240 170 420 9
51 22 209 30 352 9 161 22 300 35 365 11 58 21 134 23 169 2 62 -4 74 -41 87
-1 0 4 19 12 40 43 122 29 182 -83 351 -111 168 -180 211 -321 201 -109 -8
-217 -80 -255 -170 -23 -56 -19 -86 15 -120 31 -30 32 -30 120 -26 l90 4 0
-58 c0 -32 -4 -58 -9 -58 -5 0 -26 7 -46 16 -21 8 -62 16 -91 17 -46 1 -58 -3
-84 -28 -39 -38 -38 -53 8 -71 140 -56 238 -128 226 -167 -4 -12 8 -48 35
-101 51 -103 98 -243 110 -332 31 -223 21 -569 -20 -692 -47 -140 -158 -192
-249 -116 -42 36 -75 85 -169 257 -131 239 -432 728 -502 817 l-40 51 21 34
c24 39 24 40 -41 241 -43 133 -62 160 -105 150 -27 -7 -83 -57 -117 -106 -14
-20 -17 -21 -12 -5 4 11 24 90 46 175 49 189 59 316 35 429 -17 79 -62 185
-91 214 -16 16 -16 19 -1 36 21 24 20 53 -4 83 -14 18 -16 28 -8 36 14 14 -11
54 -48 79 -36 23 -179 27 -256 8z m269 -39 c31 -37 25 -51 -23 -49 -21 0 -29
-1 -18 -4 37 -7 96 -65 89 -85 -10 -25 -47 -22 -105 7 -72 36 -74 31 -5 -11
82 -49 109 -77 139 -143 79 -176 76 -332 -14 -651 -23 -80 -48 -183 -56 -230
-8 -47 -17 -94 -19 -105 -2 -12 -20 -28 -38 -37 -31 -15 -42 -31 -60 -90 -5
-13 -14 -15 -46 -11 -28 4 -48 1 -65 -11 -34 -22 -67 -20 -134 8 -31 13 -133
38 -227 56 -368 70 -403 78 -466 108 -116 55 -212 177 -238 300 -15 73 -13
118 8 180 10 28 16 52 15 52 -7 0 -41 -76 -48 -105 -8 -34 -43 -75 -63 -75
-21 0 -16 64 9 118 12 26 51 76 87 111 58 56 68 73 21 36 -20 -16 -100 -35
-100 -24 0 15 45 82 71 106 39 36 115 68 294 126 229 74 239 76 260 43 22 -32
30 -28 14 7 -10 23 -8 29 27 64 22 21 64 68 95 105 147 174 280 240 473 235
94 -3 100 -4 123 -31z m1287 -586 c19 -7 24 -14 19 -27 -6 -16 -5 -16 9 -5 22
18 45 5 96 -54 36 -40 40 -49 31 -71 -8 -23 -8 -24 6 -13 19 16 24 10 86 -98
54 -93 60 -146 30 -239 -12 -38 -31 -78 -41 -91 l-19 -23 -21 21 c-24 24 -41
22 -55 -7 -11 -21 -11 -21 -38 3 -32 27 -98 49 -121 41 -9 -4 -21 -18 -26 -32
-13 -35 -49 -33 -86 6 -38 41 -123 96 -193 124 -30 13 -57 28 -59 34 -2 6 11
20 30 31 27 17 43 20 82 15 80 -10 116 -29 116 -62 0 -27 33 -93 46 -93 3 0
-1 11 -10 25 -14 22 -16 45 -12 153 5 129 21 197 54 237 16 19 16 19 -2 5 -11
-8 -32 -43 -48 -77 -25 -57 -31 -63 -70 -73 -52 -15 -123 -5 -149 21 -57 57
29 200 147 243 45 17 161 20 198 6z m-1036 -405 c13 -12 82 -264 78 -281 -15
-60 -128 -114 -238 -114 -75 0 -75 16 0 23 102 9 192 66 192 123 0 32 -49 183
-77 238 l-15 29 29 -7 c15 -4 29 -9 31 -11z m-31 -90 c37 -93 38 -95 19 -95
-8 0 -24 -15 -35 -32 -24 -39 -78 -84 -126 -104 -66 -27 -68 -18 -26 107 47
139 90 213 120 207 9 -2 30 -37 48 -83z m1139 -111 c21 -14 49 -38 61 -53 24
-28 26 -25 23 27 -2 38 5 40 37 10 l23 -22 29 28 c20 19 36 26 47 22 14 -5 16
-16 11 -70 -3 -34 -15 -107 -26 -162 -13 -63 -24 -180 -31 -324 -13 -272 -32
-419 -68 -543 -63 -211 -173 -334 -316 -353 -42 -6 -44 -6 -39 18 7 37 -39 70
-91 66 -44 -3 -43 -4 -49 71 l-4 53 23 -30 c31 -39 97 -66 144 -57 116 22 173
133 188 367 11 165 -2 470 -23 560 -19 82 -69 216 -107 285 -45 82 -36 97 44
69 36 -13 36 -13 26 10 -26 56 31 73 98 28z m-1362 -130 c20 -8 20 -33 1 -98
-8 -28 -17 -64 -20 -79 -3 -16 -10 -25 -16 -21 -6 3 -47 6 -91 5 -87 -1 -108
7 -108 45 0 33 33 48 92 41 43 -6 48 -4 48 14 0 37 41 99 66 99 7 0 19 -3 28
-6z m344 -76 c51 -67 145 -218 135 -218 -51 3 -105 31 -156 79 -51 50 -57 60
-63 108 -5 46 -4 56 12 68 11 8 22 15 25 15 4 0 25 -24 47 -52z m-100 -50 c6
-35 14 -85 18 -112 l7 -49 -53 6 c-74 9 -118 35 -168 99 -38 48 -42 59 -33 77
10 18 22 21 74 22 34 1 73 5 87 9 53 17 57 14 68 -52z m-530 -8 c8 -4 -28 -10
-79 -13 -127 -9 -202 -32 -247 -74 -34 -32 -37 -33 -49 -17 -7 10 -13 23 -13
29 0 32 79 71 168 84 60 9 197 3 220 -9z m35 -37 c13 -8 -24 -43 -66 -64 -20
-11 -63 -25 -94 -32 -60 -14 -78 -31 -44 -42 26 -8 27 -25 2 -25 -15 0 -121
74 -121 85 0 2 -3 10 -6 19 -16 41 272 92 329 59z m329 -133 c51 -73 82 -94
173 -112 l55 -11 41 -82 c73 -147 162 -239 364 -379 209 -145 248 -194 249
-316 1 -50 -5 -79 -23 -118 -14 -29 -30 -52 -37 -52 -6 0 -24 16 -38 35 -15
19 -31 35 -35 35 -5 0 -10 -37 -13 -82 -7 -127 -34 -163 -100 -133 -14 5 -18
2 -18 -14 0 -28 -14 -27 -34 4 -24 37 -34 31 -29 -19 3 -24 0 -53 -7 -66 -11
-21 -17 -22 -72 -17 -34 3 -82 16 -112 31 -29 14 -56 26 -59 26 -16 0 -4 -27
25 -57 l32 -33 -51 0 c-41 0 -60 6 -101 34 -28 19 -53 32 -56 29 -3 -3 8 -29
25 -58 l30 -53 -25 -6 c-13 -3 -48 -1 -76 4 -29 6 -54 10 -56 10 -2 0 -22 16
-44 36 -71 64 -86 173 -54 409 20 148 14 287 -14 366 l-20 57 29 28 c35 33 36
45 8 70 -12 10 -33 39 -47 63 -23 39 -26 57 -26 130 -1 47 3 125 8 172 7 72 6
92 -8 119 -21 43 -21 43 9 36 20 -5 25 -2 26 11 0 15 3 14 17 -6 9 -14 38 -55
64 -91z m68 19 c25 -10 71 -13 155 -12 182 3 219 -15 208 -104 l-6 -51 -31 13
c-17 7 -89 22 -160 33 -86 13 -137 26 -155 39 -30 23 -95 104 -118 148 -14 28
-13 28 28 -11 24 -22 60 -47 79 -55z m-209 45 c21 -34 21 -42 13 -138 -17
-212 -7 -278 57 -351 l33 -38 -57 -53 c-32 -30 -64 -54 -72 -54 -33 0 -75 97
-75 175 0 49 12 93 57 215 31 84 34 102 30 165 -3 38 -8 80 -12 93 -11 33 0
27 26 -14z m-40 -11 c21 -61 15 -135 -17 -219 -26 -68 -46 -96 -60 -82 -2 3 9
34 26 69 32 67 38 117 18 137 -7 7 -40 12 -77 12 l-65 0 33 32 c18 17 39 44
47 60 12 22 21 28 48 28 31 0 36 -4 47 -37z m-63 -99 c31 -9 29 -54 -7 -131
-24 -49 -38 -66 -70 -82 -52 -27 -59 -26 -34 2 34 37 38 54 6 25 -34 -33 -41
-34 -60 -10 -12 15 -13 14 -7 -11 10 -45 -33 -93 -90 -99 -24 -3 -58 -15 -74
-27 -37 -26 -38 -26 -45 -1 -12 47 -66 28 -91 -33 l-11 -29 -30 61 c-33 70
-50 75 -78 21 l-18 -35 3 67 c3 49 10 76 25 95 33 45 109 94 154 100 23 4 36
9 29 13 -20 12 85 42 122 35 22 -4 29 -3 19 3 -20 14 41 25 219 40 8 1 25 -1
38 -4z m799 -181 c131 -215 273 -464 273 -478 0 -3 -26 16 -57 42 -32 25 -82
62 -111 81 -46 29 -58 44 -88 106 -18 40 -61 121 -94 180 -53 95 -58 110 -45
123 8 8 15 32 15 54 0 21 4 39 9 39 4 0 49 -66 98 -147z m-181 84 c5 -7 155
-280 173 -315 37 -72 26 -69 -87 27 -77 65 -174 203 -197 280 -7 24 -7 24 51
17 32 -4 59 -8 60 -9z m-662 -279 c11 -250 25 -496 47 -803 19 -254 21 -476 6
-491 -2 -3 -16 1 -30 7 -22 10 -31 9 -52 -5 -33 -22 -50 -63 -34 -83 18 -21
74 -13 74 11 0 11 -5 21 -11 23 -7 2 -11 -4 -10 -13 1 -20 -14 -27 -33 -15
-17 11 -6 48 20 62 48 25 86 -28 55 -76 -14 -21 -24 -25 -63 -25 -117 0 -232
109 -328 313 -84 177 -134 365 -190 713 -14 87 -42 228 -62 311 -20 84 -34
155 -31 159 14 14 46 -18 63 -63 29 -80 36 -76 47 26 5 45 24 32 58 -39 19
-38 37 -70 40 -70 4 0 13 19 19 43 15 49 28 67 48 67 10 0 14 -10 13 -32 -3
-51 -2 -52 37 -18 51 45 102 66 119 48 11 -11 6 -24 -32 -78 -91 -130 -97
-149 -102 -300 -5 -175 17 -366 59 -498 37 -117 122 -290 166 -340 30 -35 32
-36 49 -20 16 16 16 37 5 325 -6 169 -16 400 -21 513 -5 113 -10 264 -10 336
l0 130 33 17 c17 8 35 16 38 16 4 1 9 -68 13 -151z m-85 -493 c20 -408 25
-685 13 -685 -13 0 -60 67 -96 137 -108 214 -151 426 -144 705 4 159 8 171 94
296 24 35 44 68 44 75 0 7 15 30 33 52 l32 39 7 -199 c4 -110 12 -299 17 -420z
m217 50 c20 -14 50 -25 67 -25 l30 0 -6 -62 c-3 -35 -9 -96 -13 -135 l-7 -73
-41 0 c-51 0 -74 17 -48 36 16 12 15 14 -5 29 -32 22 -29 32 13 45 l35 12 -34
33 c-37 36 -53 87 -42 136 4 16 8 29 10 29 2 0 21 -11 41 -25z m998 -222 c6 8
16 23 22 33 8 14 12 -42 17 -226 15 -596 44 -1194 63 -1306 38 -220 164 -517
344 -814 109 -181 202 -301 316 -409 87 -82 93 -91 75 -100 -31 -17 -50 -13
-91 19 -57 45 -61 36 -7 -14 40 -36 48 -49 45 -73 -3 -26 -6 -28 -55 -31 -40
-2 -65 3 -105 22 -29 14 -54 24 -56 22 -1 -2 15 -30 37 -61 66 -94 46 -126
-38 -64 -24 17 -45 28 -48 25 -3 -2 3 -37 13 -76 14 -52 16 -75 8 -88 -16 -25
-47 -26 -69 -2 -26 29 -35 25 -28 -14 3 -19 1 -36 -6 -40 -12 -8 -43 39 -101
154 -45 89 -284 654 -340 804 -38 100 -38 87 10 356 30 165 42 357 32 474 -9
96 -12 104 -87 254 l-77 155 7 431 c5 315 11 446 21 486 8 30 14 72 14 93 l0
39 37 -32 c31 -28 38 -30 47 -17z m-134 -175 c0 -19 -32 -32 -59 -23 -14 4
-32 -7 -67 -42 -46 -45 -49 -47 -105 -47 -46 1 -58 -2 -62 -16 -6 -23 -81 -37
-102 -20 -25 20 -17 30 23 30 52 0 57 9 25 42 -32 33 -32 33 42 8 107 -37 157
-23 171 48 6 28 9 30 22 20 12 -11 17 -10 25 3 15 23 87 21 87 -3z m0 -414
c-1 -206 -5 -374 -8 -374 -4 0 -47 72 -97 161 -49 88 -129 224 -177 301 -48
77 -88 144 -88 149 0 5 16 9 35 9 23 0 41 7 52 20 13 15 30 20 65 20 47 0 59
7 127 71 9 8 33 16 54 16 l38 0 -1 -373z m-482 317 c9 -5 24 -12 32 -14 45
-14 527 -852 585 -1016 24 -68 22 -118 -4 -144 l-22 -22 -19 23 c-10 12 -26
43 -36 68 -15 40 -15 47 -2 60 18 18 41 10 58 -21 11 -20 11 -27 -1 -41 -12
-15 -12 -17 1 -12 36 12 14 89 -30 103 -69 22 -63 -114 8 -178 16 -15 25 -16
41 -8 11 6 22 11 25 11 20 0 -5 -273 -45 -495 -62 -343 -107 -521 -205 -810
-52 -154 -112 -338 -133 -408 -22 -70 -45 -135 -52 -143 -18 -22 -37 1 -48 57
-5 24 -9 36 -10 27 -2 -33 -24 -68 -43 -68 -28 0 -48 58 -48 142 -1 69 -1 71
-14 43 -7 -16 -23 -39 -36 -50 -22 -20 -22 -20 -37 0 -11 15 -13 36 -10 78 3
31 2 57 -1 57 -3 0 -17 -11 -31 -24 -68 -63 -101 -34 -56 51 15 29 25 56 22
59 -2 3 -28 -2 -56 -12 -60 -19 -152 -24 -158 -8 -2 7 34 52 79 101 106 113
237 276 301 373 27 41 82 143 122 225 206 421 268 754 190 1020 -41 143 -174
406 -371 737 -52 86 -94 159 -94 162 0 3 17 6 38 6 52 0 65 15 46 51 -16 31
-13 34 14 20z m1317 -2667 c33 -5 52 -18 109 -78 l68 -71 -6 -60 c-3 -33 -24
-123 -46 -200 -37 -124 -43 -160 -53 -316 -12 -171 -13 -177 -42 -215 -63 -83
-155 -144 -219 -144 -28 0 -28 1 -22 41 10 60 32 96 75 124 36 22 60 45 47 45
-13 0 -98 -64 -111 -83 -7 -12 -19 -43 -26 -70 -14 -56 -20 -61 -65 -53 -26 5
-34 12 -34 28 0 37 47 104 104 147 31 23 56 46 56 51 0 13 -114 -74 -140 -107
-11 -14 -25 -43 -32 -65 -9 -32 -15 -37 -32 -32 -35 10 -40 21 -25 56 19 45
75 106 121 129 21 11 38 24 38 29 0 5 -15 -1 -34 -13 -18 -12 -47 -30 -64 -39
-18 -9 -44 -40 -62 -72 -32 -56 -43 -65 -55 -46 -15 25 19 80 85 140 76 67
117 127 132 193 16 71 48 309 48 360 0 26 4 47 10 47 5 0 7 7 4 14 -3 8 4 25
15 37 25 27 26 40 7 103 -8 26 -11 46 -8 44 40 -22 87 -38 100 -36 27 5 26 46
-3 90 l-27 41 23 -7 c13 -3 42 -9 64 -12z m-1469 -165 c13 -4 32 -2 49 7 15 8
28 14 30 14 1 0 5 -19 9 -42 7 -41 29 -78 48 -78 4 0 17 9 27 19 19 19 19 18
19 -87 -1 -145 45 -402 86 -479 8 -16 44 -45 82 -68 38 -22 75 -53 84 -68 14
-25 13 -28 -11 -53 l-26 -26 -21 36 c-11 19 -38 44 -60 55 -22 11 -54 32 -72
48 -29 24 -31 24 -21 6 6 -12 39 -39 72 -59 54 -34 79 -64 79 -95 0 -13 -88
-52 -100 -44 -6 3 -10 17 -10 31 0 17 -22 48 -67 97 -37 40 -68 74 -70 77 -2
2 -1 -4 3 -15 4 -11 29 -43 56 -72 46 -49 68 -88 68 -118 0 -19 -35 -28 -76
-21 -28 6 -35 12 -44 45 -5 21 -27 58 -48 82 -21 24 -44 53 -50 64 -6 11 -12
15 -12 9 0 -6 11 -28 25 -48 14 -20 36 -52 50 -72 14 -20 25 -46 25 -57 0 -18
-5 -19 -46 -13 -57 7 -107 37 -123 73 -7 14 -16 92 -21 172 -5 80 -14 164 -20
186 -6 22 -32 111 -57 199 -29 102 -42 168 -38 185 3 15 37 55 78 92 63 59 73
64 77 47 3 -12 15 -24 26 -29z"/>
<path d="M2970 8728 c0 -13 -5 -40 -11 -60 -8 -31 -15 -38 -34 -38 -19 0 -25
5 -25 23 l0 22 -18 -21 c-12 -16 -32 -23 -73 -27 -173 -16 -251 -165 -148
-282 45 -51 61 -52 148 -11 85 39 248 89 263 80 5 -3 19 3 31 14 31 28 62 42
91 42 28 0 36 -9 47 -54 l7 -31 1 36 c2 63 -35 80 -115 54 -17 -5 -23 -2 -28
20 -4 14 -26 45 -51 68 -33 32 -42 46 -35 57 17 27 10 35 -10 12 -30 -36 -40
-19 -33 53 3 36 3 65 -1 65 -3 0 -6 -10 -6 -22z m20 -138 c43 -22 85 -66 99
-103 16 -41 14 -44 -25 -51 -19 -4 -42 -10 -50 -13 -10 -4 -14 4 -14 29 0 80
-76 142 -174 142 -108 -1 -163 -47 -153 -130 5 -47 41 -98 79 -110 25 -8 22
-22 -6 -30 -34 -8 -71 19 -96 70 -26 55 -25 80 5 131 26 45 67 70 138 85 57
12 154 2 197 -20z"/>
<path d="M3145 8449 c-11 -6 -63 -55 -115 -108 -52 -53 -111 -104 -130 -113
-20 -10 -70 -21 -113 -26 -106 -14 -136 -34 -186 -132 -23 -44 -50 -84 -60
-89 -10 -6 -60 -19 -112 -31 -100 -21 -181 -63 -187 -94 -5 -25 42 -71 98 -95
26 -11 125 -40 221 -65 96 -25 208 -55 249 -66 54 -15 97 -20 151 -18 90 4
130 28 167 102 44 87 95 397 96 582 1 106 -1 124 -18 143 -21 24 -32 25 -61
10z m56 -31 c28 -52 -23 -519 -71 -656 -11 -31 -34 -71 -52 -89 -64 -66 -122
-66 -348 -3 -74 21 -175 47 -223 59 -113 28 -185 55 -221 84 -35 28 -31 48 16
77 33 20 45 24 173 54 81 19 96 32 144 122 44 83 68 101 151 115 148 24 146
23 268 146 66 65 121 113 132 113 11 0 25 -10 31 -22z"/>
<path d="M3125 8313 c-16 -26 -54 -72 -85 -103 -61 -62 -102 -81 -214 -98 -86
-13 -110 -31 -161 -118 -53 -90 -92 -111 -239 -126 -58 -6 -106 -14 -106 -18
0 -13 111 -58 220 -89 58 -17 134 -42 170 -56 148 -58 267 -55 328 8 36 37 69
140 107 332 27 140 39 315 22 315 -7 0 -25 -21 -42 -47z m10 -79 c29 -70 15
-102 -29 -69 -29 22 -34 11 -29 -59 l6 -64 -47 5 -46 6 0 -39 c0 -22 -3 -49
-6 -61 l-6 -22 -39 19 c-62 32 -69 29 -69 -40 0 -33 -2 -60 -4 -60 -2 0 -29
12 -61 26 -31 15 -60 22 -65 18 -4 -5 -10 -31 -14 -58 -3 -27 -7 -50 -8 -51
-2 -2 -28 7 -58 20 -71 31 -75 31 -87 -7 l-9 -33 -37 40 c-20 22 -37 43 -37
46 0 4 17 10 37 14 76 14 122 54 169 147 29 58 58 73 164 88 93 13 135 36 201
109 30 33 55 60 56 60 2 1 10 -15 18 -35z m-1 -159 c-13 -83 -72 -295 -91
-327 -36 -64 -129 -85 -238 -54 -131 37 -215 71 -215 88 0 27 12 28 74 2 33
-13 63 -24 68 -24 4 0 8 21 8 48 0 73 8 78 68 48 28 -14 56 -26 61 -26 5 0 12
27 16 60 4 33 9 60 11 60 3 0 22 -9 44 -20 22 -11 43 -20 49 -20 5 0 12 27 16
61 l7 60 42 -3 41 -3 2 55 c1 30 2 59 2 64 1 5 10 1 22 -9 16 -16 19 -26 13
-60z"/>
<path d="M2348 8357 c-32 -14 -91 -67 -114 -102 -9 -14 -26 -25 -38 -26 -11 0
-15 -3 -8 -6 6 -2 12 -11 12 -20 0 -12 -12 -14 -65 -11 -82 4 -85 -7 -4 -16
49 -6 60 -10 55 -22 -3 -9 -6 -21 -6 -29 0 -7 -10 -16 -22 -20 l-23 -8 23 -4
c17 -3 22 -11 22 -33 0 -38 16 -80 42 -107 l20 -21 -22 -29 c-22 -31 -21 -72
5 -93 10 -8 10 -2 2 29 -14 50 -3 64 65 87 30 10 46 19 38 24 -8 5 21 42 87
111 139 147 143 152 143 163 0 6 -14 35 -31 64 -42 75 -111 101 -181 69z m129
-31 c16 -14 38 -43 48 -66 17 -38 17 -42 2 -58 -16 -15 -17 -14 -17 15 0 94
-85 140 -177 96 -43 -20 -90 -92 -99 -150 -11 -71 31 -153 78 -153 23 0 23 -5
-3 -42 -59 -82 -135 47 -104 177 36 155 185 254 272 181z"/>
<path d="M3836 8844 c-21 -32 -53 -81 -70 -109 l-32 -50 -63 3 c-35 1 -82 7
-103 13 -51 13 -59 5 -22 -23 16 -12 46 -40 66 -61 l37 -39 -28 -57 c-40 -79
-94 -221 -87 -228 3 -4 7 -4 9 -2 2 2 25 36 52 74 63 90 133 165 154 165 9 0
51 -20 93 -45 124 -72 129 -62 21 47 l-76 77 47 135 c27 74 46 141 44 147 -2
7 -21 -14 -42 -47z m-33 -137 l-37 -98 65 -66 64 -66 -66 37 c-36 20 -73 36
-81 36 -15 0 -117 -101 -151 -150 l-18 -25 7 25 c4 14 22 55 40 92 19 37 34
75 34 85 0 9 -19 37 -42 61 -30 31 -37 42 -23 38 29 -8 141 -10 154 -2 6 4 23
31 37 59 57 112 64 100 17 -26z"/>
<path d="M4033 8468 c-5 -7 -33 -52 -62 -100 -29 -48 -57 -91 -64 -95 -6 -4
-43 -10 -82 -13 l-70 -6 47 -22 c84 -42 84 -43 38 -173 -22 -63 -40 -117 -40
-121 0 -25 25 3 79 87 66 103 70 105 144 84 22 -6 41 -9 43 -6 2 2 -10 19 -27
38 -65 71 -64 63 -24 204 35 122 39 150 18 123z m-44 -150 c-25 -84 -24 -115
6 -154 l25 -33 -42 2 c-38 2 -44 -1 -74 -43 -19 -25 -40 -54 -49 -65 -9 -13
-5 8 10 54 33 97 32 116 -5 137 l-29 18 47 15 c39 13 53 26 85 74 21 31 40 57
42 57 2 0 -5 -28 -16 -62z"/>
<path d="M1430 7632 c0 -5 30 -35 68 -67 37 -31 80 -76 95 -99 27 -39 28 -45
22 -112 -3 -39 -10 -87 -15 -108 -10 -45 4 -56 24 -18 25 48 66 92 87 92 11 0
80 -25 155 -56 75 -30 140 -54 145 -52 5 2 -41 44 -102 93 -62 50 -118 99
-125 110 -11 17 -9 33 17 109 16 49 28 91 25 93 -2 2 -27 -21 -56 -51 -80 -84
-87 -83 -327 67 -7 5 -13 4 -13 -1z m346 -122 c-27 -68 -22 -92 32 -141 26
-25 64 -57 85 -73 21 -16 36 -30 34 -32 -2 -2 -49 14 -105 36 -57 22 -110 40
-118 40 -9 0 -31 -16 -49 -35 l-32 -35 9 62 c10 78 5 106 -33 157 -33 47 -32
49 13 21 18 -11 46 -20 62 -20 33 0 91 33 100 57 4 9 9 13 12 10 4 -3 -1 -24
-10 -47z"/>
<path d="M1976 7516 l89 -84 -2 -78 c-2 -72 -1 -77 12 -59 8 10 21 34 27 52 9
24 17 32 28 27 140 -55 202 -76 207 -70 4 3 -3 13 -15 22 -39 27 -137 115
-145 131 -6 10 -2 22 14 39 29 31 20 39 -24 23 -32 -11 -42 -9 -144 34 -61 26
-116 47 -123 47 -7 0 27 -38 76 -84z m73 8 c45 -19 89 -33 97 -30 11 4 13 0 8
-18 -4 -19 6 -33 58 -81 35 -32 54 -55 43 -51 -11 5 -49 19 -84 32 -60 24 -64
24 -77 7 -12 -16 -13 -14 -14 22 0 35 -6 46 -62 97 -33 32 -59 58 -56 58 2 0
42 -16 87 -36z"/>
<path d="M1862 7181 c-38 -48 -70 -56 -142 -36 -30 8 -59 15 -65 15 -5 0 17
-24 49 -53 58 -52 59 -54 70 -127 l12 -75 30 45 c21 33 37 46 58 48 23 3 160
-30 219 -53 9 -4 17 -3 17 3 0 6 -37 30 -81 53 -45 24 -95 54 -112 68 -28 24
-29 27 -23 88 4 35 5 63 3 63 -2 0 -18 -18 -35 -39z m10 -54 c-4 -36 27 -76
81 -104 39 -19 28 -27 -20 -14 -61 17 -83 13 -114 -20 l-29 -31 0 31 c0 37
-19 78 -49 105 -12 11 -21 22 -21 25 0 3 24 5 53 3 43 -3 56 0 71 17 26 29 33
26 28 -12z"/>
</g>
</svg>
