<?xml version="1.0" standalone="no"?>
<!DOCTYPE svg PUBLIC "-//W3C//DTD SVG 20010904//EN"
 "http://www.w3.org/TR/2001/REC-SVG-20010904/DTD/svg10.dtd">
<svg version="1.0" xmlns="http://www.w3.org/2000/svg"
 width="720.000000pt" height="1117.000000pt" viewBox="0 0 720.000000 1117.000000"
 preserveAspectRatio="xMidYMid meet">
<metadata>
Created by potrace 1.16, written by Peter Selinger 2001-2019
</metadata>
<g transform="translate(0.000000,1117.000000) scale(0.100000,-0.100000)"
fill="#000000" stroke="none">
<path d="M5787 8138 c-4 -579 -11 -1262 -17 -1518 -7 -256 -15 -910 -18 -1455
l-7 -990 -70 -6 c-38 -3 -119 -9 -180 -13 l-110 -6 -42 62 c-24 34 -41 63 -39
65 1 2 24 -5 49 -14 25 -9 49 -14 53 -10 4 3 -16 28 -43 54 -28 27 -65 76 -83
111 -41 78 -127 160 -203 193 -57 24 -72 39 -39 39 10 0 40 14 66 30 37 24 45
34 37 44 -6 8 -22 11 -37 8 -16 -3 -58 8 -109 29 l-83 33 -9 105 c-11 138 -8
1517 4 2101 l9 455 27 75 c40 110 39 116 -18 95 -11 -4 3 13 30 38 42 38 47
46 32 52 -9 4 -37 4 -60 1 l-44 -7 -17 63 c-22 80 -101 242 -163 335 -108 160
-240 294 -440 444 -377 284 -709 399 -1155 399 -417 0 -694 -69 -936 -231
-320 -216 -521 -454 -704 -835 -70 -147 -103 -269 -113 -414 -11 -147 -11
-162 -1 -189 l8 -24 -45 26 c-47 28 -77 34 -77 17 0 -5 24 -41 54 -80 46 -59
55 -79 60 -123 13 -119 27 -623 36 -1257 5 -371 14 -800 21 -952 11 -265 11
-278 -7 -306 -19 -29 -222 -221 -350 -332 l-64 -55 7 -365 c10 -441 10 -454
-5 -755 -6 -132 -12 -427 -12 -655 l0 -415 1158 -2 c636 -1 1800 -7 2586 -14
1088 -9 1431 -10 1434 -1 2 7 10 12 18 12 12 0 14 42 14 255 l0 255 25 12 c29
13 29 11 10 74 -28 96 -36 224 -45 705 l-9 486 -128 125 c-70 68 -159 154
-198 190 l-70 67 3 693 c2 381 7 952 13 1268 23 1386 29 1843 29 2433 0 520
-2 627 -13 627 -12 0 -15 -179 -20 -1052z m-2307 753 c218 -46 367 -107 579
-233 82 -50 273 -188 284 -205 3 -5 -16 -47 -44 -93 -27 -45 -64 -108 -81
-139 -17 -31 -50 -86 -74 -123 l-44 -68 -867 0 c-478 0 -873 4 -879 8 -12 7
-304 537 -304 551 0 13 131 106 224 159 110 63 225 105 358 132 166 32 259 39
513 35 193 -3 258 -7 335 -24z m-1369 -479 c48 -86 117 -212 153 -279 l68
-123 -11 -250 c-6 -138 -11 -273 -11 -301 l0 -51 -47 6 c-27 4 -81 14 -121 23
-89 21 -106 11 -65 -37 l28 -33 -30 7 c-16 4 -102 12 -190 16 -91 5 -181 16
-209 25 -71 22 -94 20 -102 -10 -8 -32 24 -84 67 -109 18 -11 28 -21 21 -24
-26 -8 -121 20 -201 61 l-84 42 7 100 c8 128 43 258 106 392 117 248 235 420
402 586 65 64 121 117 125 117 5 0 47 -71 94 -158z m2361 -74 c183 -180 311
-381 371 -586 l16 -52 -29 -15 c-39 -20 -40 -20 -40 14 0 47 -19 47 -68 -2
-26 -24 -56 -49 -67 -55 -28 -14 -216 -65 -221 -59 -2 2 2 17 11 33 23 44 18
134 -7 134 -5 0 -20 -13 -34 -29 -15 -18 -41 -33 -69 -40 -25 -6 -75 -25 -110
-41 -36 -17 -69 -30 -74 -30 -4 0 -11 92 -15 204 l-7 205 118 200 c65 111 123
201 130 201 6 0 49 -37 95 -82z m-367 -420 c3 -51 5 -147 3 -212 l-3 -119 -79
-34 c-43 -18 -81 -32 -83 -29 -2 2 7 21 22 41 25 38 33 79 16 89 -4 3 -21 -5
-36 -19 -19 -16 -78 -37 -179 -65 -83 -23 -181 -52 -218 -65 -70 -25 -77 -23
-53 9 17 23 20 62 4 71 -17 11 -51 -2 -117 -45 -35 -22 -65 -40 -67 -40 -3 0
-5 11 -5 25 0 34 -44 77 -73 73 -19 -3 -22 -8 -19 -46 8 -95 -56 -127 -236
-120 -143 6 -169 16 -200 81 -12 26 -29 47 -37 47 -20 0 -37 -36 -33 -73 2
-27 0 -32 -17 -30 -175 21 -228 25 -287 21 l-69 -4 6 201 c4 110 8 223 10 250
2 28 4 58 4 68 1 16 49 17 870 17 l869 0 7 -92z m325 -252 c0 -13 -11 -40 -25
-60 -14 -21 -23 -42 -20 -47 12 -18 78 -6 258 47 9 3 38 21 63 40 54 42 69 38
25 -5 -48 -47 -28 -54 42 -16 62 34 147 68 153 62 2 -2 -18 -27 -46 -55 -60
-62 -97 -129 -80 -146 8 -8 25 4 66 47 31 33 57 57 59 55 4 -4 -46 -184 -70
-248 -9 -25 -30 -92 -46 -150 -16 -58 -32 -113 -36 -122 -8 -25 24 -23 39 2
22 34 30 22 23 -32 -9 -66 -31 -128 -89 -254 -56 -123 -62 -166 -15 -111 l20
22 -7 -25 c-15 -56 -93 -208 -128 -249 -20 -24 -35 -46 -32 -48 2 -2 22 5 45
16 63 32 68 25 16 -21 -27 -24 -86 -92 -131 -153 -45 -60 -98 -126 -118 -144
-20 -19 -36 -45 -36 -57 0 -22 -155 -237 -241 -333 -45 -51 -63 -81 -39 -66
16 10 11 -17 -8 -50 -11 -16 -56 -74 -101 -128 -102 -123 -115 -148 -115 -217
-1 -116 58 -163 281 -222 112 -30 175 -41 259 -45 98 -5 111 -8 120 -26 6 -13
27 -25 59 -33 28 -7 85 -31 127 -54 43 -23 114 -52 160 -64 46 -13 106 -33
133 -44 28 -12 59 -24 70 -27 19 -6 19 -7 1 -17 -10 -6 -48 -13 -83 -16 -83
-6 -81 -25 7 -56 92 -32 150 -68 206 -129 39 -43 86 -114 112 -169 2 -3 -7 -8
-20 -10 -33 -4 -26 -28 38 -119 30 -43 77 -123 104 -177 27 -55 61 -113 75
-130 15 -18 21 -33 15 -37 -5 -3 -14 -4 -19 -1 -13 9 -39 -3 -45 -21 -9 -22
24 -89 88 -183 31 -46 56 -86 56 -91 0 -17 -22 -20 -39 -5 -21 19 -38 21 -43
4 -3 -7 8 -51 23 -98 19 -60 29 -117 34 -194 10 -157 25 -203 116 -349 75
-120 92 -156 69 -142 -20 13 -39 -14 -30 -43 57 -189 62 -214 75 -387 8 -99
17 -201 21 -228 l6 -47 -339 2 -338 3 -12 60 c-16 83 -43 267 -57 400 -11 101
-10 115 6 151 10 21 17 50 17 64 0 21 -2 20 -16 -12 -16 -40 -39 -53 -27 -16
19 62 0 238 -68 613 -44 245 -96 560 -93 564 2 2 23 -4 47 -13 50 -19 149 -26
155 -11 2 6 -25 23 -60 38 -61 27 -137 90 -124 103 3 4 27 -6 53 -21 34 -20
49 -24 57 -16 8 8 -10 33 -68 92 -86 87 -153 144 -160 137 -3 -2 27 -39 65
-81 66 -71 69 -76 43 -74 -25 2 -28 -1 -26 -28 1 -22 15 -41 49 -72 27 -23 46
-45 43 -47 -12 -12 -75 32 -103 71 -44 64 -67 54 -26 -12 13 -21 28 -85 45
-193 14 -89 39 -234 56 -324 16 -89 46 -261 65 -382 39 -238 40 -300 8 -401
-15 -47 -15 -55 -2 -68 11 -12 16 -52 21 -164 4 -81 10 -196 13 -255 l7 -108
-1174 7 c-646 3 -1176 7 -1178 10 -13 11 -23 170 -31 528 -6 220 -13 448 -16
506 -5 84 -3 111 9 135 20 38 32 104 20 104 -6 0 -15 -18 -22 -40 -11 -38 -59
-105 -68 -96 -3 2 4 31 15 63 16 45 23 107 32 273 17 319 22 347 80 465 57
116 82 183 74 197 -10 15 -21 -2 -49 -77 -14 -38 -37 -89 -51 -112 -56 -97
-69 -171 -83 -503 -8 -178 -11 -201 -36 -263 -31 -76 -25 -100 18 -80 24 11
24 10 30 -50 18 -180 19 -405 2 -547 -12 -101 -16 -199 -13 -325 l3 -180 -73
0 c-39 0 -152 2 -251 3 l-178 2 4 73 c2 39 14 176 25 302 23 251 26 472 9 634
-6 57 -11 168 -11 246 l0 144 55 55 c30 30 55 62 55 72 0 16 -1 16 -20 -1 -20
-18 -20 -17 -21 21 l0 39 -24 -50 c-33 -70 -30 -35 9 123 19 75 46 191 60 257
33 158 60 243 108 340 58 119 77 150 135 220 69 84 128 127 303 220 174 93
217 122 264 177 111 130 42 279 -179 384 -51 24 -97 44 -100 44 -4 0 -40 15
-79 34 -77 35 -115 69 -177 152 -48 65 -94 101 -173 135 -54 23 -60 29 -61 55
0 25 -10 35 -90 84 -116 71 -179 117 -234 174 -71 73 -34 72 56 -1 55 -44 58
-19 4 30 -21 19 -51 60 -67 91 -16 32 -59 94 -97 139 -77 93 -191 256 -184
263 2 3 30 -18 61 -47 31 -28 56 -48 56 -44 0 14 -55 82 -81 101 -21 15 -124
158 -186 256 -2 5 6 7 19 5 16 -1 23 3 22 14 -1 18 -173 288 -235 371 -21 29
-37 54 -35 56 3 2 24 -8 49 -22 70 -42 87 -31 43 27 -22 29 -45 87 -33 87 2 0
42 -18 88 -39 101 -47 166 -59 278 -52 102 7 118 25 32 35 -33 4 -78 17 -101
29 -41 22 -80 70 -67 83 3 4 37 -1 74 -11 38 -9 137 -21 223 -26 85 -4 180
-12 210 -18 160 -28 181 -21 75 25 -36 16 -65 32 -65 36 0 5 1 8 3 8 1 0 38
-7 82 -15 44 -8 135 -14 203 -15 111 0 123 2 120 17 -2 11 -19 21 -45 28 -23
5 -45 14 -50 19 -10 11 165 1 236 -15 44 -9 56 -9 67 3 12 11 12 21 4 42 -20
54 -3 66 21 14 20 -44 54 -66 123 -79 89 -16 242 -8 290 15 49 25 79 70 72
114 -3 17 -1 32 3 32 16 0 29 -25 33 -60 4 -50 27 -49 110 4 39 25 75 46 80
46 19 0 5 -30 -33 -74 -22 -25 -36 -46 -31 -46 5 0 72 18 148 41 77 22 184 53
239 68 55 15 110 33 122 39 50 27 44 2 -13 -54 -31 -30 -44 -48 -37 -55 12
-12 137 33 323 114 69 30 144 60 167 66 23 6 45 16 48 21 11 18 25 10 25 -14z
m456 -394 c-9 -49 -21 -1047 -20 -1655 1 -329 -2 -597 -6 -595 -16 6 -680 667
-680 677 0 5 35 56 78 113 43 57 98 132 122 168 111 165 242 330 308 389 77
68 92 97 45 88 -16 -3 -36 -9 -46 -13 -15 -6 -13 5 16 62 19 38 49 109 68 157
27 72 31 92 21 107 -9 15 -5 34 23 102 54 135 68 258 30 258 -8 0 -15 4 -15 9
0 13 29 136 36 155 10 25 26 7 20 -22z m-3431 -284 c72 -111 73 -113 47 -99
-21 11 -32 6 -32 -15 0 -8 30 -57 67 -111 37 -54 77 -113 90 -132 13 -19 22
-46 21 -60 -2 -31 101 -188 209 -317 64 -76 103 -132 103 -146 0 -4 -10 -8
-22 -10 -74 -10 16 -121 195 -239 66 -43 124 -79 128 -79 19 0 8 -19 -13 -22
-41 -6 -28 -26 34 -51 34 -13 64 -29 65 -34 2 -5 -121 -122 -274 -259 -152
-137 -304 -274 -337 -305 -34 -31 -83 -75 -111 -99 -27 -23 -78 -69 -113 -103
-34 -33 -65 -57 -69 -54 -9 9 -12 159 -23 927 -9 651 -23 1126 -35 1248 -3 28
-2 52 2 52 5 0 35 -42 68 -92z m3027 -1635 c177 -175 339 -334 358 -353 36
-35 36 -37 36 -115 -1 -79 -1 -80 -26 -77 -14 1 -74 27 -135 57 -60 29 -122
56 -137 59 -21 5 -27 12 -25 29 2 22 -1 22 -138 29 -98 5 -166 14 -225 30
l-85 23 -63 184 -62 185 39 46 c55 65 100 138 112 182 5 21 14 38 19 38 6 0
155 -143 332 -317z m-2044 277 c41 -29 126 -135 120 -148 -9 -21 -1501 -2252
-1505 -2252 -3 0 -3 19 0 43 4 23 1 240 -5 482 l-10 440 60 55 c32 30 113 104
178 164 169 155 169 155 169 287 l1 109 85 77 c47 43 193 175 324 293 131 118
304 274 384 347 80 73 149 132 152 133 3 0 24 -13 47 -30z m192 -199 c22 -15
100 -54 174 -85 74 -32 140 -63 146 -71 8 -9 -3 -67 -41 -221 -41 -166 -56
-213 -74 -229 -13 -11 -69 -45 -126 -75 -101 -54 -162 -105 -271 -227 -25 -28
-48 -44 -72 -48 -19 -4 -40 -13 -46 -20 -10 -12 1 -24 48 -50 1 -1 -11 -31
-27 -67 -45 -99 -70 -179 -102 -332 -17 -78 -43 -194 -60 -259 -61 -244 -70
-373 -44 -672 19 -226 19 -291 -6 -551 -24 -262 -26 -289 -28 -376 l-1 -68
-537 0 -536 0 5 536 6 535 768 1154 c423 635 772 1154 777 1154 4 1 25 -12 47
-28z m1383 -208 c27 -82 51 -154 54 -160 14 -37 -122 19 -157 64 -24 31 -34
82 -26 127 6 33 59 116 74 116 4 0 29 -66 55 -147z m-970 -22 c68 -75 72 -163
10 -232 -35 -39 -153 -122 -161 -114 -10 10 91 385 103 385 7 0 29 -18 48 -39z
m2880 -1211 c90 -85 171 -165 180 -177 16 -20 18 -72 26 -520 9 -469 8 -499
-9 -523 -20 -29 -18 -116 6 -188 10 -32 14 -104 14 -282 l0 -240 -22 -1 c-118
-3 -254 4 -259 13 -4 6 -10 51 -14 102 -3 50 -8 109 -10 131 -2 22 -7 77 -10
122 -3 45 -19 129 -35 188 -17 58 -30 107 -30 110 0 3 9 0 20 -7 14 -9 23 -9
30 -2 14 14 -14 77 -85 184 -97 149 -106 173 -121 344 -9 98 -20 170 -34 206
-11 30 -20 55 -20 56 0 1 15 1 33 0 30 -1 32 1 35 35 2 29 -6 48 -42 100 -59
82 -98 157 -91 170 4 6 30 7 66 3 51 -6 59 -4 59 10 0 9 -10 20 -22 25 -39 15
-76 63 -128 166 -36 72 -46 101 -37 107 7 4 41 8 77 9 36 1 94 5 130 9 126 14
113 21 293 -150z"/>
<path d="M3680 7084 c-151 -41 -240 -150 -240 -294 0 -116 62 -216 162 -261
42 -19 70 -24 138 -24 74 0 93 4 143 29 138 69 201 224 151 373 -32 98 -89
153 -186 179 -66 17 -98 17 -168 -2z m208 -43 c81 -42 132 -124 132 -210 l-1
-36 -24 49 c-49 101 -136 164 -237 173 -72 7 -133 -14 -182 -63 -47 -47 -66
-109 -66 -218 0 -104 -15 -107 -35 -7 -34 160 58 295 225 332 52 12 145 2 188
-20z"/>
<path d="M2642 6835 c-126 -39 -202 -147 -202 -288 0 -60 5 -83 25 -122 14
-26 24 -49 23 -50 -2 -2 -43 16 -93 38 -75 34 -100 41 -151 41 -100 -1 -176
-57 -204 -151 -16 -53 -1 -124 46 -214 74 -140 195 -254 524 -489 50 -36 146
-108 213 -160 236 -185 249 -190 518 -197 256 -7 339 9 437 86 72 57 176 200
332 455 35 58 144 220 299 448 144 211 193 337 157 405 -26 51 -62 73 -120 73
-120 0 -287 -71 -445 -188 -51 -38 -112 -75 -135 -82 -68 -21 -151 -14 -266
22 -99 31 -113 33 -250 33 -136 -1 -151 -3 -235 -32 -49 -17 -91 -30 -92 -30
-1 1 3 23 9 49 14 61 -2 162 -38 235 -28 59 -85 104 -154 123 -49 14 -147 11
-198 -5z m236 -42 c65 -31 105 -88 123 -172 16 -78 7 -172 -21 -211 -12 -17
-24 -29 -26 -27 -2 2 3 25 12 51 21 60 15 196 -10 244 -71 137 -285 152 -394
27 -42 -47 -52 -74 -52 -135 0 -70 31 -133 96 -196 47 -45 53 -54 35 -54 -79
0 -181 126 -181 225 0 88 56 190 129 233 98 57 192 62 289 15z m1633 -126 c83
-63 32 -201 -190 -517 -68 -96 -180 -265 -248 -375 -157 -251 -202 -315 -279
-391 -43 -43 -79 -69 -120 -85 -56 -23 -70 -24 -289 -24 -281 0 -312 8 -445
111 -97 75 -346 261 -379 284 -258 175 -425 348 -481 496 -26 69 -25 107 1
162 26 53 78 90 141 98 53 7 87 -2 212 -62 115 -54 240 -88 331 -88 78 0 98 8
211 84 124 84 216 111 381 111 90 0 123 -5 235 -37 109 -30 142 -35 202 -32
85 5 121 21 235 106 99 74 177 116 276 148 77 25 180 31 206 11z"/>
<path d="M4249 6492 c-63 -32 -164 -90 -225 -129 -142 -92 -190 -108 -297
-100 -64 4 -101 14 -172 44 -85 36 -96 38 -196 38 l-105 0 -167 -85 -168 -84
-82 1 c-87 1 -293 33 -368 57 -24 8 -71 24 -103 35 -33 12 -81 21 -107 21 -40
0 -51 -4 -69 -27 -17 -22 -21 -37 -17 -66 6 -47 27 -71 134 -151 44 -33 129
-105 187 -159 154 -143 248 -220 371 -302 205 -138 286 -162 508 -152 238 11
340 37 420 107 27 24 80 96 136 187 113 182 184 282 337 474 66 82 131 171
146 197 34 58 38 126 9 142 -34 18 -56 12 -172 -48z m-755 -192 c11 -11 -23
-270 -35 -270 -5 0 -9 3 -9 8 0 4 -9 65 -20 136 -10 72 -16 134 -13 139 6 10
63 1 77 -13z"/>
<path d="M3586 4868 c-17 -19 -17 -22 -2 -30 17 -10 22 -38 6 -38 -14 0 -13
-27 2 -32 6 -2 12 -29 14 -62 1 -32 5 -61 9 -64 13 -13 35 -75 35 -98 0 -13 9
-28 21 -35 16 -8 20 -18 17 -41 -4 -23 -1 -32 13 -35 24 -7 42 -55 34 -91 -5
-23 -2 -30 12 -34 24 -6 49 -94 32 -114 -9 -11 -8 -18 5 -32 21 -24 21 -72 1
-72 -8 0 -15 -5 -15 -10 0 -6 7 -13 15 -16 18 -7 21 -74 3 -92 -8 -8 -8 -15 0
-25 12 -14 6 -53 -11 -74 -5 -7 -7 -23 -4 -35 7 -28 -8 -101 -22 -106 -5 -2
-7 -19 -4 -39 5 -28 2 -39 -13 -50 -13 -9 -15 -16 -8 -21 7 -4 9 -23 5 -52 -5
-35 -10 -44 -24 -42 -10 2 -17 -3 -17 -13 0 -8 4 -15 10 -15 5 0 15 -10 21
-22 10 -18 8 -24 -10 -39 -25 -20 -27 -29 -6 -29 19 0 30 -28 39 -97 6 -46 4
-53 -14 -63 -24 -13 -16 -33 10 -25 25 8 37 -15 16 -31 -17 -12 -16 -14 3 -33
28 -28 28 -82 0 -99 -22 -14 -18 -27 9 -27 15 0 16 -10 13 -67 -2 -41 1 -68 7
-68 15 0 22 27 22 89 0 31 5 62 12 69 8 8 8 15 1 24 -6 7 -13 28 -17 47 -5 27
-2 37 14 48 26 19 25 33 -2 30 -29 -3 -36 29 -11 49 17 13 17 14 -4 20 -24 7
-29 16 -39 87 -5 39 -4 47 10 47 9 0 16 7 16 15 0 8 -7 15 -15 15 -24 0 -29
29 -10 50 14 16 15 23 6 34 -7 8 -11 29 -9 47 2 25 9 35 26 39 30 7 33 24 5
28 -37 5 -27 43 15 56 12 4 22 14 22 23 0 9 -6 13 -15 10 -8 -4 -17 -2 -20 3
-9 15 17 114 34 128 12 10 13 15 4 18 -14 6 -17 52 -5 70 4 7 16 13 26 15 25
5 23 23 -4 27 -16 3 -20 11 -20 38 0 19 6 43 13 54 9 15 9 23 1 28 -21 13 -27
70 -10 94 21 30 20 41 -3 35 -15 -4 -21 5 -34 52 -10 35 -12 60 -6 65 14 15
11 26 -6 26 -8 0 -25 21 -37 46 -21 43 -22 46 -5 55 26 15 21 32 -8 25 -27 -7
-36 11 -10 20 8 4 15 12 15 20 0 10 -7 13 -25 8 -22 -6 -27 -1 -46 42 -20 43
-20 48 -5 59 22 17 21 38 -3 30 -14 -4 -20 0 -25 17 -11 42 -6 65 17 81 l22
16 -22 7 c-35 10 -29 34 8 34 38 0 35 24 -4 28 -15 2 -27 8 -27 13 0 15 -24 8
-44 -13z"/>
<path d="M2346 2472 c-3 -5 -14 -33 -26 -64 -11 -30 -30 -64 -42 -74 -23 -21
-23 -26 -3 59 11 44 -20 34 -35 -13 -12 -38 -50 -85 -50 -63 0 6 7 30 15 53
18 52 18 50 1 50 -23 0 -53 -114 -37 -139 8 -12 13 -12 33 1 17 11 27 12 40 5
13 -9 22 -7 38 8 45 40 101 167 80 180 -5 3 -11 2 -14 -3z"/>
</g>
</svg>
